<svg id="Layer_1" data-name="Layer 1" xmlns="http://www.w3.org/2000/svg" viewBox="0 0 35 35"><defs><style>.cls-1{fill:#fff;}</style></defs><title>icon</title><path class="cls-1" d="M12.85352,30.82617a1,1,0,0,1-1-1V26.69629H5.625a0.99974,0.99974,0,0,1-1-1V9.17383a0.99974,0.99974,0,0,1,1-1h23.75a0.99974,0.99974,0,0,1,1,1V25.69629a0.99974,0.99974,0,0,1-1,1H17.39795l-3.8374,3.83691A0.99978,0.99978,0,0,1,12.85352,30.82617ZM6.625,24.69629h6.22852a0.99974,0.99974,0,0,1,1,1v1.71582l2.42334-2.42285a1.00013,1.00013,0,0,1,.707-0.293H28.375V10.17383H6.625V24.69629Z"/></svg>