<svg id="Layer_1" data-name="Layer 1" xmlns="http://www.w3.org/2000/svg" viewBox="0 0 70 70"><defs><style>.cls-1{fill:#254a99;}</style></defs><title>Artboard 13</title><path class="cls-1" d="M56.77,21.72l2.28-2.28h0a2,2,0,0,0,2.82-2.83l-2.82-2.83a2,2,0,0,0-2.83,2.83h0l-2.28,2.28a28.81,28.81,0,0,0-12.7-6.42v-8h2.25a2,2,0,1,0,0-4h-17a2,2,0,0,0,0,4h2.25v8a28.9,28.9,0,1,0,28,9.25Zm-24-17.25h4.48v7.41c-.74-.06-1.48-.1-2.24-.1s-1.5,0-2.24.1ZM35,65.53A24.88,24.88,0,1,1,59.87,40.66,24.9,24.9,0,0,1,35,65.53Z"/><path class="cls-1" d="M23.68,26.51a2,2,0,1,0-2.82,2.83L33.59,42.07a2,2,0,1,0,2.82-2.83Z"/></svg>