<svg id="Layer_1" data-name="Layer 1" xmlns="http://www.w3.org/2000/svg" viewBox="0 0 70 70"><defs><style>.cls-1{fill:#254a99;}</style></defs><title>Artboard 14</title><path class="cls-1" d="M56.22,42.9a13.25,13.25,0,0,0-10.88,5.64L26.45,39.1a13.26,13.26,0,0,0,0-8.2l18.89-9.45a13.3,13.3,0,1,0-2.44-7.67,13.18,13.18,0,0,0,.67,4.09L24.65,27.33a13.32,13.32,0,1,0,0,15.34l18.91,9.46A13.3,13.3,0,1,0,56.22,42.9Zm0-38.43a9.32,9.32,0,1,1-8.33,13.47h0a9.22,9.22,0,0,1-1-4.16A9.33,9.33,0,0,1,56.22,4.47ZM13.78,44.32a9.32,9.32,0,1,1,8.33-13.48h0a9.19,9.19,0,0,1,0,8.32h0A9.26,9.26,0,0,1,13.78,44.32ZM56.22,65.53a9.31,9.31,0,0,1-8.33-13.47h0a9.31,9.31,0,1,1,8.33,13.47Z"/></svg>