<svg id="Layer_1" data-name="Layer 1" xmlns="http://www.w3.org/2000/svg" viewBox="0 0 70 70"><defs><style>.cls-1{fill:#254a99;}</style></defs><title>Artboard 15</title><path class="cls-1" d="M53.39,65.47H35A22.59,22.59,0,0,1,24.62,63.2c-3.7-1.59-7.89-3.39-20.74-3.39a2,2,0,0,1-2-2V32.35a2,2,0,0,1,2-2h8.49c9.09,0,19.22-8.47,19.22-20.63a5.24,5.24,0,0,1,5.52-5.19A6.51,6.51,0,0,1,42,6.75a9.34,9.34,0,0,1,2.11,6.42c0,4.18-1.42,10.77-2.27,14.36H61.88a6.24,6.24,0,0,1,2.71,11.86,6.15,6.15,0,0,1,.7,2.87,6.25,6.25,0,0,1-3.53,5.62,6.14,6.14,0,0,1,.7,2.86,6.24,6.24,0,0,1-3.53,5.62,6.18,6.18,0,0,1,.7,2.87A6.25,6.25,0,0,1,53.39,65.47ZM5.88,55.83C18,56,22.54,58,26.19,59.53A19,19,0,0,0,35,61.47H53.39a2.24,2.24,0,1,0,0-4.48,2,2,0,0,1,0-4h2.83a2.25,2.25,0,0,0,0-4.49,2,2,0,0,1,0-4h2.83a2.25,2.25,0,0,0,0-4.49,2,2,0,0,1,0-4h2.83a2.24,2.24,0,0,0,0-4.48H39.24A2,2,0,0,1,37.31,29c0-.1,2.76-10.51,2.76-15.84A5.67,5.67,0,0,0,39,9.4a2.47,2.47,0,0,0-1.86-.87c-.57,0-1.52.25-1.52,1.19,0,14.52-12.24,24.63-23.22,24.63H5.88Z"/></svg>