<svg id="Layer_1" data-name="Layer 1" xmlns="http://www.w3.org/2000/svg" viewBox="0 0 70 70"><defs><style>.cls-1{fill:#254a99;}</style></defs><title>Artboard 16</title><path class="cls-1" d="M67.53,64.83H66.7V24.39a2,2,0,0,0-2-2H56.22a2,2,0,0,0-2,2V64.83H49.73V35.71a2,2,0,0,0-2-2H39.24a2,2,0,0,0-2,2V64.83H32.76V47a2,2,0,0,0-2-2H22.27a2,2,0,0,0-2,2V64.83H15.78V58.34a2,2,0,0,0-2-2H5.3a2,2,0,0,0-2,2v6.49H2.47a2,2,0,1,0,0,4H67.53a2,2,0,0,0,0-4Zm-60.23,0V60.34h4.48v4.49Zm17,0V49h4.49V64.83Zm17,0V37.71h4.49V64.83Zm17,0V26.39H62.7V64.83Z"/><path class="cls-1" d="M9.54,40.46a2,2,0,0,0,1.11-.34L57.94,8.59l-.88,7.07a2,2,0,0,0,1.74,2.23l.25,0a2,2,0,0,0,2-1.76L62.44,4.76s0-.08,0-.12a1.33,1.33,0,0,0,0-.2c0-.07,0-.13,0-.19a1.77,1.77,0,0,0,0-.2,1.21,1.21,0,0,0,0-.18l-.07-.18c0-.07-.07-.13-.1-.19a.53.53,0,0,0-.06-.1l0-.06,0-.07-.09-.09A.86.86,0,0,0,61.81,3l-.15-.12-.17-.12-.15-.08-.2-.08A.49.49,0,0,0,61,2.59l-.22,0-.07,0L49.38,1.19a2,2,0,0,0-.47,4l5.92.7L8.43,36.79a2,2,0,0,0,1.11,3.67Z"/></svg>