<svg id="Layer_1" data-name="Layer 1" xmlns="http://www.w3.org/2000/svg" viewBox="0 0 13.25 13.58"><defs><style>.cls-1{fill:#367dbf;}.cls-2{fill:#5dc2ef;}</style></defs><title>Artboard 33</title><path class="cls-1" d="M5.29,9.21a.47.47,0,0,1-.35-.15L3.6,7.69a.51.51,0,0,1,0-.71.5.5,0,0,1,.71,0l1,1L8.94,4.52a.5.5,0,1,1,.69.72l-4,3.83A.52.52,0,0,1,5.29,9.21Z"/><path class="cls-2" d="M6.63,13.58A6.71,6.71,0,0,1,0,6.79,6.72,6.72,0,0,1,6.63,0a6.72,6.72,0,0,1,6.62,6.79A6.71,6.71,0,0,1,6.63,13.58ZM6.63,1A5.72,5.72,0,0,0,1,6.79a5.71,5.71,0,0,0,5.63,5.79,5.71,5.71,0,0,0,5.62-5.79A5.71,5.71,0,0,0,6.63,1Z"/></svg>