<svg id="Layer_1" data-name="Layer 1" xmlns="http://www.w3.org/2000/svg" viewBox="0 0 60 60"><defs><style>.cls-1{fill:#367dbf;}.cls-2{fill:#5dc2ef;}</style></defs><title>Artboard 9</title><path class="cls-1" d="M10.28,32.47a6.17,6.17,0,1,1,6.16-6.17A6.17,6.17,0,0,1,10.28,32.47Zm0-9.87A3.7,3.7,0,1,0,14,26.3,3.7,3.7,0,0,0,10.28,22.6Z"/><path class="cls-1" d="M14,59.58H6.58a1.23,1.23,0,0,1-1.23-1.23V49.26C.81,47.47.42,42.05.42,36.16a1.23,1.23,0,0,1,1.23-1.23H18.91a1.23,1.23,0,0,1,1.23,1.23c0,5.89-.4,11.31-4.93,13.1v9.09A1.23,1.23,0,0,1,14,59.58ZM7.81,57.12h4.93V48.37a1.23,1.23,0,0,1,.93-1.2c3.15-.81,3.91-4.07,4-9.77H2.89c.09,5.7.85,9,4,9.77a1.23,1.23,0,0,1,.92,1.2Z"/><path class="cls-1" d="M49.72,32.47a6.17,6.17,0,1,1,6.16-6.17A6.17,6.17,0,0,1,49.72,32.47Zm0-9.87a3.7,3.7,0,1,0,3.7,3.7A3.7,3.7,0,0,0,49.72,22.6Z"/><path class="cls-1" d="M53.42,59.58H46a1.23,1.23,0,0,1-1.23-1.23V49.26c-4.53-1.79-4.93-7.21-4.93-13.1a1.23,1.23,0,0,1,1.23-1.23H58.35a1.23,1.23,0,0,1,1.23,1.23c0,5.89-.39,11.31-4.93,13.1v9.09A1.23,1.23,0,0,1,53.42,59.58Zm-6.16-2.46h4.93V48.37a1.23,1.23,0,0,1,.92-1.2c3.15-.81,3.91-4.07,4-9.77H42.33c.09,5.7.85,9,4,9.77a1.23,1.23,0,0,1,.93,1.2Z"/><path class="cls-2" d="M30,12.74a6.16,6.16,0,1,1,6.16-6.16A6.16,6.16,0,0,1,30,12.74Zm0-9.86a3.7,3.7,0,1,0,3.7,3.7A3.7,3.7,0,0,0,30,2.88Z"/><path class="cls-2" d="M33.7,39.86H26.3a1.23,1.23,0,0,1-1.23-1.23V29.54c-4.54-1.79-4.93-7.21-4.93-13.1a1.23,1.23,0,0,1,1.23-1.23H38.63a1.23,1.23,0,0,1,1.23,1.23c0,5.89-.39,11.31-4.93,13.1v9.09A1.23,1.23,0,0,1,33.7,39.86ZM27.53,37.4h4.94V28.64a1.23,1.23,0,0,1,.92-1.19c3.15-.81,3.91-4.07,4-9.78H22.61c.09,5.71.85,9,4,9.78a1.23,1.23,0,0,1,.92,1.19Z"/></svg>