<svg id="Layer_1" data-name="Layer 1" xmlns="http://www.w3.org/2000/svg" viewBox="0 0 60 60"><defs><style>.cls-1{fill:#5dc2ef;}.cls-2{fill:#367dbf;}</style></defs><title>Artboard 10</title><path class="cls-1" d="M33.7,37.4A11.1,11.1,0,1,1,44.79,26.3,11.11,11.11,0,0,1,33.7,37.4Zm0-19.73a8.63,8.63,0,1,0,8.62,8.63A8.64,8.64,0,0,0,33.7,17.67Z"/><polygon class="cls-1" points="8.83 52.91 7.09 51.16 25.87 32.43 27.62 34.17 8.83 52.91"/><polygon class="cls-1" points="41.55 20.21 39.81 18.47 51.16 7.09 52.91 8.84 41.55 20.21"/><rect class="cls-1" x="15.42" y="10.32" width="2.47" height="17.36" transform="translate(-7.37 26.82) rotate(-66.8)"/><rect class="cls-1" x="45.41" y="28.34" width="2.47" height="9.65" transform="translate(-1.82 63.6) rotate(-67.54)"/><rect class="cls-1" x="32.46" y="36.16" width="2.47" height="14.79"/><path class="cls-2" d="M5.35,18.91A4.93,4.93,0,1,1,10.28,14,4.94,4.94,0,0,1,5.35,18.91Zm0-7.4A2.47,2.47,0,1,0,7.81,14,2.48,2.48,0,0,0,5.35,11.51Z"/><path class="cls-2" d="M54.65,10.28a4.93,4.93,0,1,1,4.93-4.93A4.93,4.93,0,0,1,54.65,10.28Zm0-7.4a2.47,2.47,0,1,0,2.47,2.47A2.47,2.47,0,0,0,54.65,2.88Z"/><path class="cls-2" d="M5.35,59.58a4.93,4.93,0,1,1,4.93-4.93A4.93,4.93,0,0,1,5.35,59.58Zm0-7.39a2.47,2.47,0,1,0,2.46,2.46A2.47,2.47,0,0,0,5.35,52.19Z"/><path class="cls-2" d="M33.7,59.58a4.93,4.93,0,1,1,4.93-4.93A4.93,4.93,0,0,1,33.7,59.58Zm0-7.39a2.47,2.47,0,1,0,2.46,2.46A2.47,2.47,0,0,0,33.7,52.19Z"/><path class="cls-2" d="M54.65,41.09a4.93,4.93,0,1,1,4.93-4.93A4.93,4.93,0,0,1,54.65,41.09Zm0-7.39a2.47,2.47,0,1,0,2.47,2.46A2.46,2.46,0,0,0,54.65,33.7Z"/></svg>