<svg id="Layer_1" data-name="Layer 1" xmlns="http://www.w3.org/2000/svg" viewBox="0 0 24 24"><defs><style>.cls-1{fill:#367dbf;}.cls-2{fill:#5dc2ef;}</style></defs><title>Artboard 30</title><path class="cls-1" d="M4.5,18.5h-3A.5.5,0,0,1,1,18V13.93c-.66-.2-1-.85-1-1.93V9a.5.5,0,0,1,.5-.5h5A.5.5,0,0,1,6,9v3c0,1.08-.34,1.73-1,1.93V18A.5.5,0,0,1,4.5,18.5ZM2,17.5H4v-4a.5.5,0,0,1,.5-.5c.22,0,.5,0,.5-1V9.5H1V12c0,1,.28,1,.5,1a.5.5,0,0,1,.5.5Z"/><path class="cls-1" d="M22.5,18.5h-3A.5.5,0,0,1,19,18V13.93c-.66-.2-1-.85-1-1.93V9a.5.5,0,0,1,.5-.5h5A.5.5,0,0,1,24,9v3c0,1.08-.34,1.73-1,1.93V18A.5.5,0,0,1,22.5,18.5Zm-2.5-1h2v-4a.5.5,0,0,1,.5-.5c.22,0,.5,0,.5-1V9.5H19V12c0,1,.28,1,.5,1a.5.5,0,0,1,.5.5Z"/><path class="cls-2" d="M13.5,22.5h-3A.5.5,0,0,1,10,22V16.45A2.5,2.5,0,0,1,8,14V9a.5.5,0,0,1,.5-.5h7A.5.5,0,0,1,16,9v5a2.5,2.5,0,0,1-2,2.45V22A.5.5,0,0,1,13.5,22.5Zm-2.5-1h2V16a.5.5,0,0,1,.5-.5A1.5,1.5,0,0,0,15,14V9.5H9V14a1.5,1.5,0,0,0,1.5,1.5.5.5,0,0,1,.5.5Z"/><path class="cls-1" d="M3,7.5a2,2,0,1,1,2-2A2,2,0,0,1,3,7.5Zm0-3a1,1,0,1,0,1,1A1,1,0,0,0,3,4.5Z"/><path class="cls-1" d="M21,7.5a2,2,0,1,1,2-2A2,2,0,0,1,21,7.5Zm0-3a1,1,0,1,0,1,1A1,1,0,0,0,21,4.5Z"/><path class="cls-2" d="M12,7.5a3,3,0,1,1,3-3A3,3,0,0,1,12,7.5Zm0-5a2,2,0,1,0,2,2A2,2,0,0,0,12,2.5Z"/></svg>