<svg id="Layer_1" data-name="Layer 1" xmlns="http://www.w3.org/2000/svg" xmlns:xlink="http://www.w3.org/1999/xlink" viewBox="0 0 346.18 631.7"><defs><style>.cls-1{fill:url(#linear-gradient);}.cls-2{fill:#ec6b6b;}.cls-3{fill:#254a99;}.cls-4{fill:#fff;}.cls-5{isolation:isolate;}.cls-6{fill:#2b2b6f;}.cls-7{fill:#367dbf;}.cls-8{fill:#5dc2ef;}</style><linearGradient id="linear-gradient" x1="36.94" y1="40.68" x2="363.45" y2="683.38" gradientUnits="userSpaceOnUse"><stop offset="0" stop-color="#254a99"/><stop offset="1" stop-color="#2b2b6f"/></linearGradient></defs><title>Artboard 5</title><polygon class="cls-1" points="300.6 620.32 173.84 631.7 47.09 620.32 47.09 0 173.86 11.38 300.6 0 300.6 620.32"/><polygon class="cls-2" points="209.56 440.74 64.18 453.57 64.18 457.58 209.56 444.75 209.56 440.74"/><polygon class="cls-2" points="209.56 467.25 209.56 463.24 95.57 473.77 139.02 473.77 209.56 467.25"/><rect class="cls-3" x="1.51" y="556.86" width="344.68" height="44.58" rx="22.29" ry="22.29"/><path class="cls-4" d="M53.43,583.84v-7.11H53a.39.39,0,0,1-.36-.19,1.26,1.26,0,0,1-.11-.59v-.27a1.21,1.21,0,0,1,.11-.58.37.37,0,0,1,.36-.19h.47v-1.48a2.8,2.8,0,0,1,.68-2.11,2.55,2.55,0,0,1,1.84-.66c1.09,0,1.63.26,1.63.77a2.37,2.37,0,0,1-.14.68c-.1.3-.21.46-.36.46a1.16,1.16,0,0,1-.27,0l-.36,0a.77.77,0,0,0-.58.2,1.22,1.22,0,0,0-.18.77v1.44h1.14a.37.37,0,0,1,.36.19,1.21,1.21,0,0,1,.11.58V576a1.26,1.26,0,0,1-.11.59.39.39,0,0,1-.36.19H55.69v7.11c0,.34-.31.52-.95.52h-.36C53.74,584.36,53.43,584.18,53.43,583.84Z"/><path class="cls-4" d="M59.19,583.74a2.61,2.61,0,0,1-.72-1.94c0-2.21,1.81-3.32,5.45-3.33v-.68c0-.79-.53-1.19-1.6-1.19a4.06,4.06,0,0,0-1.17.15,7.17,7.17,0,0,0-.88.33,2.7,2.7,0,0,1-.44.17c-.15,0-.33-.17-.53-.51A1.63,1.63,0,0,1,59,576c0-.19.15-.38.46-.57a4.33,4.33,0,0,1,1.25-.46,7.61,7.61,0,0,1,1.71-.18,4.27,4.27,0,0,1,2.83.79,2.65,2.65,0,0,1,.93,2.15v3.61a9.85,9.85,0,0,0,.11,1.8,5,5,0,0,1,.1.69c0,.17-.19.29-.59.38a4.36,4.36,0,0,1-1.06.14.45.45,0,0,1-.42-.26,2.93,2.93,0,0,1-.19-.57c0-.2-.07-.34-.08-.41A4,4,0,0,1,63,584a3.25,3.25,0,0,1-1.72.43A2.85,2.85,0,0,1,59.19,583.74ZM63,582.3a3.13,3.13,0,0,0,.88-.86v-1.37a6.43,6.43,0,0,0-2.31.34,1.18,1.18,0,0,0-.84,1.18,1,1,0,0,0,.29.76,1.13,1.13,0,0,0,.83.28A2.11,2.11,0,0,0,63,582.3Z"/><path class="cls-4" d="M69.61,584.3a3.32,3.32,0,0,1-1.12-.44c-.29-.18-.43-.38-.43-.58a1.45,1.45,0,0,1,.31-.77c.2-.3.38-.46.54-.46a1.61,1.61,0,0,1,.39.17,4.23,4.23,0,0,0,.69.3,2.47,2.47,0,0,0,.84.13c.87,0,1.3-.34,1.3-1a.88.88,0,0,0-.39-.76,5.37,5.37,0,0,0-1.25-.57,4.3,4.3,0,0,1-1.64-1,2.42,2.42,0,0,1-.57-1.73,2.62,2.62,0,0,1,.87-2.07,3.33,3.33,0,0,1,2.31-.78,5.7,5.7,0,0,1,1.77.27c.55.17.83.4.83.69a1.81,1.81,0,0,1-.26.78c-.17.32-.32.48-.47.48l-.48-.2a2.7,2.7,0,0,0-1.08-.2,1.6,1.6,0,0,0-.87.21.66.66,0,0,0-.32.58.89.89,0,0,0,.23.63,1.9,1.9,0,0,0,.54.4q.29.15,1.05.45a4,4,0,0,1,1.53,1,2.53,2.53,0,0,1,.48,1.66,2.74,2.74,0,0,1-.92,2.15,3.65,3.65,0,0,1-2.48.82A5.9,5.9,0,0,1,69.61,584.3Z"/><path class="cls-4" d="M77.18,583.78a2.79,2.79,0,0,1-.7-2.09v-5H76a.41.41,0,0,1-.37-.18,1.12,1.12,0,0,1-.12-.6v-.27a1.11,1.11,0,0,1,.12-.59.41.41,0,0,1,.37-.18h.48l.24-1.77c.06-.34.33-.52.83-.52H78c.51,0,.77.18.77.52v1.77h1.1a.41.41,0,0,1,.37.18,1.11,1.11,0,0,1,.12.59V576a1.12,1.12,0,0,1-.12.6.41.41,0,0,1-.37.18h-1.1v4.93a1.11,1.11,0,0,0,.19.75.71.71,0,0,0,.57.22,1.27,1.27,0,0,0,.34,0l.25,0c.15,0,.27.15.36.46a2.43,2.43,0,0,1,.15.67c0,.51-.53.76-1.59.76A2.51,2.51,0,0,1,77.18,583.78Z"/><path class="cls-4" d="M83.06,583.22a5.06,5.06,0,0,1-1.14-3.54A5.24,5.24,0,0,1,83.05,576a4.09,4.09,0,0,1,3.17-1.21A3.37,3.37,0,0,1,89.11,576a5.55,5.55,0,0,1,1,3.4,1,1,0,0,1-.33.57c-.21.25-.38.37-.48.37h-5a2.53,2.53,0,0,0,.66,1.72,2.31,2.31,0,0,0,1.64.53,4.47,4.47,0,0,0,2-.5,1.19,1.19,0,0,1,.36-.13c.16,0,.33.16.53.48a1.58,1.58,0,0,1,.3.73c0,.22-.17.43-.52.63a4.85,4.85,0,0,1-1.29.45,7.54,7.54,0,0,1-1.43.16A4.45,4.45,0,0,1,83.06,583.22Zm4.75-4.44a2.72,2.72,0,0,0-.41-1.6,1.36,1.36,0,0,0-1.2-.58c-1.11,0-1.75.73-1.92,2.18Z"/><path class="cls-4" d="M92.07,583.84v-5.91a9.42,9.42,0,0,0-.11-1.76,5,5,0,0,1-.1-.69c0-.16.19-.29.59-.38a4.91,4.91,0,0,1,1.06-.14.46.46,0,0,1,.42.25,2.55,2.55,0,0,1,.18.53c0,.19.07.32.09.39a2.35,2.35,0,0,1,2-1.35,1.07,1.07,0,0,1,.8.26.85.85,0,0,1,.25.61,2.87,2.87,0,0,1-.15.84c-.09.33-.21.49-.36.49a1.82,1.82,0,0,1-.35-.08,1.59,1.59,0,0,0-.53-.08,1.43,1.43,0,0,0-.94.34,2.6,2.6,0,0,0-.57.63v6.05c0,.34-.32.52-1,.52H93C92.39,584.36,92.07,584.18,92.07,583.84Z"/><path class="cls-4" d="M97.55,586.43c-.15-.06-.22-.15-.22-.27a.88.88,0,0,1,.06-.28c0-.12.08-.2.1-.26a8.82,8.82,0,0,0,.46-1.34,7.56,7.56,0,0,0,.17-1.72.65.65,0,0,1,.23-.53,1.13,1.13,0,0,1,.72-.19h.29a1.11,1.11,0,0,1,.71.19.59.59,0,0,1,.24.49,4.86,4.86,0,0,1-.39,1.9,5.34,5.34,0,0,1-.94,1.51,1.51,1.51,0,0,1-.93.59A1.35,1.35,0,0,1,97.55,586.43Z"/><path class="cls-4" d="M119.27,577.7v6.14c0,.34-.32.52-1,.52H118c-.64,0-1-.18-1-.52V578a1.16,1.16,0,0,0-1.29-1.33,1.55,1.55,0,0,0-1,.35,3.09,3.09,0,0,0-.69.77v6.05c0,.34-.31.52-1,.52h-.34a1.48,1.48,0,0,1-.73-.13.41.41,0,0,1-.23-.39V578a1.16,1.16,0,0,0-1.29-1.33,1.6,1.6,0,0,0-1.07.39,2.43,2.43,0,0,0-.62.73v6.05c0,.34-.32.52-1,.52h-.36c-.64,0-.95-.18-.95-.52v-5.91a10.39,10.39,0,0,0-.11-1.76,5.88,5.88,0,0,1-.11-.69c0-.16.2-.29.6-.38A4.83,4.83,0,0,1,108,575a.43.43,0,0,1,.41.25,2.1,2.1,0,0,1,.19.53c0,.19.07.32.08.39a4,4,0,0,1,1.18-1,3.1,3.1,0,0,1,1.52-.39,2.31,2.31,0,0,1,2.43,1.41,4.06,4.06,0,0,1,1.23-1,3.29,3.29,0,0,1,1.58-.41C118.37,574.78,119.27,575.75,119.27,577.7Z"/><path class="cls-4" d="M122.46,583.21a6.42,6.42,0,0,1,0-7.19,4.72,4.72,0,0,1,6.38,0,6.49,6.49,0,0,1,0,7.2,4.74,4.74,0,0,1-6.38,0Zm4.67-1.33a5.69,5.69,0,0,0,0-4.53,1.86,1.86,0,0,0-3,0,5.48,5.48,0,0,0,0,4.53,1.86,1.86,0,0,0,3,0Z"/><path class="cls-4" d="M132.05,583.84v-5.91a10.39,10.39,0,0,0-.11-1.76,5.88,5.88,0,0,1-.11-.69c0-.16.2-.29.6-.38a4.83,4.83,0,0,1,1.06-.14.43.43,0,0,1,.41.25,2.1,2.1,0,0,1,.19.53c0,.19.07.32.08.39a2.38,2.38,0,0,1,2-1.35,1.07,1.07,0,0,1,.8.26.9.9,0,0,1,.25.61,2.87,2.87,0,0,1-.15.84c-.09.33-.22.49-.36.49a1.67,1.67,0,0,1-.35-.08,1.59,1.59,0,0,0-.53-.08,1.43,1.43,0,0,0-.94.34,2.4,2.4,0,0,0-.57.63v6.05c0,.34-.33.52-1,.52H133C132.37,584.36,132.05,584.18,132.05,583.84Z"/><path class="cls-4" d="M139.32,583.22a5.05,5.05,0,0,1-1.13-3.54,5.24,5.24,0,0,1,1.12-3.69,4.12,4.12,0,0,1,3.18-1.21,3.37,3.37,0,0,1,2.89,1.26,5.55,5.55,0,0,1,.94,3.4,1,1,0,0,1-.32.57c-.22.25-.38.37-.49.37h-5a2.48,2.48,0,0,0,.65,1.72,2.35,2.35,0,0,0,1.65.53,4.47,4.47,0,0,0,2-.5,1.19,1.19,0,0,1,.36-.13c.15,0,.33.16.53.48a1.58,1.58,0,0,1,.3.73c0,.22-.18.43-.53.63a4.65,4.65,0,0,1-1.28.45,7.54,7.54,0,0,1-1.43.16A4.49,4.49,0,0,1,139.32,583.22Zm4.75-4.44a2.72,2.72,0,0,0-.4-1.6,1.36,1.36,0,0,0-1.2-.58c-1.12,0-1.76.73-1.92,2.18Z"/><path class="cls-4" d="M153.34,583.22a5.1,5.1,0,0,1-1.13-3.54,5.24,5.24,0,0,1,1.12-3.69,4.12,4.12,0,0,1,3.18-1.21A3.37,3.37,0,0,1,159.4,576a5.55,5.55,0,0,1,.94,3.4,1,1,0,0,1-.32.57c-.21.25-.38.37-.49.37h-5a2.58,2.58,0,0,0,.65,1.72,2.35,2.35,0,0,0,1.65.53,4.47,4.47,0,0,0,2-.5,1.19,1.19,0,0,1,.36-.13c.16,0,.33.16.53.48a1.58,1.58,0,0,1,.3.73c0,.22-.18.43-.52.63a4.85,4.85,0,0,1-1.29.45,7.54,7.54,0,0,1-1.43.16A4.49,4.49,0,0,1,153.34,583.22Zm4.75-4.44a2.72,2.72,0,0,0-.4-1.6,1.36,1.36,0,0,0-1.2-.58c-1.11,0-1.76.73-1.92,2.18Z"/><path class="cls-4" d="M172.28,575.1a1.21,1.21,0,0,1,.11.58V576a1.26,1.26,0,0,1-.11.59.39.39,0,0,1-.36.19h-1.14v7.11c0,.34-.31.52-.95.52h-.36c-.64,0-.95-.18-.95-.52v-7.11h-3.59v7.11c0,.34-.31.52-1,.52h-.36c-.64,0-1-.18-1-.52v-7.11h-.47a.39.39,0,0,1-.36-.19,1.26,1.26,0,0,1-.11-.59v-.27a1.21,1.21,0,0,1,.11-.58.37.37,0,0,1,.36-.19h.47v-1.48a2.8,2.8,0,0,1,.68-2.11,2.55,2.55,0,0,1,1.84-.66c1.09,0,1.63.26,1.63.77a2.37,2.37,0,0,1-.14.68c-.1.3-.21.46-.36.46a1.16,1.16,0,0,1-.27,0l-.36,0a.77.77,0,0,0-.58.2,1.22,1.22,0,0,0-.18.77v1.44h3.59v-1.48a2.8,2.8,0,0,1,.68-2.11,2.55,2.55,0,0,1,1.84-.66c1.09,0,1.63.26,1.63.77a2.37,2.37,0,0,1-.14.68c-.1.3-.22.46-.36.46a1.16,1.16,0,0,1-.27,0l-.36,0a.73.73,0,0,0-.57.2,1.15,1.15,0,0,0-.19.77v1.44h1.14A.37.37,0,0,1,172.28,575.1Z"/><path class="cls-4" d="M174,573v-1.17c0-.39.39-.59,1.17-.59s1.13.2,1.13.59V573a.46.46,0,0,1-.28.45,2,2,0,0,1-.89.15C174.39,573.56,174,573.36,174,573Zm0,10.88v-8.45c0-.34.32-.52,1-.52h.36c.64,0,.95.18.95.52v8.45c0,.34-.31.52-.95.52H175C174.34,584.36,174,584.18,174,583.84Z"/><path class="cls-4" d="M179.46,583.28a5.13,5.13,0,0,1-1.12-3.64,5.05,5.05,0,0,1,1.17-3.67,4.51,4.51,0,0,1,3.35-1.19,6,6,0,0,1,2,.31c.6.2.9.47.9.79a1.61,1.61,0,0,1-.31.75c-.21.33-.38.49-.52.49a1.63,1.63,0,0,1-.27-.11,3.84,3.84,0,0,0-1.71-.41,2,2,0,0,0-1.68.72,3.81,3.81,0,0,0-.55,2.27,4,4,0,0,0,.53,2.3,1.93,1.93,0,0,0,1.7.74,3.45,3.45,0,0,0,1-.12,6.22,6.22,0,0,0,.88-.31,1,1,0,0,1,.27-.09c.17,0,.35.15.54.47a1.57,1.57,0,0,1,.29.73c0,.24-.18.45-.53.62a4.44,4.44,0,0,1-1.26.39,6.9,6.9,0,0,1-1.26.13A4.46,4.46,0,0,1,179.46,583.28Z"/><path class="cls-4" d="M187.51,573v-1.17c0-.39.38-.59,1.17-.59s1.13.2,1.13.59V573a.46.46,0,0,1-.28.45,2,2,0,0,1-.89.15C187.88,573.56,187.51,573.36,187.51,573Zm0,10.88v-8.45c0-.34.32-.52,1-.52h.36c.63,0,.95.18.95.52v8.45c0,.34-.32.52-.95.52h-.36C187.84,584.36,187.52,584.18,187.52,583.84Z"/><path class="cls-4" d="M193,583.22a5.1,5.1,0,0,1-1.13-3.54A5.24,5.24,0,0,1,193,576a4.12,4.12,0,0,1,3.18-1.21,3.37,3.37,0,0,1,2.89,1.26,5.55,5.55,0,0,1,1,3.4,1,1,0,0,1-.33.57c-.21.25-.38.37-.48.37h-5a2.58,2.58,0,0,0,.65,1.72,2.35,2.35,0,0,0,1.65.53,4.47,4.47,0,0,0,2-.5,1.19,1.19,0,0,1,.36-.13c.16,0,.34.16.53.48a1.58,1.58,0,0,1,.3.73c0,.22-.17.43-.52.63a4.85,4.85,0,0,1-1.29.45,7.54,7.54,0,0,1-1.43.16A4.49,4.49,0,0,1,193,583.22Zm4.76-4.44a2.72,2.72,0,0,0-.41-1.6,1.36,1.36,0,0,0-1.2-.58c-1.11,0-1.75.73-1.92,2.18Z"/><path class="cls-4" d="M202,583.84v-5.91a10.65,10.65,0,0,0-.1-1.76,4.22,4.22,0,0,1-.11-.69c0-.16.2-.29.59-.38a4.92,4.92,0,0,1,1.07-.14.45.45,0,0,1,.43.26,3.86,3.86,0,0,1,.19.54c0,.19.07.31.08.37a3.68,3.68,0,0,1,1.19-1,3.33,3.33,0,0,1,1.53-.38c1.82,0,2.73,1,2.73,2.92v6.14a.41.41,0,0,1-.22.39,1.51,1.51,0,0,1-.73.13h-.34c-.64,0-1-.18-1-.52V578a1.19,1.19,0,0,0-1.35-1.33,1.65,1.65,0,0,0-1,.33,2.69,2.69,0,0,0-.75.79v6.05c0,.34-.31.52-.95.52H203C202.31,584.36,202,584.18,202,583.84Z"/><path class="cls-4" d="M213,583.78a2.78,2.78,0,0,1-.69-2.09v-5h-.49a.41.41,0,0,1-.37-.18,1.14,1.14,0,0,1-.11-.6v-.27a1.12,1.12,0,0,1,.11-.59.41.41,0,0,1,.37-.18h.49l.23-1.77c.06-.34.34-.52.83-.52h.43c.52,0,.78.18.78.52v1.77h1.09a.41.41,0,0,1,.37.18,1.11,1.11,0,0,1,.12.59V576a1.12,1.12,0,0,1-.12.6.41.41,0,0,1-.37.18H214.6v4.93a1.11,1.11,0,0,0,.19.75.68.68,0,0,0,.56.22,1.22,1.22,0,0,0,.34,0l.26,0c.14,0,.26.15.36.46a2.73,2.73,0,0,1,.14.67c0,.51-.53.76-1.58.76A2.53,2.53,0,0,1,213,583.78Z"/><path class="cls-4" d="M217.11,586.43c-.15-.06-.23-.15-.23-.27a.88.88,0,0,1,.06-.28l.1-.26a7.85,7.85,0,0,0,.46-1.34,7,7,0,0,0,.17-1.72.63.63,0,0,1,.24-.53,1.09,1.09,0,0,1,.72-.19h.28a1.14,1.14,0,0,1,.72.19.59.59,0,0,1,.24.49,4.7,4.7,0,0,1-.4,1.9,5.13,5.13,0,0,1-.94,1.51,1.51,1.51,0,0,1-.93.59A1.3,1.3,0,0,1,217.11,586.43Z"/><path class="cls-4" d="M226.74,583.79a2.83,2.83,0,0,1-.68-2.1V571.27c0-.33.32-.5.95-.5h.35c.63,0,.95.17.95.5v10.39a1.14,1.14,0,0,0,.2.75.71.71,0,0,0,.57.22,1.29,1.29,0,0,0,.35,0l.23,0c.15,0,.26.15.36.46a2.32,2.32,0,0,1,.14.67c0,.51-.52.76-1.58.76A2.55,2.55,0,0,1,226.74,583.79Z"/><path class="cls-4" d="M232.13,583.22a5.06,5.06,0,0,1-1.14-3.54,5.24,5.24,0,0,1,1.13-3.69,4.12,4.12,0,0,1,3.18-1.21,3.36,3.36,0,0,1,2.88,1.26,5.55,5.55,0,0,1,.95,3.4,1,1,0,0,1-.32.57c-.22.25-.38.37-.49.37h-5a2.53,2.53,0,0,0,.66,1.72,2.34,2.34,0,0,0,1.64.53,4.54,4.54,0,0,0,2-.5A1.28,1.28,0,0,1,238,582q.24,0,.54.48a1.54,1.54,0,0,1,.29.73c0,.22-.17.43-.52.63a4.85,4.85,0,0,1-1.29.45,7.45,7.45,0,0,1-1.43.16A4.47,4.47,0,0,1,232.13,583.22Zm4.75-4.44a2.8,2.8,0,0,0-.4-1.6,1.37,1.37,0,0,0-1.2-.58c-1.12,0-1.76.73-1.93,2.18Z"/><path class="cls-4" d="M242,584.3a3.26,3.26,0,0,1-1.11-.44c-.29-.18-.44-.38-.44-.58a1.54,1.54,0,0,1,.31-.77c.2-.3.38-.46.54-.46a1.61,1.61,0,0,1,.4.17,3.59,3.59,0,0,0,.69.3,2.47,2.47,0,0,0,.84.13c.86,0,1.29-.34,1.29-1a.89.89,0,0,0-.38-.76,5.48,5.48,0,0,0-1.26-.57,4.25,4.25,0,0,1-1.63-1,2.38,2.38,0,0,1-.58-1.73,2.62,2.62,0,0,1,.87-2.07,3.37,3.37,0,0,1,2.32-.78,5.64,5.64,0,0,1,1.76.27c.55.17.83.4.83.69a1.91,1.91,0,0,1-.25.78c-.17.32-.33.48-.47.48a4.18,4.18,0,0,1-.49-.2,2.7,2.7,0,0,0-1.08-.2,1.54,1.54,0,0,0-.86.21.65.65,0,0,0-.33.58.85.85,0,0,0,.24.63,1.73,1.73,0,0,0,.53.4q.3.15,1,.45a3.82,3.82,0,0,1,1.53,1,2.47,2.47,0,0,1,.49,1.66,2.74,2.74,0,0,1-.93,2.15,3.63,3.63,0,0,1-2.47.82A6,6,0,0,1,242,584.3Z"/><path class="cls-4" d="M249.41,584.3a3.32,3.32,0,0,1-1.12-.44c-.29-.18-.43-.38-.43-.58a1.51,1.51,0,0,1,.3-.77c.21-.3.39-.46.55-.46a1.61,1.61,0,0,1,.39.17,4.23,4.23,0,0,0,.69.3,2.47,2.47,0,0,0,.84.13c.86,0,1.3-.34,1.3-1a.88.88,0,0,0-.39-.76,5.37,5.37,0,0,0-1.25-.57,4.3,4.3,0,0,1-1.64-1,2.43,2.43,0,0,1-.58-1.73,2.62,2.62,0,0,1,.88-2.07,3.33,3.33,0,0,1,2.31-.78A5.7,5.7,0,0,1,253,575c.55.17.82.4.82.69a1.77,1.77,0,0,1-.25.78c-.17.32-.32.48-.47.48l-.48-.2a2.7,2.7,0,0,0-1.08-.2,1.6,1.6,0,0,0-.87.21.66.66,0,0,0-.32.58.89.89,0,0,0,.23.63,2,2,0,0,0,.53.4c.2.1.55.25,1.06.45a4,4,0,0,1,1.53,1,2.53,2.53,0,0,1,.48,1.66,2.77,2.77,0,0,1-.92,2.15,3.65,3.65,0,0,1-2.48.82A5.9,5.9,0,0,1,249.41,584.3Z"/><path class="cls-4" d="M260.33,583.84v-5.91a10.65,10.65,0,0,0-.1-1.76,4.22,4.22,0,0,1-.11-.69c0-.16.19-.29.59-.38a4.91,4.91,0,0,1,1.06-.14.46.46,0,0,1,.42.25,3.35,3.35,0,0,1,.19.53c0,.19.06.32.08.39a2.35,2.35,0,0,1,2-1.35,1.05,1.05,0,0,1,.8.26.85.85,0,0,1,.25.61,2.87,2.87,0,0,1-.15.84c-.09.33-.21.49-.36.49a1.82,1.82,0,0,1-.35-.08,1.59,1.59,0,0,0-.53-.08,1.39,1.39,0,0,0-.93.34,2.47,2.47,0,0,0-.58.63v6.05c0,.34-.32.52-1,.52h-.34C260.65,584.36,260.33,584.18,260.33,583.84Z"/><path class="cls-4" d="M266.87,573v-1.17c0-.39.39-.59,1.17-.59s1.13.2,1.13.59V573a.46.46,0,0,1-.28.45,2,2,0,0,1-.89.15C267.24,573.56,266.87,573.36,266.87,573Zm0,10.88v-8.45c0-.34.32-.52,1-.52h.36c.63,0,.95.18.95.52v8.45c0,.34-.32.52-.95.52h-.36C267.2,584.36,266.88,584.18,266.88,583.84Z"/><path class="cls-4" d="M272.52,584.3a3.32,3.32,0,0,1-1.12-.44c-.29-.18-.43-.38-.43-.58a1.45,1.45,0,0,1,.31-.77c.2-.3.38-.46.54-.46a1.61,1.61,0,0,1,.39.17,4.23,4.23,0,0,0,.69.3,2.47,2.47,0,0,0,.84.13c.87,0,1.3-.34,1.3-1a.88.88,0,0,0-.39-.76,5.37,5.37,0,0,0-1.25-.57,4.3,4.3,0,0,1-1.64-1,2.42,2.42,0,0,1-.57-1.73,2.62,2.62,0,0,1,.87-2.07,3.33,3.33,0,0,1,2.31-.78,5.7,5.7,0,0,1,1.77.27c.55.17.83.4.83.69a1.81,1.81,0,0,1-.26.78c-.17.32-.32.48-.47.48l-.48-.2a2.7,2.7,0,0,0-1.08-.2,1.6,1.6,0,0,0-.87.21.66.66,0,0,0-.32.58.85.85,0,0,0,.24.63,1.73,1.73,0,0,0,.53.4c.19.1.55.25,1.05.45a4,4,0,0,1,1.53,1,2.53,2.53,0,0,1,.48,1.66,2.74,2.74,0,0,1-.92,2.15,3.65,3.65,0,0,1-2.48.82A6,6,0,0,1,272.52,584.3Z"/><path class="cls-4" d="M286.92,584.09q0,.27-1,.27h-.5a3,3,0,0,1-.67-.06.57.57,0,0,1-.37-.25l-2.88-4.17h-.08v4c0,.34-.32.52-1,.52h-.34c-.64,0-.95-.18-.95-.52V571.27c0-.33.31-.5.95-.5h.34c.65,0,1,.17,1,.5v7.45l.08,0,2.61-3.56a.66.66,0,0,1,.37-.25,3,3,0,0,1,.67-.06h.47a2.55,2.55,0,0,1,.65.07q.21.07.21.18a.62.62,0,0,1-.16.36l-2.77,3.71,3.18,4.56A.64.64,0,0,1,286.92,584.09Z"/><path class="cls-4" d="M295.7,575.23a1.6,1.6,0,0,1-.05.31l-4.3,12.13c-.1.25-.42.38-1,.38h-.29a2,2,0,0,1-.68-.1c-.16-.07-.23-.15-.23-.26a.83.83,0,0,1,.09-.31l1.26-3.27-3.05-8.57s0-.08,0-.14a.88.88,0,0,1,0-.17q0-.36,1-.36h.41c.53,0,.84.12.92.34l1.33,3.87c.14.42.31,1.11.53,2.06h.05l.16-.65c.15-.6.27-1.07.38-1.41l1.31-3.87c.09-.22.39-.34.92-.34h.31C295.38,574.87,295.7,575,295.7,575.23Z"/><g class="cls-5"><polygon class="cls-6" points="191.62 258.17 191.64 236.99 212.71 253.36 212.68 274.54 191.62 258.17"/><polygon class="cls-7" points="212.68 274.54 212.71 253.36 275.09 247.91 275.07 269.09 212.68 274.54"/><polygon class="cls-8" points="275.09 247.91 212.71 253.36 191.64 236.99 254.03 231.53 275.09 247.91"/></g><g class="cls-5"><polygon class="cls-6" points="222.96 282.75 222.98 261.57 244.05 277.95 244.03 299.13 222.96 282.75"/><polygon class="cls-7" points="244.03 299.13 244.05 277.95 306.44 272.49 306.41 293.67 244.03 299.13"/><polygon class="cls-8" points="306.44 272.49 244.05 277.95 222.98 261.57 285.37 256.12 306.44 272.49"/></g><g class="cls-5"><polygon class="cls-6" points="254.3 307.34 254.33 286.16 275.39 302.54 275.37 323.72 254.3 307.34"/><polygon class="cls-7" points="275.37 323.72 275.39 302.54 337.78 297.08 337.75 318.26 275.37 323.72"/><polygon class="cls-8" points="337.78 297.08 275.39 302.54 254.33 286.16 316.71 280.7 337.78 297.08"/></g><g class="cls-5"><polygon class="cls-6" points="101.77 266.03 101.79 244.85 122.86 261.22 122.83 282.4 101.77 266.03"/><polygon class="cls-7" points="122.83 282.4 122.86 261.22 185.24 255.77 185.21 276.95 122.83 282.4"/><polygon class="cls-8" points="185.24 255.77 122.86 261.22 101.79 244.85 164.17 239.39 185.24 255.77"/></g><g class="cls-5"><polygon class="cls-6" points="133.11 290.62 133.13 269.44 154.2 285.81 154.18 306.99 133.11 290.62"/><polygon class="cls-7" points="154.18 306.99 154.2 285.81 216.58 280.35 216.56 301.53 154.18 306.99"/><polygon class="cls-8" points="216.58 280.35 154.2 285.81 133.13 269.44 195.51 263.98 216.58 280.35"/></g><g class="cls-5"><polygon class="cls-6" points="164.45 315.2 164.47 294.02 185.54 310.4 185.52 331.58 164.45 315.2"/><polygon class="cls-7" points="185.52 331.58 185.54 310.4 247.92 304.94 247.9 326.12 185.52 331.58"/><polygon class="cls-8" points="247.92 304.94 185.54 310.4 164.47 294.02 226.86 288.56 247.92 304.94"/></g><g class="cls-5"><polygon class="cls-6" points="11.91 273.89 11.93 252.71 33 269.09 32.98 290.27 11.91 273.89"/><polygon class="cls-7" points="32.98 290.27 33 269.09 95.38 263.63 95.36 284.81 32.98 290.27"/><polygon class="cls-8" points="95.38 263.63 33 269.09 11.93 252.71 74.32 247.25 95.38 263.63"/></g><g class="cls-5"><polygon class="cls-6" points="43.25 298.48 43.27 277.3 64.34 293.67 64.32 314.85 43.25 298.48"/><polygon class="cls-7" points="64.32 314.85 64.34 293.67 126.73 288.21 126.7 309.39 64.32 314.85"/><polygon class="cls-8" points="126.73 288.21 64.34 293.67 43.27 277.3 105.66 271.84 126.73 288.21"/></g><g class="cls-5"><polygon class="cls-6" points="74.59 323.06 74.62 301.88 95.68 318.26 95.66 339.44 74.59 323.06"/><polygon class="cls-7" points="95.66 339.44 95.68 318.26 158.07 312.8 158.05 333.98 95.66 339.44"/><polygon class="cls-8" points="158.07 312.8 95.68 318.26 74.62 301.88 137 296.43 158.07 312.8"/></g><g class="cls-5"><polygon class="cls-6" points="191.62 457.05 191.64 435.87 212.71 452.24 212.68 473.42 191.62 457.05"/><polygon class="cls-7" points="212.68 473.42 212.71 452.24 275.09 446.79 275.07 467.97 212.68 473.42"/><polygon class="cls-8" points="275.09 446.79 212.71 452.24 191.64 435.87 254.03 430.41 275.09 446.79"/></g><g class="cls-5"><polygon class="cls-6" points="222.96 481.63 222.98 460.45 244.05 476.83 244.03 498.01 222.96 481.63"/><polygon class="cls-7" points="244.03 498.01 244.05 476.83 306.44 471.37 306.41 492.55 244.03 498.01"/><polygon class="cls-8" points="306.44 471.37 244.05 476.83 222.98 460.45 285.37 455 306.44 471.37"/></g><g class="cls-5"><polygon class="cls-6" points="254.3 506.22 254.33 485.04 275.39 501.42 275.37 522.6 254.3 506.22"/><polygon class="cls-7" points="275.37 522.6 275.39 501.42 337.78 495.96 337.75 517.14 275.37 522.6"/><polygon class="cls-8" points="337.78 495.96 275.39 501.42 254.33 485.04 316.71 479.58 337.78 495.96"/></g><g class="cls-5"><polygon class="cls-6" points="101.77 464.91 101.79 443.73 122.86 460.1 122.83 481.29 101.77 464.91"/><polygon class="cls-7" points="122.83 481.29 122.86 460.1 185.24 454.65 185.21 475.83 122.83 481.29"/><polygon class="cls-8" points="185.24 454.65 122.86 460.1 101.79 443.73 164.17 438.27 185.24 454.65"/></g><g class="cls-5"><polygon class="cls-6" points="133.11 489.5 133.13 468.31 154.2 484.69 154.18 505.87 133.11 489.5"/><polygon class="cls-7" points="154.18 505.87 154.2 484.69 216.58 479.23 216.56 500.41 154.18 505.87"/><polygon class="cls-8" points="216.58 479.23 154.2 484.69 133.13 468.31 195.51 462.86 216.58 479.23"/></g><g class="cls-5"><polygon class="cls-6" points="164.45 514.08 164.47 492.9 185.54 509.28 185.52 530.46 164.45 514.08"/><polygon class="cls-7" points="185.52 530.46 185.54 509.28 247.92 503.82 247.9 525 185.52 530.46"/><polygon class="cls-8" points="247.92 503.82 185.54 509.28 164.47 492.9 226.86 487.44 247.92 503.82"/></g><g class="cls-5"><polygon class="cls-6" points="11.91 472.77 11.93 451.59 33 467.96 32.98 489.15 11.91 472.77"/><polygon class="cls-7" points="32.98 489.15 33 467.96 95.38 462.51 95.36 483.69 32.98 489.15"/><polygon class="cls-8" points="95.38 462.51 33 467.96 11.93 451.59 74.32 446.13 95.38 462.51"/></g><g class="cls-5"><polygon class="cls-6" points="43.25 497.36 43.27 476.18 64.34 492.55 64.32 513.73 43.25 497.36"/><polygon class="cls-7" points="64.32 513.73 64.34 492.55 126.73 487.09 126.7 508.27 64.32 513.73"/><polygon class="cls-8" points="126.73 487.09 64.34 492.55 43.27 476.18 105.66 470.72 126.73 487.09"/></g><g class="cls-5"><polygon class="cls-6" points="74.59 521.94 74.62 500.76 95.68 517.14 95.66 538.32 74.59 521.94"/><polygon class="cls-7" points="95.66 538.32 95.68 517.14 158.07 511.68 158.05 532.86 95.66 538.32"/><polygon class="cls-8" points="158.07 511.68 95.68 517.14 74.62 500.76 137 495.31 158.07 511.68"/></g><rect class="cls-8" x="1.51" y="168.75" width="344.68" height="44.58" rx="22.29" ry="22.29"/><path class="cls-4" d="M100,196.5a2.59,2.59,0,0,1-.72-1.93q0-3.31,5.46-3.33v-.69c0-.79-.54-1.18-1.61-1.18a4.15,4.15,0,0,0-1.17.15,8.76,8.76,0,0,0-.88.32,1.77,1.77,0,0,1-.43.17c-.15,0-.33-.16-.53-.5a1.74,1.74,0,0,1-.3-.76c0-.19.16-.38.46-.56a4.26,4.26,0,0,1,1.25-.46,7.73,7.73,0,0,1,1.71-.18,4.36,4.36,0,0,1,2.84.78,2.66,2.66,0,0,1,.93,2.15v3.62a11,11,0,0,0,.1,1.79,6.63,6.63,0,0,1,.11.69c0,.17-.2.3-.59.39a4.91,4.91,0,0,1-1.06.14.43.43,0,0,1-.42-.27,2.46,2.46,0,0,1-.19-.56c0-.21-.07-.34-.08-.42a4,4,0,0,1-1.07.92,3.18,3.18,0,0,1-1.72.43A2.83,2.83,0,0,1,100,196.5Zm3.85-1.44a3,3,0,0,0,.89-.85v-1.37a6.52,6.52,0,0,0-2.32.33,1.2,1.2,0,0,0-.83,1.18,1,1,0,0,0,.28.77,1.19,1.19,0,0,0,.83.28A2.1,2.1,0,0,0,103.82,195.06Z"/><path class="cls-4" d="M110.72,196.63a3.77,3.77,0,0,1-1.21-1.68,7.11,7.11,0,0,1-.43-2.58,5.62,5.62,0,0,1,1-3.54,3.58,3.58,0,0,1,4.84-.6V184q0-.51,1-.51h.35q1,0,1,.51V194.1a9.72,9.72,0,0,0,.11,1.79,5.51,5.51,0,0,1,.1.69c0,.17-.19.3-.59.39a4.91,4.91,0,0,1-1.06.14.44.44,0,0,1-.42-.27,3.07,3.07,0,0,1-.19-.56c0-.21-.06-.34-.08-.42a3,3,0,0,1-1.1,1,3.08,3.08,0,0,1-1.47.36A2.86,2.86,0,0,1,110.72,196.63Zm4.21-2.42v-4.32a2.68,2.68,0,0,0-1.58-.51c-1.3,0-1.95,1-1.95,3a4.75,4.75,0,0,0,.43,2.24,1.41,1.41,0,0,0,1.3.76A2.26,2.26,0,0,0,114.93,194.21Z"/><path class="cls-4" d="M120.39,196a6.41,6.41,0,0,1,0-7.18,4.72,4.72,0,0,1,6.38,0,6.52,6.52,0,0,1,0,7.19,4.74,4.74,0,0,1-6.38,0Zm4.67-1.32a4.41,4.41,0,0,0,.47-2.28,4.35,4.35,0,0,0-.47-2.26,1.87,1.87,0,0,0-3,0,4.14,4.14,0,0,0-.49,2.26,4.2,4.2,0,0,0,.49,2.28,1.86,1.86,0,0,0,3,0Z"/><path class="cls-4" d="M130.28,200.69a.44.44,0,0,1-.23-.4V190.7a10.53,10.53,0,0,0-.11-1.77,6.22,6.22,0,0,1-.11-.68q0-.25.6-.39a4.68,4.68,0,0,1,1-.13.43.43,0,0,1,.43.25,2,2,0,0,1,.19.53,3.31,3.31,0,0,1,.08.39,3.38,3.38,0,0,1,1.11-1,3,3,0,0,1,1.45-.36,2.91,2.91,0,0,1,1.8.58,3.66,3.66,0,0,1,1.2,1.69,7.17,7.17,0,0,1,.42,2.57,5.62,5.62,0,0,1-1,3.54,3.3,3.3,0,0,1-2.74,1.28,3.39,3.39,0,0,1-2.11-.68v3.76c0,.35-.32.52-1,.52H131A1.61,1.61,0,0,1,130.28,200.69Zm5.55-8.26a4.8,4.8,0,0,0-.43-2.25,1.39,1.39,0,0,0-1.28-.76,1.68,1.68,0,0,0-1,.31,3.26,3.26,0,0,0-.84.82v4.32a2.7,2.7,0,0,0,1.6.51C135.19,195.38,135.83,194.39,135.83,192.43Z"/><path class="cls-4" d="M141.25,196.55a2.8,2.8,0,0,1-.69-2.09v-5h-.48a.41.41,0,0,1-.37-.18,1.11,1.11,0,0,1-.12-.59v-.27a1.12,1.12,0,0,1,.12-.6.41.41,0,0,1,.37-.18h.48l.24-1.76c.06-.35.33-.52.82-.52h.44c.51,0,.77.17.77.52v1.76h1.1a.41.41,0,0,1,.37.18,1.14,1.14,0,0,1,.11.6v.27a1.12,1.12,0,0,1-.11.59.41.41,0,0,1-.37.18h-1.1v4.93a1.14,1.14,0,0,0,.19.76.72.72,0,0,0,.57.22,1.86,1.86,0,0,0,.34,0l.25,0c.14,0,.26.16.36.46a2.37,2.37,0,0,1,.14.68c0,.5-.52.75-1.58.75A2.59,2.59,0,0,1,141.25,196.55Z"/><path class="cls-4" d="M151.73,196.55a2.8,2.8,0,0,1-.69-2.09v-5h-.49a.41.41,0,0,1-.37-.18,1.11,1.11,0,0,1-.12-.59v-.27a1.12,1.12,0,0,1,.12-.6.41.41,0,0,1,.37-.18H151l.23-1.76c.06-.35.34-.52.83-.52h.43c.52,0,.78.17.78.52v1.76h1.09a.41.41,0,0,1,.37.18,1.12,1.12,0,0,1,.12.6v.27a1.11,1.11,0,0,1-.12.59.41.41,0,0,1-.37.18h-1.09v4.93a1.21,1.21,0,0,0,.18.76.74.74,0,0,0,.57.22,1.76,1.76,0,0,0,.34,0l.25,0c.15,0,.27.16.37.46a2.78,2.78,0,0,1,.14.68q0,.75-1.59.75A2.56,2.56,0,0,1,151.73,196.55Z"/><path class="cls-4" d="M157,196.6V184c0-.34.32-.51,1-.51h.36q1,0,1,.51v4.73a3.63,3.63,0,0,1,1.15-.88,3.17,3.17,0,0,1,1.46-.34,2.53,2.53,0,0,1,2.77,2.91v6.14c0,.35-.32.52-1,.52h-.36c-.63,0-.95-.17-.95-.52v-5.83a1.33,1.33,0,0,0-.35-1,1.38,1.38,0,0,0-1-.35,1.69,1.69,0,0,0-1.08.38,2.68,2.68,0,0,0-.64.73v6c0,.35-.32.52-1,.52h-.36C157.3,197.12,157,197,157,196.6Z"/><path class="cls-4" d="M167.78,196a5,5,0,0,1-1.14-3.54,5.27,5.27,0,0,1,1.13-3.69,4.15,4.15,0,0,1,3.18-1.2,3.36,3.36,0,0,1,2.88,1.26,5.47,5.47,0,0,1,.95,3.4,1.11,1.11,0,0,1-.32.57c-.22.24-.38.37-.49.37h-5a2.5,2.5,0,0,0,.66,1.71,2.31,2.31,0,0,0,1.65.54,4.42,4.42,0,0,0,2-.51,1.5,1.5,0,0,1,.35-.12c.16,0,.34.16.54.47a1.54,1.54,0,0,1,.29.73c0,.23-.17.44-.52.63a4.85,4.85,0,0,1-1.29.45,6.73,6.73,0,0,1-1.43.16A4.47,4.47,0,0,1,167.78,196Zm4.75-4.44a2.84,2.84,0,0,0-.4-1.6,1.39,1.39,0,0,0-1.2-.57c-1.12,0-1.76.72-1.93,2.17Z"/><path class="cls-4" d="M181.08,196.6v-5.9a10.53,10.53,0,0,0-.11-1.77,6.22,6.22,0,0,1-.11-.68q0-.25.6-.39a4.77,4.77,0,0,1,1.06-.13.43.43,0,0,1,.43.26,2,2,0,0,1,.19.54c0,.18.07.31.08.37a3.49,3.49,0,0,1,1.2-1,3.14,3.14,0,0,1,1.52-.38c1.82,0,2.74,1,2.74,2.91v6.14a.44.44,0,0,1-.23.4,1.63,1.63,0,0,1-.73.12h-.34c-.64,0-.95-.17-.95-.52v-5.83a1.19,1.19,0,0,0-1.36-1.33,1.73,1.73,0,0,0-1,.32,2.78,2.78,0,0,0-.74.79v6c0,.35-.32.52-1,.52H182C181.4,197.12,181.08,197,181.08,196.6Z"/><path class="cls-4" d="M191.83,196a5,5,0,0,1-1.14-3.54,5.27,5.27,0,0,1,1.13-3.69,4.14,4.14,0,0,1,3.17-1.2,3.37,3.37,0,0,1,2.89,1.26,5.53,5.53,0,0,1,1,3.4,1.07,1.07,0,0,1-.33.57c-.21.24-.37.37-.48.37h-5a2.5,2.5,0,0,0,.66,1.71,2.27,2.27,0,0,0,1.64.54,4.35,4.35,0,0,0,2-.51,1.51,1.51,0,0,1,.36-.12c.16,0,.34.16.54.47a1.65,1.65,0,0,1,.29.73c0,.23-.17.44-.52.63a4.85,4.85,0,0,1-1.29.45,6.73,6.73,0,0,1-1.43.16A4.45,4.45,0,0,1,191.83,196Zm4.75-4.44a2.76,2.76,0,0,0-.41-1.6,1.37,1.37,0,0,0-1.19-.57c-1.12,0-1.76.72-1.93,2.17Z"/><path class="cls-4" d="M202.3,196.78l-2.3-8.42a.89.89,0,0,1-.06-.31c0-.27.35-.41,1-.41a2.9,2.9,0,0,1,.84.08.44.44,0,0,1,.33.26l1.28,5.11a6,6,0,0,1,.12.72l.15.76h.07c.12-.72.22-1.23.29-1.53l1.27-5c.05-.24.35-.36.89-.36h.32a1.78,1.78,0,0,1,.61.09c.17.06.27.15.29.27l1.28,5.11.21,1.1a2,2,0,0,1,.08.41h0l.11-.63a5,5,0,0,1,.18-.9L210.6,188c.05-.23.37-.34,1-.34s1,.14,1,.41a1,1,0,0,1,0,.27l-2.23,8.46c0,.11-.12.19-.29.25a1.82,1.82,0,0,1-.61.09h-.76c-.53,0-.83-.11-.9-.34L206.49,192a6,6,0,0,1-.1-.66c0-.09,0-.18,0-.28s0-.21,0-.32h-.06c0,.11,0,.22-.05.33s0,.2,0,.29c-.05.36-.08.58-.1.66l-1.19,4.77a.4.4,0,0,1-.28.25,1.72,1.72,0,0,1-.6.09h-.78C202.67,197.12,202.37,197,202.3,196.78Z"/><path class="cls-4" d="M220.07,196.78l-2.31-8.42a1.18,1.18,0,0,1,0-.31c0-.27.34-.41,1-.41a3,3,0,0,1,.85.08.4.4,0,0,1,.32.26l1.28,5.11c0,.21.09.45.13.72l.14.76h.07c.12-.72.22-1.23.29-1.53l1.28-5c0-.24.34-.36.88-.36h.33a1.82,1.82,0,0,1,.61.09.4.4,0,0,1,.29.27l1.28,5.11.21,1.1a1.78,1.78,0,0,1,.07.41h0l.11-.63a5,5,0,0,1,.18-.9l1.27-5.11c0-.23.37-.34,1-.34s1,.14,1,.41a.7.7,0,0,1,0,.27L228,196.78c0,.11-.12.19-.29.25a1.78,1.78,0,0,1-.61.09h-.75c-.53,0-.83-.11-.9-.34L224.26,192c0-.08-.06-.3-.11-.66l0-.28c0-.1,0-.21-.06-.32H224c0,.11,0,.22-.06.33s0,.2,0,.29c0,.36-.09.58-.11.66l-1.19,4.77c0,.11-.11.19-.28.25a1.72,1.72,0,0,1-.6.09H221C220.44,197.12,220.14,197,220.07,196.78Z"/><path class="cls-4" d="M232.27,196.5a2.59,2.59,0,0,1-.72-1.93q0-3.31,5.45-3.33v-.69c0-.79-.53-1.18-1.6-1.18a4.15,4.15,0,0,0-1.17.15,7.94,7.94,0,0,0-.88.32,1.77,1.77,0,0,1-.43.17c-.16,0-.33-.16-.53-.5a1.74,1.74,0,0,1-.3-.76c0-.19.15-.38.46-.56a4.16,4.16,0,0,1,1.25-.46,7.73,7.73,0,0,1,1.71-.18,4.36,4.36,0,0,1,2.84.78,2.68,2.68,0,0,1,.92,2.15v3.62a10.72,10.72,0,0,0,.11,1.79,6.63,6.63,0,0,1,.11.69q0,.25-.6.39a4.83,4.83,0,0,1-1.06.14.42.42,0,0,1-.41-.27,2.06,2.06,0,0,1-.19-.56c0-.21-.07-.34-.08-.42a4,4,0,0,1-1.07.92,3.18,3.18,0,0,1-1.72.43A2.83,2.83,0,0,1,232.27,196.5Zm3.85-1.44a3,3,0,0,0,.88-.85v-1.37a6.5,6.5,0,0,0-2.31.33,1.19,1.19,0,0,0-.84,1.18,1,1,0,0,0,.29.77,1.17,1.17,0,0,0,.83.28A2.12,2.12,0,0,0,236.12,195.06Z"/><path class="cls-4" d="M249.06,188a1,1,0,0,1-.05.3l-4.3,12.14c-.1.25-.42.37-1,.37h-.28a1.8,1.8,0,0,1-.69-.1c-.15-.06-.23-.15-.23-.26a.79.79,0,0,1,.09-.3l1.26-3.28-3-8.57a.4.4,0,0,1,0-.13,1,1,0,0,1,0-.17q0-.36,1-.36h.42c.52,0,.83.11.91.34l1.34,3.87c.13.42.3,1.1.52,2.05H245l.16-.65c.15-.6.28-1.06.38-1.4l1.32-3.87c.08-.23.39-.34.92-.34h.3C248.75,187.64,249.06,187.76,249.06,188Z"/><g class="cls-5"><polygon class="cls-6" points="2.12 83.02 2.15 56.87 88.84 124.26 88.81 150.41 2.12 83.02"/><polygon class="cls-7" points="88.81 150.41 88.84 124.26 345.57 101.8 345.54 127.94 88.81 150.41"/><polygon class="cls-8" points="345.57 101.8 88.84 124.26 2.15 56.87 258.88 34.41 345.57 101.8"/></g><rect class="cls-7" x="1.51" y="361.71" width="344.68" height="44.58" rx="22.29" ry="22.29"/><path class="cls-4" d="M79.19,378.68v-1.17c0-.39.39-.59,1.17-.59s1.14.2,1.14.59v1.17a.47.47,0,0,1-.28.45,2,2,0,0,1-.89.15Q79.19,379.28,79.19,378.68Zm0,10.87v-8.44c0-.35.32-.52,1-.52h.36c.64,0,1,.17,1,.52v8.44c0,.35-.32.53-1,.53h-.36C79.53,390.08,79.21,389.9,79.21,389.55Z"/><path class="cls-4" d="M84,389.55v-5.9a10.39,10.39,0,0,0-.11-1.76,6.23,6.23,0,0,1-.11-.69c0-.17.2-.29.6-.38a4.83,4.83,0,0,1,1.06-.14.44.44,0,0,1,.43.26,2.32,2.32,0,0,1,.19.54c0,.19.07.31.08.37a3.49,3.49,0,0,1,1.2-1,3.29,3.29,0,0,1,1.52-.38c1.82,0,2.74,1,2.74,2.92v6.13a.43.43,0,0,1-.23.4,1.61,1.61,0,0,1-.73.13h-.34c-.64,0-1-.18-1-.53v-5.83A1.18,1.18,0,0,0,88,382.39a1.74,1.74,0,0,0-1,.32,2.82,2.82,0,0,0-.74.8v6c0,.35-.32.53-1,.53h-.36C84.3,390.08,84,389.9,84,389.55Z"/><path class="cls-4" d="M94.67,389a5.13,5.13,0,0,1-1.11-3.64,5,5,0,0,1,1.17-3.67,4.48,4.48,0,0,1,3.34-1.19,6,6,0,0,1,2,.31c.6.2.9.46.9.79a1.61,1.61,0,0,1-.31.75c-.21.33-.38.49-.51.49l-.27-.11a3.91,3.91,0,0,0-1.71-.41,2,2,0,0,0-1.69.72,3.79,3.79,0,0,0-.55,2.27,4,4,0,0,0,.53,2.3,1.94,1.94,0,0,0,1.71.74,3.5,3.5,0,0,0,1-.12,8.43,8.43,0,0,0,.87-.31,1,1,0,0,1,.27-.09c.17,0,.35.15.54.46a1.64,1.64,0,0,1,.29.74c0,.24-.18.45-.53.62a4.37,4.37,0,0,1-1.25.39,7.92,7.92,0,0,1-1.26.13A4.48,4.48,0,0,1,94.67,389Z"/><path class="cls-4" d="M102.77,389.55v-5.9a10.39,10.39,0,0,0-.11-1.76,5.26,5.26,0,0,1-.1-.69c0-.17.19-.29.59-.38a4.91,4.91,0,0,1,1.06-.14.44.44,0,0,1,.42.25,2.55,2.55,0,0,1,.18.53,3.31,3.31,0,0,1,.08.39,2.38,2.38,0,0,1,2-1.35,1.05,1.05,0,0,1,.8.26.85.85,0,0,1,.25.6,2.93,2.93,0,0,1-.15.85c-.09.32-.21.49-.36.49a1.82,1.82,0,0,1-.35-.08,1.6,1.6,0,0,0-.53-.09,1.4,1.4,0,0,0-.93.35,2.32,2.32,0,0,0-.58.63v6c0,.35-.32.53-1,.53h-.34C103.09,390.08,102.77,389.9,102.77,389.55Z"/><path class="cls-4" d="M110,388.93a5.06,5.06,0,0,1-1.13-3.53,5.24,5.24,0,0,1,1.12-3.69,4.12,4.12,0,0,1,3.18-1.21,3.37,3.37,0,0,1,2.89,1.26,5.55,5.55,0,0,1,1,3.4,1,1,0,0,1-.33.57c-.21.25-.38.37-.49.37h-5a2.6,2.6,0,0,0,.65,1.72,2.35,2.35,0,0,0,1.65.53,4.35,4.35,0,0,0,2-.51,1.38,1.38,0,0,1,.36-.12c.16,0,.33.16.53.48a1.56,1.56,0,0,1,.3.72c0,.23-.18.44-.52.63a4.24,4.24,0,0,1-1.29.45,6.85,6.85,0,0,1-1.43.17A4.46,4.46,0,0,1,110,388.93Zm4.76-4.43a2.78,2.78,0,0,0-.41-1.61,1.38,1.38,0,0,0-1.2-.57c-1.11,0-1.75.73-1.92,2.18Z"/><path class="cls-4" d="M119.28,389.46a2.61,2.61,0,0,1-.72-1.94q0-3.31,5.45-3.33v-.68c0-.8-.53-1.19-1.6-1.19a4.1,4.1,0,0,0-1.17.15,5.84,5.84,0,0,0-.88.33,2.81,2.81,0,0,1-.43.17q-.24,0-.54-.51a1.8,1.8,0,0,1-.29-.75c0-.2.15-.38.46-.57a4.06,4.06,0,0,1,1.25-.46,7.67,7.67,0,0,1,1.71-.18,4.33,4.33,0,0,1,2.83.78,2.67,2.67,0,0,1,.93,2.15v3.62a9.65,9.65,0,0,0,.11,1.79,6.25,6.25,0,0,1,.11.7c0,.16-.2.29-.6.38a4.83,4.83,0,0,1-1.06.14.43.43,0,0,1-.41-.26,2.25,2.25,0,0,1-.19-.57c0-.2-.07-.34-.09-.41a3.81,3.81,0,0,1-1.07.91,3.15,3.15,0,0,1-1.71.44A2.86,2.86,0,0,1,119.28,389.46Zm3.85-1.44a3.13,3.13,0,0,0,.88-.86v-1.37a6.26,6.26,0,0,0-2.31.34,1.18,1.18,0,0,0-.84,1.17,1,1,0,0,0,.29.77,1.13,1.13,0,0,0,.83.28A2.11,2.11,0,0,0,123.13,388Z"/><path class="cls-4" d="M129.7,390a3.54,3.54,0,0,1-1.12-.44c-.28-.18-.43-.38-.43-.58a1.45,1.45,0,0,1,.31-.77c.2-.3.38-.46.54-.46a1.46,1.46,0,0,1,.39.17,4,4,0,0,0,.7.3,2.63,2.63,0,0,0,.83.13c.87,0,1.3-.34,1.3-1a.87.87,0,0,0-.39-.76,5.37,5.37,0,0,0-1.25-.57,4.31,4.31,0,0,1-1.64-1,2.38,2.38,0,0,1-.57-1.72,2.62,2.62,0,0,1,.87-2.07,3.33,3.33,0,0,1,2.31-.78,6,6,0,0,1,1.77.26c.55.18.82.41.82.7a1.77,1.77,0,0,1-.25.78c-.16.32-.32.48-.47.48l-.48-.2a2.7,2.7,0,0,0-1.08-.2,1.6,1.6,0,0,0-.87.21.66.66,0,0,0-.32.58.92.92,0,0,0,.23.63,1.9,1.9,0,0,0,.54.4c.19.1.54.24,1.05.45a3.79,3.79,0,0,1,1.53,1,2.5,2.5,0,0,1,.48,1.65,2.74,2.74,0,0,1-.92,2.16,3.63,3.63,0,0,1-2.48.81A5.89,5.89,0,0,1,129.7,390Z"/><path class="cls-4" d="M137,388.93a5,5,0,0,1-1.13-3.53,5.24,5.24,0,0,1,1.12-3.69,4.12,4.12,0,0,1,3.18-1.21,3.39,3.39,0,0,1,2.89,1.26,5.55,5.55,0,0,1,.94,3.4,1.07,1.07,0,0,1-.32.57c-.22.25-.38.37-.49.37h-5a2.55,2.55,0,0,0,.66,1.72,2.35,2.35,0,0,0,1.65.53,4.38,4.38,0,0,0,2-.51,1.38,1.38,0,0,1,.36-.12c.15,0,.33.16.53.48a1.56,1.56,0,0,1,.3.72c0,.23-.18.44-.53.63a4.17,4.17,0,0,1-1.28.45,6.85,6.85,0,0,1-1.43.17A4.46,4.46,0,0,1,137,388.93Zm4.75-4.43a2.78,2.78,0,0,0-.4-1.61,1.38,1.38,0,0,0-1.2-.57c-1.12,0-1.76.73-1.93,2.18Z"/><path class="cls-4" d="M151.29,389.5a2.78,2.78,0,0,1-.69-2.09v-5h-.49a.41.41,0,0,1-.37-.18,1.1,1.1,0,0,1-.11-.59v-.27a1.1,1.1,0,0,1,.11-.59.41.41,0,0,1,.37-.18h.49l.23-1.77c.06-.35.34-.52.83-.52h.43c.52,0,.78.17.78.52v1.77H154a.41.41,0,0,1,.37.18,1.08,1.08,0,0,1,.12.59v.27a1.08,1.08,0,0,1-.12.59.41.41,0,0,1-.37.18h-1.09v4.94a1.11,1.11,0,0,0,.19.75.68.68,0,0,0,.56.22,1.22,1.22,0,0,0,.34,0l.26,0c.14,0,.26.15.35.46a2.43,2.43,0,0,1,.15.67c0,.5-.53.76-1.58.76A2.53,2.53,0,0,1,151.29,389.5Z"/><path class="cls-4" d="M156.43,378.68v-1.17c0-.39.39-.59,1.17-.59s1.13.2,1.13.59v1.17a.46.46,0,0,1-.28.45,2,2,0,0,1-.89.15C156.81,379.28,156.43,379.08,156.43,378.68Zm0,10.87v-8.44c0-.35.31-.52,1-.52h.36c.64,0,1,.17,1,.52v8.44c0,.35-.32.53-1,.53h-.36C156.76,390.08,156.45,389.9,156.45,389.55Z"/><path class="cls-4" d="M174,383.42v6.13c0,.35-.32.53-.95.53h-.37c-.63,0-.95-.18-.95-.53v-5.83a1.16,1.16,0,0,0-1.3-1.33,1.56,1.56,0,0,0-1,.35,3.09,3.09,0,0,0-.69.77v6c0,.35-.32.53-.95.53h-.34a1.61,1.61,0,0,1-.73-.13.43.43,0,0,1-.23-.4v-5.83a1.16,1.16,0,0,0-1.29-1.33,1.54,1.54,0,0,0-1.06.39,2.54,2.54,0,0,0-.64.73v6c0,.35-.31.53-.95.53h-.36c-.63,0-.95-.18-.95-.53v-5.9a10.39,10.39,0,0,0-.11-1.76,6.23,6.23,0,0,1-.11-.69c0-.17.2-.29.59-.38a4.92,4.92,0,0,1,1.07-.14.42.42,0,0,1,.41.25,2.58,2.58,0,0,1,.19.53c0,.19.07.32.08.39a4,4,0,0,1,1.18-1,3.1,3.1,0,0,1,1.52-.39,2.31,2.31,0,0,1,2.43,1.4,4.32,4.32,0,0,1,1.23-1,3.29,3.29,0,0,1,1.58-.41C173.08,380.5,174,381.47,174,383.42Z"/><path class="cls-4" d="M177.2,388.93a5,5,0,0,1-1.13-3.53,5.24,5.24,0,0,1,1.12-3.69,4.12,4.12,0,0,1,3.18-1.21,3.39,3.39,0,0,1,2.89,1.26,5.55,5.55,0,0,1,.94,3.4,1.07,1.07,0,0,1-.32.57c-.22.25-.38.37-.49.37h-5a2.55,2.55,0,0,0,.66,1.72,2.35,2.35,0,0,0,1.65.53,4.35,4.35,0,0,0,2-.51,1.38,1.38,0,0,1,.36-.12c.16,0,.33.16.53.48a1.56,1.56,0,0,1,.3.72c0,.23-.18.44-.52.63a4.24,4.24,0,0,1-1.29.45,6.85,6.85,0,0,1-1.43.17A4.46,4.46,0,0,1,177.2,388.93ZM182,384.5a2.78,2.78,0,0,0-.4-1.61,1.38,1.38,0,0,0-1.2-.57c-1.12,0-1.76.73-1.93,2.18Z"/><path class="cls-4" d="M185.64,385.93a1.28,1.28,0,0,1-.1-.59v-.14a1.27,1.27,0,0,1,.1-.6.41.41,0,0,1,.36-.18h3.58a.43.43,0,0,1,.37.18,1.27,1.27,0,0,1,.1.6v.14a1.28,1.28,0,0,1-.1.59.42.42,0,0,1-.37.19H186A.4.4,0,0,1,185.64,385.93Z"/><path class="cls-4" d="M192.94,389.5a2.78,2.78,0,0,1-.69-2.09v-5h-.49a.41.41,0,0,1-.37-.18,1.1,1.1,0,0,1-.11-.59v-.27a1.1,1.1,0,0,1,.11-.59.41.41,0,0,1,.37-.18h.49l.23-1.77c.06-.35.34-.52.83-.52h.43c.52,0,.78.17.78.52v1.77h1.09a.41.41,0,0,1,.37.18,1.08,1.08,0,0,1,.12.59v.27a1.08,1.08,0,0,1-.12.59.41.41,0,0,1-.37.18h-1.09v4.94a1.11,1.11,0,0,0,.19.75.68.68,0,0,0,.56.22,1.22,1.22,0,0,0,.34,0l.26,0c.14,0,.26.15.36.46a2.73,2.73,0,0,1,.14.67c0,.5-.53.76-1.58.76A2.53,2.53,0,0,1,192.94,389.5Z"/><path class="cls-4" d="M198.78,388.92a5.23,5.23,0,0,1-1.1-3.58,5.29,5.29,0,0,1,1.1-3.6A4,4,0,0,1,202,380.5a4,4,0,0,1,3.17,1.24,6.47,6.47,0,0,1,0,7.19,4,4,0,0,1-3.17,1.24A4.05,4.05,0,0,1,198.78,388.92Zm4.67-1.32a4.3,4.3,0,0,0,.48-2.28,4.21,4.21,0,0,0-.48-2.25,1.62,1.62,0,0,0-1.48-.75,1.68,1.68,0,0,0-1.5.75,4.21,4.21,0,0,0-.48,2.25,4.3,4.3,0,0,0,.48,2.28,1.68,1.68,0,0,0,1.5.75A1.62,1.62,0,0,0,203.45,387.6Z"/><path class="cls-4" d="M207.8,385.93a1.26,1.26,0,0,1-.11-.59v-.14a1.25,1.25,0,0,1,.11-.6.4.4,0,0,1,.36-.18h3.58a.4.4,0,0,1,.36.18,1.25,1.25,0,0,1,.11.6v.14a1.26,1.26,0,0,1-.11.59.39.39,0,0,1-.36.19h-3.58A.39.39,0,0,1,207.8,385.93Z"/><path class="cls-4" d="M226.86,383.42v6.13c0,.35-.32.53-1,.53h-.36c-.64,0-1-.18-1-.53v-5.83a1.16,1.16,0,0,0-1.29-1.33,1.57,1.57,0,0,0-1,.35,2.86,2.86,0,0,0-.68.77v6c0,.35-.32.53-1,.53h-.34a1.61,1.61,0,0,1-.73-.13.42.42,0,0,1-.22-.4v-5.83a1.16,1.16,0,0,0-1.3-1.33,1.56,1.56,0,0,0-1.06.39,2.65,2.65,0,0,0-.63.73v6c0,.35-.32.53-1,.53h-.36c-.63,0-1-.18-1-.53v-5.9a10.39,10.39,0,0,0-.11-1.76,6.23,6.23,0,0,1-.11-.69c0-.17.2-.29.6-.38a4.83,4.83,0,0,1,1.06-.14.42.42,0,0,1,.41.25,2.1,2.1,0,0,1,.19.53c0,.19.07.32.08.39a4.14,4.14,0,0,1,1.18-1,3.13,3.13,0,0,1,1.52-.39,2.31,2.31,0,0,1,2.43,1.4,4.23,4.23,0,0,1,1.24-1,3.23,3.23,0,0,1,1.57-.41C226,380.5,226.86,381.47,226.86,383.42Z"/><path class="cls-4" d="M229.62,389.46a2.62,2.62,0,0,1-.73-1.94q0-3.31,5.46-3.33v-.68c0-.8-.54-1.19-1.6-1.19a4.06,4.06,0,0,0-1.17.15,5.84,5.84,0,0,0-.88.33,2.7,2.7,0,0,1-.44.17c-.15,0-.33-.17-.53-.51a1.67,1.67,0,0,1-.29-.75c0-.2.15-.38.45-.57a4.26,4.26,0,0,1,1.25-.46,7.76,7.76,0,0,1,1.72-.18,4.33,4.33,0,0,1,2.83.78,2.67,2.67,0,0,1,.93,2.15v3.62a9.65,9.65,0,0,0,.11,1.79,5.31,5.31,0,0,1,.1.7c0,.16-.19.29-.59.38a4.91,4.91,0,0,1-1.06.14.44.44,0,0,1-.42-.26,3.47,3.47,0,0,1-.19-.57c0-.2-.07-.34-.08-.41a3.81,3.81,0,0,1-1.07.91,3.16,3.16,0,0,1-1.72.44A2.85,2.85,0,0,1,229.62,389.46Zm3.85-1.44a3.27,3.27,0,0,0,.88-.86v-1.37a6.22,6.22,0,0,0-2.31.34,1.18,1.18,0,0,0-.84,1.17,1,1,0,0,0,.29.77,1.12,1.12,0,0,0,.82.28A2.14,2.14,0,0,0,233.47,388Z"/><path class="cls-4" d="M239.21,389.55v-5.9a10.39,10.39,0,0,0-.11-1.76,6.23,6.23,0,0,1-.11-.69c0-.17.2-.29.6-.38a4.83,4.83,0,0,1,1.06-.14.42.42,0,0,1,.41.25,2.1,2.1,0,0,1,.19.53,3.31,3.31,0,0,1,.08.39,2.38,2.38,0,0,1,2-1.35,1.07,1.07,0,0,1,.8.26.85.85,0,0,1,.25.6,2.93,2.93,0,0,1-.15.85c-.09.32-.21.49-.36.49a1.82,1.82,0,0,1-.35-.08,1.6,1.6,0,0,0-.53-.09,1.44,1.44,0,0,0-.94.35,2.43,2.43,0,0,0-.57.63v6c0,.35-.33.53-1,.53h-.35C239.53,390.08,239.21,389.9,239.21,389.55Z"/><path class="cls-4" d="M253.59,389.81c0,.18-.32.27-1,.27h-.51a2.5,2.5,0,0,1-.67-.07.55.55,0,0,1-.37-.24l-2.88-4.18h-.07v4c0,.35-.33.53-1,.53h-.35c-.63,0-.95-.18-.95-.53V377c0-.33.32-.5.95-.5h.35c.64,0,1,.17,1,.5v7.45l.07,0,2.61-3.56a.66.66,0,0,1,.38-.25,3,3,0,0,1,.66-.06h.47a2.12,2.12,0,0,1,.65.07c.14,0,.22.11.22.18a.64.64,0,0,1-.17.36l-2.77,3.71,3.19,4.55A.76.76,0,0,1,253.59,389.81Z"/><path class="cls-4" d="M255.86,388.93a5,5,0,0,1-1.13-3.53,5.24,5.24,0,0,1,1.12-3.69A4.12,4.12,0,0,1,259,380.5a3.39,3.39,0,0,1,2.89,1.26,5.55,5.55,0,0,1,.94,3.4,1.07,1.07,0,0,1-.32.57c-.22.25-.38.37-.49.37h-5a2.55,2.55,0,0,0,.66,1.72,2.35,2.35,0,0,0,1.65.53,4.35,4.35,0,0,0,2-.51,1.38,1.38,0,0,1,.36-.12c.15,0,.33.16.53.48a1.56,1.56,0,0,1,.3.72c0,.23-.18.44-.53.63a4.08,4.08,0,0,1-1.28.45,6.87,6.87,0,0,1-1.44.17A4.45,4.45,0,0,1,255.86,388.93Zm4.75-4.43a2.78,2.78,0,0,0-.4-1.61,1.38,1.38,0,0,0-1.2-.57c-1.12,0-1.76.73-1.93,2.18Z"/><path class="cls-4" d="M265.84,389.5a2.78,2.78,0,0,1-.69-2.09v-5h-.49a.41.41,0,0,1-.37-.18,1.08,1.08,0,0,1-.12-.59v-.27a1.08,1.08,0,0,1,.12-.59.41.41,0,0,1,.37-.18h.49l.23-1.77c.06-.35.34-.52.83-.52h.43c.52,0,.77.17.77.52v1.77h1.1a.41.41,0,0,1,.37.18,1.08,1.08,0,0,1,.12.59v.27a1.08,1.08,0,0,1-.12.59.41.41,0,0,1-.37.18h-1.1v4.94a1.17,1.17,0,0,0,.19.75.71.71,0,0,0,.57.22,1.27,1.27,0,0,0,.34,0l.25,0c.15,0,.27.15.37.46a2.73,2.73,0,0,1,.14.67c0,.5-.53.76-1.59.76A2.53,2.53,0,0,1,265.84,389.5Z"/><path class="cls-2" d="M96.33,534.09a20.49,20.49,0,0,1-12.68-4.38L35.92,492.38a3.6,3.6,0,0,1,1.9-6.42l5.45-.5,0,4-4.07.37,46.94,36.71A16.51,16.51,0,0,0,97.79,530l65.63-5.75a.22.22,0,0,0,.23-.18.24.24,0,0,0-.09-.29l-5.5-4.26v-5.15l8,6.27a4.26,4.26,0,0,1-2.27,7.6L98.14,534C97.53,534.06,96.93,534.09,96.33,534.09Z"/><path class="cls-2" d="M43.27,478.61l-10.48,1a16.25,16.25,0,0,1-11.73-3.53L4.62,462.84l7.05-.62.26-4-8.64.76a3.59,3.59,0,0,0-3.14,2.57,3.56,3.56,0,0,0,1.22,3.84l17.18,13.81a20.21,20.21,0,0,0,12.71,4.49c.63,0,1.27,0,1.9-.09l10.11-.93Z"/><polygon class="cls-2" points="283.5 455.16 275.09 448.58 275.23 453.77 277.67 455.67 283.5 455.16"/><polygon class="cls-2" points="133.11 470.3 108.1 472.62 112.72 476.2 133.13 474.32 133.11 470.3"/><polygon class="cls-2" points="197.44 464.36 202.06 467.95 222.96 466.01 222.96 462 197.44 464.36"/><polygon class="cls-2" points="311.74 480.02 306.43 475.9 306.43 480.48 306.43 480.48 311.74 480.02"/><polygon class="cls-2" points="132.16 495.72 126.72 491.5 126.73 496.19 126.73 496.19 132.16 495.72"/><polygon class="cls-2" points="210.55 474.55 222.98 473.39 222.96 469.37 205.94 470.96 210.55 474.55"/><path class="cls-2" d="M344,505.05l-6.2-4.82v5l3.73,2.94a.22.22,0,0,1,.09.28.22.22,0,0,1-.23.19L188.7,522.23A16.57,16.57,0,0,1,177,518.77l-46.94-36.71,3-.29,0-4-4.42.42a3.6,3.6,0,0,0-1.89,6.42l47.73,37.33a20.5,20.5,0,0,0,12.67,4.37c.61,0,1.22,0,1.84-.08l152.66-13.55a4.26,4.26,0,0,0,2.25-7.61Z"/></svg>