<svg id="Layer_1" data-name="Layer 1" xmlns="http://www.w3.org/2000/svg" xmlns:xlink="http://www.w3.org/1999/xlink" viewBox="0 0 315.24 180.87"><defs><style>.cls-1{fill:url(#linear-gradient);}.cls-2{fill:#367dbf;}.cls-3{fill:#fff;}.cls-4{fill:#5dc2ef;}</style><linearGradient id="linear-gradient" x1="23.27" y1="105.58" x2="315.24" y2="105.58" gradientUnits="userSpaceOnUse"><stop offset="0" stop-color="#254a99"/><stop offset="1" stop-color="#2b2b6f"/></linearGradient></defs><title>Artboard 21</title><rect class="cls-1" x="23.27" y="30.28" width="291.97" height="150.6"/><rect class="cls-2" width="291.97" height="150.6"/><path class="cls-3" d="M134.58,106a12.9,12.9,0,1,1,12.9-12.9A12.92,12.92,0,0,1,134.58,106Zm0-22.12a9.22,9.22,0,1,0,9.21,9.22A9.23,9.23,0,0,0,134.58,83.86Z"/><path class="cls-3" d="M173.28,61.75a7.38,7.38,0,1,1,7.37-7.37A7.38,7.38,0,0,1,173.28,61.75Zm0-11.06A3.69,3.69,0,1,0,177,54.38,3.69,3.69,0,0,0,173.28,50.69Z"/><path class="cls-4" d="M142.21,124.41H127.46a1.84,1.84,0,0,1-1.84-1.84v-5.35a22.64,22.64,0,0,1-7.17-4.13l-4.82,2.72a1.85,1.85,0,0,1-2.51-.68l-7.37-12.77a1.86,1.86,0,0,1,.68-2.52l4.67-2.7a26.15,26.15,0,0,1-.32-4.06,25.57,25.57,0,0,1,.33-4.07l-4.65-2.69a1.89,1.89,0,0,1-.86-1.13,1.83,1.83,0,0,1,.19-1.39L111.19,71a1.84,1.84,0,0,1,2.51-.67l4.75,2.71a22.74,22.74,0,0,1,7.17-4.12V63.59a1.84,1.84,0,0,1,1.84-1.84h14.75a1.84,1.84,0,0,1,1.84,1.84v5.35A21.49,21.49,0,0,1,151,73l4.53-2.68A1.86,1.86,0,0,1,158,71l7.37,12.77a1.84,1.84,0,0,1-.68,2.52L160.05,89a26.9,26.9,0,0,1,.33,4.07,26.06,26.06,0,0,1-.32,4.06l4.69,2.7a1.83,1.83,0,0,1,.67,2.51l-7.34,12.78a1.84,1.84,0,0,1-2.53.67l-4.6-2.69a21.34,21.34,0,0,1-6.9,4.11v5.35A1.85,1.85,0,0,1,142.21,124.41Zm-12.91-3.69h11.06v-4.85a1.84,1.84,0,0,1,1.34-1.77,18.46,18.46,0,0,0,7.8-4.62,1.86,1.86,0,0,1,2.17-.23l4.14,2.43,5.5-9.57-4.21-2.43a1.83,1.83,0,0,1-.89-2,22.12,22.12,0,0,0,0-9.26,1.86,1.86,0,0,1,.88-2l4.21-2.42-5.52-9.57-4.09,2.42a1.84,1.84,0,0,1-2.17-.22,18.34,18.34,0,0,0-7.8-4.61,1.85,1.85,0,0,1-1.34-1.78V65.43H129.3v4.86A1.84,1.84,0,0,1,128,72.07a19.3,19.3,0,0,0-8,4.61,1.84,1.84,0,0,1-2.15.23l-4.3-2.45-5.56,9.59,4.19,2.42a1.86,1.86,0,0,1,.88,2,22.07,22.07,0,0,0,0,9.25,1.84,1.84,0,0,1-.88,2l-4.2,2.43,5.53,9.59,4.37-2.46a1.85,1.85,0,0,1,2.14.24A19.28,19.28,0,0,0,128,114.1a1.83,1.83,0,0,1,1.33,1.77Z"/><path class="cls-4" d="M177.22,72.8h-7.37A1.84,1.84,0,0,1,168,71V68A16.92,16.92,0,0,1,164.34,66l-2.69,1.5a1.86,1.86,0,0,1-2.5-.69l-3.68-6.38a1.85,1.85,0,0,1-.19-1.4,1.89,1.89,0,0,1,.86-1.12l2.55-1.46a14,14,0,0,1,0-4.09l-2.52-1.46a1.86,1.86,0,0,1-.67-2.52L159.22,42a1.85,1.85,0,0,1,2.5-.68l2.63,1.49A16.19,16.19,0,0,1,168,40.73V37.79A1.84,1.84,0,0,1,169.85,36h7.37a1.84,1.84,0,0,1,1.84,1.84v3a14.72,14.72,0,0,1,3.39,2l2.4-1.44a1.88,1.88,0,0,1,1.41-.2,1.79,1.79,0,0,1,1.13.86l3.69,6.38a1.85,1.85,0,0,1-.68,2.52l-2.53,1.47a14.11,14.11,0,0,1,.15,2,15.27,15.27,0,0,1-.14,2l2.55,1.47a1.85,1.85,0,0,1,.68,2.52l-3.65,6.38a1.82,1.82,0,0,1-1.13.86,1.8,1.8,0,0,1-1.4-.19L182.46,66a15,15,0,0,1-3.4,2V71A1.84,1.84,0,0,1,177.22,72.8Zm-5.53-3.68h3.69V66.74A1.84,1.84,0,0,1,176.67,65,11.3,11.3,0,0,0,181,62.4a1.87,1.87,0,0,1,2.21-.25l2,1.18L187,60.16,184.91,59a1.85,1.85,0,0,1-.87-2,11,11,0,0,0,.29-2.56,11.19,11.19,0,0,0-.31-2.57,1.83,1.83,0,0,1,.88-2L187,48.6l-1.82-3.16-1.94,1.15a1.84,1.84,0,0,1-2.21-.24,11.36,11.36,0,0,0-4.33-2.58A1.84,1.84,0,0,1,175.38,42V39.63h-3.69V42a1.85,1.85,0,0,1-1.28,1.76,12.14,12.14,0,0,0-4.59,2.57,1.83,1.83,0,0,1-2.17.26l-2.16-1.22-1.87,3.22,2,1.19a1.83,1.83,0,0,1,.87,2,10.85,10.85,0,0,0,0,5.11,1.85,1.85,0,0,1-.87,2l-2.08,1.2,1.86,3.21,2.21-1.24a1.86,1.86,0,0,1,2.17.27A12.37,12.37,0,0,0,170.41,65a1.84,1.84,0,0,1,1.28,1.76Z"/><path class="cls-3" d="M135.52,49h-.94a44.12,44.12,0,0,0-44,41.93l-1.43-1.43a1.84,1.84,0,1,0-2.6,2.61l4.52,4.52a1.83,1.83,0,0,0,2.6,0l4.53-4.52a1.85,1.85,0,1,0-2.61-2.61l-1.31,1.31A40.43,40.43,0,0,1,134.58,52.7h.9a1.85,1.85,0,0,0,0-3.69Z"/><path class="cls-4" d="M205.45,50.81a1.85,1.85,0,0,0-2.61,0l-1.46,1.47a28.22,28.22,0,0,0-28.1-26.09,1.84,1.84,0,1,0,0,3.68,24.54,24.54,0,0,1,24.39,22.21l-1.27-1.27a1.84,1.84,0,0,0-2.6,2.61l4.52,4.52a1.83,1.83,0,0,0,2.6,0l4.53-4.52A1.85,1.85,0,0,0,205.45,50.81Z"/></svg>