<svg id="Layer_1" data-name="Layer 1" xmlns="http://www.w3.org/2000/svg" viewBox="0 0 60 60"><defs><style>.cls-1{fill:#5dc2ef;}.cls-2{fill:#367dbf;}</style></defs><title>Artboard 7</title><path class="cls-1" d="M53.42,53.42H6.58A6.17,6.17,0,0,1,.42,47.26V12.74A6.17,6.17,0,0,1,6.58,6.58H53.42a6.17,6.17,0,0,1,6.16,6.16V47.26A6.17,6.17,0,0,1,53.42,53.42ZM6.58,9.05a3.7,3.7,0,0,0-3.7,3.69V47.26A3.7,3.7,0,0,0,6.58,51H53.42a3.7,3.7,0,0,0,3.7-3.69V12.74a3.7,3.7,0,0,0-3.7-3.69Z"/><path class="cls-1" d="M58.35,21.37H1.65a1.23,1.23,0,0,1,0-2.46h56.7a1.23,1.23,0,0,1,0,2.46Z"/><path class="cls-2" d="M10.28,16.44A2.47,2.47,0,1,1,12.74,14,2.47,2.47,0,0,1,10.28,16.44Zm0-2.47h0Z"/><path class="cls-2" d="M17.67,16.44A2.47,2.47,0,1,1,20.14,14,2.46,2.46,0,0,1,17.67,16.44Zm0-2.47h0Z"/><path class="cls-2" d="M25.07,16.44A2.47,2.47,0,1,1,27.53,14,2.47,2.47,0,0,1,25.07,16.44Zm0-2.47h0Z"/><path class="cls-1" d="M46,28.77H21.37a1.24,1.24,0,0,1,0-2.47H46a1.24,1.24,0,1,1,0,2.47Z"/><path class="cls-2" d="M14,28.77H11.51a1.24,1.24,0,0,1,0-2.47H14a1.24,1.24,0,0,1,0,2.47Z"/><path class="cls-1" d="M46,36.16H21.37a1.23,1.23,0,0,1,0-2.46H46a1.23,1.23,0,1,1,0,2.46Z"/><path class="cls-2" d="M14,36.16H11.51a1.23,1.23,0,0,1,0-2.46H14a1.23,1.23,0,1,1,0,2.46Z"/><path class="cls-1" d="M46,43.56H21.37a1.24,1.24,0,0,1,0-2.47H46a1.24,1.24,0,1,1,0,2.47Z"/><path class="cls-2" d="M14,43.56H11.51a1.24,1.24,0,0,1,0-2.47H14a1.24,1.24,0,0,1,0,2.47Z"/></svg>