<svg id="Layer_1" data-name="Layer 1" xmlns="http://www.w3.org/2000/svg" xmlns:xlink="http://www.w3.org/1999/xlink" viewBox="0 0 311.17 180.87"><defs><style>.cls-1{fill:url(#linear-gradient);}.cls-2{fill:#367dbf;}.cls-3{fill:#5dc2ef;}.cls-4{fill:#fff;}</style><linearGradient id="linear-gradient" x1="3060" y1="303.58" x2="3354.06" y2="303.58" gradientTransform="translate(-3060 -198)" gradientUnits="userSpaceOnUse"><stop offset="0" stop-color="#254a99"/><stop offset="0.74" stop-color="#29347b"/><stop offset="1" stop-color="#2b2b6f"/></linearGradient></defs><title>Artboard 20</title><rect class="cls-1" y="30.28" width="291.97" height="150.6" transform="translate(291.97 211.15) rotate(-180)"/><rect class="cls-2" x="19.2" width="291.97" height="150.6"/><path class="cls-3" d="M160.25,52.47a9.23,9.23,0,1,1,9.23-9.23A9.24,9.24,0,0,1,160.25,52.47Zm0-14.78a5.55,5.55,0,1,0,5.55,5.55A5.55,5.55,0,0,0,160.25,37.69Z"/><path class="cls-4" d="M131,49.65,141,39.7a1.84,1.84,0,1,0-2.6-2.6l-10,9.94-9.95-9.94a1.84,1.84,0,0,0-2.6,2.6l9.94,9.95-9.94,10a1.84,1.84,0,1,0,2.6,2.6l9.95-9.94,10,9.94a1.84,1.84,0,1,0,2.6-2.6Z"/><path class="cls-4" d="M200.07,98.79l10-9.94a1.85,1.85,0,1,0-2.61-2.61l-9.94,10-9.95-10a1.85,1.85,0,1,0-2.61,2.61l10,9.94-10,9.95a1.85,1.85,0,0,0,2.61,2.61l9.95-9.95,9.94,9.95a1.85,1.85,0,0,0,2.61-2.61Z"/><path class="cls-3" d="M219.21,47.9,205.86,34.55a1.84,1.84,0,1,0-2.61,2.6l10.21,10.21H194.37A28.61,28.61,0,0,0,165.8,75.93V86A10.94,10.94,0,0,1,154.87,97h-8.75a17.8,17.8,0,1,0,0,3.69h8.75A14.64,14.64,0,0,0,169.49,86V75.93A24.92,24.92,0,0,1,194.37,51h19.09L203.25,61.25a1.85,1.85,0,0,0,0,2.61,1.87,1.87,0,0,0,2.61,0L219.21,50.5A1.83,1.83,0,0,0,219.21,47.9Zm-90.79,65a14.11,14.11,0,1,1,14.11-14.11A14.13,14.13,0,0,1,128.42,112.9Z"/></svg>