<svg id="Layer_1" data-name="Layer 1" xmlns="http://www.w3.org/2000/svg" viewBox="0 0 1122.22 506.54"><defs><style>.cls-1{fill:#d8f16b;}.cls-2{fill:#a0b350;}.cls-3{fill:#c2d961;}.cls-4{fill:#367dbf;}.cls-5{fill:#bdccd3;}.cls-6{fill:#5dc2ef;}.cls-7{fill:#859095;}.cls-8{fill:#a7b4ba;}.cls-9{fill:#8eddff;}.cls-10{fill:#2b2b6f;}.cls-11{fill:#4ea4ca;}.cls-12{fill:#5dc3ef;}.cls-13{fill:#9ddb53;}.cls-14{fill:#6b9538;}.cls-15{fill:#8bc34a;}.cls-16{fill:#ff9f7a;}.cls-17{fill:#c279c4;}.cls-18{fill:#c86f4c;}.cls-19{fill:#ee875c;}.cls-20{fill:#a969aa;}.cls-21{fill:#845285;}.cls-22{fill:#eed77f;}.cls-23{fill:#eed25d;}.cls-24{fill:#c8af4e;}.cls-25{fill:#90e9da;}.cls-26{fill:#7ecbbf;}.cls-27{fill:#66a69a;}.cls-28{fill:#ff7893;}.cls-29{fill:#ef5d7a;}.cls-30{fill:#c94e66;}.cls-31{fill:#fff;}</style></defs><title>Artboard 31</title><g id="Layer_1-2" data-name="Layer 1"><path class="cls-1" d="M562.62,0l-60,34.79,60,34.78,60-34.78Z"/><path class="cls-2" d="M502.93,34.51,502.66,58l39.83,23,.08,23.07,20.31-11.62,0-23.34Z"/><path class="cls-3" d="M622.32,34.51,562.43,69.08l0,23.35L582.69,104,582.76,81,622.6,58Z"/><path class="cls-4" d="M482.89,46,343.25,126.78l139.64,80.77L543,172.71l-79.66-45.93L543,80.85Z"/><path class="cls-5" d="M642.3,46l-60,34.78,60,34.79,60-34.79Z"/><path class="cls-6" d="M542.63,80.5l-79.84,46.14,40.09,23.43.21-23.1,39.84-23Z"/><path class="cls-7" d="M582.6,80.5,582.33,104l39.84,23,.07,23.06,20.3-11.61,0-23.35Z"/><path class="cls-8" d="M702,80.5,642.1,115.07l-.05,23.36L662.36,150l.07-23.05,39.84-23Z"/><path class="cls-9" d="M562.62,92l-60,34.79,60,34.78,60-34.78Z"/><path class="cls-9" d="M722,92l-60,34.79,60,34.78,60-34.78Z"/><path class="cls-10" d="M343.32,126.6l0,253.31L562.67,506.54l.22-161.38-79.68-46,0-92Z"/><path class="cls-11" d="M502.93,126.5,502.66,150l39.83,23,.08,23.07,20.31-11.62,0-23.34Z"/><path class="cls-12" d="M622.32,126.5l-59.89,34.57,0,23.35L582.69,196l.07-23.06,39.84-23Z"/><path class="cls-11" d="M662.26,126.5,662,150l39.81,22.95,0,46,20.46,11.5V161.13Z"/><path class="cls-6" d="M781.86,126.53l-60.14,34.6.1,69.39L782,195.92Z"/><path class="cls-13" d="M642.3,138l-60,34.79,60,34.78,60-34.78Z"/><path class="cls-6" d="M542.66,172.5l-60,34.65,0,92.18,20.48-11.49,0-68.95L542.93,196Z"/><path class="cls-14" d="M582.6,172.5,582.33,196l39.8,23,0,46,20.46,11.5,0-69.24Z"/><path class="cls-15" d="M702.19,172.53l-60.14,34.6.1,69.39,60.15-34.6Z"/><path class="cls-16" d="M562.62,184l-60,34.78,60,34.79,60-34.79Z"/><path class="cls-17" d="M761.74,207l-39.83,23-20-11.46-.1,23.39L722,253.55,781.94,219Z"/><path class="cls-18" d="M502.73,218.53l-.1,69.39,60.14,34.59.11-69.39Z"/><path class="cls-19" d="M622.53,218.53l-60.15,34.59.1,69.39,60.15-34.59Z"/><path class="cls-20" d="M781.86,218.53l-60.14,34.59.1,69.39L782,287.92Z"/><path class="cls-21" d="M702,241.48l-20.19,11.79,19.92,11.6v46l20.46,11.49V253.2Z"/><path class="cls-22" d="M682.08,253l-39.84,23-20-11.47-.1,23.4,20.25,11.63L702.27,265Z"/><path class="cls-23" d="M702.19,264.52l-60.14,34.6.1,69.39,60.15-34.6Z"/><path class="cls-4" d="M503,287.49l-20.2,12,79.85,46.08,60-34.59-20.19-12-39.75,23Z"/><path class="cls-24" d="M622.38,287.48l-20.21,11.79,19.94,11.6v46l20.46,11.5V299.2Z"/><path class="cls-25" d="M761.74,299l-39.83,23-20-11.47-.1,23.39L722,345.54,781.94,311Z"/><path class="cls-6" d="M622.64,310.64l-60.29,34.54,0,161.2,60.28-34.54Z"/><path class="cls-26" d="M781.86,310.52l-60.14,34.6.1,69.39L782,379.91Z"/><path class="cls-27" d="M702,333.48l-20.19,11.78,19.92,11.6v46l20.46,11.5V345.2Z"/><path class="cls-28" d="M682.08,345l-39.84,23-20-11.46-.1,23.39,20.25,11.63L702.27,357Z"/><path class="cls-29" d="M702.19,356.52l-60.14,34.59.1,69.39,60.15-34.6Z"/><path class="cls-30" d="M622.11,379.67v69.16l20.47,11.53V391.19Z"/></g><path class="cls-31" d="M832.25,270.18h-69.1a7.81,7.81,0,1,0,0,4h70.75l143-143-2.83-2.82Z"/><path class="cls-31" d="M528.27,264.65a7.81,7.81,0,0,0-7.54,5.79H303.87L186,152.56l-2.83,2.83L302.21,274.44H520.72a7.81,7.81,0,0,0,7.55,5.83h0a7.81,7.81,0,1,0,0-15.62Z"/><path class="cls-31" d="M566.41,120.25A7.83,7.83,0,0,0,557,119L479.49,41.58H115.67v4H477.84l76.29,76.29a7.81,7.81,0,1,0,12.28-1.62Z"/><path class="cls-31" d="M788.5,28.1A7.76,7.76,0,0,0,783,30.39L647.83,165.53a7.81,7.81,0,1,0,2.82,2.83L785.8,33.22a3.8,3.8,0,0,1,2.7-1.12h221.66v-4Z"/><rect class="cls-6" y="18.58" width="220" height="50"/><path class="cls-31" d="M21.47,48.17a6.68,6.68,0,0,1-1.35-4.61q0-6,5.63-6.05a8,8,0,0,1,1.68.18,4.76,4.76,0,0,1,1.33.45q.42.24.42.51a1.27,1.27,0,0,1-.16.53,3.12,3.12,0,0,1-.37.59.55.55,0,0,1-.38.25,1.63,1.63,0,0,1-.41-.17,5.41,5.41,0,0,0-.89-.3,5.19,5.19,0,0,0-1.25-.14,3,3,0,0,0-2.49,1,5,5,0,0,0-.81,3.15,5.07,5.07,0,0,0,.81,3.13,2.9,2.9,0,0,0,2.45,1A4.59,4.59,0,0,0,27,47.57a6.69,6.69,0,0,0,1.11-.42,1.09,1.09,0,0,1,.37-.14.5.5,0,0,1,.38.25,2.24,2.24,0,0,1,.33.57,1.44,1.44,0,0,1,.14.46c0,.26-.19.5-.58.71a5,5,0,0,1-1.41.48,9.07,9.07,0,0,1-1.7.17A5.48,5.48,0,0,1,21.47,48.17Z"/><path class="cls-31" d="M32.46,48.08a6.62,6.62,0,0,1-1.39-4.52,6.59,6.59,0,0,1,1.39-4.5,5.12,5.12,0,0,1,4-1.55,5.07,5.07,0,0,1,4,1.55,6.55,6.55,0,0,1,1.38,4.5,6.62,6.62,0,0,1-1.38,4.52,5,5,0,0,1-4,1.57A5.07,5.07,0,0,1,32.46,48.08Zm6.29-1.41a5.23,5.23,0,0,0,.79-3.11,5.07,5.07,0,0,0-.79-3.09,3,3,0,0,0-4.59,0,5.07,5.07,0,0,0-.79,3.09,5.15,5.15,0,0,0,.79,3.11,3,3,0,0,0,4.59,0Z"/><path class="cls-31" d="M49.41,46.23,47,42a3.69,3.69,0,0,1-.39-.69h-.07c0,.2,0,.48,0,.87v6.92c0,.33-.3.49-.9.49h-.38c-.6,0-.9-.16-.9-.49v-11c0-.33.3-.5.9-.5h.8c.49,0,.81.14,1,.41l3,5.22a3.17,3.17,0,0,1,.27.56,3.24,3.24,0,0,1,.28-.58l3-5.2a1,1,0,0,1,.94-.41h.78c.6,0,.9.17.9.5v11c0,.33-.3.49-.9.49h-.38c-.6,0-.9-.16-.9-.49V42.18c0-.38,0-.67,0-.86l-.07,0a4.15,4.15,0,0,1-.39.7l-2.4,4.23a.63.63,0,0,1-.57.29H50A.66.66,0,0,1,49.41,46.23Z"/><path class="cls-31" d="M59.33,49.44a.39.39,0,0,1-.21-.37V38.26a.66.66,0,0,1,.15-.48.61.61,0,0,1,.46-.15h3.54a5,5,0,0,1,2.75.75,3.08,3.08,0,0,1,1.19,2.83A3.32,3.32,0,0,1,65,44.59a5,5,0,0,1-1.54.28H61.35v4.2c0,.33-.3.49-.9.49H60A1.47,1.47,0,0,1,59.33,49.44ZM63.25,43a1.93,1.93,0,0,0,1.17-.38,1.61,1.61,0,0,0,.51-1.36,1.48,1.48,0,0,0-.52-1.3,2.1,2.1,0,0,0-1.24-.38H61.35V43Z"/><path class="cls-31" d="M69.52,49.37a.65.65,0,0,1-.15-.47V38.09c0-.33.3-.5.9-.5h.43a1.52,1.52,0,0,1,.69.12.41.41,0,0,1,.21.38v9.53h4a.37.37,0,0,1,.34.18,1.28,1.28,0,0,1,.1.55v.45a1.25,1.25,0,0,1-.1.55.37.37,0,0,1-.34.18H70A.63.63,0,0,1,69.52,49.37Z"/><path class="cls-31" d="M78.18,49.37A.61.61,0,0,1,78,48.9V38.26a.63.63,0,0,1,.16-.49.69.69,0,0,1,.47-.14H84.6a.37.37,0,0,1,.35.17,1.1,1.1,0,0,1,.11.56v.44a1.1,1.1,0,0,1-.11.56.37.37,0,0,1-.35.17H80.25v3h3.88a.4.4,0,0,1,.35.17,1.1,1.1,0,0,1,.11.56v.44a1.1,1.1,0,0,1-.11.56.38.38,0,0,1-.35.17H80.25v3.23h4.37a.4.4,0,0,1,.35.17,1.12,1.12,0,0,1,.11.56v.45a1.12,1.12,0,0,1-.11.56.4.4,0,0,1-.35.17h-6A.61.61,0,0,1,78.18,49.37Z"/><path class="cls-31" d="M89.87,49.07V39.53H87a.38.38,0,0,1-.35-.17,1.1,1.1,0,0,1-.11-.56v-.44a1.1,1.1,0,0,1,.11-.56.38.38,0,0,1,.35-.17h8a.38.38,0,0,1,.35.17,1.1,1.1,0,0,1,.11.56v.44a1.1,1.1,0,0,1-.11.56.38.38,0,0,1-.35.17H92.12v9.54c0,.33-.3.49-.9.49h-.45C90.17,49.56,89.87,49.4,89.87,49.07Z"/><path class="cls-31" d="M97.64,49.37a.65.65,0,0,1-.15-.47V38.26a.67.67,0,0,1,.15-.49.71.71,0,0,1,.48-.14h5.95a.38.38,0,0,1,.35.17,1.1,1.1,0,0,1,.11.56v.44a1.1,1.1,0,0,1-.11.56.38.38,0,0,1-.35.17H99.72v3h3.87a.39.39,0,0,1,.35.17,1.1,1.1,0,0,1,.11.56v.44a1.1,1.1,0,0,1-.11.56.37.37,0,0,1-.35.17H99.72v3.23h4.36a.39.39,0,0,1,.35.17,1,1,0,0,1,.11.56v.45a1,1,0,0,1-.11.56.39.39,0,0,1-.35.17h-6A.62.62,0,0,1,97.64,49.37Z"/><path class="cls-31" d="M107.35,49.37a.65.65,0,0,1-.15-.47V38.09c0-.33.3-.5.9-.5h.42a1.47,1.47,0,0,1,.69.12.41.41,0,0,1,.21.38v9.53h4a.36.36,0,0,1,.34.18,1.15,1.15,0,0,1,.1.55v.45a1.12,1.12,0,0,1-.1.55.36.36,0,0,1-.34.18h-5.63A.61.61,0,0,1,107.35,49.37Z"/><path class="cls-31" d="M118.07,49.07V43.68l-3.43-5.37a.85.85,0,0,1-.17-.39q0-.33,1-.33H116a1.07,1.07,0,0,1,.92.31l2.33,3.82,2.34-3.84c.14-.19.45-.29.94-.29H123c.62,0,.94.11.94.33a.84.84,0,0,1-.16.39l-3.45,5.42v5.34c0,.33-.3.49-.9.49H119C118.38,49.56,118.07,49.4,118.07,49.07Z"/><path class="cls-31" d="M130.28,49.07V38.26a.67.67,0,0,1,.15-.49.72.72,0,0,1,.48-.14h5.51a.38.38,0,0,1,.35.17,1.1,1.1,0,0,1,.11.56v.44a1.1,1.1,0,0,1-.11.56.38.38,0,0,1-.35.17h-3.91v3h3.72a.39.39,0,0,1,.35.17,1.1,1.1,0,0,1,.11.56v.44a1.1,1.1,0,0,1-.11.56.37.37,0,0,1-.35.17h-3.72v4.68a.39.39,0,0,1-.21.37,1.52,1.52,0,0,1-.69.12h-.43C130.58,49.56,130.28,49.4,130.28,49.07Z"/><path class="cls-31" d="M139.41,49.37a.65.65,0,0,1-.15-.47V38.09c0-.33.3-.5.9-.5h.42a1.47,1.47,0,0,1,.69.12.41.41,0,0,1,.21.38v9.53h4a.36.36,0,0,1,.34.18,1.15,1.15,0,0,1,.1.55v.45a1.12,1.12,0,0,1-.1.55.36.36,0,0,1-.34.18h-5.62A.62.62,0,0,1,139.41,49.37Z"/><path class="cls-31" d="M148.06,49.37a.65.65,0,0,1-.15-.47V38.26a.67.67,0,0,1,.15-.49.71.71,0,0,1,.48-.14h6a.38.38,0,0,1,.35.17,1.1,1.1,0,0,1,.11.56v.44a1.1,1.1,0,0,1-.11.56.38.38,0,0,1-.35.17h-4.35v3H154a.39.39,0,0,1,.35.17,1,1,0,0,1,.11.56v.44a1,1,0,0,1-.11.56.37.37,0,0,1-.35.17h-3.87v3.23h4.37a.38.38,0,0,1,.34.17,1,1,0,0,1,.11.56v.45a1,1,0,0,1-.11.56.38.38,0,0,1-.34.17h-6A.62.62,0,0,1,148.06,49.37Z"/><path class="cls-31" d="M156.41,49.26a.91.91,0,0,1,.15-.4l3.62-5.54-3.21-5a.8.8,0,0,1-.15-.39c0-.2.32-.31,1-.31h.54a1.07,1.07,0,0,1,.92.31l2.21,3.48,2.31-3.5a.55.55,0,0,1,.32-.23,2.41,2.41,0,0,1,.6-.06h.47c.65,0,1,.11,1,.31a.8.8,0,0,1-.15.39l-3.28,5,3.55,5.54a.87.87,0,0,1,.14.4c0,.2-.32.3-1,.3h-.53c-.47,0-.78-.1-.92-.3l-2.56-4-2.62,4a.64.64,0,0,1-.35.23,2.27,2.27,0,0,1-.59.06h-.47C156.73,49.56,156.41,49.46,156.41,49.26Z"/><path class="cls-31" d="M168.29,49.07v-11c0-.34.31-.51.92-.51h.43q.9,0,.9.51v11q0,.51-.9.51h-.43C168.6,49.58,168.29,49.41,168.29,49.07Z"/><path class="cls-31" d="M173.82,49.37a.65.65,0,0,1-.16-.47V38.26a.67.67,0,0,1,.16-.49.69.69,0,0,1,.47-.14h3.25a4.6,4.6,0,0,1,3,.81,2.69,2.69,0,0,1,1,2.2,2.56,2.56,0,0,1-.53,1.57,2.87,2.87,0,0,1-1.32,1l0,.07a2.75,2.75,0,0,1,1,.46,3.18,3.18,0,0,1,.91,1,2.51,2.51,0,0,1,.38,1.36,3.09,3.09,0,0,1-1.09,2.56,5,5,0,0,1-3.23.88h-3.37A.61.61,0,0,1,173.82,49.37Zm3.53-6.86a2,2,0,0,0,1.34-.44,1.39,1.39,0,0,0,.5-1.09c0-1-.61-1.47-1.84-1.47h-1.46v3Zm.5,5.11a2,2,0,0,0,1.36-.43,1.6,1.6,0,0,0,.47-1.23,1.35,1.35,0,0,0-.54-1.15,2.6,2.6,0,0,0-1.57-.4h-1.68v3.21Z"/><path class="cls-31" d="M184.32,49.37a.65.65,0,0,1-.15-.47V38.09c0-.33.3-.5.9-.5h.43a1.52,1.52,0,0,1,.69.12.41.41,0,0,1,.21.38v9.53h4a.37.37,0,0,1,.34.18,1.28,1.28,0,0,1,.1.55v.45a1.25,1.25,0,0,1-.1.55.37.37,0,0,1-.34.18H184.8A.63.63,0,0,1,184.32,49.37Z"/><path class="cls-31" d="M193,49.37a.61.61,0,0,1-.16-.47V38.26a.63.63,0,0,1,.16-.49.69.69,0,0,1,.47-.14h6a.37.37,0,0,1,.35.17,1.1,1.1,0,0,1,.11.56v.44a1.1,1.1,0,0,1-.11.56.37.37,0,0,1-.35.17h-4.35v3h3.88a.38.38,0,0,1,.34.17,1,1,0,0,1,.11.56v.44a1,1,0,0,1-.11.56.36.36,0,0,1-.34.17h-3.88v3.23h4.37a.4.4,0,0,1,.35.17,1.12,1.12,0,0,1,.11.56v.45a1.12,1.12,0,0,1-.11.56.4.4,0,0,1-.35.17h-6A.61.61,0,0,1,193,49.37Z"/><rect class="cls-6" x="84.87" y="127.19" width="220" height="50"/><path class="cls-31" d="M145.21,157.68v-11c0-.34.3-.51.92-.51h.42q.9,0,.9.51v11q0,.51-.9.51h-.42C145.51,158.19,145.21,158,145.21,157.68Z"/><path class="cls-31" d="M150.46,157.68v-11c0-.33.3-.5.9-.5H152a1.75,1.75,0,0,1,.61.09.66.66,0,0,1,.36.32l4.35,6.65a7.56,7.56,0,0,1,.6,1l.07,0a11.34,11.34,0,0,1,0-1.16v-6.4c0-.33.3-.5.9-.5h.38c.6,0,.9.17.9.5v11c0,.33-.3.49-.9.49h-.55a1.77,1.77,0,0,1-.57-.08.81.81,0,0,1-.36-.31L153.26,151a6.34,6.34,0,0,1-.59-1l-.07,0c0,.26,0,.64,0,1.15v6.5c0,.33-.3.49-.91.49h-.37C150.76,158.17,150.46,158,150.46,157.68Z"/><path class="cls-31" d="M165.37,157.68v-9.54h-2.89a.39.39,0,0,1-.35-.17,1.1,1.1,0,0,1-.11-.56V147a1.1,1.1,0,0,1,.11-.56.37.37,0,0,1,.35-.17h8a.36.36,0,0,1,.34.17,1,1,0,0,1,.11.56v.44a1,1,0,0,1-.11.56.38.38,0,0,1-.34.17h-2.88v9.54c0,.33-.3.49-.9.49h-.44C165.67,158.17,165.37,158,165.37,157.68Z"/><path class="cls-31" d="M173.14,158a.65.65,0,0,1-.16-.47V146.87a.67.67,0,0,1,.16-.49.69.69,0,0,1,.47-.14h5.95a.37.37,0,0,1,.35.17,1,1,0,0,1,.11.56v.44a1,1,0,0,1-.11.56.39.39,0,0,1-.35.17h-4.35v3h3.88a.4.4,0,0,1,.35.17,1.1,1.1,0,0,1,.11.56v.44a1.1,1.1,0,0,1-.11.56.38.38,0,0,1-.35.17h-3.88v3.23h4.37a.4.4,0,0,1,.35.17,1.12,1.12,0,0,1,.11.56v.45a1.12,1.12,0,0,1-.11.56.4.4,0,0,1-.35.17h-6A.61.61,0,0,1,173.14,158Z"/><path class="cls-31" d="M191.34,151.84a.58.58,0,0,1,.16.47V157c0,.49-.41.83-1.21,1a12.37,12.37,0,0,1-2.7.28,5.36,5.36,0,0,1-4.12-1.48,6.63,6.63,0,0,1-1.36-4.58q0-6.07,5.63-6.08a9,9,0,0,1,1.61.15,5.09,5.09,0,0,1,1.36.42c.35.17.53.36.53.57a1.27,1.27,0,0,1-.16.53,2.71,2.71,0,0,1-.38.59.59.59,0,0,1-.39.25,1.79,1.79,0,0,1-.42-.17,5.23,5.23,0,0,0-.92-.3,5.34,5.34,0,0,0-1.26-.14,3,3,0,0,0-2.51,1,5,5,0,0,0-.79,3.09q0,4.2,3.21,4.2a8.44,8.44,0,0,0,1.63-.15v-2.6h-1.66a.39.39,0,0,1-.35-.17,1.12,1.12,0,0,1-.11-.56v-.45a1.12,1.12,0,0,1,.11-.56.39.39,0,0,1,.35-.17h3.28A.65.65,0,0,1,191.34,151.84Z"/><path class="cls-31" d="M194.47,157.68V146.87a.66.66,0,0,1,.15-.48.61.61,0,0,1,.46-.15h3.17a5.22,5.22,0,0,1,3.15.78,2.74,2.74,0,0,1,1,2.34,2.78,2.78,0,0,1-.53,1.7,3.17,3.17,0,0,1-1.44,1.08v.06a1.64,1.64,0,0,1,.71.61,5.06,5.06,0,0,1,.61,1.14l1.45,3.61a2.49,2.49,0,0,1,.07.29c0,.21-.31.32-.92.32h-.51c-.5,0-.8-.11-.89-.32l-1.32-3.33a2.15,2.15,0,0,0-.73-1,2.33,2.33,0,0,0-1.26-.28h-1v4.41c0,.33-.3.49-.9.49h-.43C194.77,158.17,194.47,158,194.47,157.68Zm4.07-6.33a1.48,1.48,0,0,0,1.12-.5,1.68,1.68,0,0,0,.47-1.18,1.41,1.41,0,0,0-.46-1.13,1.81,1.81,0,0,0-1.25-.4H196.7v3.21Z"/><path class="cls-31" d="M204,157.83a1.45,1.45,0,0,1,.07-.29l3.84-11q.1-.33.87-.33h.75c.5,0,.78.11.86.33l3.85,11a1.26,1.26,0,0,1,.05.29c0,.23-.27.34-.82.34h-.53c-.5,0-.78-.11-.86-.32l-.78-2.33h-4.36l-.78,2.33c-.08.21-.33.32-.75.32h-.47C204.3,158.17,204,158.06,204,157.83Zm6.65-4.22-1.24-3.74a6.41,6.41,0,0,1-.24-1.05h-.07c0,.07,0,.22-.08.44a4.08,4.08,0,0,1-.17.61l-1.28,3.74Z"/><path class="cls-31" d="M217.64,157.68v-9.54h-2.89a.4.4,0,0,1-.35-.17,1.1,1.1,0,0,1-.11-.56V147a1.1,1.1,0,0,1,.11-.56.38.38,0,0,1,.35-.17h8a.38.38,0,0,1,.35.17,1.1,1.1,0,0,1,.11.56v.44a1.1,1.1,0,0,1-.11.56.4.4,0,0,1-.35.17h-2.87v9.54c0,.33-.3.49-.9.49h-.45C217.94,158.17,217.64,158,217.64,157.68Z"/><path class="cls-31" d="M225.41,158a.65.65,0,0,1-.15-.47V146.87a.67.67,0,0,1,.15-.49.71.71,0,0,1,.48-.14h6a.38.38,0,0,1,.35.17,1.1,1.1,0,0,1,.11.56v.44a1.1,1.1,0,0,1-.11.56.4.4,0,0,1-.35.17h-4.35v3h3.87a.39.39,0,0,1,.35.17,1.1,1.1,0,0,1,.11.56v.44a1.1,1.1,0,0,1-.11.56.37.37,0,0,1-.35.17h-3.87v3.23h4.36a.39.39,0,0,1,.35.17,1,1,0,0,1,.11.56v.45a1,1,0,0,1-.11.56.39.39,0,0,1-.35.17h-6A.62.62,0,0,1,225.41,158Z"/><path class="cls-31" d="M235.12,158a.65.65,0,0,1-.15-.47V146.87a.67.67,0,0,1,.15-.49.69.69,0,0,1,.47-.14h3.58a5.22,5.22,0,0,1,4,1.49,7.7,7.7,0,0,1,0,8.91,5.19,5.19,0,0,1-4,1.5h-3.58A.61.61,0,0,1,235.12,158Zm4-1.75a2.8,2.8,0,0,0,2.31-1,4.7,4.7,0,0,0,.82-3,4.75,4.75,0,0,0-.82-3,2.83,2.83,0,0,0-2.31-1h-1.9v8.09Z"/><rect class="cls-6" x="902.22" y="5.1" width="220" height="50"/><path class="cls-31" d="M943.52,35.59V24.78a.63.63,0,0,1,.15-.48.66.66,0,0,1,.48-.15h5.51a.37.37,0,0,1,.34.17,1,1,0,0,1,.11.56v.45a1,1,0,0,1-.11.56.37.37,0,0,1-.34.17h-3.91v3h3.72a.4.4,0,0,1,.35.17,1.14,1.14,0,0,1,.11.57v.44a1.1,1.1,0,0,1-.11.56.4.4,0,0,1-.35.17h-3.72v4.67a.4.4,0,0,1-.22.38,1.45,1.45,0,0,1-.68.12h-.43C943.82,36.09,943.52,35.92,943.52,35.59Z"/><path class="cls-31" d="M951.15,35.75a1.3,1.3,0,0,1,.07-.29l3.84-11c.07-.21.36-.32.87-.32h.75c.5,0,.78.11.86.32l3.85,11a1.18,1.18,0,0,1,.05.29c0,.22-.28.34-.82.34h-.53c-.5,0-.78-.11-.86-.33l-.79-2.33h-4.35l-.78,2.33q-.12.33-.75.33h-.47C951.46,36.09,951.15,36,951.15,35.75Zm6.65-4.22-1.24-3.74a6.41,6.41,0,0,1-.24-1.05h-.07l-.08.44a4.08,4.08,0,0,1-.17.61l-1.28,3.74Z"/><path class="cls-31" d="M964.41,35.11a3.68,3.68,0,0,1-1.26-3V24.61c0-.33.3-.49.9-.49h.43c.6,0,.9.16.9.49V32a2,2,0,0,0,.73,1.61,3.13,3.13,0,0,0,3.75,0,2,2,0,0,0,.74-1.6V24.61c0-.33.3-.49.9-.49h.41c.6,0,.9.16.9.49v7.52a3.68,3.68,0,0,1-1.26,3,6.54,6.54,0,0,1-7.14,0Z"/><path class="cls-31" d="M976,35.9a.66.66,0,0,1-.15-.48V24.61c0-.33.3-.49.9-.49h.43a1.45,1.45,0,0,1,.68.12.39.39,0,0,1,.22.37v9.54h4a.37.37,0,0,1,.34.18,1.25,1.25,0,0,1,.1.55v.44a1.25,1.25,0,0,1-.1.55.37.37,0,0,1-.34.18H976.5A.66.66,0,0,1,976,35.9Z"/><path class="cls-31" d="M985.81,35.59V26.06h-2.89a.38.38,0,0,1-.34-.17,1,1,0,0,1-.11-.56v-.45a1,1,0,0,1,.11-.56.38.38,0,0,1,.34-.17h8a.39.39,0,0,1,.35.17,1.12,1.12,0,0,1,.11.56v.45a1.12,1.12,0,0,1-.11.56.39.39,0,0,1-.35.17h-2.87v9.53c0,.33-.3.5-.9.5h-.44C986.11,36.09,985.81,35.92,985.81,35.59Z"/><path class="cls-31" d="M1000.08,35.59V26.06h-2.89a.39.39,0,0,1-.35-.17,1,1,0,0,1-.11-.56v-.45a1,1,0,0,1,.11-.56.39.39,0,0,1,.35-.17h8a.39.39,0,0,1,.35.17,1,1,0,0,1,.11.56v.45a1,1,0,0,1-.11.56.39.39,0,0,1-.35.17h-2.87v9.53c0,.33-.3.5-.9.5H1001C1000.38,36.09,1000.08,35.92,1000.08,35.59Z"/><path class="cls-31" d="M1008.51,34.61a6.59,6.59,0,0,1-1.39-4.52,6.52,6.52,0,0,1,1.39-4.5,5.9,5.9,0,0,1,8,0,6.56,6.56,0,0,1,1.39,4.51,6.64,6.64,0,0,1-1.39,4.52,5.88,5.88,0,0,1-8,0Zm6.28-1.41a5.18,5.18,0,0,0,.79-3.11,5.17,5.17,0,0,0-.78-3.1,3,3,0,0,0-4.6,0,5.1,5.1,0,0,0-.79,3.1,5.18,5.18,0,0,0,.79,3.11,3,3,0,0,0,4.59,0Z"/><path class="cls-31" d="M1020.7,35.9a.66.66,0,0,1-.15-.48V24.61c0-.33.3-.49.9-.49h.42a1.47,1.47,0,0,1,.69.12.39.39,0,0,1,.21.37v9.54h4a.36.36,0,0,1,.34.18,1.12,1.12,0,0,1,.1.55v.44a1.12,1.12,0,0,1-.1.55.36.36,0,0,1-.34.18h-5.63A.65.65,0,0,1,1020.7,35.9Z"/><path class="cls-31" d="M1029.35,35.9a.66.66,0,0,1-.15-.48V24.78a.63.63,0,0,1,.15-.48.66.66,0,0,1,.48-.15h6a.4.4,0,0,1,.35.17,1.12,1.12,0,0,1,.11.56v.45a1.12,1.12,0,0,1-.11.56.4.4,0,0,1-.35.17h-4.36v3h3.88a.39.39,0,0,1,.35.17,1.14,1.14,0,0,1,.11.57v.44a1.1,1.1,0,0,1-.11.56.39.39,0,0,1-.35.17h-3.88v3.23h4.37a.39.39,0,0,1,.35.17,1,1,0,0,1,.11.56v.44a1,1,0,0,1-.11.56.37.37,0,0,1-.35.17h-6A.66.66,0,0,1,1029.35,35.9Z"/><path class="cls-31" d="M1038.84,35.59V24.78a.65.65,0,0,1,.14-.47.59.59,0,0,1,.47-.16h3.16a5.18,5.18,0,0,1,3.15.78,3.13,3.13,0,0,1,.51,4.05,3.23,3.23,0,0,1-1.45,1.07v.07a1.56,1.56,0,0,1,.71.6,5.16,5.16,0,0,1,.62,1.15l1.44,3.6a1.45,1.45,0,0,1,.07.29c0,.22-.31.33-.92.33h-.51c-.5,0-.79-.11-.88-.33L1044,32.43a2.12,2.12,0,0,0-.72-1,2.38,2.38,0,0,0-1.27-.27h-1v4.4c0,.33-.3.5-.9.5h-.42C1039.14,36.09,1038.84,35.92,1038.84,35.59Zm4.06-6.32a1.51,1.51,0,0,0,1.12-.5,1.66,1.66,0,0,0,.48-1.18,1.42,1.42,0,0,0-.46-1.13,1.85,1.85,0,0,0-1.26-.4h-1.72v3.21Z"/><path class="cls-31" d="M1048.36,35.75a1.77,1.77,0,0,1,.06-.29l3.85-11c.06-.21.35-.32.86-.32h.75c.5,0,.79.11.87.32l3.84,11a1.18,1.18,0,0,1,.05.29c0,.22-.27.34-.81.34h-.53q-.75,0-.87-.33l-.78-2.33h-4.35l-.78,2.33q-.12.33-.75.33h-.48C1048.67,36.09,1048.36,36,1048.36,35.75Zm6.64-4.22-1.24-3.74a6.41,6.41,0,0,1-.24-1.05h-.06c0,.06,0,.21-.09.44a3.16,3.16,0,0,1-.17.61l-1.27,3.74Z"/><path class="cls-31" d="M1060.43,35.59v-11c0-.33.3-.49.9-.49h.61a1.93,1.93,0,0,1,.6.08.7.7,0,0,1,.37.33l4.35,6.64a7.56,7.56,0,0,1,.6,1h.06c0-.26,0-.65,0-1.16V24.61c0-.33.3-.49.9-.49h.37c.61,0,.91.16.91.49v11c0,.33-.3.5-.91.5h-.54a1.48,1.48,0,0,1-.57-.09.86.86,0,0,1-.36-.3l-4.46-6.77a6,6,0,0,1-.59-1h-.07c0,.26,0,.65,0,1.16v6.49c0,.33-.3.5-.9.5h-.37C1060.73,36.09,1060.43,35.92,1060.43,35.59Z"/><path class="cls-31" d="M1075.34,35.59V26.06h-2.89a.39.39,0,0,1-.35-.17,1,1,0,0,1-.11-.56v-.45a1,1,0,0,1,.11-.56.39.39,0,0,1,.35-.17h8a.39.39,0,0,1,.35.17,1.12,1.12,0,0,1,.11.56v.45a1.12,1.12,0,0,1-.11.56.39.39,0,0,1-.35.17h-2.87v9.53c0,.33-.3.5-.9.5h-.44C1075.64,36.09,1075.34,35.92,1075.34,35.59Z"/><rect class="cls-6" x="845.39" y="125.31" width="220" height="50"/><path class="cls-31" d="M918.5,156.14a4.05,4.05,0,0,1-1.38-.59c-.28-.22-.43-.41-.43-.58a1.63,1.63,0,0,1,.34-.81q.35-.48.57-.48a1.22,1.22,0,0,1,.42.19,7,7,0,0,0,1,.44,3.83,3.83,0,0,0,1.19.17,2.13,2.13,0,0,0,1.28-.37,1.24,1.24,0,0,0,.52-1.09,1.2,1.2,0,0,0-.26-.78,2.27,2.27,0,0,0-.66-.52,11.19,11.19,0,0,0-1.09-.5l-.59-.26a7.47,7.47,0,0,1-1.31-.72,3,3,0,0,1-.87-1,3.58,3.58,0,0,1-.34-1.63,3,3,0,0,1,.54-1.83,3.22,3.22,0,0,1,1.43-1.13,5.1,5.1,0,0,1,2-.38,6.58,6.58,0,0,1,1.48.17,3.25,3.25,0,0,1,1.1.46q.36.25.36.51a1.67,1.67,0,0,1-.29.79c-.19.33-.37.49-.51.49a.69.69,0,0,1-.27-.09l-.29-.13a3.75,3.75,0,0,0-1.45-.29,2.09,2.09,0,0,0-1.35.36,1.17,1.17,0,0,0-.43.93,1.24,1.24,0,0,0,.25.81,1.82,1.82,0,0,0,.63.5q.38.18,1.11.48a12,12,0,0,1,1.59.76,3.3,3.3,0,0,1,1.08,1.06,3.17,3.17,0,0,1,.45,1.76,3.27,3.27,0,0,1-1.08,2.68,4.14,4.14,0,0,1-2.72.89A7.93,7.93,0,0,1,918.5,156.14Z"/><path class="cls-31" d="M927.34,154.9a6.65,6.65,0,0,1-1.35-4.6q0-6.06,5.63-6.06a8,8,0,0,1,1.68.18,4.76,4.76,0,0,1,1.33.45q.42.24.42.51a1.27,1.27,0,0,1-.16.54,3.12,3.12,0,0,1-.37.59.55.55,0,0,1-.38.25,2.25,2.25,0,0,1-.41-.17,6.46,6.46,0,0,0-.89-.31,5.22,5.22,0,0,0-1.25-.13,3,3,0,0,0-2.49,1,6.47,6.47,0,0,0,0,6.27,2.9,2.9,0,0,0,2.45,1,5,5,0,0,0,1.36-.17,6.72,6.72,0,0,0,1.11-.43,1,1,0,0,1,.37-.13.51.51,0,0,1,.38.24,3.18,3.18,0,0,1,.34.57,1.74,1.74,0,0,1,.13.46c0,.26-.19.5-.58.72a4.74,4.74,0,0,1-1.41.47,8.31,8.31,0,0,1-1.7.17A5.45,5.45,0,0,1,927.34,154.9Z"/><path class="cls-31" d="M936.18,156a1.77,1.77,0,0,1,.06-.29l3.85-11c.06-.21.35-.32.86-.32h.75c.5,0,.79.11.87.32l3.84,11a1.18,1.18,0,0,1,.05.29c0,.22-.27.34-.81.34h-.53q-.75,0-.87-.33l-.78-2.32h-4.35l-.79,2.32c-.07.22-.32.33-.74.33h-.48C936.49,156.3,936.18,156.18,936.18,156Zm6.64-4.22L941.58,148a6.41,6.41,0,0,1-.24-1.05h-.06c0,.07,0,.21-.09.44a3.16,3.16,0,0,1-.17.61l-1.27,3.74Z"/><path class="cls-31" d="M948.52,156.11a.65.65,0,0,1-.16-.47V144.82c0-.33.3-.49.91-.49h.42a1.47,1.47,0,0,1,.69.12.39.39,0,0,1,.21.37v9.54h4a.36.36,0,0,1,.34.18,1.12,1.12,0,0,1,.1.55v.44a1.17,1.17,0,0,1-.1.56.37.37,0,0,1-.34.17H949A.65.65,0,0,1,948.52,156.11Z"/><path class="cls-31" d="M955.67,156a2.49,2.49,0,0,1,.07-.29l3.84-11c.07-.21.36-.32.87-.32h.75c.5,0,.79.11.87.32l3.84,11a1.18,1.18,0,0,1,.05.29c0,.22-.27.34-.82.34h-.52q-.75,0-.87-.33l-.78-2.32h-4.36l-.78,2.32q-.12.33-.75.33h-.47C956,156.3,955.67,156.18,955.67,156Zm6.65-4.22L961.08,148a6.41,6.41,0,0,1-.24-1.05h-.07c0,.07,0,.21-.08.44a4.08,4.08,0,0,1-.17.61l-1.28,3.74Z"/><path class="cls-31" d="M968,156.11a.61.61,0,0,1-.16-.47V145a.6.6,0,0,1,.16-.48.65.65,0,0,1,.47-.15h3.25a4.6,4.6,0,0,1,3,.81,2.7,2.7,0,0,1,1,2.2,2.59,2.59,0,0,1-.53,1.58,2.94,2.94,0,0,1-1.32,1l0,.07a2.48,2.48,0,0,1,1,.45,3.2,3.2,0,0,1,.92,1,2.54,2.54,0,0,1,.38,1.37,3.12,3.12,0,0,1-1.09,2.56,5.1,5.1,0,0,1-3.23.87h-3.37A.65.65,0,0,1,968,156.11Zm3.53-6.87a2,2,0,0,0,1.34-.43,1.4,1.4,0,0,0,.5-1.1c0-1-.61-1.46-1.84-1.46h-1.46v3Zm.5,5.12a2,2,0,0,0,1.36-.43,1.61,1.61,0,0,0,.47-1.24,1.33,1.33,0,0,0-.54-1.14,2.6,2.6,0,0,0-1.57-.4h-1.68v3.21Z"/><path class="cls-31" d="M978.52,156.11a.65.65,0,0,1-.15-.47V144.82c0-.33.3-.49.9-.49h.43a1.45,1.45,0,0,1,.68.12.39.39,0,0,1,.22.37v9.54h4a.37.37,0,0,1,.34.18,1.25,1.25,0,0,1,.1.55v.44a1.3,1.3,0,0,1-.1.56.38.38,0,0,1-.34.17H979A.66.66,0,0,1,978.52,156.11Z"/><path class="cls-31" d="M987.18,156.11a.61.61,0,0,1-.16-.47V145a.6.6,0,0,1,.16-.48.65.65,0,0,1,.47-.15h6a.39.39,0,0,1,.35.17,1.14,1.14,0,0,1,.11.57v.44a1.12,1.12,0,0,1-.11.56.39.39,0,0,1-.35.17h-4.35v3h3.87a.37.37,0,0,1,.35.17,1,1,0,0,1,.11.56v.44a1,1,0,0,1-.11.56.39.39,0,0,1-.35.17h-3.87v3.23h4.37a.4.4,0,0,1,.35.17,1.1,1.1,0,0,1,.11.56v.44a1.1,1.1,0,0,1-.11.56.38.38,0,0,1-.35.17h-6A.65.65,0,0,1,987.18,156.11Z"/></svg>