<svg id="Layer_1" data-name="Layer 1" xmlns="http://www.w3.org/2000/svg" viewBox="0 0 24 24"><defs><style>.cls-1{fill:#5dc2ef;}.cls-2{fill:#367dbf;}</style></defs><title>Artboard 29</title><path class="cls-1" d="M12,23.5A11.5,11.5,0,1,1,23.5,12,11.51,11.51,0,0,1,12,23.5Zm0-22A10.5,10.5,0,1,0,22.5,12,10.51,10.51,0,0,0,12,1.5Z"/><path class="cls-2" d="M15,18.5H12.5V10a.5.5,0,0,0-.5-.5H10a.5.5,0,0,0,0,1h1.5v8H9a.5.5,0,0,0,0,1h6a.5.5,0,0,0,0-1Z"/><path class="cls-2" d="M11.5,7a1,1,0,1,0-1-1A1,1,0,0,0,11.5,7Zm0-1.5V6h0Z"/></svg>