<svg id="Layer_1" data-name="Layer 1" xmlns="http://www.w3.org/2000/svg" viewBox="0 0 24 24"><defs><style>.cls-1{fill:#367dbf;}.cls-2{fill:#5dc2ef;}</style></defs><title>Artboard 28</title><path class="cls-1" d="M16,15.44l-.5,0-.49.12c0,.14,0,.27,0,.41A7,7,0,1,1,8,9l.41,0h.08A.47.47,0,0,0,9,8.56.54.54,0,0,0,8.48,8L8,8a8,8,0,1,0,8,8C16,15.84,16,15.68,16,15.44Z"/><path class="cls-1" d="M5.36,14.25H4.5a.5.5,0,0,0,0,1h.57A4.54,4.54,0,0,0,5,16c0,.09,0,.17,0,.25H4.5a.5.5,0,0,0,0,1h.7a4,4,0,0,0,3.8,3,.5.5,0,0,0,0-1,3,3,0,0,1-2.77-2H8.5a.5.5,0,0,0,0-1H6c0-.08,0-.16,0-.25a3.66,3.66,0,0,1,.09-.75H8.5a.5.5,0,0,0,0-1h-2A2.94,2.94,0,0,1,9,12.75a.5.5,0,0,0,0-1A4,4,0,0,0,5.36,14.25Z"/><path class="cls-2" d="M16,0a8,8,0,1,0,8,8A8,8,0,0,0,16,0Zm0,15a7,7,0,1,1,7-7A7,7,0,0,1,16,15Z"/><path class="cls-2" d="M17,4.75a.5.5,0,0,0,0-1,4,4,0,0,0-3.64,2.5H12.5a.5.5,0,0,0,0,1h.57A4.54,4.54,0,0,0,13,8c0,.09,0,.17,0,.25H12.5a.5.5,0,0,0,0,1h.7a4,4,0,0,0,3.8,3,.5.5,0,0,0,0-1,3,3,0,0,1-2.77-2H16.5a.5.5,0,0,0,0-1H14c0-.08,0-.16,0-.25a3.66,3.66,0,0,1,.09-.75H16.5a.5.5,0,0,0,0-1h-2A2.94,2.94,0,0,1,17,4.75Z"/></svg>