<svg width="40" height="39" viewBox="0 0 40 39" fill="none" xmlns="http://www.w3.org/2000/svg">
<path d="M34.0807 37.2739H14.5563C12.1056 37.2739 10.1189 35.2872 10.1189 32.8365V5.32484C10.1189 2.87415 12.1056 0.887473 14.5563 0.887473H26.3914L38.5181 13.0141V32.8365C38.5181 35.2872 36.5314 37.2739 34.0807 37.2739Z" fill="#EEF1F7" stroke="#CBD0DC" stroke-width="1.77495"/>
<rect y="16.9492" width="26.6242" height="15.5308" rx="3.10616" fill="#D82042"/>
<path d="M3.19468 22.5455H4.12952L5.55441 25.025H5.613L7.0379 22.5455H7.97273L5.99386 25.8587V28H5.17355V25.8587L3.19468 22.5455ZM8.65389 28H7.78031L9.7432 22.5455H10.694L12.6569 28H11.7833L10.2412 23.5362H10.1986L8.65389 28ZM8.80037 25.864H11.6342V26.5565H8.80037V25.864ZM13.4446 22.5455H14.4433L16.1799 26.7855H16.2438L17.9803 22.5455H18.979V28H18.196V24.0529H18.1454L16.5367 27.992H15.8869L14.2782 24.0502H14.2276V28H13.4446V22.5455ZM20.1755 28V22.5455H20.9985V27.2915H23.4701V28H20.1755Z" fill="white"/>
</svg>
