<svg xmlns="http://www.w3.org/2000/svg" xmlns:xlink="http://www.w3.org/1999/xlink"
  viewBox="-100 0 500 398" width="500" height="398" preserveAspectRatio="xMidYMid meet">
  <g clip-path="url(#__lottie_element_2)">
    <g transform="matrix(1,0,0,1,48.30699920654297,155.59100341796875)" opacity="1"
      style="display: block;">
      <path fill="rgb(255,255,255)" fill-opacity="1"
        d=" M20,202.89 C20,202.89 78.68,237.43 78.68,237.43 C78.68,237.43 137.28,202.89 137.28,202.89 C137.28,202.89 137.28,54.54 137.28,54.54 C137.28,54.54 78.64,89.15 78.64,89.15 C78.64,89.15 20,54.54 20,54.54 C20,54.54 20,202.89 20,202.89z M78.64,115.45 C78.64,115.45 78.64,89.15 78.64,89.15 C78.64,89.15 78.68,237.43 78.68,237.43 M78.64,20 C78.64,20 20,54.54 20,54.54 C20,54.54 78.64,89.15 78.64,89.15 C78.64,89.15 137.28,54.54 137.28,54.54 C137.28,54.54 78.64,20 78.64,20z"></path>
      <g opacity="1" transform="matrix(1,0,0,1,78.63999938964844,145.98399353027344)">
        <path stroke-linecap="round" stroke-linejoin="round" fill-opacity="0"
          stroke="rgb(50,204,218)" stroke-opacity="1" stroke-width="8"
          d=" M-58.638999938964844,56.90700149536133 C-58.638999938964844,56.90700149536133 0.0430000014603138,91.44200134277344 0.0430000014603138,91.44200134277344 C0.0430000014603138,91.44200134277344 58.638999938964844,56.90700149536133 58.638999938964844,56.90700149536133 C58.638999938964844,56.90700149536133 58.638999938964844,-91.44200134277344 58.638999938964844,-91.44200134277344 C58.638999938964844,-91.44200134277344 0,-56.834999084472656 0,-56.834999084472656 C0,-56.834999084472656 -58.638999938964844,-91.44200134277344 -58.638999938964844,-91.44200134277344 C-58.638999938964844,-91.44200134277344 -58.638999938964844,56.90700149536133 -58.638999938964844,56.90700149536133z"></path>
      </g>
      <g opacity="1" transform="matrix(1,0,0,1,78.66100311279297,163.28700256347656)">
        <path stroke-linecap="round" stroke-linejoin="round" fill-opacity="0"
          stroke="rgb(50,204,218)" stroke-opacity="1" stroke-width="8"
          d=" M-0.020999999716877937,-47.84199905395508 C-0.020999999716877937,-47.84199905395508 -0.020999999716877937,-74.13899993896484 -0.020999999716877937,-74.13899993896484 C-0.020999999716877937,-74.13899993896484 0.020999999716877937,74.13899993896484 0.020999999716877937,74.13899993896484"></path>
      </g>
      <g opacity="1" transform="matrix(1,0,0,1,78.63999938964844,54.57400131225586)">
        <path stroke-linecap="round" stroke-linejoin="round" fill-opacity="0"
          stroke="rgb(50,204,218)" stroke-opacity="1" stroke-width="8"
          d=" M0,-34.57400131225586 C0,-34.57400131225586 -58.63999938964844,-0.032999999821186066 -58.63999938964844,-0.032999999821186066 C-58.63999938964844,-0.032999999821186066 0,34.57400131225586 0,34.57400131225586 C0,34.57400131225586 58.63999938964844,-0.032999999821186066 58.63999938964844,-0.032999999821186066 C58.63999938964844,-0.032999999821186066 0,-34.57400131225586 0,-34.57400131225586z"></path>
      </g>
    </g>
    <g style="display: block;" transform="matrix(1,0,0,1,106.9459228515625,53.740074157714844)"
      opacity="1">
      <path fill="rgb(255,255,255)" fill-opacity="1"
        d=" M20,121.89 C20,121.89 78.68,156.43 78.68,156.43 C78.68,156.43 137.28,121.89 137.28,121.89 C137.28,121.89 137.28,54.54 137.28,54.54 C137.28,54.54 78.64,89.15 78.64,89.15 C78.64,89.15 20,54.54 20,54.54 C20,54.54 20,121.89 20,121.89z M78.64,115.45 C78.64,115.45 78.64,89.15 78.64,89.15 C78.64,89.15 78.68,156.43 78.68,156.43 M78.64,20 C78.64,20 20,54.54 20,54.54 C20,54.54 78.64,89.15 78.64,89.15 C78.64,89.15 137.28,54.54 137.28,54.54 C137.28,54.54 78.64,20 78.64,20z"></path>
      <g opacity="1" transform="matrix(1,0,0,1,78.63999938964844,105.48400115966797)">
        <path stroke-linecap="round" stroke-linejoin="round" fill-opacity="0"
          stroke="rgb(50,204,218)" stroke-opacity="1" stroke-width="8"
          d=" M-58.638999938964844,16.406999588012695 C-58.638999938964844,16.406999588012695 0.0430000014603138,50.94200134277344 0.0430000014603138,50.94200134277344 C0.0430000014603138,50.94200134277344 58.638999938964844,16.406999588012695 58.638999938964844,16.406999588012695 C58.638999938964844,16.406999588012695 58.638999938964844,-50.94200134277344 58.638999938964844,-50.94200134277344 C58.638999938964844,-50.94200134277344 0,-16.334999084472656 0,-16.334999084472656 C0,-16.334999084472656 -58.638999938964844,-50.94200134277344 -58.638999938964844,-50.94200134277344 C-58.638999938964844,-50.94200134277344 -58.638999938964844,16.406999588012695 -58.638999938964844,16.406999588012695z"></path>
      </g>
      <g opacity="1" transform="matrix(1,0,0,1,78.66100311279297,122.78700256347656)">
        <path stroke-linecap="round" stroke-linejoin="round" fill-opacity="0"
          stroke="rgb(50,204,218)" stroke-opacity="1" stroke-width="8"
          d=" M-0.020999999716877937,-7.3420000076293945 C-0.020999999716877937,-7.3420000076293945 -0.020999999716877937,-33.638999938964844 -0.020999999716877937,-33.638999938964844 C-0.020999999716877937,-33.638999938964844 0.020999999716877937,33.638999938964844 0.020999999716877937,33.638999938964844"></path>
      </g>
      <g opacity="1" transform="matrix(1,0,0,1,78.63999938964844,54.57400131225586)">
        <path stroke-linecap="round" stroke-linejoin="round" fill-opacity="0"
          stroke="rgb(50,204,218)" stroke-opacity="1" stroke-width="8"
          d=" M0,-34.57400131225586 C0,-34.57400131225586 -58.63999938964844,-0.032999999821186066 -58.63999938964844,-0.032999999821186066 C-58.63999938964844,-0.032999999821186066 0,34.57400131225586 0,34.57400131225586 C0,34.57400131225586 58.63999938964844,-0.032999999821186066 58.63999938964844,-0.032999999821186066 C58.63999938964844,-0.032999999821186066 0,-34.57400131225586 0,-34.57400131225586z"></path>
      </g>
    </g>
    <g style="display: block;"
      transform="matrix(0.9999986886978149,0.000005820721071359003,-0.000005820721071359003,0.9999986886978149,-10.250381469726562,-13.537338256835938)"
      opacity="1">
      <path fill="rgb(255,255,255)" fill-opacity="1"
        d=" M20,121.89 C20,121.89 78.68,156.43 78.68,156.43 C78.68,156.43 137.28,121.89 137.28,121.89 C137.28,121.89 137.28,54.54 137.28,54.54 C137.28,54.54 78.64,89.15 78.64,89.15 C78.64,89.15 20,54.54 20,54.54 C20,54.54 20,121.89 20,121.89z M78.64,115.45 C78.64,115.45 78.64,89.15 78.64,89.15 C78.64,89.15 78.68,156.43 78.68,156.43 M78.64,20 C78.64,20 20,54.54 20,54.54 C20,54.54 78.64,89.15 78.64,89.15 C78.64,89.15 137.28,54.54 137.28,54.54 C137.28,54.54 78.64,20 78.64,20z"></path>
      <g opacity="1" transform="matrix(1,0,0,1,78.63999938964844,105.48400115966797)">
        <path stroke-linecap="round" stroke-linejoin="round" fill-opacity="0"
          stroke="rgb(50,204,218)" stroke-opacity="1" stroke-width="8"
          d=" M-58.63999938964844,16.406999588012695 C-58.63999938964844,16.406999588012695 0.041999999433755875,50.94200134277344 0.041999999433755875,50.94200134277344 C0.041999999433755875,50.94200134277344 58.63999938964844,16.406999588012695 58.63999938964844,16.406999588012695 C58.63999938964844,16.406999588012695 58.63999938964844,-50.94200134277344 58.63999938964844,-50.94200134277344 C58.63999938964844,-50.94200134277344 0.0010000000474974513,-16.334999084472656 0.0010000000474974513,-16.334999084472656 C0.0010000000474974513,-16.334999084472656 -58.63999938964844,-50.94200134277344 -58.63999938964844,-50.94200134277344 C-58.63999938964844,-50.94200134277344 -58.63999938964844,16.406999588012695 -58.63999938964844,16.406999588012695z"></path>
      </g>
      <g opacity="1" transform="matrix(1,0,0,1,78.66100311279297,122.78700256347656)">
        <path stroke-linecap="round" stroke-linejoin="round" fill-opacity="0"
          stroke="rgb(50,204,218)" stroke-opacity="1" stroke-width="8"
          d=" M-0.020999999716877937,-7.3420000076293945 C-0.020999999716877937,-7.3420000076293945 -0.020999999716877937,-33.638999938964844 -0.020999999716877937,-33.638999938964844 C-0.020999999716877937,-33.638999938964844 0.020999999716877937,33.638999938964844 0.020999999716877937,33.638999938964844"></path>
      </g>
      <g opacity="1" transform="matrix(1,0,0,1,78.63999938964844,54.57400131225586)">
        <path stroke-linecap="round" stroke-linejoin="round" fill-opacity="0"
          stroke="rgb(50,204,218)" stroke-opacity="1" stroke-width="8"
          d=" M0,-34.57400131225586 C0,-34.57400131225586 -58.63999938964844,-0.032999999821186066 -58.63999938964844,-0.032999999821186066 C-58.63999938964844,-0.032999999821186066 0,34.57400131225586 0,34.57400131225586 C0,34.57400131225586 58.63999938964844,-0.032999999821186066 58.63999938964844,-0.032999999821186066 C58.63999938964844,-0.032999999821186066 0,-34.57400131225586 0,-34.57400131225586z"></path>
      </g>
    </g>
  </g>
</svg>