<svg xmlns="http://www.w3.org/2000/svg" xmlns:xlink="http://www.w3.org/1999/xlink"
  viewBox="0 0 1176 398" width="1176" height="398" preserveAspectRatio="xMidYMid meet"
  style="width: 100%; height: 100%; transform: translate3d(0px, 0px, 0px); content-visibility: visible;">
  <defs>
    <clipPath id="__lottie_element_2">
      <rect width="1176" height="398" x="0" y="0"></rect>
    </clipPath>
    <clipPath id="__lottie_element_13">
      <path d="M0,0 L1366,0 L1366,768 L0,768z"></path>
    </clipPath>
    <clipPath id="__lottie_element_14">
      <path fill="#ffffff" clip-rule="nonzero"
        d=" M1366,0 C1366,0 344,0 344,0 C344,0 344,768 344,768 C344,768 1366,768 1366,768 C1366,768 1366,0 1366,0"
        fill-opacity="1"></path>
    </clipPath>
  </defs>
  <g clip-path="url(#__lottie_element_2)">
    <g clip-path="url(#__lottie_element_13)" style="display: block;"
      transform="matrix(1,0,0,1,-160,-184)" opacity="1">
      <g clip-path="url(#__lottie_element_14)">
        <g style="display: block;" transform="matrix(1,0,0,1,165.6300048828125,186.13699340820312)"
          opacity="1">
          <g opacity="1" transform="matrix(1,0,0,1,651.3489990234375,282.15301513671875)">
            <path fill="rgb(6,16,97)" fill-opacity="1"
              d=" M-382.7489929199219,-51.4370002746582 C-382.7489929199219,-51.4370002746582 -364.4339904785156,-51.4370002746582 -364.4339904785156,-51.4370002746582 C-364.4339904785156,-51.4370002746582 -364.4339904785156,-70.53199768066406 -364.4339904785156,-70.53199768066406 C-364.4339904785156,-70.53199768066406 -382.7489929199219,-70.53199768066406 -382.7489929199219,-70.53199768066406 C-382.7489929199219,-70.53199768066406 -382.7489929199219,-51.4370002746582 -382.7489929199219,-51.4370002746582z M-381.77301025390625,68.7760009765625 C-381.77301025390625,68.7760009765625 -365.406005859375,68.7760009765625 -365.406005859375,68.7760009765625 C-365.406005859375,68.7760009765625 -365.406005859375,-30.785999298095703 -365.406005859375,-30.785999298095703 C-365.406005859375,-30.785999298095703 -381.77301025390625,-30.785999298095703 -381.77301025390625,-30.785999298095703 C-381.77301025390625,-30.785999298095703 -381.77301025390625,68.7760009765625 -381.77301025390625,68.7760009765625z"></path>
          </g>
        </g>
        <g style="display: block;" transform="matrix(1,0,0,1,165.6300048828125,186.13699340820312)"
          opacity="1">
          <g opacity="1" transform="matrix(1,0,0,1,651.3489990234375,282.15301513671875)">
            <path fill="rgb(6,16,97)" fill-opacity="1"
              d=" M-339.1050109863281,68.7760009765625 C-339.1050109863281,68.7760009765625 -322.5450134277344,68.7760009765625 -322.5450134277344,68.7760009765625 C-322.5450134277344,68.7760009765625 -322.5450134277344,8.767999649047852 -322.5450134277344,8.767999649047852 C-322.5450134277344,-9.743000030517578 -311.4389953613281,-16.948999404907227 -298.1910095214844,-16.948999404907227 C-282.4070129394531,-16.948999404907227 -274.4209899902344,-7.98799991607666 -274.4209899902344,8.767999649047852 C-274.4209899902344,8.767999649047852 -274.4209899902344,68.7760009765625 -274.4209899902344,68.7760009765625 C-274.4209899902344,68.7760009765625 -257.8580017089844,68.7760009765625 -257.8580017089844,68.7760009765625 C-257.8580017089844,68.7760009765625 -257.8580017089844,5.065000057220459 -257.8580017089844,5.065000057220459 C-257.8580017089844,-17.729999542236328 -272.4700012207031,-32.53799819946289 -294.4880065917969,-32.53799819946289 C-307.73699951171875,-32.53799819946289 -317.2820129394531,-28.05699920654297 -322.5450134277344,-20.652000427246094 C-322.5450134277344,-20.652000427246094 -322.5450134277344,-30.785999298095703 -322.5450134277344,-30.785999298095703 C-322.5450134277344,-30.785999298095703 -339.1050109863281,-30.785999298095703 -339.1050109863281,-30.785999298095703 C-339.1050109863281,-30.785999298095703 -339.1050109863281,68.7760009765625 -339.1050109863281,68.7760009765625z"></path>
          </g>
        </g>
        <g style="display: block;" transform="matrix(1,0,0,1,165.6300048828125,186.13699340820312)"
          opacity="1">
          <g opacity="1" transform="matrix(1,0,0,1,651.3489990234375,282.15301513671875)">
            <path fill="rgb(6,16,97)" fill-opacity="1"
              d=" M-201.16400146484375,68.7760009765625 C-201.16400146484375,68.7760009765625 -186.3560028076172,68.7760009765625 -186.3560028076172,68.7760009765625 C-186.3560028076172,68.7760009765625 -186.3560028076172,53.18899917602539 -186.3560028076172,53.18899917602539 C-186.3560028076172,53.18899917602539 -211.1009979248047,53.18899917602539 -211.1009979248047,53.18899917602539 C-211.1009979248047,53.18899917602539 -211.1009979248047,-15.197999954223633 -211.1009979248047,-15.197999954223633 C-211.1009979248047,-15.197999954223633 -186.74400329589844,-15.197999954223633 -186.74400329589844,-15.197999954223633 C-186.74400329589844,-15.197999954223633 -186.74400329589844,-30.785999298095703 -186.74400329589844,-30.785999298095703 C-186.74400329589844,-30.785999298095703 -211.1009979248047,-30.785999298095703 -211.1009979248047,-30.785999298095703 C-211.1009979248047,-30.785999298095703 -211.1009979248047,-52.994998931884766 -211.1009979248047,-52.994998931884766 C-211.1009979248047,-52.994998931884766 -227.2689971923828,-52.994998931884766 -227.2689971923828,-52.994998931884766 C-227.2689971923828,-52.994998931884766 -227.2689971923828,-30.785999298095703 -227.2689971923828,-30.785999298095703 C-227.2689971923828,-30.785999298095703 -242.2729949951172,-30.785999298095703 -242.2729949951172,-30.785999298095703 C-242.2729949951172,-30.785999298095703 -242.2729949951172,-15.197999954223633 -242.2729949951172,-15.197999954223633 C-242.2729949951172,-15.197999954223633 -227.66099548339844,-15.197999954223633 -227.66099548339844,-15.197999954223633 C-227.66099548339844,-15.197999954223633 -227.66099548339844,44.03099822998047 -227.66099548339844,44.03099822998047 C-227.66099548339844,57.67100143432617 -220.84300231933594,68.7760009765625 -201.16400146484375,68.7760009765625z"></path>
          </g>
        </g>
        <g style="display: block;" transform="matrix(1,0,0,1,165.6300048828125,186.13699340820312)"
          opacity="1">
          <g opacity="1" transform="matrix(1,0,0,1,651.3489990234375,282.15301513671875)">
            <path fill="rgb(6,16,97)" fill-opacity="1"
              d=" M-159.07899475097656,10.32699966430664 C-159.07899475097656,10.32699966430664 -159.07899475097656,9.156000137329102 -159.07899475097656,9.156000137329102 C-159.07899475097656,-10.71500015258789 -148.94900512695312,-17.34000015258789 -134.5290069580078,-17.34000015258789 C-121.47599792480469,-17.34000015258789 -110.75900268554688,-10.71500015258789 -110.37100219726562,9.156000137329102 C-110.37100219726562,9.156000137329102 -110.37100219726562,10.32699966430664 -110.37100219726562,10.32699966430664 C-110.37100219726562,10.32699966430664 -159.07899475097656,10.32699966430664 -159.07899475097656,10.32699966430664z M-134.5290069580078,70.53099822998047 C-112.51499938964844,70.53099822998047 -95.75900268554688,58.45100021362305 -94.00399780273438,37.40800094604492 C-94.00399780273438,37.40800094604492 -110.56700134277344,37.40800094604492 -110.56700134277344,37.40800094604492 C-112.31900024414062,50.65700149536133 -122.4520034790039,54.944000244140625 -134.5290069580078,54.944000244140625 C-148.94900512695312,54.944000244140625 -159.07899475097656,49.09700012207031 -159.07899475097656,28.834999084472656 C-159.07899475097656,28.834999084472656 -159.07899475097656,24.93899917602539 -159.07899475097656,24.93899917602539 C-159.07899475097656,24.93899917602539 -93.80799865722656,24.93899917602539 -93.80799865722656,24.93899917602539 C-93.80799865722656,24.93899917602539 -93.80799865722656,9.156000137329102 -93.80799865722656,9.156000137329102 C-94.1989974975586,-19.288999557495117 -111.1510009765625,-32.53799819946289 -134.5290069580078,-32.53799819946289 C-159.47000122070312,-32.53799819946289 -175.64199829101562,-17.340999603271484 -175.64199829101562,9.156000137329102 C-175.64199829101562,9.156000137329102 -175.64199829101562,28.834999084472656 -175.64199829101562,28.834999084472656 C-175.64199829101562,55.332000732421875 -159.47000122070312,70.53099822998047 -134.5290069580078,70.53099822998047z"></path>
          </g>
        </g>
        <g style="display: block;" transform="matrix(1,0,0,1,165.6300048828125,186.13699340820312)"
          opacity="1">
          <g opacity="1" transform="matrix(1,0,0,1,651.3489990234375,282.15301513671875)">
            <path fill="rgb(6,16,97)" fill-opacity="1"
              d=" M-74.3280029296875,68.7760009765625 C-74.3280029296875,68.7760009765625 -57.768001556396484,68.7760009765625 -57.768001556396484,68.7760009765625 C-57.768001556396484,68.7760009765625 -57.768001556396484,14.805999755859375 -57.768001556396484,14.805999755859375 C-57.768001556396484,-5.84499979019165 -47.43899917602539,-14.222000122070312 -32.43899917602539,-14.222000122070312 C-32.43899917602539,-14.222000122070312 -22.50200080871582,-14.222000122070312 -22.50200080871582,-14.222000122070312 C-22.50200080871582,-14.222000122070312 -22.50200080871582,-30.785999298095703 -22.50200080871582,-30.785999298095703 C-22.50200080871582,-30.785999298095703 -32.43899917602539,-30.785999298095703 -32.43899917602539,-30.785999298095703 C-45.6870002746582,-30.785999298095703 -52.89699935913086,-26.49799919128418 -57.768001556396484,-19.288000106811523 C-57.768001556396484,-19.288000106811523 -57.768001556396484,-30.785999298095703 -57.768001556396484,-30.785999298095703 C-57.768001556396484,-30.785999298095703 -74.3280029296875,-30.785999298095703 -74.3280029296875,-30.785999298095703 C-74.3280029296875,-30.785999298095703 -74.3280029296875,68.7760009765625 -74.3280029296875,68.7760009765625z"></path>
          </g>
        </g>
        <g style="display: block;" transform="matrix(1,0,0,1,165.6300048828125,186.13699340820312)"
          opacity="1">
          <g opacity="1" transform="matrix(1,0,0,1,651.3489990234375,282.15301513671875)">
            <path fill="rgb(6,16,97)" fill-opacity="1"
              d=" M26.986000061035156,70.53099822998047 C51.72800064086914,70.53099822998047 66.34300231933594,57.672000885009766 66.34300231933594,40.525001525878906 C66.34300231933594,25.32900047302246 56.9900016784668,16.753999710083008 40.03900146484375,12.470999717712402 C40.03900146484375,12.470999717712402 18.799999237060547,7.208000183105469 18.799999237060547,7.208000183105469 C11.78600025177002,5.455999851226807 6.138999938964844,2.921999931335449 6.138999938964844,-4.480000019073486 C6.138999938964844,-11.6899995803833 12.76200008392334,-17.53700065612793 26.010000228881836,-17.53700065612793 C38.479000091552734,-17.53700065612793 47.444000244140625,-12.07800006866455 48.02799987792969,-0.3889999985694885 C48.02799987792969,-0.3889999985694885 64.00399780273438,-0.3889999985694885 64.00399780273438,-0.3889999985694885 C64.00399780273438,-19.288000106811523 48.61199951171875,-32.53799819946289 26.010000228881836,-32.53799819946289 C3.2160000801086426,-32.53799819946289 -9.644000053405762,-20.26300048828125 -9.644000053405762,-4.480000019073486 C-9.644000053405762,9.741000175476074 -1.0709999799728394,18.510000228881836 13.149999618530273,22.017000198364258 C13.149999618530273,22.017000198364258 36.53099822998047,27.863000869750977 36.53099822998047,27.863000869750977 C45.49300003051758,30.198999404907227 49.779998779296875,34.486000061035156 49.779998779296875,40.525001525878906 C49.779998779296875,48.90299987792969 41.402000427246094,54.944000244140625 26.986000061035156,54.944000244140625 C12.76200008392334,54.944000244140625 2.631999969482422,49.097999572753906 2.631999969482422,35.849998474121094 C2.631999969482422,35.849998474121094 -13.736000061035156,35.849998474121094 -13.736000061035156,35.849998474121094 C-13.152000427246094,59.0359992980957 3.4079999923706055,70.53099822998047 26.986000061035156,70.53099822998047z"></path>
          </g>
        </g>
        <g style="display: block;" transform="matrix(1,0,0,1,165.6300048828125,186.13699340820312)"
          opacity="1">
          <g opacity="1" transform="matrix(1,0,0,1,651.3489990234375,282.15301513671875)">
            <path fill="rgb(6,16,97)" fill-opacity="1"
              d=" M117.19100189208984,68.7760009765625 C117.19100189208984,68.7760009765625 131.99899291992188,68.7760009765625 131.99899291992188,68.7760009765625 C131.99899291992188,68.7760009765625 131.99899291992188,53.18899917602539 131.99899291992188,53.18899917602539 C131.99899291992188,53.18899917602539 107.25399780273438,53.18899917602539 107.25399780273438,53.18899917602539 C107.25399780273438,53.18899917602539 107.25399780273438,-15.197999954223633 107.25399780273438,-15.197999954223633 C107.25399780273438,-15.197999954223633 131.60800170898438,-15.197999954223633 131.60800170898438,-15.197999954223633 C131.60800170898438,-15.197999954223633 131.60800170898438,-30.785999298095703 131.60800170898438,-30.785999298095703 C131.60800170898438,-30.785999298095703 107.25399780273438,-30.785999298095703 107.25399780273438,-30.785999298095703 C107.25399780273438,-30.785999298095703 107.25399780273438,-52.994998931884766 107.25399780273438,-52.994998931884766 C107.25399780273438,-52.994998931884766 91.08200073242188,-52.994998931884766 91.08200073242188,-52.994998931884766 C91.08200073242188,-52.994998931884766 91.08200073242188,-30.785999298095703 91.08200073242188,-30.785999298095703 C91.08200073242188,-30.785999298095703 76.08200073242188,-30.785999298095703 76.08200073242188,-30.785999298095703 C76.08200073242188,-30.785999298095703 76.08200073242188,-15.197999954223633 76.08200073242188,-15.197999954223633 C76.08200073242188,-15.197999954223633 90.69400024414062,-15.197999954223633 90.69400024414062,-15.197999954223633 C90.69400024414062,-15.197999954223633 90.69400024414062,44.03099822998047 90.69400024414062,44.03099822998047 C90.69400024414062,57.67100143432617 97.51200103759766,68.7760009765625 117.19100189208984,68.7760009765625z"></path>
          </g>
        </g>
        <g style="display: block;" transform="matrix(1,0,0,1,165.6300048828125,186.13699340820312)"
          opacity="1">
          <g opacity="1" transform="matrix(1,0,0,1,651.3489990234375,282.15301513671875)">
            <path fill="rgb(6,16,97)" fill-opacity="1"
              d=" M159.2760009765625,28.834999084472656 C159.2760009765625,28.834999084472656 159.2760009765625,9.156000137329102 159.2760009765625,9.156000137329102 C159.2760009765625,-9.159000396728516 169.406005859375,-16.948999404907227 183.8260040283203,-16.948999404907227 C198.24200439453125,-16.948999404907227 208.1790008544922,-9.159000396728516 208.1790008544922,9.156000137329102 C208.1790008544922,9.156000137329102 208.1790008544922,28.834999084472656 208.1790008544922,28.834999084472656 C208.1790008544922,49.09700012207031 198.24200439453125,54.944000244140625 183.8260040283203,54.944000244140625 C169.406005859375,54.944000244140625 159.2760009765625,49.09700012207031 159.2760009765625,28.834999084472656z M142.71299743652344,9.156000137329102 C142.71299743652344,9.156000137329102 142.71299743652344,28.834999084472656 142.71299743652344,28.834999084472656 C142.71299743652344,55.332000732421875 158.88499450683594,70.53099822998047 183.8260040283203,70.53099822998047 C208.76300048828125,70.53099822998047 224.74000549316406,55.332000732421875 224.74000549316406,28.834999084472656 C224.74000549316406,28.834999084472656 224.74000549316406,9.156000137329102 224.74000549316406,9.156000137329102 C224.74000549316406,-17.340999603271484 208.76300048828125,-32.53799819946289 183.8260040283203,-32.53799819946289 C158.88499450683594,-32.53799819946289 142.71299743652344,-17.340999603271484 142.71299743652344,9.156000137329102z"></path>
          </g>
        </g>
        <g style="display: block;" transform="matrix(1,0,0,1,165.6300048828125,186.13699340820312)"
          opacity="1">
          <g opacity="1" transform="matrix(1,0,0,1,651.3489990234375,282.15301513671875)">
            <path fill="rgb(6,16,97)" fill-opacity="1"
              d=" M244.22300720214844,68.7760009765625 C244.22300720214844,68.7760009765625 260.7820129394531,68.7760009765625 260.7820129394531,68.7760009765625 C260.7820129394531,68.7760009765625 260.7820129394531,14.805999755859375 260.7820129394531,14.805999755859375 C260.7820129394531,-5.84499979019165 271.1109924316406,-14.222000122070312 286.11199951171875,-14.222000122070312 C286.11199951171875,-14.222000122070312 296.04901123046875,-14.222000122070312 296.04901123046875,-14.222000122070312 C296.04901123046875,-14.222000122070312 296.04901123046875,-30.785999298095703 296.04901123046875,-30.785999298095703 C296.04901123046875,-30.785999298095703 286.11199951171875,-30.785999298095703 286.11199951171875,-30.785999298095703 C272.8630065917969,-30.785999298095703 265.65301513671875,-26.49799919128418 260.7820129394531,-19.288000106811523 C260.7820129394531,-19.288000106811523 260.7820129394531,-30.785999298095703 260.7820129394531,-30.785999298095703 C260.7820129394531,-30.785999298095703 244.22300720214844,-30.785999298095703 244.22300720214844,-30.785999298095703 C244.22300720214844,-30.785999298095703 244.22300720214844,68.7760009765625 244.22300720214844,68.7760009765625z"></path>
          </g>
        </g>
        <g style="display: block;" transform="matrix(1,0,0,1,165.6300048828125,186.13699340820312)"
          opacity="1">
          <g opacity="1" transform="matrix(1,0,0,1,651.3489990234375,282.15301513671875)">
            <path fill="rgb(6,16,97)" fill-opacity="1"
              d=" M317.4800109863281,10.32699966430664 C317.4800109863281,10.32699966430664 317.4800109863281,9.156000137329102 317.4800109863281,9.156000137329102 C317.4800109863281,-10.71500015258789 327.6130065917969,-17.34000015258789 342.02899169921875,-17.34000015258789 C355.0849914550781,-17.34000015258789 365.79901123046875,-10.71500015258789 366.1910095214844,9.156000137329102 C366.1910095214844,9.156000137329102 366.1910095214844,10.32699966430664 366.1910095214844,10.32699966430664 C366.1910095214844,10.32699966430664 317.4800109863281,10.32699966430664 317.4800109863281,10.32699966430664z M342.02899169921875,70.53099822998047 C364.0469970703125,70.53099822998047 380.8030090332031,58.45100021362305 382.55499267578125,37.40800094604492 C382.55499267578125,37.40800094604492 365.9949951171875,37.40800094604492 365.9949951171875,37.40800094604492 C364.2430114746094,50.65700149536133 354.1099853515625,54.944000244140625 342.02899169921875,54.944000244140625 C327.6130065917969,54.944000244140625 317.4800109863281,49.09700012207031 317.4800109863281,28.834999084472656 C317.4800109863281,28.834999084472656 317.4800109863281,24.93899917602539 317.4800109863281,24.93899917602539 C317.4800109863281,24.93899917602539 382.75,24.93899917602539 382.75,24.93899917602539 C382.75,24.93899917602539 382.75,9.156000137329102 382.75,9.156000137329102 C382.36199951171875,-19.288999557495117 365.4110107421875,-32.53799819946289 342.02899169921875,-32.53799819946289 C317.09100341796875,-32.53799819946289 300.9200134277344,-17.340999603271484 300.9200134277344,9.156000137329102 C300.9200134277344,9.156000137329102 300.9200134277344,28.834999084472656 300.9200134277344,28.834999084472656 C300.9200134277344,55.332000732421875 317.09100341796875,70.53099822998047 342.02899169921875,70.53099822998047z"></path>
          </g>
        </g>
      </g>
    </g>
    <g transform="matrix(1,0,0,1,48.30699920654297,155.59100341796875)" opacity="1"
      style="display: block;">
      <path fill="rgb(255,255,255)" fill-opacity="1"
        d=" M20,202.89 C20,202.89 78.68,237.43 78.68,237.43 C78.68,237.43 137.28,202.89 137.28,202.89 C137.28,202.89 137.28,54.54 137.28,54.54 C137.28,54.54 78.64,89.15 78.64,89.15 C78.64,89.15 20,54.54 20,54.54 C20,54.54 20,202.89 20,202.89z M78.64,115.45 C78.64,115.45 78.64,89.15 78.64,89.15 C78.64,89.15 78.68,237.43 78.68,237.43 M78.64,20 C78.64,20 20,54.54 20,54.54 C20,54.54 78.64,89.15 78.64,89.15 C78.64,89.15 137.28,54.54 137.28,54.54 C137.28,54.54 78.64,20 78.64,20z"></path>
      <g opacity="1" transform="matrix(1,0,0,1,78.63999938964844,145.98399353027344)">
        <path stroke-linecap="round" stroke-linejoin="round" fill-opacity="0"
          stroke="rgb(50,204,218)" stroke-opacity="1" stroke-width="8"
          d=" M-58.638999938964844,56.90700149536133 C-58.638999938964844,56.90700149536133 0.0430000014603138,91.44200134277344 0.0430000014603138,91.44200134277344 C0.0430000014603138,91.44200134277344 58.638999938964844,56.90700149536133 58.638999938964844,56.90700149536133 C58.638999938964844,56.90700149536133 58.638999938964844,-91.44200134277344 58.638999938964844,-91.44200134277344 C58.638999938964844,-91.44200134277344 0,-56.834999084472656 0,-56.834999084472656 C0,-56.834999084472656 -58.638999938964844,-91.44200134277344 -58.638999938964844,-91.44200134277344 C-58.638999938964844,-91.44200134277344 -58.638999938964844,56.90700149536133 -58.638999938964844,56.90700149536133z"></path>
      </g>
      <g opacity="1" transform="matrix(1,0,0,1,78.66100311279297,163.28700256347656)">
        <path stroke-linecap="round" stroke-linejoin="round" fill-opacity="0"
          stroke="rgb(50,204,218)" stroke-opacity="1" stroke-width="8"
          d=" M-0.020999999716877937,-47.84199905395508 C-0.020999999716877937,-47.84199905395508 -0.020999999716877937,-74.13899993896484 -0.020999999716877937,-74.13899993896484 C-0.020999999716877937,-74.13899993896484 0.020999999716877937,74.13899993896484 0.020999999716877937,74.13899993896484"></path>
      </g>
      <g opacity="1" transform="matrix(1,0,0,1,78.63999938964844,54.57400131225586)">
        <path stroke-linecap="round" stroke-linejoin="round" fill-opacity="0"
          stroke="rgb(50,204,218)" stroke-opacity="1" stroke-width="8"
          d=" M0,-34.57400131225586 C0,-34.57400131225586 -58.63999938964844,-0.032999999821186066 -58.63999938964844,-0.032999999821186066 C-58.63999938964844,-0.032999999821186066 0,34.57400131225586 0,34.57400131225586 C0,34.57400131225586 58.63999938964844,-0.032999999821186066 58.63999938964844,-0.032999999821186066 C58.63999938964844,-0.032999999821186066 0,-34.57400131225586 0,-34.57400131225586z"></path>
      </g>
    </g>
    <g style="display: block;" transform="matrix(1,0,0,1,106.9459228515625,53.740074157714844)"
      opacity="1">
      <path fill="rgb(255,255,255)" fill-opacity="1"
        d=" M20,121.89 C20,121.89 78.68,156.43 78.68,156.43 C78.68,156.43 137.28,121.89 137.28,121.89 C137.28,121.89 137.28,54.54 137.28,54.54 C137.28,54.54 78.64,89.15 78.64,89.15 C78.64,89.15 20,54.54 20,54.54 C20,54.54 20,121.89 20,121.89z M78.64,115.45 C78.64,115.45 78.64,89.15 78.64,89.15 C78.64,89.15 78.68,156.43 78.68,156.43 M78.64,20 C78.64,20 20,54.54 20,54.54 C20,54.54 78.64,89.15 78.64,89.15 C78.64,89.15 137.28,54.54 137.28,54.54 C137.28,54.54 78.64,20 78.64,20z"></path>
      <g opacity="1" transform="matrix(1,0,0,1,78.63999938964844,105.48400115966797)">
        <path stroke-linecap="round" stroke-linejoin="round" fill-opacity="0"
          stroke="rgb(50,204,218)" stroke-opacity="1" stroke-width="8"
          d=" M-58.638999938964844,16.406999588012695 C-58.638999938964844,16.406999588012695 0.0430000014603138,50.94200134277344 0.0430000014603138,50.94200134277344 C0.0430000014603138,50.94200134277344 58.638999938964844,16.406999588012695 58.638999938964844,16.406999588012695 C58.638999938964844,16.406999588012695 58.638999938964844,-50.94200134277344 58.638999938964844,-50.94200134277344 C58.638999938964844,-50.94200134277344 0,-16.334999084472656 0,-16.334999084472656 C0,-16.334999084472656 -58.638999938964844,-50.94200134277344 -58.638999938964844,-50.94200134277344 C-58.638999938964844,-50.94200134277344 -58.638999938964844,16.406999588012695 -58.638999938964844,16.406999588012695z"></path>
      </g>
      <g opacity="1" transform="matrix(1,0,0,1,78.66100311279297,122.78700256347656)">
        <path stroke-linecap="round" stroke-linejoin="round" fill-opacity="0"
          stroke="rgb(50,204,218)" stroke-opacity="1" stroke-width="8"
          d=" M-0.020999999716877937,-7.3420000076293945 C-0.020999999716877937,-7.3420000076293945 -0.020999999716877937,-33.638999938964844 -0.020999999716877937,-33.638999938964844 C-0.020999999716877937,-33.638999938964844 0.020999999716877937,33.638999938964844 0.020999999716877937,33.638999938964844"></path>
      </g>
      <g opacity="1" transform="matrix(1,0,0,1,78.63999938964844,54.57400131225586)">
        <path stroke-linecap="round" stroke-linejoin="round" fill-opacity="0"
          stroke="rgb(50,204,218)" stroke-opacity="1" stroke-width="8"
          d=" M0,-34.57400131225586 C0,-34.57400131225586 -58.63999938964844,-0.032999999821186066 -58.63999938964844,-0.032999999821186066 C-58.63999938964844,-0.032999999821186066 0,34.57400131225586 0,34.57400131225586 C0,34.57400131225586 58.63999938964844,-0.032999999821186066 58.63999938964844,-0.032999999821186066 C58.63999938964844,-0.032999999821186066 0,-34.57400131225586 0,-34.57400131225586z"></path>
      </g>
    </g>
    <g style="display: block;"
      transform="matrix(0.9999986886978149,0.000005820721071359003,-0.000005820721071359003,0.9999986886978149,-10.250381469726562,-13.537338256835938)"
      opacity="1">
      <path fill="rgb(255,255,255)" fill-opacity="1"
        d=" M20,121.89 C20,121.89 78.68,156.43 78.68,156.43 C78.68,156.43 137.28,121.89 137.28,121.89 C137.28,121.89 137.28,54.54 137.28,54.54 C137.28,54.54 78.64,89.15 78.64,89.15 C78.64,89.15 20,54.54 20,54.54 C20,54.54 20,121.89 20,121.89z M78.64,115.45 C78.64,115.45 78.64,89.15 78.64,89.15 C78.64,89.15 78.68,156.43 78.68,156.43 M78.64,20 C78.64,20 20,54.54 20,54.54 C20,54.54 78.64,89.15 78.64,89.15 C78.64,89.15 137.28,54.54 137.28,54.54 C137.28,54.54 78.64,20 78.64,20z"></path>
      <g opacity="1" transform="matrix(1,0,0,1,78.63999938964844,105.48400115966797)">
        <path stroke-linecap="round" stroke-linejoin="round" fill-opacity="0"
          stroke="rgb(50,204,218)" stroke-opacity="1" stroke-width="8"
          d=" M-58.63999938964844,16.406999588012695 C-58.63999938964844,16.406999588012695 0.041999999433755875,50.94200134277344 0.041999999433755875,50.94200134277344 C0.041999999433755875,50.94200134277344 58.63999938964844,16.406999588012695 58.63999938964844,16.406999588012695 C58.63999938964844,16.406999588012695 58.63999938964844,-50.94200134277344 58.63999938964844,-50.94200134277344 C58.63999938964844,-50.94200134277344 0.0010000000474974513,-16.334999084472656 0.0010000000474974513,-16.334999084472656 C0.0010000000474974513,-16.334999084472656 -58.63999938964844,-50.94200134277344 -58.63999938964844,-50.94200134277344 C-58.63999938964844,-50.94200134277344 -58.63999938964844,16.406999588012695 -58.63999938964844,16.406999588012695z"></path>
      </g>
      <g opacity="1" transform="matrix(1,0,0,1,78.66100311279297,122.78700256347656)">
        <path stroke-linecap="round" stroke-linejoin="round" fill-opacity="0"
          stroke="rgb(50,204,218)" stroke-opacity="1" stroke-width="8"
          d=" M-0.020999999716877937,-7.3420000076293945 C-0.020999999716877937,-7.3420000076293945 -0.020999999716877937,-33.638999938964844 -0.020999999716877937,-33.638999938964844 C-0.020999999716877937,-33.638999938964844 0.020999999716877937,33.638999938964844 0.020999999716877937,33.638999938964844"></path>
      </g>
      <g opacity="1" transform="matrix(1,0,0,1,78.63999938964844,54.57400131225586)">
        <path stroke-linecap="round" stroke-linejoin="round" fill-opacity="0"
          stroke="rgb(50,204,218)" stroke-opacity="1" stroke-width="8"
          d=" M0,-34.57400131225586 C0,-34.57400131225586 -58.63999938964844,-0.032999999821186066 -58.63999938964844,-0.032999999821186066 C-58.63999938964844,-0.032999999821186066 0,34.57400131225586 0,34.57400131225586 C0,34.57400131225586 58.63999938964844,-0.032999999821186066 58.63999938964844,-0.032999999821186066 C58.63999938964844,-0.032999999821186066 0,-34.57400131225586 0,-34.57400131225586z"></path>
      </g>
    </g>
  </g>
</svg>