<svg width="43" height="43" viewBox="0 0 43 43" fill="none" xmlns="http://www.w3.org/2000/svg">
<circle cx="21.38" cy="21.7174" r="20.4119" fill="white" stroke="#CBD0DC" stroke-width="0.887473"/>
<path d="M17.5189 27.9602H15.8859C13.3855 27.7816 12.2629 25.8595 12.2629 24.15C12.2629 22.4405 13.3855 20.5099 15.8434 20.3398C16.1921 20.3058 16.4983 20.5779 16.5238 20.9351C16.5493 21.2838 16.2857 21.59 15.9285 21.6155C14.2786 21.7346 13.5386 22.9763 13.5386 24.1585C13.5386 25.3407 14.2786 26.5824 15.9285 26.7015H17.5189C17.8676 26.7015 18.1568 26.9907 18.1568 27.3394C18.1568 27.6881 17.8676 27.9602 17.5189 27.9602Z" fill="#292D32"/>
<path d="M25.3517 27.9606C25.3347 27.9606 25.3262 27.9606 25.3092 27.9606C24.9605 27.9606 24.6373 27.6714 24.6373 27.3227C24.6373 26.957 24.9095 26.6848 25.2667 26.6848C26.3128 26.6848 27.2483 26.3191 27.9798 25.6642C29.3065 24.5076 29.3916 22.8406 29.0344 21.6669C28.6771 20.5017 27.6821 19.1664 25.9471 18.9538C25.6664 18.9198 25.4452 18.7072 25.3942 18.4265C25.054 16.3853 23.9569 14.9735 22.2899 14.4632C20.5719 13.9274 18.5647 14.4547 17.3145 15.7645C16.0983 17.0317 15.8176 18.8092 16.5236 20.7654C16.6426 21.0971 16.4726 21.4628 16.1409 21.5818C15.8092 21.7009 15.4434 21.5308 15.3244 21.1991C14.4654 18.8007 14.8566 16.5044 16.396 14.8884C17.9694 13.2385 20.4954 12.5836 22.6642 13.247C24.6543 13.8593 26.0576 15.5008 26.5679 17.7801C28.3029 18.1714 29.6977 19.4896 30.2506 21.3097C30.8544 23.2913 30.3101 25.3325 28.8217 26.6253C27.8777 27.4758 26.6445 27.9606 25.3517 27.9606Z" fill="#292D32"/>
<path d="M21.38 30.4609C19.6705 30.4609 18.0716 29.5508 17.1955 28.0795C17.102 27.9349 17.0084 27.7648 16.9319 27.5777C16.6427 26.9738 16.4896 26.2849 16.4896 25.5705C16.4896 22.8745 18.6839 20.6802 21.38 20.6802C24.076 20.6802 26.2703 22.8745 26.2703 25.5705C26.2703 26.2934 26.1173 26.9738 25.8111 27.6032C25.743 27.7648 25.6495 27.9349 25.5474 28.0965C24.6884 29.5508 23.0895 30.4609 21.38 30.4609ZM21.38 21.9559C19.3898 21.9559 17.7654 23.5804 17.7654 25.5705C17.7654 26.0978 17.8759 26.5911 18.0886 27.0419C18.1566 27.1865 18.2161 27.3055 18.2842 27.4161C18.9305 28.5132 20.1127 29.1851 21.3715 29.1851C22.6302 29.1851 23.8124 28.5132 24.4502 27.4331C24.5268 27.3055 24.5949 27.1865 24.6459 27.0674C24.8755 26.5996 24.9861 26.1063 24.9861 25.579C24.9946 23.5804 23.3701 21.9559 21.38 21.9559Z" fill="#292D32"/>
<path d="M20.8951 27.0502C20.7335 27.0502 20.5719 26.9906 20.4444 26.8631L19.6023 26.0211C19.3557 25.7744 19.3557 25.3662 19.6023 25.1196C19.849 24.8729 20.2572 24.8729 20.5039 25.1196L20.9121 25.5278L22.2729 24.2691C22.5366 24.0309 22.9363 24.0479 23.1744 24.3031C23.4126 24.5582 23.3956 24.9665 23.1404 25.2046L21.3289 26.8801C21.2013 26.9906 21.0482 27.0502 20.8951 27.0502Z" fill="#292D32"/>
</svg>
