<svg width="22" height="22" viewBox="0 0 22 22" fill="none" xmlns="http://www.w3.org/2000/svg">
<path d="M7.13899 17.3577H5.506C3.00554 17.1791 1.88293 15.257 1.88293 13.5475C1.88293 11.838 3.00556 9.90735 5.46349 9.73725C5.81219 9.70323 6.11836 9.97539 6.14387 10.3326C6.16939 10.6813 5.90578 10.9875 5.54857 11.013C3.89861 11.1321 3.15868 12.3738 3.15868 13.556C3.15868 14.7382 3.89861 15.9799 5.54857 16.099H7.13899C7.48769 16.099 7.77686 16.3881 7.77686 16.7368C7.77686 17.0855 7.48769 17.3577 7.13899 17.3577Z" fill="#292D32"/>
<path d="M14.9717 17.357C14.9547 17.357 14.9462 17.357 14.9292 17.357C14.5805 17.357 14.2573 17.0679 14.2573 16.7192C14.2573 16.3535 14.5295 16.0813 14.8867 16.0813C15.9328 16.0813 16.8684 15.7156 17.5998 15.0607C18.9265 13.904 19.0116 12.2371 18.6544 11.0634C18.2972 9.89821 17.3021 8.56293 15.5671 8.3503C15.2864 8.31628 15.0653 8.10366 15.0142 7.823C14.674 5.78181 13.5769 4.36998 11.91 3.85969C10.192 3.32387 8.18476 3.85118 6.93453 5.16094C5.71832 6.42818 5.43767 8.20572 6.14358 10.1619C6.26265 10.4936 6.09259 10.8593 5.7609 10.9783C5.4292 11.0974 5.06347 10.9273 4.9444 10.5956C4.0854 8.19721 4.47664 5.90088 6.01603 4.28493C7.58945 2.63497 10.1154 1.98008 12.2842 2.64347C14.2743 3.25583 15.6776 4.89729 16.1879 7.17661C17.9229 7.56784 19.3178 8.88612 19.8706 10.7062C20.4744 12.6878 19.9301 14.729 18.4418 16.0218C17.4977 16.8723 16.2645 17.357 14.9717 17.357Z" fill="#292D32"/>
<path d="M11 19.8574C9.2905 19.8574 7.69159 18.9473 6.81558 17.476C6.72202 17.3314 6.62847 17.1613 6.55192 16.9742C6.26276 16.3703 6.10965 15.6814 6.10965 14.967C6.10965 12.2709 8.30393 10.0767 11 10.0767C13.6961 10.0767 15.8903 12.2709 15.8903 14.967C15.8903 15.6899 15.7373 16.3703 15.4311 16.9997C15.3631 17.1613 15.2695 17.3314 15.1674 17.493C14.3084 18.9473 12.7095 19.8574 11 19.8574ZM11 11.3524C9.00984 11.3524 7.38539 12.9768 7.38539 14.967C7.38539 15.4943 7.49596 15.9876 7.70859 16.4384C7.77662 16.5829 7.83614 16.702 7.90418 16.8126C8.55056 17.9097 9.73275 18.5816 10.9915 18.5816C12.2502 18.5816 13.4324 17.9097 14.0703 16.8296C14.1468 16.702 14.2149 16.5829 14.2659 16.4639C14.4956 15.9961 14.6061 15.5028 14.6061 14.9755C14.6146 12.9768 12.9902 11.3524 11 11.3524Z" fill="#292D32"/>
<path d="M10.5152 16.4476C10.3536 16.4476 10.192 16.3881 10.0644 16.2605L9.2224 15.4185C8.97575 15.1719 8.97575 14.7637 9.2224 14.517C9.46904 14.2704 9.87728 14.2704 10.1239 14.517L10.5322 14.9252L11.893 13.6665C12.1566 13.4284 12.5563 13.4454 12.7945 13.7005C13.0326 13.9557 13.0156 14.3639 12.7605 14.6021L10.9489 16.2775C10.8214 16.3881 10.6683 16.4476 10.5152 16.4476Z" fill="#292D32"/>
</svg>
