<svg width="25" height="25" viewBox="0 0 25 25" fill="none" xmlns="http://www.w3.org/2000/svg">
<rect y="0.269043" width="24.3075" height="24.3075" rx="12.1537" fill="#EFF1F4"/>
<path d="M7.8977 8.28569L7.95286 8.22179C8.15512 8.01954 8.47162 8.00115 8.69465 8.16663L8.75855 8.22179L12.1537 11.6167L15.549 8.22179C15.7714 7.99931 16.1322 7.99931 16.3546 8.22179C16.5771 8.44428 16.5771 8.805 16.3546 9.02748L12.9597 12.4227L16.3546 15.8179C16.5569 16.0201 16.5753 16.3366 16.4098 16.5597L16.3546 16.6236C16.1524 16.8258 15.8359 16.8442 15.6128 16.6787L15.549 16.6236L12.1537 13.2286L8.75855 16.6236C8.53606 16.8461 8.17534 16.8461 7.95286 16.6236C7.73037 16.4011 7.73037 16.0404 7.95286 15.8179L11.3478 12.4227L7.95286 9.02748C7.7506 8.82522 7.73221 8.50872 7.8977 8.28569L7.95286 8.22179L7.8977 8.28569Z" fill="#404851"/>
</svg>
