<svg id="Layer_1" data-name="Layer 1" xmlns="http://www.w3.org/2000/svg" viewBox="0 0 24 19"><defs><style>.cls-1{fill:#274b9a;}.cls-2{fill:#5fc1ee;}</style></defs><title>Artboard 4</title><path class="cls-1" d="M22,4.05A2.49,2.49,0,0,0,19.5,2a.5.5,0,0,0,0,1A1.5,1.5,0,0,1,21,4.5v10A1.5,1.5,0,0,1,19.5,16H4.5A1.5,1.5,0,0,1,3,14.5a.5.5,0,0,0-1,0A2.49,2.49,0,0,0,4.05,17,2.49,2.49,0,0,0,6.5,19h15A2.5,2.5,0,0,0,24,16.5V6.5A2.49,2.49,0,0,0,22,4.05ZM23,16.5A1.5,1.5,0,0,1,21.5,18H6.5a1.51,1.51,0,0,1-1.41-1H19.5A2.5,2.5,0,0,0,22,14.5V5.09A1.51,1.51,0,0,1,23,6.5Z"/><path class="cls-1" d="M3.5,2a.5.5,0,1,0,.5.5A.5.5,0,0,0,3.5,2Z"/><path class="cls-1" d="M5.5,2a.5.5,0,1,0,.5.5A.5.5,0,0,0,5.5,2Z"/><path class="cls-1" d="M7.5,2a.5.5,0,1,0,.5.5A.5.5,0,0,0,7.5,2Z"/><path class="cls-2" d="M17.5,0H2.5A2.5,2.5,0,0,0,0,2.5v10A2.5,2.5,0,0,0,2.5,15h15A2.5,2.5,0,0,0,20,12.5V2.5A2.5,2.5,0,0,0,17.5,0ZM2.5,1h15A1.5,1.5,0,0,1,19,2.5V4H1V2.5A1.5,1.5,0,0,1,2.5,1Zm15,13H2.5A1.5,1.5,0,0,1,1,12.5V5H19v7.5A1.5,1.5,0,0,1,17.5,14Z"/></svg>