<svg id="Layer_1" data-name="Layer 1" xmlns="http://www.w3.org/2000/svg" viewBox="0 0 24.52 24.25"><defs><style>.cls-1{fill:#5fc1ee;}.cls-2{fill:#274b9a;}</style></defs><title>Artboard 2</title><path class="cls-1" d="M18.4,7l3.29-3.3L21,3,17.69,6.25H10.22a.5.5,0,0,0-.5.5V8.42L4,5.94l-.4.92L9.72,9.5v4.72L3.11,20.84l.7.7,6.62-6.61h3v5.82h1V14.93h3.5a.51.51,0,0,0,.5-.5v-.67l2.37,1,.38-.92L18.4,12.68Zm-1,7H10.72V7.25H17.4Z"/><path class="cls-2" d="M24,4.25H20.77a.5.5,0,0,1-.5-.5V.5a.5.5,0,0,1,.5-.5H24a.5.5,0,0,1,.5.5V3.75A.5.5,0,0,1,24,4.25Zm-2.75-1h2.25V1H21.27Z"/><path class="cls-2" d="M3.75,7.87H.5a.5.5,0,0,1-.5-.5V4.12a.5.5,0,0,1,.5-.5H3.75a.5.5,0,0,1,.5.5V7.37A.5.5,0,0,1,3.75,7.87ZM1,6.87H3.25V4.62H1Z"/><path class="cls-2" d="M3.75,24.25H.5a.5.5,0,0,1-.5-.5V20.5A.5.5,0,0,1,.5,20H3.75a.5.5,0,0,1,.5.5v3.25A.5.5,0,0,1,3.75,24.25ZM1,23.25H3.25V21H1Z"/><path class="cls-2" d="M15.52,24.25H12.27a.5.5,0,0,1-.5-.5V20.5a.5.5,0,0,1,.5-.5h3.25a.5.5,0,0,1,.5.5v3.25A.5.5,0,0,1,15.52,24.25Zm-2.75-1H15V21H12.77Z"/><path class="cls-2" d="M24,16.87H20.77a.5.5,0,0,1-.5-.5V13.12a.51.51,0,0,1,.5-.5H24a.5.5,0,0,1,.5.5v3.25A.5.5,0,0,1,24,16.87Zm-2.75-1h2.25V13.62H21.27Z"/></svg>