<svg id="Layer_1" data-name="Layer 1" xmlns="http://www.w3.org/2000/svg" viewBox="0 0 24 24"><defs><style>.cls-1{fill:#274b9a;}.cls-2{fill:#5fc1ee;}</style></defs><title>Artboard 3</title><path class="cls-1" d="M3.5,2a.5.5,0,1,0,.5.5A.5.5,0,0,0,3.5,2Z"/><path class="cls-1" d="M5.5,2a.5.5,0,1,0,.5.5A.5.5,0,0,0,5.5,2Z"/><path class="cls-1" d="M7.5,2a.5.5,0,1,0,.5.5A.5.5,0,0,0,7.5,2Z"/><path class="cls-2" d="M18.5,0H2.5A2.5,2.5,0,0,0,0,2.5v12A2.5,2.5,0,0,0,2.5,17h6a.5.5,0,0,0,0-1h-6A1.5,1.5,0,0,1,1,14.5V5H20V8.5a.5.5,0,0,0,1,0v-6A2.5,2.5,0,0,0,18.5,0ZM20,4H1V2.5A1.5,1.5,0,0,1,2.5,1h16A1.5,1.5,0,0,1,20,2.5Z"/><path class="cls-1" d="M17.5,24A6.5,6.5,0,1,1,24,17.5,6.51,6.51,0,0,1,17.5,24Zm0-12A5.5,5.5,0,1,0,23,17.5,5.51,5.51,0,0,0,17.5,12Z"/><path class="cls-1" d="M20,17H18V15a.5.5,0,0,0-1,0v2H15a.5.5,0,0,0,0,1h2v2a.5.5,0,0,0,1,0V18h2a.5.5,0,0,0,0-1Z"/></svg>