<svg width="535" height="353" viewBox="0 0 535 353" fill="none" xmlns="http://www.w3.org/2000/svg">
<rect x="41" y="60" width="453" height="236" rx="18" stroke="#5DC2EF" stroke-width="4"/>
<g filter="url(#filter0_d)">
<rect width="70" height="40" transform="translate(189 177)" fill="white"/>
<path d="M215.064 203.096C213.304 203.096 212.003 202.637 211.16 201.72C210.328 200.792 209.912 199.352 209.912 197.4C209.912 193.603 211.64 191.704 215.096 191.704C215.619 191.704 216.12 191.763 216.6 191.88C217.091 191.987 217.48 192.12 217.768 192.28C218.024 192.429 218.152 192.568 218.152 192.696C218.152 192.845 218.083 193.037 217.944 193.272C217.816 193.507 217.704 193.624 217.608 193.624C217.576 193.624 217.437 193.56 217.192 193.432C216.957 193.293 216.664 193.176 216.312 193.08C215.971 192.973 215.576 192.92 215.128 192.92C213.837 192.92 212.888 193.277 212.28 193.992C211.672 194.707 211.368 195.848 211.368 197.416C211.368 198.952 211.667 200.083 212.264 200.808C212.872 201.523 213.805 201.88 215.064 201.88C215.587 201.88 216.035 201.821 216.408 201.704C216.781 201.576 217.149 201.416 217.512 201.224C217.661 201.128 217.763 201.08 217.816 201.08C217.912 201.08 218.029 201.197 218.168 201.432C218.307 201.667 218.376 201.837 218.376 201.944C218.376 202.104 218.205 202.28 217.864 202.472C217.544 202.653 217.139 202.803 216.648 202.92C216.157 203.037 215.629 203.096 215.064 203.096ZM222.426 203.096C221.605 203.096 220.944 202.893 220.442 202.488C219.941 202.083 219.69 201.485 219.69 200.696C219.69 199.853 219.941 199.224 220.442 198.808C220.954 198.381 221.578 198.109 222.314 197.992C223.05 197.864 223.946 197.795 225.002 197.784V197.032C225.002 196.637 224.864 196.317 224.586 196.072C224.309 195.816 223.861 195.688 223.242 195.688C222.773 195.688 222.362 195.747 222.01 195.864C221.658 195.971 221.365 196.083 221.13 196.2C220.896 196.307 220.768 196.36 220.746 196.36C220.64 196.36 220.517 196.253 220.378 196.04C220.25 195.827 220.186 195.667 220.186 195.56C220.186 195.421 220.325 195.272 220.602 195.112C220.89 194.952 221.269 194.819 221.738 194.712C222.208 194.595 222.693 194.536 223.194 194.536C224.186 194.536 224.96 194.76 225.514 195.208C226.069 195.645 226.346 196.259 226.346 197.048V200.632C226.346 201.336 226.378 201.843 226.442 202.152C226.506 202.451 226.538 202.616 226.538 202.648C226.538 202.776 226.437 202.872 226.234 202.936C226.032 202.989 225.845 203.016 225.674 203.016C225.525 203.016 225.413 202.936 225.338 202.776C225.274 202.605 225.221 202.429 225.178 202.248C225.146 202.067 225.125 201.949 225.114 201.896C224.389 202.696 223.493 203.096 222.426 203.096ZM222.49 201.928C223.013 201.928 223.461 201.832 223.834 201.64C224.218 201.448 224.608 201.176 225.002 200.824V198.936C224.202 198.947 223.546 198.979 223.034 199.032C222.533 199.085 222.09 199.235 221.706 199.48C221.322 199.725 221.13 200.104 221.13 200.616C221.13 201.043 221.242 201.368 221.466 201.592C221.701 201.816 222.042 201.928 222.49 201.928ZM229.705 203.032C229.278 203.032 229.065 202.915 229.065 202.68V197.064C229.065 196.36 229.033 195.859 228.969 195.56C228.905 195.251 228.873 195.08 228.873 195.048C228.873 194.92 228.974 194.829 229.177 194.776C229.38 194.712 229.566 194.68 229.737 194.68C229.886 194.68 229.993 194.76 230.057 194.92C230.132 195.069 230.185 195.229 230.217 195.4C230.26 195.571 230.286 195.683 230.297 195.736C230.862 194.936 231.481 194.536 232.153 194.536C232.452 194.536 232.681 194.595 232.841 194.712C233.001 194.829 233.081 194.979 233.081 195.16C233.081 195.341 233.049 195.533 232.985 195.736C232.921 195.928 232.846 196.024 232.761 196.024C232.708 196.024 232.601 195.997 232.441 195.944C232.292 195.88 232.105 195.848 231.881 195.848C231.636 195.848 231.401 195.923 231.177 196.072C230.964 196.211 230.782 196.365 230.633 196.536C230.484 196.707 230.409 196.803 230.409 196.824V202.68C230.409 202.915 230.196 203.032 229.769 203.032H229.705ZM237.26 203.096C236.727 203.096 236.247 202.936 235.82 202.616C235.404 202.285 235.196 201.709 235.196 200.888V195.784H234.396C234.29 195.784 234.21 195.747 234.156 195.672C234.103 195.597 234.076 195.475 234.076 195.304V195.112C234.076 194.941 234.103 194.819 234.156 194.744C234.21 194.669 234.29 194.632 234.396 194.632H235.196L235.388 192.952C235.42 192.717 235.591 192.6 235.9 192.6H236.06C236.38 192.6 236.54 192.717 236.54 192.952V194.632H237.884C238.002 194.632 238.082 194.669 238.124 194.744C238.178 194.819 238.204 194.941 238.204 195.112V195.304C238.204 195.475 238.178 195.597 238.124 195.672C238.082 195.747 238.002 195.784 237.884 195.784H236.54V200.76C236.54 201.208 236.615 201.517 236.764 201.688C236.924 201.859 237.138 201.944 237.404 201.944C237.607 201.944 237.756 201.933 237.852 201.912C237.959 201.88 238.039 201.864 238.092 201.864C238.188 201.864 238.268 201.965 238.332 202.168C238.396 202.36 238.428 202.509 238.428 202.616C238.428 202.936 238.039 203.096 237.26 203.096Z" fill="black"/>
</g>
<g filter="url(#filter1_d)">
<rect width="82" height="40" transform="translate(303 117)" fill="white"/>
<path d="M328.84 143.096C327.24 143.096 326.019 142.611 325.176 141.64C324.333 140.659 323.912 139.235 323.912 137.368C323.912 135.501 324.328 134.093 325.16 133.144C326.003 132.184 327.229 131.704 328.84 131.704C330.451 131.704 331.677 132.184 332.52 133.144C333.363 134.093 333.784 135.501 333.784 137.368C333.784 139.235 333.363 140.659 332.52 141.64C331.677 142.611 330.451 143.096 328.84 143.096ZM328.84 141.88C329.971 141.88 330.835 141.496 331.432 140.728C332.029 139.96 332.328 138.84 332.328 137.368C332.328 135.907 332.029 134.803 331.432 134.056C330.835 133.299 329.971 132.92 328.84 132.92C327.709 132.92 326.845 133.299 326.248 134.056C325.661 134.803 325.368 135.907 325.368 137.368C325.368 138.84 325.661 139.96 326.248 140.728C326.845 141.496 327.709 141.88 328.84 141.88ZM336.783 143.032C336.356 143.032 336.143 142.915 336.143 142.68V137.064C336.143 136.36 336.111 135.859 336.047 135.56C335.983 135.251 335.951 135.08 335.951 135.048C335.951 134.92 336.052 134.829 336.255 134.776C336.458 134.712 336.644 134.68 336.815 134.68C336.964 134.68 337.071 134.76 337.135 134.92C337.21 135.069 337.263 135.229 337.295 135.4C337.338 135.571 337.364 135.683 337.375 135.736C337.94 134.936 338.559 134.536 339.231 134.536C339.53 134.536 339.759 134.595 339.919 134.712C340.079 134.829 340.159 134.979 340.159 135.16C340.159 135.341 340.127 135.533 340.063 135.736C339.999 135.928 339.924 136.024 339.839 136.024C339.786 136.024 339.679 135.997 339.519 135.944C339.37 135.88 339.183 135.848 338.959 135.848C338.714 135.848 338.479 135.923 338.255 136.072C338.042 136.211 337.86 136.365 337.711 136.536C337.562 136.707 337.487 136.803 337.487 136.824V142.68C337.487 142.915 337.274 143.032 336.847 143.032H336.783ZM344.499 143.096C343.869 143.096 343.32 142.915 342.851 142.552C342.381 142.189 342.019 141.683 341.763 141.032C341.517 140.381 341.395 139.645 341.395 138.824C341.395 137.917 341.528 137.144 341.795 136.504C342.072 135.853 342.456 135.363 342.947 135.032C343.437 134.701 344.003 134.536 344.643 134.536C345.112 134.536 345.523 134.605 345.875 134.744C346.237 134.883 346.589 135.085 346.931 135.352V131.32C346.931 131.085 347.144 130.968 347.571 130.968H347.635C348.061 130.968 348.275 131.085 348.275 131.32V140.632C348.275 141.336 348.307 141.843 348.371 142.152C348.435 142.451 348.467 142.616 348.467 142.648C348.467 142.776 348.365 142.872 348.163 142.936C347.96 142.989 347.773 143.016 347.603 143.016C347.453 143.016 347.341 142.936 347.267 142.776C347.203 142.605 347.149 142.429 347.107 142.248C347.075 142.067 347.053 141.949 347.043 141.896C346.275 142.696 345.427 143.096 344.499 143.096ZM344.771 141.928C345.133 141.928 345.501 141.832 345.875 141.64C346.259 141.448 346.611 141.176 346.931 140.824V136.44C346.355 135.96 345.699 135.72 344.963 135.72C344.248 135.72 343.709 135.976 343.347 136.488C342.984 137 342.803 137.736 342.803 138.696C342.803 139.731 342.973 140.531 343.315 141.096C343.656 141.651 344.141 141.928 344.771 141.928ZM354.409 143.096C353.076 143.096 352.089 142.749 351.449 142.056C350.809 141.363 350.489 140.301 350.489 138.872C350.489 137.453 350.804 136.376 351.433 135.64C352.063 134.904 352.991 134.536 354.217 134.536C355.305 134.536 356.127 134.893 356.681 135.608C357.236 136.312 357.513 137.347 357.513 138.712C357.513 138.808 357.449 138.941 357.321 139.112C357.193 139.283 357.081 139.368 356.985 139.368H351.929C351.993 140.253 352.223 140.904 352.617 141.32C353.012 141.736 353.604 141.944 354.393 141.944C354.841 141.944 355.225 141.891 355.545 141.784C355.876 141.667 356.148 141.555 356.361 141.448C356.575 141.331 356.697 141.272 356.729 141.272C356.836 141.272 356.953 141.379 357.081 141.592C357.22 141.805 357.289 141.965 357.289 142.072C357.289 142.2 357.156 142.349 356.889 142.52C356.623 142.68 356.265 142.819 355.817 142.936C355.38 143.043 354.911 143.096 354.409 143.096ZM356.089 138.216C356.089 136.531 355.449 135.688 354.169 135.688C352.793 135.688 352.047 136.531 351.929 138.216H356.089ZM360.314 143.032C359.888 143.032 359.674 142.915 359.674 142.68V137.064C359.674 136.36 359.642 135.859 359.578 135.56C359.514 135.251 359.482 135.08 359.482 135.048C359.482 134.92 359.584 134.829 359.786 134.776C359.989 134.712 360.176 134.68 360.346 134.68C360.496 134.68 360.602 134.76 360.666 134.92C360.741 135.069 360.794 135.229 360.826 135.4C360.869 135.571 360.896 135.683 360.906 135.736C361.472 134.936 362.09 134.536 362.762 134.536C363.061 134.536 363.29 134.595 363.45 134.712C363.61 134.829 363.69 134.979 363.69 135.16C363.69 135.341 363.658 135.533 363.594 135.736C363.53 135.928 363.456 136.024 363.37 136.024C363.317 136.024 363.21 135.997 363.05 135.944C362.901 135.88 362.714 135.848 362.49 135.848C362.245 135.848 362.01 135.923 361.786 136.072C361.573 136.211 361.392 136.365 361.242 136.536C361.093 136.707 361.018 136.803 361.018 136.824V142.68C361.018 142.915 360.805 143.032 360.378 143.032H360.314Z" fill="black"/>
</g>
<g filter="url(#filter2_d)">
<rect width="158" height="40" transform="translate(130 117)" fill="white"/>
<path d="M152.032 143C151.861 143 151.739 142.963 151.664 142.888C151.589 142.813 151.552 142.691 151.552 142.52V132.28C151.552 132.109 151.589 131.987 151.664 131.912C151.739 131.837 151.861 131.8 152.032 131.8H155.264C156.757 131.8 157.952 132.248 158.848 133.144C159.755 134.029 160.208 135.448 160.208 137.4C160.208 139.363 159.755 140.787 158.848 141.672C157.952 142.557 156.757 143 155.264 143H152.032ZM155.152 141.784C156.229 141.784 157.099 141.432 157.76 140.728C158.421 140.024 158.752 138.915 158.752 137.4C158.752 135.896 158.421 134.792 157.76 134.088C157.099 133.373 156.229 133.016 155.152 133.016H152.96V141.784H155.152ZM163.221 133.144C162.752 133.144 162.517 133.016 162.517 132.76V131.864C162.517 131.608 162.773 131.48 163.285 131.48C163.754 131.48 163.989 131.608 163.989 131.864V132.76C163.989 133.016 163.733 133.144 163.221 133.144ZM163.221 143.032C162.794 143.032 162.581 142.915 162.581 142.68V134.952C162.581 134.717 162.794 134.6 163.221 134.6H163.285C163.712 134.6 163.925 134.717 163.925 134.952V142.68C163.925 142.915 163.712 143.032 163.285 143.032H163.221ZM169.407 146.392C168.383 146.392 167.573 146.232 166.975 145.912C166.389 145.592 166.095 145.091 166.095 144.408C166.095 143.939 166.229 143.533 166.495 143.192C166.762 142.851 167.114 142.589 167.551 142.408L167.567 142.376C167.141 142.035 166.927 141.597 166.927 141.064C166.927 140.371 167.226 139.816 167.823 139.4C167.375 139.176 167.034 138.867 166.799 138.472C166.565 138.077 166.447 137.635 166.447 137.144C166.447 136.387 166.725 135.763 167.279 135.272C167.834 134.781 168.607 134.536 169.599 134.536C169.941 134.536 170.255 134.568 170.543 134.632H173.455C173.573 134.632 173.653 134.669 173.695 134.744C173.749 134.819 173.775 134.941 173.775 135.112V135.304C173.775 135.475 173.749 135.597 173.695 135.672C173.653 135.747 173.573 135.784 173.455 135.784C173.018 135.784 172.645 135.768 172.335 135.736L172.319 135.768C172.597 136.163 172.735 136.621 172.735 137.144C172.735 137.912 172.458 138.541 171.903 139.032C171.359 139.523 170.586 139.768 169.583 139.768C169.082 139.768 168.703 139.859 168.447 140.04C168.191 140.211 168.063 140.488 168.063 140.872C168.063 141.149 168.149 141.363 168.319 141.512C168.501 141.651 168.725 141.752 168.991 141.816C169.258 141.88 169.631 141.939 170.111 141.992C170.346 142.013 170.522 142.035 170.639 142.056C171.407 142.152 171.999 142.333 172.415 142.6C172.842 142.856 173.055 143.315 173.055 143.976C173.055 144.755 172.746 145.352 172.127 145.768C171.509 146.184 170.602 146.392 169.407 146.392ZM169.583 138.696C170.17 138.696 170.634 138.579 170.975 138.344C171.327 138.099 171.503 137.704 171.503 137.16C171.503 136.125 170.863 135.608 169.583 135.608C168.314 135.608 167.679 136.125 167.679 137.16C167.679 138.184 168.314 138.696 169.583 138.696ZM169.583 145.304C170.33 145.304 170.879 145.208 171.231 145.016C171.594 144.824 171.775 144.525 171.775 144.12C171.775 143.747 171.599 143.496 171.247 143.368C170.895 143.24 170.367 143.139 169.663 143.064C169.023 143 168.586 142.931 168.351 142.856C167.647 143.155 167.295 143.587 167.295 144.152C167.295 144.92 168.058 145.304 169.583 145.304ZM176.19 133.144C175.72 133.144 175.486 133.016 175.486 132.76V131.864C175.486 131.608 175.742 131.48 176.254 131.48C176.723 131.48 176.958 131.608 176.958 131.864V132.76C176.958 133.016 176.702 133.144 176.19 133.144ZM176.19 143.032C175.763 143.032 175.55 142.915 175.55 142.68V134.952C175.55 134.717 175.763 134.6 176.19 134.6H176.254C176.68 134.6 176.894 134.717 176.894 134.952V142.68C176.894 142.915 176.68 143.032 176.254 143.032H176.19ZM182.104 143.096C181.571 143.096 181.091 142.936 180.664 142.616C180.248 142.285 180.04 141.709 180.04 140.888V135.784H179.24C179.133 135.784 179.053 135.747 179 135.672C178.947 135.597 178.92 135.475 178.92 135.304V135.112C178.92 134.941 178.947 134.819 179 134.744C179.053 134.669 179.133 134.632 179.24 134.632H180.04L180.232 132.952C180.264 132.717 180.435 132.6 180.744 132.6H180.904C181.224 132.6 181.384 132.717 181.384 132.952V134.632H182.728C182.845 134.632 182.925 134.669 182.968 134.744C183.021 134.819 183.048 134.941 183.048 135.112V135.304C183.048 135.475 183.021 135.597 182.968 135.672C182.925 135.747 182.845 135.784 182.728 135.784H181.384V140.76C181.384 141.208 181.459 141.517 181.608 141.688C181.768 141.859 181.981 141.944 182.248 141.944C182.451 141.944 182.6 141.933 182.696 141.912C182.803 141.88 182.883 141.864 182.936 141.864C183.032 141.864 183.112 141.965 183.176 142.168C183.24 142.36 183.272 142.509 183.272 142.616C183.272 142.936 182.883 143.096 182.104 143.096ZM187.317 143.096C186.496 143.096 185.834 142.893 185.333 142.488C184.832 142.083 184.581 141.485 184.581 140.696C184.581 139.853 184.832 139.224 185.333 138.808C185.845 138.381 186.469 138.109 187.205 137.992C187.941 137.864 188.837 137.795 189.893 137.784V137.032C189.893 136.637 189.754 136.317 189.477 136.072C189.2 135.816 188.752 135.688 188.133 135.688C187.664 135.688 187.253 135.747 186.901 135.864C186.549 135.971 186.256 136.083 186.021 136.2C185.786 136.307 185.658 136.36 185.637 136.36C185.53 136.36 185.408 136.253 185.269 136.04C185.141 135.827 185.077 135.667 185.077 135.56C185.077 135.421 185.216 135.272 185.493 135.112C185.781 134.952 186.16 134.819 186.629 134.712C187.098 134.595 187.584 134.536 188.085 134.536C189.077 134.536 189.85 134.76 190.405 135.208C190.96 135.645 191.237 136.259 191.237 137.048V140.632C191.237 141.336 191.269 141.843 191.333 142.152C191.397 142.451 191.429 142.616 191.429 142.648C191.429 142.776 191.328 142.872 191.125 142.936C190.922 142.989 190.736 143.016 190.565 143.016C190.416 143.016 190.304 142.936 190.229 142.776C190.165 142.605 190.112 142.429 190.069 142.248C190.037 142.067 190.016 141.949 190.005 141.896C189.28 142.696 188.384 143.096 187.317 143.096ZM187.381 141.928C187.904 141.928 188.352 141.832 188.725 141.64C189.109 141.448 189.498 141.176 189.893 140.824V138.936C189.093 138.947 188.437 138.979 187.925 139.032C187.424 139.085 186.981 139.235 186.597 139.48C186.213 139.725 186.021 140.104 186.021 140.616C186.021 141.043 186.133 141.368 186.357 141.592C186.592 141.816 186.933 141.928 187.381 141.928ZM195.892 143.096C195.358 143.096 194.878 142.936 194.452 142.616C194.036 142.285 193.828 141.709 193.828 140.888V131.32C193.828 131.085 194.041 130.968 194.468 130.968H194.532C194.958 130.968 195.172 131.085 195.172 131.32V140.76C195.172 141.208 195.246 141.517 195.396 141.688C195.556 141.859 195.769 141.944 196.036 141.944C196.238 141.944 196.388 141.933 196.484 141.912C196.59 141.88 196.67 141.864 196.724 141.864C196.82 141.864 196.9 141.965 196.964 142.168C197.028 142.36 197.06 142.509 197.06 142.616C197.06 142.936 196.67 143.096 195.892 143.096ZM204.213 143.144C203.755 143.144 203.328 143.091 202.933 142.984C202.549 142.867 202.24 142.728 202.005 142.568C201.781 142.408 201.669 142.264 201.669 142.136C201.669 142.029 201.733 141.869 201.861 141.656C202 141.443 202.123 141.336 202.229 141.336C202.251 141.336 202.352 141.395 202.533 141.512C202.715 141.629 202.939 141.736 203.205 141.832C203.483 141.928 203.787 141.976 204.117 141.976C205.163 141.976 205.685 141.544 205.685 140.68C205.685 140.317 205.568 140.029 205.333 139.816C205.099 139.603 204.683 139.411 204.085 139.24C203.243 138.995 202.661 138.691 202.341 138.328C202.021 137.955 201.861 137.459 201.861 136.84C201.861 136.392 201.973 135.992 202.197 135.64C202.432 135.288 202.747 135.016 203.141 134.824C203.547 134.621 204.005 134.52 204.517 134.52C205.061 134.52 205.547 134.589 205.973 134.728C206.411 134.867 206.629 135.027 206.629 135.208C206.629 135.347 206.565 135.528 206.437 135.752C206.32 135.965 206.213 136.072 206.117 136.072C206.085 136.061 205.941 135.992 205.685 135.864C205.44 135.725 205.099 135.656 204.661 135.656C204.256 135.656 203.915 135.747 203.637 135.928C203.371 136.109 203.237 136.355 203.237 136.664C203.237 137.027 203.333 137.315 203.525 137.528C203.717 137.741 204.037 137.917 204.485 138.056C205.168 138.269 205.685 138.483 206.037 138.696C206.4 138.899 206.656 139.155 206.805 139.464C206.965 139.763 207.045 140.157 207.045 140.648C207.045 141.117 206.917 141.544 206.661 141.928C206.416 142.301 206.075 142.6 205.637 142.824C205.211 143.037 204.736 143.144 204.213 143.144ZM209.815 133.144C209.345 133.144 209.111 133.016 209.111 132.76V131.864C209.111 131.608 209.367 131.48 209.879 131.48C210.348 131.48 210.583 131.608 210.583 131.864V132.76C210.583 133.016 210.327 133.144 209.815 133.144ZM209.815 143.032C209.388 143.032 209.175 142.915 209.175 142.68V134.952C209.175 134.717 209.388 134.6 209.815 134.6H209.879C210.305 134.6 210.519 134.717 210.519 134.952V142.68C210.519 142.915 210.305 143.032 209.879 143.032H209.815ZM216.001 146.392C214.977 146.392 214.166 146.232 213.569 145.912C212.982 145.592 212.689 145.091 212.689 144.408C212.689 143.939 212.822 143.533 213.089 143.192C213.356 142.851 213.708 142.589 214.145 142.408L214.161 142.376C213.734 142.035 213.521 141.597 213.521 141.064C213.521 140.371 213.82 139.816 214.417 139.4C213.969 139.176 213.628 138.867 213.393 138.472C213.158 138.077 213.041 137.635 213.041 137.144C213.041 136.387 213.318 135.763 213.873 135.272C214.428 134.781 215.201 134.536 216.193 134.536C216.534 134.536 216.849 134.568 217.137 134.632H220.049C220.166 134.632 220.246 134.669 220.289 134.744C220.342 134.819 220.369 134.941 220.369 135.112V135.304C220.369 135.475 220.342 135.597 220.289 135.672C220.246 135.747 220.166 135.784 220.049 135.784C219.612 135.784 219.238 135.768 218.929 135.736L218.913 135.768C219.19 136.163 219.329 136.621 219.329 137.144C219.329 137.912 219.052 138.541 218.497 139.032C217.953 139.523 217.18 139.768 216.177 139.768C215.676 139.768 215.297 139.859 215.041 140.04C214.785 140.211 214.657 140.488 214.657 140.872C214.657 141.149 214.742 141.363 214.913 141.512C215.094 141.651 215.318 141.752 215.585 141.816C215.852 141.88 216.225 141.939 216.705 141.992C216.94 142.013 217.116 142.035 217.233 142.056C218.001 142.152 218.593 142.333 219.009 142.6C219.436 142.856 219.649 143.315 219.649 143.976C219.649 144.755 219.34 145.352 218.721 145.768C218.102 146.184 217.196 146.392 216.001 146.392ZM216.177 138.696C216.764 138.696 217.228 138.579 217.569 138.344C217.921 138.099 218.097 137.704 218.097 137.16C218.097 136.125 217.457 135.608 216.177 135.608C214.908 135.608 214.273 136.125 214.273 137.16C214.273 138.184 214.908 138.696 216.177 138.696ZM216.177 145.304C216.924 145.304 217.473 145.208 217.825 145.016C218.188 144.824 218.369 144.525 218.369 144.12C218.369 143.747 218.193 143.496 217.841 143.368C217.489 143.24 216.961 143.139 216.257 143.064C215.617 143 215.18 142.931 214.945 142.856C214.241 143.155 213.889 143.587 213.889 144.152C213.889 144.92 214.652 145.304 216.177 145.304ZM222.704 143.032C222.277 143.032 222.064 142.915 222.064 142.68V137.064C222.064 136.36 222.032 135.859 221.968 135.56C221.904 135.251 221.872 135.08 221.872 135.048C221.872 134.92 221.973 134.829 222.176 134.776C222.378 134.712 222.565 134.68 222.736 134.68C222.885 134.68 222.992 134.76 223.056 134.92C223.13 135.069 223.184 135.229 223.216 135.4C223.258 135.571 223.285 135.683 223.296 135.736C223.637 135.363 224.026 135.069 224.464 134.856C224.901 134.643 225.344 134.536 225.792 134.536C226.602 134.536 227.237 134.765 227.696 135.224C228.165 135.683 228.4 136.317 228.4 137.128V142.68C228.4 142.915 228.186 143.032 227.76 143.032H227.696C227.269 143.032 227.056 142.915 227.056 142.68V137.256C227.056 136.765 226.912 136.387 226.624 136.12C226.346 135.843 225.946 135.704 225.424 135.704C225.061 135.704 224.698 135.805 224.336 136.008C223.984 136.211 223.674 136.483 223.408 136.824V142.68C223.408 142.915 223.194 143.032 222.768 143.032H222.704ZM233.114 143.096C232.292 143.096 231.631 142.893 231.13 142.488C230.628 142.083 230.378 141.485 230.378 140.696C230.378 139.853 230.628 139.224 231.13 138.808C231.642 138.381 232.266 138.109 233.002 137.992C233.738 137.864 234.634 137.795 235.69 137.784V137.032C235.69 136.637 235.551 136.317 235.274 136.072C234.996 135.816 234.548 135.688 233.93 135.688C233.46 135.688 233.05 135.747 232.698 135.864C232.346 135.971 232.052 136.083 231.818 136.2C231.583 136.307 231.455 136.36 231.434 136.36C231.327 136.36 231.204 136.253 231.066 136.04C230.938 135.827 230.874 135.667 230.874 135.56C230.874 135.421 231.012 135.272 231.29 135.112C231.578 134.952 231.956 134.819 232.426 134.712C232.895 134.595 233.38 134.536 233.882 134.536C234.874 134.536 235.647 134.76 236.202 135.208C236.756 135.645 237.034 136.259 237.034 137.048V140.632C237.034 141.336 237.066 141.843 237.13 142.152C237.194 142.451 237.226 142.616 237.226 142.648C237.226 142.776 237.124 142.872 236.922 142.936C236.719 142.989 236.532 143.016 236.362 143.016C236.212 143.016 236.1 142.936 236.026 142.776C235.962 142.605 235.908 142.429 235.866 142.248C235.834 142.067 235.812 141.949 235.802 141.896C235.076 142.696 234.18 143.096 233.114 143.096ZM233.178 141.928C233.7 141.928 234.148 141.832 234.522 141.64C234.906 141.448 235.295 141.176 235.69 140.824V138.936C234.89 138.947 234.234 138.979 233.722 139.032C233.22 139.085 232.778 139.235 232.394 139.48C232.01 139.725 231.818 140.104 231.818 140.616C231.818 141.043 231.93 141.368 232.154 141.592C232.388 141.816 232.73 141.928 233.178 141.928ZM242.089 143.096C241.555 143.096 241.075 142.936 240.649 142.616C240.233 142.285 240.025 141.709 240.025 140.888V135.784H239.225C239.118 135.784 239.038 135.747 238.985 135.672C238.931 135.597 238.905 135.475 238.905 135.304V135.112C238.905 134.941 238.931 134.819 238.985 134.744C239.038 134.669 239.118 134.632 239.225 134.632H240.025L240.217 132.952C240.249 132.717 240.419 132.6 240.729 132.6H240.889C241.209 132.6 241.369 132.717 241.369 132.952V134.632H242.713C242.83 134.632 242.91 134.669 242.953 134.744C243.006 134.819 243.033 134.941 243.033 135.112V135.304C243.033 135.475 243.006 135.597 242.953 135.672C242.91 135.747 242.83 135.784 242.713 135.784H241.369V140.76C241.369 141.208 241.443 141.517 241.593 141.688C241.753 141.859 241.966 141.944 242.233 141.944C242.435 141.944 242.584 141.933 242.681 141.912C242.787 141.88 242.867 141.864 242.921 141.864C243.017 141.864 243.097 141.965 243.161 142.168C243.225 142.36 243.257 142.509 243.257 142.616C243.257 142.936 242.867 143.096 242.089 143.096ZM247.589 143.096C246.779 143.096 246.139 142.867 245.669 142.408C245.211 141.949 244.981 141.315 244.981 140.504V134.952C244.981 134.717 245.195 134.6 245.621 134.6H245.685C246.112 134.6 246.325 134.717 246.325 134.952V140.376C246.325 140.867 246.464 141.251 246.741 141.528C247.029 141.795 247.435 141.928 247.957 141.928C248.32 141.928 248.677 141.827 249.029 141.624C249.392 141.421 249.707 141.149 249.973 140.808V134.952C249.973 134.717 250.187 134.6 250.613 134.6H250.677C251.104 134.6 251.317 134.717 251.317 134.952V140.632C251.317 141.336 251.349 141.843 251.413 142.152C251.477 142.451 251.509 142.616 251.509 142.648C251.509 142.776 251.408 142.872 251.205 142.936C251.003 142.989 250.816 143.016 250.645 143.016C250.496 143.016 250.384 142.936 250.309 142.776C250.245 142.605 250.192 142.429 250.149 142.248C250.117 142.067 250.096 141.949 250.085 141.896C249.744 142.269 249.355 142.563 248.917 142.776C248.48 142.989 248.037 143.096 247.589 143.096ZM254.768 143.032C254.341 143.032 254.128 142.915 254.128 142.68V137.064C254.128 136.36 254.096 135.859 254.032 135.56C253.968 135.251 253.936 135.08 253.936 135.048C253.936 134.92 254.037 134.829 254.24 134.776C254.442 134.712 254.629 134.68 254.799 134.68C254.949 134.68 255.056 134.76 255.12 134.92C255.194 135.069 255.248 135.229 255.28 135.4C255.322 135.571 255.349 135.683 255.36 135.736C255.925 134.936 256.544 134.536 257.216 134.536C257.514 134.536 257.744 134.595 257.904 134.712C258.064 134.829 258.144 134.979 258.144 135.16C258.144 135.341 258.112 135.533 258.048 135.736C257.984 135.928 257.909 136.024 257.824 136.024C257.77 136.024 257.664 135.997 257.504 135.944C257.354 135.88 257.168 135.848 256.944 135.848C256.698 135.848 256.464 135.923 256.24 136.072C256.026 136.211 255.845 136.365 255.696 136.536C255.546 136.707 255.472 136.803 255.472 136.824V142.68C255.472 142.915 255.258 143.032 254.832 143.032H254.768ZM263.347 143.096C262.014 143.096 261.027 142.749 260.387 142.056C259.747 141.363 259.427 140.301 259.427 138.872C259.427 137.453 259.742 136.376 260.371 135.64C261 134.904 261.928 134.536 263.155 134.536C264.243 134.536 265.064 134.893 265.619 135.608C266.174 136.312 266.451 137.347 266.451 138.712C266.451 138.808 266.387 138.941 266.259 139.112C266.131 139.283 266.019 139.368 265.923 139.368H260.867C260.931 140.253 261.16 140.904 261.555 141.32C261.95 141.736 262.542 141.944 263.331 141.944C263.779 141.944 264.163 141.891 264.483 141.784C264.814 141.667 265.086 141.555 265.299 141.448C265.512 141.331 265.635 141.272 265.667 141.272C265.774 141.272 265.891 141.379 266.019 141.592C266.158 141.805 266.227 141.965 266.227 142.072C266.227 142.2 266.094 142.349 265.827 142.52C265.56 142.68 265.203 142.819 264.755 142.936C264.318 143.043 263.848 143.096 263.347 143.096ZM265.027 138.216C265.027 136.531 264.387 135.688 263.107 135.688C261.731 135.688 260.984 136.531 260.867 138.216H265.027Z" fill="black"/>
</g>
<g filter="url(#filter3_d)">
<rect width="154" height="40" transform="translate(20 177)" fill="white"/>
<path d="M45.84 203.096C44.24 203.096 43.0187 202.611 42.176 201.64C41.3333 200.659 40.912 199.235 40.912 197.368C40.912 195.501 41.328 194.093 42.16 193.144C43.0027 192.184 44.2293 191.704 45.84 191.704C47.4507 191.704 48.6773 192.184 49.52 193.144C50.3627 194.093 50.784 195.501 50.784 197.368C50.784 199.235 50.3627 200.659 49.52 201.64C48.6773 202.611 47.4507 203.096 45.84 203.096ZM45.84 201.88C46.9707 201.88 47.8347 201.496 48.432 200.728C49.0293 199.96 49.328 198.84 49.328 197.368C49.328 195.907 49.0293 194.803 48.432 194.056C47.8347 193.299 46.9707 192.92 45.84 192.92C44.7093 192.92 43.8453 193.299 43.248 194.056C42.6613 194.803 42.368 195.907 42.368 197.368C42.368 198.84 42.6613 199.96 43.248 200.728C43.8453 201.496 44.7093 201.88 45.84 201.88ZM53.7191 203.032C53.2925 203.032 53.0791 202.915 53.0791 202.68V197.064C53.0791 196.36 53.0471 195.859 52.9831 195.56C52.9191 195.251 52.8871 195.08 52.8871 195.048C52.8871 194.92 52.9885 194.829 53.1911 194.776C53.3938 194.712 53.5805 194.68 53.7511 194.68C53.9005 194.68 54.0071 194.76 54.0711 194.92C54.1458 195.069 54.1991 195.229 54.2311 195.4C54.2738 195.571 54.3005 195.683 54.3111 195.736C54.6525 195.363 55.0418 195.069 55.4791 194.856C55.9165 194.643 56.3591 194.536 56.8071 194.536C57.6178 194.536 58.2525 194.765 58.7111 195.224C59.1805 195.683 59.4151 196.317 59.4151 197.128V202.68C59.4151 202.915 59.2018 203.032 58.7751 203.032H58.7111C58.2845 203.032 58.0711 202.915 58.0711 202.68V197.256C58.0711 196.765 57.9271 196.387 57.6391 196.12C57.3618 195.843 56.9618 195.704 56.4391 195.704C56.0765 195.704 55.7138 195.805 55.3511 196.008C54.9991 196.211 54.6898 196.483 54.4231 196.824V202.68C54.4231 202.915 54.2098 203.032 53.7831 203.032H53.7191ZM63.9854 203.096C63.452 203.096 62.972 202.936 62.5454 202.616C62.1294 202.285 61.9214 201.709 61.9214 200.888V191.32C61.9214 191.085 62.1347 190.968 62.5614 190.968H62.6254C63.052 190.968 63.2654 191.085 63.2654 191.32V200.76C63.2654 201.208 63.34 201.517 63.4894 201.688C63.6494 201.859 63.8627 201.944 64.1294 201.944C64.332 201.944 64.4814 201.933 64.5774 201.912C64.684 201.88 64.764 201.864 64.8174 201.864C64.9134 201.864 64.9934 201.965 65.0574 202.168C65.1214 202.36 65.1534 202.509 65.1534 202.616C65.1534 202.936 64.764 203.096 63.9854 203.096ZM67.4554 193.144C66.986 193.144 66.7514 193.016 66.7514 192.76V191.864C66.7514 191.608 67.0074 191.48 67.5194 191.48C67.9887 191.48 68.2234 191.608 68.2234 191.864V192.76C68.2234 193.016 67.9674 193.144 67.4554 193.144ZM67.4554 203.032C67.0287 203.032 66.8154 202.915 66.8154 202.68V194.952C66.8154 194.717 67.0287 194.6 67.4554 194.6H67.5194C67.946 194.6 68.1594 194.717 68.1594 194.952V202.68C68.1594 202.915 67.946 203.032 67.5194 203.032H67.4554ZM71.6098 203.032C71.1831 203.032 70.9698 202.915 70.9698 202.68V197.064C70.9698 196.36 70.9378 195.859 70.8738 195.56C70.8098 195.251 70.7778 195.08 70.7778 195.048C70.7778 194.92 70.8791 194.829 71.0818 194.776C71.2844 194.712 71.4711 194.68 71.6418 194.68C71.7911 194.68 71.8978 194.76 71.9618 194.92C72.0364 195.069 72.0898 195.229 72.1218 195.4C72.1644 195.571 72.1911 195.683 72.2018 195.736C72.5431 195.363 72.9324 195.069 73.3698 194.856C73.8071 194.643 74.2498 194.536 74.6978 194.536C75.5084 194.536 76.1431 194.765 76.6018 195.224C77.0711 195.683 77.3058 196.317 77.3058 197.128V202.68C77.3058 202.915 77.0924 203.032 76.6658 203.032H76.6018C76.1751 203.032 75.9618 202.915 75.9618 202.68V197.256C75.9618 196.765 75.8178 196.387 75.5298 196.12C75.2524 195.843 74.8524 195.704 74.3298 195.704C73.9671 195.704 73.6044 195.805 73.2418 196.008C72.8898 196.211 72.5804 196.483 72.3138 196.824V202.68C72.3138 202.915 72.1004 203.032 71.6738 203.032H71.6098ZM83.3 203.096C81.9667 203.096 80.98 202.749 80.34 202.056C79.7 201.363 79.38 200.301 79.38 198.872C79.38 197.453 79.6947 196.376 80.324 195.64C80.9533 194.904 81.8813 194.536 83.108 194.536C84.196 194.536 85.0173 194.893 85.572 195.608C86.1267 196.312 86.404 197.347 86.404 198.712C86.404 198.808 86.34 198.941 86.212 199.112C86.084 199.283 85.972 199.368 85.876 199.368H80.82C80.884 200.253 81.1133 200.904 81.508 201.32C81.9027 201.736 82.4947 201.944 83.284 201.944C83.732 201.944 84.116 201.891 84.436 201.784C84.7667 201.667 85.0387 201.555 85.252 201.448C85.4653 201.331 85.588 201.272 85.62 201.272C85.7267 201.272 85.844 201.379 85.972 201.592C86.1107 201.805 86.18 201.965 86.18 202.072C86.18 202.2 86.0467 202.349 85.78 202.52C85.5133 202.68 85.156 202.819 84.708 202.936C84.2707 203.043 83.8013 203.096 83.3 203.096ZM84.98 198.216C84.98 196.531 84.34 195.688 83.06 195.688C81.684 195.688 80.9373 196.531 80.82 198.216H84.98ZM92.9848 206.328C92.5581 206.328 92.3448 206.211 92.3448 205.976V197.064C92.3448 196.36 92.3128 195.859 92.2488 195.56C92.1848 195.251 92.1528 195.08 92.1528 195.048C92.1528 194.92 92.2541 194.829 92.4568 194.776C92.6594 194.712 92.8461 194.68 93.0168 194.68C93.1661 194.68 93.2728 194.76 93.3368 194.92C93.4114 195.069 93.4648 195.229 93.4968 195.4C93.5394 195.571 93.5661 195.683 93.5768 195.736C94.3448 194.936 95.1928 194.536 96.1208 194.536C96.7714 194.536 97.3261 194.723 97.7848 195.096C98.2541 195.459 98.6114 195.965 98.8568 196.616C99.1021 197.256 99.2248 197.992 99.2248 198.824C99.2248 199.731 99.0861 200.504 98.8088 201.144C98.5421 201.784 98.1634 202.269 97.6728 202.6C97.1821 202.931 96.6168 203.096 95.9768 203.096C95.5074 203.096 95.0914 203.027 94.7288 202.888C94.3768 202.749 94.0301 202.547 93.6888 202.28V205.976C93.6888 206.211 93.4754 206.328 93.0488 206.328H92.9848ZM95.6727 201.912C96.3768 201.912 96.9101 201.656 97.2728 201.144C97.6354 200.632 97.8168 199.896 97.8168 198.936C97.8168 197.901 97.6461 197.107 97.3048 196.552C96.9634 195.987 96.4781 195.704 95.8488 195.704C95.4861 195.704 95.1128 195.8 94.7288 195.992C94.3554 196.184 94.0088 196.456 93.6888 196.808V201.192C94.2648 201.672 94.9261 201.912 95.6727 201.912ZM103.661 203.096C102.839 203.096 102.178 202.893 101.677 202.488C101.175 202.083 100.925 201.485 100.925 200.696C100.925 199.853 101.175 199.224 101.677 198.808C102.189 198.381 102.813 198.109 103.549 197.992C104.285 197.864 105.181 197.795 106.237 197.784V197.032C106.237 196.637 106.098 196.317 105.821 196.072C105.543 195.816 105.095 195.688 104.477 195.688C104.007 195.688 103.597 195.747 103.245 195.864C102.893 195.971 102.599 196.083 102.365 196.2C102.13 196.307 102.002 196.36 101.981 196.36C101.874 196.36 101.751 196.253 101.613 196.04C101.485 195.827 101.421 195.667 101.421 195.56C101.421 195.421 101.559 195.272 101.837 195.112C102.125 194.952 102.503 194.819 102.973 194.712C103.442 194.595 103.927 194.536 104.429 194.536C105.421 194.536 106.194 194.76 106.749 195.208C107.303 195.645 107.581 196.259 107.581 197.048V200.632C107.581 201.336 107.613 201.843 107.677 202.152C107.741 202.451 107.773 202.616 107.773 202.648C107.773 202.776 107.671 202.872 107.469 202.936C107.266 202.989 107.079 203.016 106.909 203.016C106.759 203.016 106.647 202.936 106.573 202.776C106.509 202.605 106.455 202.429 106.413 202.248C106.381 202.067 106.359 201.949 106.349 201.896C105.623 202.696 104.727 203.096 103.661 203.096ZM103.725 201.928C104.247 201.928 104.695 201.832 105.069 201.64C105.453 201.448 105.842 201.176 106.237 200.824V198.936C105.437 198.947 104.781 198.979 104.269 199.032C103.767 199.085 103.325 199.235 102.941 199.48C102.557 199.725 102.365 200.104 102.365 200.616C102.365 201.043 102.477 201.368 102.701 201.592C102.935 201.816 103.277 201.928 103.725 201.928ZM115.611 194.6C116.038 194.6 116.251 194.691 116.251 194.872C116.251 194.925 116.235 195 116.203 195.096L112.091 205.992C112.006 206.216 111.755 206.328 111.339 206.328H111.099C110.747 206.328 110.571 206.243 110.571 206.072C110.571 206.029 110.598 205.939 110.651 205.8L111.995 202.536L109.195 195.08C109.163 194.984 109.147 194.915 109.147 194.872C109.147 194.691 109.377 194.6 109.835 194.6H109.963C110.337 194.6 110.55 194.685 110.603 194.856L112.235 199.192C112.406 199.661 112.577 200.2 112.747 200.808H112.779C112.801 200.733 112.822 200.664 112.843 200.6C112.865 200.525 112.886 200.456 112.907 200.392L113.307 199.192L114.907 194.856C114.961 194.685 115.179 194.6 115.563 194.6H115.611ZM126.419 194.536C127.091 194.536 127.677 194.728 128.179 195.112C128.68 195.485 128.931 196.157 128.931 197.128V202.68C128.931 202.915 128.717 203.032 128.291 203.032H128.227C127.8 203.032 127.587 202.915 127.587 202.68V197.256C127.587 196.776 127.453 196.397 127.187 196.12C126.931 195.843 126.552 195.704 126.051 195.704C125.368 195.704 124.712 196.077 124.083 196.824C124.093 196.899 124.099 197.005 124.099 197.144V202.68C124.099 202.915 123.885 203.032 123.459 203.032H123.395C122.968 203.032 122.755 202.915 122.755 202.68V197.256C122.755 196.776 122.621 196.397 122.355 196.12C122.099 195.843 121.72 195.704 121.219 195.704C120.877 195.704 120.557 195.789 120.259 195.96C119.971 196.12 119.731 196.296 119.539 196.488C119.357 196.68 119.267 196.787 119.267 196.808V202.68C119.267 202.915 119.053 203.032 118.627 203.032H118.562C118.136 203.032 117.923 202.915 117.923 202.68V197.064C117.923 196.36 117.891 195.859 117.827 195.56C117.763 195.251 117.731 195.08 117.731 195.048C117.731 194.92 117.832 194.829 118.035 194.776C118.237 194.712 118.424 194.68 118.595 194.68C118.744 194.68 118.851 194.76 118.914 194.92C118.989 195.069 119.043 195.229 119.075 195.4C119.117 195.571 119.144 195.683 119.155 195.736C119.453 195.395 119.811 195.112 120.227 194.888C120.653 194.653 121.107 194.536 121.587 194.536C122.067 194.536 122.515 194.637 122.931 194.84C123.357 195.032 123.672 195.373 123.875 195.864C124.205 195.48 124.589 195.165 125.027 194.92C125.475 194.664 125.939 194.536 126.419 194.536ZM134.925 203.096C133.592 203.096 132.605 202.749 131.965 202.056C131.325 201.363 131.005 200.301 131.005 198.872C131.005 197.453 131.32 196.376 131.949 195.64C132.578 194.904 133.506 194.536 134.733 194.536C135.821 194.536 136.642 194.893 137.197 195.608C137.752 196.312 138.029 197.347 138.029 198.712C138.029 198.808 137.965 198.941 137.837 199.112C137.709 199.283 137.597 199.368 137.501 199.368H132.445C132.509 200.253 132.738 200.904 133.133 201.32C133.528 201.736 134.12 201.944 134.909 201.944C135.357 201.944 135.741 201.891 136.061 201.784C136.392 201.667 136.664 201.555 136.877 201.448C137.09 201.331 137.213 201.272 137.245 201.272C137.352 201.272 137.469 201.379 137.597 201.592C137.736 201.805 137.805 201.965 137.805 202.072C137.805 202.2 137.672 202.349 137.405 202.52C137.138 202.68 136.781 202.819 136.333 202.936C135.896 203.043 135.426 203.096 134.925 203.096ZM136.605 198.216C136.605 196.531 135.965 195.688 134.685 195.688C133.309 195.688 132.562 196.531 132.445 198.216H136.605ZM140.766 203.032C140.339 203.032 140.126 202.915 140.126 202.68V197.064C140.126 196.36 140.094 195.859 140.03 195.56C139.966 195.251 139.934 195.08 139.934 195.048C139.934 194.92 140.035 194.829 140.238 194.776C140.441 194.712 140.627 194.68 140.798 194.68C140.947 194.68 141.054 194.76 141.118 194.92C141.193 195.069 141.246 195.229 141.278 195.4C141.321 195.571 141.347 195.683 141.358 195.736C141.699 195.363 142.089 195.069 142.526 194.856C142.963 194.643 143.406 194.536 143.854 194.536C144.665 194.536 145.299 194.765 145.758 195.224C146.227 195.683 146.462 196.317 146.462 197.128V202.68C146.462 202.915 146.249 203.032 145.822 203.032H145.758C145.331 203.032 145.118 202.915 145.118 202.68V197.256C145.118 196.765 144.974 196.387 144.686 196.12C144.409 195.843 144.009 195.704 143.486 195.704C143.123 195.704 142.761 195.805 142.398 196.008C142.046 196.211 141.737 196.483 141.47 196.824V202.68C141.47 202.915 141.257 203.032 140.83 203.032H140.766ZM151.432 203.096C150.899 203.096 150.419 202.936 149.992 202.616C149.576 202.285 149.368 201.709 149.368 200.888V195.784H148.568C148.462 195.784 148.382 195.747 148.328 195.672C148.275 195.597 148.248 195.475 148.248 195.304V195.112C148.248 194.941 148.275 194.819 148.328 194.744C148.382 194.669 148.462 194.632 148.568 194.632H149.368L149.56 192.952C149.592 192.717 149.763 192.6 150.072 192.6H150.232C150.552 192.6 150.712 192.717 150.712 192.952V194.632H152.056C152.174 194.632 152.254 194.669 152.296 194.744C152.35 194.819 152.376 194.941 152.376 195.112V195.304C152.376 195.475 152.35 195.597 152.296 195.672C152.254 195.747 152.174 195.784 152.056 195.784H150.712V200.76C150.712 201.208 150.787 201.517 150.936 201.688C151.096 201.859 151.31 201.944 151.576 201.944C151.779 201.944 151.928 201.933 152.024 201.912C152.131 201.88 152.211 201.864 152.264 201.864C152.36 201.864 152.44 201.965 152.504 202.168C152.568 202.36 152.6 202.509 152.6 202.616C152.6 202.936 152.211 203.096 151.432 203.096Z" fill="black"/>
</g>
<rect x="312" y="180" width="171" height="36" stroke="#DADADA" stroke-width="4" stroke-dasharray="8 8"/>
<g filter="url(#filter4_d)">
<rect width="153" height="40" transform="translate(362 199)" fill="white"/>
<path d="M384 225.032C383.573 225.032 383.36 224.915 383.36 224.68V214.28C383.36 214.109 383.397 213.987 383.472 213.912C383.547 213.837 383.669 213.8 383.84 213.8H387.088C388.027 213.8 388.853 214.024 389.568 214.472C390.293 214.92 390.656 215.741 390.656 216.936C390.656 217.821 390.448 218.509 390.032 219C389.616 219.491 389.152 219.821 388.64 219.992C388.128 220.152 387.664 220.232 387.248 220.232H384.768V224.68C384.768 224.915 384.555 225.032 384.128 225.032H384ZM387.264 219.016C387.723 219.016 388.16 218.861 388.576 218.552C388.992 218.243 389.2 217.704 389.2 216.936C389.2 216.221 388.987 215.725 388.56 215.448C388.133 215.16 387.627 215.016 387.04 215.016H384.768V219.016H387.264ZM393.205 225.032C392.778 225.032 392.565 224.915 392.565 224.68V219.064C392.565 218.36 392.533 217.859 392.469 217.56C392.405 217.251 392.373 217.08 392.373 217.048C392.373 216.92 392.474 216.829 392.677 216.776C392.88 216.712 393.066 216.68 393.237 216.68C393.386 216.68 393.493 216.76 393.557 216.92C393.632 217.069 393.685 217.229 393.717 217.4C393.76 217.571 393.786 217.683 393.797 217.736C394.362 216.936 394.981 216.536 395.653 216.536C395.952 216.536 396.181 216.595 396.341 216.712C396.501 216.829 396.581 216.979 396.581 217.16C396.581 217.341 396.549 217.533 396.485 217.736C396.421 217.928 396.346 218.024 396.261 218.024C396.208 218.024 396.101 217.997 395.941 217.944C395.792 217.88 395.605 217.848 395.381 217.848C395.136 217.848 394.901 217.923 394.677 218.072C394.464 218.211 394.282 218.365 394.133 218.536C393.984 218.707 393.909 218.803 393.909 218.824V224.68C393.909 224.915 393.696 225.032 393.269 225.032H393.205ZM401.576 225.096C400.371 225.096 399.448 224.733 398.808 224.008C398.179 223.283 397.864 222.232 397.864 220.856C397.864 219.469 398.184 218.403 398.824 217.656C399.464 216.909 400.382 216.536 401.576 216.536C402.75 216.536 403.646 216.909 404.264 217.656C404.894 218.392 405.208 219.459 405.208 220.856C405.208 222.243 404.899 223.299 404.28 224.024C403.672 224.739 402.771 225.096 401.576 225.096ZM401.528 223.944C402.307 223.944 402.883 223.693 403.256 223.192C403.63 222.68 403.816 221.891 403.816 220.824C403.816 219.757 403.63 218.968 403.256 218.456C402.883 217.944 402.307 217.688 401.528 217.688C400.75 217.688 400.179 217.944 399.816 218.456C399.454 218.957 399.272 219.747 399.272 220.824C399.272 221.891 399.454 222.68 399.816 223.192C400.179 223.693 400.75 223.944 401.528 223.944ZM410.03 225.096C409.4 225.096 408.851 224.915 408.382 224.552C407.912 224.189 407.55 223.683 407.294 223.032C407.048 222.381 406.926 221.645 406.926 220.824C406.926 219.917 407.059 219.144 407.326 218.504C407.603 217.853 407.987 217.363 408.478 217.032C408.968 216.701 409.534 216.536 410.174 216.536C410.643 216.536 411.054 216.605 411.406 216.744C411.768 216.883 412.12 217.085 412.462 217.352V213.32C412.462 213.085 412.675 212.968 413.102 212.968H413.166C413.592 212.968 413.806 213.085 413.806 213.32V222.632C413.806 223.336 413.838 223.843 413.902 224.152C413.966 224.451 413.998 224.616 413.998 224.648C413.998 224.776 413.896 224.872 413.694 224.936C413.491 224.989 413.304 225.016 413.134 225.016C412.984 225.016 412.872 224.936 412.798 224.776C412.734 224.605 412.68 224.429 412.638 224.248C412.606 224.067 412.584 223.949 412.574 223.896C411.806 224.696 410.958 225.096 410.03 225.096ZM410.302 223.928C410.664 223.928 411.032 223.832 411.406 223.64C411.79 223.448 412.142 223.176 412.462 222.824V218.44C411.886 217.96 411.23 217.72 410.494 217.72C409.779 217.72 409.24 217.976 408.878 218.488C408.515 219 408.334 219.736 408.334 220.696C408.334 221.731 408.504 222.531 408.846 223.096C409.187 223.651 409.672 223.928 410.302 223.928ZM418.949 225.096C418.138 225.096 417.498 224.867 417.029 224.408C416.57 223.949 416.341 223.315 416.341 222.504V216.952C416.341 216.717 416.554 216.6 416.981 216.6H417.045C417.471 216.6 417.685 216.717 417.685 216.952V222.376C417.685 222.867 417.823 223.251 418.101 223.528C418.389 223.795 418.794 223.928 419.317 223.928C419.679 223.928 420.037 223.827 420.389 223.624C420.751 223.421 421.066 223.149 421.333 222.808V216.952C421.333 216.717 421.546 216.6 421.973 216.6H422.037C422.463 216.6 422.677 216.717 422.677 216.952V222.632C422.677 223.336 422.709 223.843 422.773 224.152C422.837 224.451 422.869 224.616 422.869 224.648C422.869 224.776 422.767 224.872 422.565 224.936C422.362 224.989 422.175 225.016 422.005 225.016C421.855 225.016 421.743 224.936 421.669 224.776C421.605 224.605 421.551 224.429 421.509 224.248C421.477 224.067 421.455 223.949 421.445 223.896C421.103 224.269 420.714 224.563 420.277 224.776C419.839 224.989 419.397 225.096 418.949 225.096ZM428.815 225.096C427.492 225.096 426.506 224.755 425.855 224.072C425.204 223.389 424.879 222.291 424.879 220.776C424.879 219.251 425.242 218.163 425.967 217.512C426.692 216.861 427.594 216.536 428.671 216.536C429.29 216.536 429.844 216.611 430.335 216.76C430.826 216.909 431.071 217.08 431.071 217.272C431.071 217.411 431.007 217.592 430.879 217.816C430.762 218.029 430.655 218.136 430.559 218.136C430.538 218.136 430.511 218.131 430.479 218.12C430.458 218.099 430.426 218.083 430.383 218.072C429.807 217.816 429.226 217.688 428.639 217.688C427.092 217.688 426.319 218.707 426.319 220.744C426.319 221.875 426.506 222.691 426.879 223.192C427.263 223.693 427.903 223.944 428.799 223.944C429.45 223.944 430.052 223.805 430.607 223.528L430.783 223.464C430.89 223.464 431.007 223.571 431.135 223.784C431.263 223.987 431.327 224.152 431.327 224.28C431.327 224.408 431.21 224.536 430.975 224.664C430.751 224.781 430.447 224.883 430.063 224.968C429.679 225.053 429.263 225.096 428.815 225.096ZM435.589 225.096C435.055 225.096 434.575 224.936 434.149 224.616C433.733 224.285 433.525 223.709 433.525 222.888V217.784H432.725C432.618 217.784 432.538 217.747 432.485 217.672C432.431 217.597 432.405 217.475 432.405 217.304V217.112C432.405 216.941 432.431 216.819 432.485 216.744C432.538 216.669 432.618 216.632 432.725 216.632H433.525L433.717 214.952C433.749 214.717 433.919 214.6 434.229 214.6H434.389C434.709 214.6 434.869 214.717 434.869 214.952V216.632H436.213C436.33 216.632 436.41 216.669 436.453 216.744C436.506 216.819 436.533 216.941 436.533 217.112V217.304C436.533 217.475 436.506 217.597 436.453 217.672C436.41 217.747 436.33 217.784 436.213 217.784H434.869V222.76C434.869 223.208 434.943 223.517 435.093 223.688C435.253 223.859 435.466 223.944 435.733 223.944C435.935 223.944 436.084 223.933 436.181 223.912C436.287 223.88 436.367 223.864 436.421 223.864C436.517 223.864 436.597 223.965 436.661 224.168C436.725 224.36 436.757 224.509 436.757 224.616C436.757 224.936 436.367 225.096 435.589 225.096ZM445.893 225.096C444.57 225.096 443.584 224.755 442.933 224.072C442.282 223.389 441.957 222.291 441.957 220.776C441.957 219.251 442.32 218.163 443.045 217.512C443.77 216.861 444.672 216.536 445.749 216.536C446.368 216.536 446.922 216.611 447.413 216.76C447.904 216.909 448.149 217.08 448.149 217.272C448.149 217.411 448.085 217.592 447.957 217.816C447.84 218.029 447.733 218.136 447.637 218.136C447.616 218.136 447.589 218.131 447.557 218.12C447.536 218.099 447.504 218.083 447.461 218.072C446.885 217.816 446.304 217.688 445.717 217.688C444.17 217.688 443.397 218.707 443.397 220.744C443.397 221.875 443.584 222.691 443.957 223.192C444.341 223.693 444.981 223.944 445.877 223.944C446.528 223.944 447.13 223.805 447.685 223.528L447.861 223.464C447.968 223.464 448.085 223.571 448.213 223.784C448.341 223.987 448.405 224.152 448.405 224.28C448.405 224.408 448.288 224.536 448.053 224.664C447.829 224.781 447.525 224.883 447.141 224.968C446.757 225.053 446.341 225.096 445.893 225.096ZM452.411 225.096C451.589 225.096 450.928 224.893 450.427 224.488C449.925 224.083 449.675 223.485 449.675 222.696C449.675 221.853 449.925 221.224 450.427 220.808C450.939 220.381 451.563 220.109 452.299 219.992C453.035 219.864 453.931 219.795 454.987 219.784V219.032C454.987 218.637 454.848 218.317 454.571 218.072C454.293 217.816 453.845 217.688 453.227 217.688C452.757 217.688 452.347 217.747 451.995 217.864C451.643 217.971 451.349 218.083 451.115 218.2C450.88 218.307 450.752 218.36 450.731 218.36C450.624 218.36 450.501 218.253 450.363 218.04C450.235 217.827 450.171 217.667 450.171 217.56C450.171 217.421 450.309 217.272 450.587 217.112C450.875 216.952 451.253 216.819 451.723 216.712C452.192 216.595 452.677 216.536 453.179 216.536C454.171 216.536 454.944 216.76 455.499 217.208C456.053 217.645 456.331 218.259 456.331 219.048V222.632C456.331 223.336 456.363 223.843 456.427 224.152C456.491 224.451 456.523 224.616 456.523 224.648C456.523 224.776 456.421 224.872 456.219 224.936C456.016 224.989 455.829 225.016 455.659 225.016C455.509 225.016 455.397 224.936 455.323 224.776C455.259 224.605 455.205 224.429 455.163 224.248C455.131 224.067 455.109 223.949 455.099 223.896C454.373 224.696 453.477 225.096 452.411 225.096ZM452.475 223.928C452.997 223.928 453.445 223.832 453.819 223.64C454.203 223.448 454.592 223.176 454.987 222.824V220.936C454.187 220.947 453.531 220.979 453.019 221.032C452.517 221.085 452.075 221.235 451.691 221.48C451.307 221.725 451.115 222.104 451.115 222.616C451.115 223.043 451.227 223.368 451.451 223.592C451.685 223.816 452.027 223.928 452.475 223.928ZM461.385 225.096C460.852 225.096 460.372 224.936 459.945 224.616C459.529 224.285 459.321 223.709 459.321 222.888V217.784H458.521C458.415 217.784 458.335 217.747 458.281 217.672C458.228 217.597 458.201 217.475 458.201 217.304V217.112C458.201 216.941 458.228 216.819 458.281 216.744C458.335 216.669 458.415 216.632 458.521 216.632H459.321L459.513 214.952C459.545 214.717 459.716 214.6 460.025 214.6H460.185C460.505 214.6 460.665 214.717 460.665 214.952V216.632H462.009C462.127 216.632 462.207 216.669 462.249 216.744C462.303 216.819 462.329 216.941 462.329 217.112V217.304C462.329 217.475 462.303 217.597 462.249 217.672C462.207 217.747 462.127 217.784 462.009 217.784H460.665V222.76C460.665 223.208 460.74 223.517 460.889 223.688C461.049 223.859 461.263 223.944 461.529 223.944C461.732 223.944 461.881 223.933 461.977 223.912C462.084 223.88 462.164 223.864 462.217 223.864C462.313 223.864 462.393 223.965 462.457 224.168C462.521 224.36 462.553 224.509 462.553 224.616C462.553 224.936 462.164 225.096 461.385 225.096ZM466.598 225.096C465.777 225.096 465.115 224.893 464.614 224.488C464.113 224.083 463.862 223.485 463.862 222.696C463.862 221.853 464.113 221.224 464.614 220.808C465.126 220.381 465.75 220.109 466.486 219.992C467.222 219.864 468.118 219.795 469.174 219.784V219.032C469.174 218.637 469.035 218.317 468.758 218.072C468.481 217.816 468.033 217.688 467.414 217.688C466.945 217.688 466.534 217.747 466.182 217.864C465.83 217.971 465.537 218.083 465.302 218.2C465.067 218.307 464.939 218.36 464.918 218.36C464.811 218.36 464.689 218.253 464.55 218.04C464.422 217.827 464.358 217.667 464.358 217.56C464.358 217.421 464.497 217.272 464.774 217.112C465.062 216.952 465.441 216.819 465.91 216.712C466.379 216.595 466.865 216.536 467.366 216.536C468.358 216.536 469.131 216.76 469.686 217.208C470.241 217.645 470.518 218.259 470.518 219.048V222.632C470.518 223.336 470.55 223.843 470.614 224.152C470.678 224.451 470.71 224.616 470.71 224.648C470.71 224.776 470.609 224.872 470.406 224.936C470.203 224.989 470.017 225.016 469.846 225.016C469.697 225.016 469.585 224.936 469.51 224.776C469.446 224.605 469.393 224.429 469.35 224.248C469.318 224.067 469.297 223.949 469.286 223.896C468.561 224.696 467.665 225.096 466.598 225.096ZM466.662 223.928C467.185 223.928 467.633 223.832 468.006 223.64C468.39 223.448 468.779 223.176 469.174 222.824V220.936C468.374 220.947 467.718 220.979 467.206 221.032C466.705 221.085 466.262 221.235 465.878 221.48C465.494 221.725 465.302 222.104 465.302 222.616C465.302 223.043 465.414 223.368 465.638 223.592C465.873 223.816 466.214 223.928 466.662 223.928ZM475.173 225.096C474.64 225.096 474.16 224.936 473.733 224.616C473.317 224.285 473.109 223.709 473.109 222.888V213.32C473.109 213.085 473.322 212.968 473.749 212.968H473.813C474.24 212.968 474.453 213.085 474.453 213.32V222.76C474.453 223.208 474.528 223.517 474.677 223.688C474.837 223.859 475.05 223.944 475.317 223.944C475.52 223.944 475.669 223.933 475.765 223.912C475.872 223.88 475.952 223.864 476.005 223.864C476.101 223.864 476.181 223.965 476.245 224.168C476.309 224.36 476.341 224.509 476.341 224.616C476.341 224.936 475.952 225.096 475.173 225.096ZM481.139 225.096C479.934 225.096 479.011 224.733 478.371 224.008C477.742 223.283 477.427 222.232 477.427 220.856C477.427 219.469 477.747 218.403 478.387 217.656C479.027 216.909 479.944 216.536 481.139 216.536C482.312 216.536 483.208 216.909 483.827 217.656C484.456 218.392 484.771 219.459 484.771 220.856C484.771 222.243 484.462 223.299 483.843 224.024C483.235 224.739 482.334 225.096 481.139 225.096ZM481.091 223.944C481.87 223.944 482.446 223.693 482.819 223.192C483.192 222.68 483.379 221.891 483.379 220.824C483.379 219.757 483.192 218.968 482.819 218.456C482.446 217.944 481.87 217.688 481.091 217.688C480.312 217.688 479.742 217.944 479.379 218.456C479.016 218.957 478.835 219.747 478.835 220.824C478.835 221.891 479.016 222.68 479.379 223.192C479.742 223.693 480.312 223.944 481.091 223.944ZM489.704 228.392C488.68 228.392 487.87 228.232 487.272 227.912C486.686 227.592 486.392 227.091 486.392 226.408C486.392 225.939 486.526 225.533 486.792 225.192C487.059 224.851 487.411 224.589 487.848 224.408L487.864 224.376C487.438 224.035 487.224 223.597 487.224 223.064C487.224 222.371 487.523 221.816 488.12 221.4C487.672 221.176 487.331 220.867 487.096 220.472C486.862 220.077 486.744 219.635 486.744 219.144C486.744 218.387 487.022 217.763 487.576 217.272C488.131 216.781 488.904 216.536 489.896 216.536C490.238 216.536 490.552 216.568 490.84 216.632H493.752C493.87 216.632 493.95 216.669 493.992 216.744C494.046 216.819 494.072 216.941 494.072 217.112V217.304C494.072 217.475 494.046 217.597 493.992 217.672C493.95 217.747 493.87 217.784 493.752 217.784C493.315 217.784 492.942 217.768 492.632 217.736L492.616 217.768C492.894 218.163 493.032 218.621 493.032 219.144C493.032 219.912 492.755 220.541 492.2 221.032C491.656 221.523 490.883 221.768 489.88 221.768C489.379 221.768 489 221.859 488.744 222.04C488.488 222.211 488.36 222.488 488.36 222.872C488.36 223.149 488.446 223.363 488.616 223.512C488.798 223.651 489.022 223.752 489.288 223.816C489.555 223.88 489.928 223.939 490.408 223.992C490.643 224.013 490.819 224.035 490.936 224.056C491.704 224.152 492.296 224.333 492.712 224.6C493.139 224.856 493.352 225.315 493.352 225.976C493.352 226.755 493.043 227.352 492.424 227.768C491.806 228.184 490.899 228.392 489.704 228.392ZM489.88 220.696C490.467 220.696 490.931 220.579 491.272 220.344C491.624 220.099 491.8 219.704 491.8 219.16C491.8 218.125 491.16 217.608 489.88 217.608C488.611 217.608 487.976 218.125 487.976 219.16C487.976 220.184 488.611 220.696 489.88 220.696ZM489.88 227.304C490.627 227.304 491.176 227.208 491.528 227.016C491.891 226.824 492.072 226.525 492.072 226.12C492.072 225.747 491.896 225.496 491.544 225.368C491.192 225.24 490.664 225.139 489.96 225.064C489.32 225 488.883 224.931 488.648 224.856C487.944 225.155 487.592 225.587 487.592 226.152C487.592 226.92 488.355 227.304 489.88 227.304Z" fill="black"/>
</g>
<g filter="url(#filter5_d)">
<circle cx="357" cy="57" r="39" fill="white"/>
</g>
<path d="M383 57C383 71.3594 371.359 83 357 83C342.641 83 331 71.3594 331 57C331 42.6406 342.641 31 357 31C371.359 31 383 42.6406 383 57Z" fill="#5DC2EF"/>
<path fill-rule="evenodd" clip-rule="evenodd" d="M357 31C371.359 31 383 42.6406 383 57C383 71.3594 371.359 83 357 83C342.641 83 331 71.3594 331 57C331 42.6406 342.641 31 357 31ZM335.882 54.4175C336.572 55.2995 338.488 56.4279 341.42 57.3487C342.574 57.7112 343.838 58.0299 345.195 58.3005C345.186 57.8695 345.182 57.4359 345.182 57C345.182 49.1347 346.613 42.0318 349.093 37.2455C342.024 40.0773 336.829 46.5929 335.882 54.4175ZM345.487 63.1711C341.692 62.5113 338.437 61.5128 335.971 60.2282C337.118 67.7644 342.22 74.0009 349.093 76.7545C347.282 73.26 346.031 68.5305 345.487 63.1711ZM350.332 63.801C352.452 63.992 354.686 64.0909 357 64.0909C359.277 64.0909 361.52 63.9618 363.678 63.7225C362.612 72.2259 359.664 78.2727 357 78.2727C354.344 78.2727 351.406 72.263 350.332 63.801ZM364.059 58.9016C361.814 59.1923 359.43 59.3636 357 59.3636C354.532 59.3636 352.163 59.2414 349.945 59.0096C349.921 58.3486 349.909 57.6783 349.909 57C349.909 45.144 353.676 35.7273 357 35.7273C360.324 35.7273 364.091 45.144 364.091 57C364.091 57.6414 364.08 58.2756 364.059 58.9016ZM368.533 62.9726C368 68.4138 366.74 73.2169 364.907 76.7545C371.902 73.9523 377.062 67.5432 378.086 59.8279C375.581 61.1313 372.28 62.2212 368.533 62.9726ZM378.104 54.3058C376.992 55.5542 373.483 57.0372 368.809 58.0734C368.815 57.7173 368.818 57.3594 368.818 57C368.818 49.1347 367.387 42.0318 364.907 37.2454C371.942 40.0639 377.121 46.5309 378.104 54.3058Z" fill="#2B2B6F"/>
<g filter="url(#filter6_d)">
<circle cx="178" cy="57" r="39" fill="white"/>
</g>
<path d="M167.8 57.0002C167.8 60.9766 164.577 64.2002 160.6 64.2002C156.624 64.2002 153.4 60.9766 153.4 57.0002C153.4 53.0237 156.624 49.8002 160.6 49.8002C164.577 49.8002 167.8 53.0237 167.8 57.0002Z" fill="#5DC2EF"/>
<path d="M196.601 42.6C196.601 46.5765 193.378 49.8 189.401 49.8C185.425 49.8 182.201 46.5765 182.201 42.6C182.201 38.6236 185.425 35.4 189.401 35.4C193.378 35.4 196.601 38.6236 196.601 42.6Z" fill="#5DC2EF"/>
<path d="M196.601 71.4C196.601 75.3764 193.378 78.6 189.401 78.6C185.425 78.6 182.201 75.3764 182.201 71.4C182.201 67.4235 185.425 64.2 189.401 64.2C193.378 64.2 196.601 67.4235 196.601 71.4Z" fill="#5DC2EF"/>
<path fill-rule="evenodd" clip-rule="evenodd" d="M179.8 42.6C179.8 43.2898 179.873 43.9626 180.011 44.6112L167.841 50.6964C166.081 48.6765 163.489 47.4 160.6 47.4C155.298 47.4 151 51.6981 151 57C151 62.3019 155.298 66.6 160.6 66.6C163.489 66.6 166.081 65.3235 167.841 63.3036L180.011 69.3888C179.873 70.0374 179.8 70.7102 179.8 71.4C179.8 76.7019 184.098 81 189.4 81C194.702 81 199 76.7019 199 71.4C199 66.0981 194.702 61.8 189.4 61.8C186.511 61.8 183.919 63.0765 182.159 65.0964L169.989 59.0112C170.127 58.3626 170.2 57.6898 170.2 57C170.2 56.3102 170.127 55.6374 169.989 54.9888L182.159 48.9036C183.919 50.9235 186.511 52.2 189.4 52.2C194.702 52.2 199 47.9019 199 42.6C199 37.2981 194.702 33 189.4 33C184.098 33 179.8 37.2981 179.8 42.6ZM165.4 57C165.4 59.651 163.251 61.8 160.6 61.8C157.949 61.8 155.8 59.651 155.8 57C155.8 54.349 157.949 52.2 160.6 52.2C163.251 52.2 165.4 54.349 165.4 57ZM189.4 47.4C192.051 47.4 194.2 45.251 194.2 42.6C194.2 39.949 192.051 37.8 189.4 37.8C186.749 37.8 184.6 39.949 184.6 42.6C184.6 45.251 186.749 47.4 189.4 47.4ZM194.2 71.4C194.2 74.051 192.051 76.2 189.4 76.2C186.749 76.2 184.6 74.051 184.6 71.4C184.6 68.749 186.749 66.6 189.4 66.6C192.051 66.6 194.2 68.749 194.2 71.4Z" fill="#2B2B6F"/>
<g filter="url(#filter7_d)">
<circle cx="357" cy="292" r="39" fill="white"/>
</g>
<path fill-rule="evenodd" clip-rule="evenodd" d="M371.4 276.82H376.2C378.851 276.82 381 278.969 381 281.62V310.419C381 313.07 378.851 315.219 376.2 315.219H337.8C335.149 315.219 333 313.07 333 310.419V308.8L376.2 310.419V281.62H371.4V276.82Z" fill="#5DC2EF"/>
<path d="M369.001 276.82H376.201C378.852 276.82 381.001 278.969 381.001 281.62V310.419C381.001 313.07 378.852 315.219 376.201 315.219H340.201L367.801 302.02L369.001 276.82Z" fill="#5DC2EF"/>
<path fill-rule="evenodd" clip-rule="evenodd" d="M365.281 268.183C367.83 267.467 370.487 268.917 371.215 271.42C371.338 271.841 371.4 272.277 371.4 272.714V300.805C371.4 302.91 369.979 304.759 367.918 305.337L339.119 313.417C336.57 314.132 333.913 312.683 333.185 310.18C333.062 309.759 333 309.323 333 308.885V280.794C333 278.69 334.421 276.841 336.481 276.262L365.281 268.183ZM337.8 280.794V308.885L366.6 300.805V272.714L337.8 280.794ZM361.8 286.087C361.8 287.388 360.725 288.443 359.4 288.443C358.074 288.443 357 287.388 357 286.087C357 284.785 358.074 283.73 359.4 283.73C360.725 283.73 361.8 284.785 361.8 286.087Z" fill="#2B2B6F"/>
<g filter="url(#filter8_d)">
<circle cx="178" cy="292" r="39" fill="white"/>
</g>
<path d="M161 270.429H195V302H161V270.429Z" fill="#5DC2EF"/>
<path fill-rule="evenodd" clip-rule="evenodd" d="M165.857 268H190.143C192.825 268 195 270.175 195 272.857V311.714C195 314.397 192.825 316.571 190.143 316.571H165.857C163.175 316.571 161 314.397 161 311.714V272.857C161 270.175 163.175 268 165.857 268ZM165.857 272.857V311.714H190.143V272.857H165.857ZM180.429 306.857C180.429 308.198 179.341 309.286 178 309.286C176.659 309.286 175.571 308.198 175.571 306.857C175.571 305.516 176.659 304.429 178 304.429C179.341 304.429 180.429 305.516 180.429 306.857Z" fill="#2B2B6F"/>
<defs>
<filter id="filter0_d" x="169" y="159" width="110" height="80" filterUnits="userSpaceOnUse" color-interpolation-filters="sRGB">
<feFlood flood-opacity="0" result="BackgroundImageFix"/>
<feColorMatrix in="SourceAlpha" type="matrix" values="0 0 0 0 0 0 0 0 0 0 0 0 0 0 0 0 0 0 127 0"/>
<feOffset dy="2"/>
<feGaussianBlur stdDeviation="10"/>
<feColorMatrix type="matrix" values="0 0 0 0 0 0 0 0 0 0 0 0 0 0 0 0 0 0 0.2 0"/>
<feBlend mode="normal" in2="BackgroundImageFix" result="effect1_dropShadow"/>
<feBlend mode="normal" in="SourceGraphic" in2="effect1_dropShadow" result="shape"/>
</filter>
<filter id="filter1_d" x="283" y="99" width="122" height="80" filterUnits="userSpaceOnUse" color-interpolation-filters="sRGB">
<feFlood flood-opacity="0" result="BackgroundImageFix"/>
<feColorMatrix in="SourceAlpha" type="matrix" values="0 0 0 0 0 0 0 0 0 0 0 0 0 0 0 0 0 0 127 0"/>
<feOffset dy="2"/>
<feGaussianBlur stdDeviation="10"/>
<feColorMatrix type="matrix" values="0 0 0 0 0 0 0 0 0 0 0 0 0 0 0 0 0 0 0.2 0"/>
<feBlend mode="normal" in2="BackgroundImageFix" result="effect1_dropShadow"/>
<feBlend mode="normal" in="SourceGraphic" in2="effect1_dropShadow" result="shape"/>
</filter>
<filter id="filter2_d" x="110" y="99" width="198" height="80" filterUnits="userSpaceOnUse" color-interpolation-filters="sRGB">
<feFlood flood-opacity="0" result="BackgroundImageFix"/>
<feColorMatrix in="SourceAlpha" type="matrix" values="0 0 0 0 0 0 0 0 0 0 0 0 0 0 0 0 0 0 127 0"/>
<feOffset dy="2"/>
<feGaussianBlur stdDeviation="10"/>
<feColorMatrix type="matrix" values="0 0 0 0 0 0 0 0 0 0 0 0 0 0 0 0 0 0 0.2 0"/>
<feBlend mode="normal" in2="BackgroundImageFix" result="effect1_dropShadow"/>
<feBlend mode="normal" in="SourceGraphic" in2="effect1_dropShadow" result="shape"/>
</filter>
<filter id="filter3_d" x="0" y="159" width="194" height="80" filterUnits="userSpaceOnUse" color-interpolation-filters="sRGB">
<feFlood flood-opacity="0" result="BackgroundImageFix"/>
<feColorMatrix in="SourceAlpha" type="matrix" values="0 0 0 0 0 0 0 0 0 0 0 0 0 0 0 0 0 0 127 0"/>
<feOffset dy="2"/>
<feGaussianBlur stdDeviation="10"/>
<feColorMatrix type="matrix" values="0 0 0 0 0 0 0 0 0 0 0 0 0 0 0 0 0 0 0.2 0"/>
<feBlend mode="normal" in2="BackgroundImageFix" result="effect1_dropShadow"/>
<feBlend mode="normal" in="SourceGraphic" in2="effect1_dropShadow" result="shape"/>
</filter>
<filter id="filter4_d" x="342" y="181" width="193" height="80" filterUnits="userSpaceOnUse" color-interpolation-filters="sRGB">
<feFlood flood-opacity="0" result="BackgroundImageFix"/>
<feColorMatrix in="SourceAlpha" type="matrix" values="0 0 0 0 0 0 0 0 0 0 0 0 0 0 0 0 0 0 127 0"/>
<feOffset dy="2"/>
<feGaussianBlur stdDeviation="10"/>
<feColorMatrix type="matrix" values="0 0 0 0 0 0 0 0 0 0 0 0 0 0 0 0 0 0 0.2 0"/>
<feBlend mode="normal" in2="BackgroundImageFix" result="effect1_dropShadow"/>
<feBlend mode="normal" in="SourceGraphic" in2="effect1_dropShadow" result="shape"/>
</filter>
<filter id="filter5_d" x="298" y="0" width="118" height="118" filterUnits="userSpaceOnUse" color-interpolation-filters="sRGB">
<feFlood flood-opacity="0" result="BackgroundImageFix"/>
<feColorMatrix in="SourceAlpha" type="matrix" values="0 0 0 0 0 0 0 0 0 0 0 0 0 0 0 0 0 0 127 0"/>
<feOffset dy="2"/>
<feGaussianBlur stdDeviation="10"/>
<feColorMatrix type="matrix" values="0 0 0 0 0 0 0 0 0 0 0 0 0 0 0 0 0 0 0.2 0"/>
<feBlend mode="normal" in2="BackgroundImageFix" result="effect1_dropShadow"/>
<feBlend mode="normal" in="SourceGraphic" in2="effect1_dropShadow" result="shape"/>
</filter>
<filter id="filter6_d" x="119" y="0" width="118" height="118" filterUnits="userSpaceOnUse" color-interpolation-filters="sRGB">
<feFlood flood-opacity="0" result="BackgroundImageFix"/>
<feColorMatrix in="SourceAlpha" type="matrix" values="0 0 0 0 0 0 0 0 0 0 0 0 0 0 0 0 0 0 127 0"/>
<feOffset dy="2"/>
<feGaussianBlur stdDeviation="10"/>
<feColorMatrix type="matrix" values="0 0 0 0 0 0 0 0 0 0 0 0 0 0 0 0 0 0 0.2 0"/>
<feBlend mode="normal" in2="BackgroundImageFix" result="effect1_dropShadow"/>
<feBlend mode="normal" in="SourceGraphic" in2="effect1_dropShadow" result="shape"/>
</filter>
<filter id="filter7_d" x="298" y="235" width="118" height="118" filterUnits="userSpaceOnUse" color-interpolation-filters="sRGB">
<feFlood flood-opacity="0" result="BackgroundImageFix"/>
<feColorMatrix in="SourceAlpha" type="matrix" values="0 0 0 0 0 0 0 0 0 0 0 0 0 0 0 0 0 0 127 0"/>
<feOffset dy="2"/>
<feGaussianBlur stdDeviation="10"/>
<feColorMatrix type="matrix" values="0 0 0 0 0 0 0 0 0 0 0 0 0 0 0 0 0 0 0.2 0"/>
<feBlend mode="normal" in2="BackgroundImageFix" result="effect1_dropShadow"/>
<feBlend mode="normal" in="SourceGraphic" in2="effect1_dropShadow" result="shape"/>
</filter>
<filter id="filter8_d" x="119" y="235" width="118" height="118" filterUnits="userSpaceOnUse" color-interpolation-filters="sRGB">
<feFlood flood-opacity="0" result="BackgroundImageFix"/>
<feColorMatrix in="SourceAlpha" type="matrix" values="0 0 0 0 0 0 0 0 0 0 0 0 0 0 0 0 0 0 127 0"/>
<feOffset dy="2"/>
<feGaussianBlur stdDeviation="10"/>
<feColorMatrix type="matrix" values="0 0 0 0 0 0 0 0 0 0 0 0 0 0 0 0 0 0 0.2 0"/>
<feBlend mode="normal" in2="BackgroundImageFix" result="effect1_dropShadow"/>
<feBlend mode="normal" in="SourceGraphic" in2="effect1_dropShadow" result="shape"/>
</filter>
</defs>
</svg>
