<svg width="562" height="353" viewBox="0 0 562 353" fill="none" xmlns="http://www.w3.org/2000/svg">
<rect x="67" y="60" width="453" height="236" rx="18" stroke="#5DC2EF" stroke-width="4"/>
<g filter="url(#filter0_d)">
<rect x="215" y="177" width="101" height="40" fill="white"/>
<path d="M237.192 203.032C236.765 203.032 236.552 202.915 236.552 202.68V192.12C236.552 191.885 236.765 191.768 237.192 191.768H237.32C237.747 191.768 237.96 191.885 237.96 192.12V197.016H238.024L241.96 191.992C242.077 191.843 242.365 191.768 242.824 191.768H242.984C243.165 191.768 243.304 191.789 243.4 191.832C243.496 191.864 243.544 191.912 243.544 191.976C243.544 192.072 243.491 192.179 243.384 192.296L239.384 197.288L244.232 202.552C244.328 202.659 244.376 202.744 244.376 202.808C244.376 202.893 244.323 202.952 244.216 202.984C244.109 203.016 243.928 203.032 243.672 203.032H243.48C243.245 203.032 243.059 203.021 242.92 203C242.792 202.979 242.685 202.92 242.6 202.824L238.024 197.672H237.96V202.68C237.96 202.915 237.747 203.032 237.32 203.032H237.192ZM248.811 203.096C247.605 203.096 246.683 202.733 246.043 202.008C245.413 201.283 245.099 200.232 245.099 198.856C245.099 197.469 245.419 196.403 246.059 195.656C246.699 194.909 247.616 194.536 248.811 194.536C249.984 194.536 250.88 194.909 251.499 195.656C252.128 196.392 252.443 197.459 252.443 198.856C252.443 200.243 252.133 201.299 251.515 202.024C250.907 202.739 250.005 203.096 248.811 203.096ZM248.763 201.944C249.541 201.944 250.117 201.693 250.491 201.192C250.864 200.68 251.051 199.891 251.051 198.824C251.051 197.757 250.864 196.968 250.491 196.456C250.117 195.944 249.541 195.688 248.763 195.688C247.984 195.688 247.413 195.944 247.051 196.456C246.688 196.957 246.507 197.747 246.507 198.824C246.507 199.891 246.688 200.68 247.051 201.192C247.413 201.693 247.984 201.944 248.763 201.944ZM256.432 203.144C255.973 203.144 255.547 203.091 255.152 202.984C254.768 202.867 254.459 202.728 254.224 202.568C254 202.408 253.888 202.264 253.888 202.136C253.888 202.029 253.952 201.869 254.08 201.656C254.219 201.443 254.341 201.336 254.448 201.336C254.469 201.336 254.571 201.395 254.752 201.512C254.933 201.629 255.157 201.736 255.424 201.832C255.701 201.928 256.005 201.976 256.336 201.976C257.381 201.976 257.904 201.544 257.904 200.68C257.904 200.317 257.787 200.029 257.552 199.816C257.317 199.603 256.901 199.411 256.304 199.24C255.461 198.995 254.88 198.691 254.56 198.328C254.24 197.955 254.08 197.459 254.08 196.84C254.08 196.392 254.192 195.992 254.416 195.64C254.651 195.288 254.965 195.016 255.36 194.824C255.765 194.621 256.224 194.52 256.736 194.52C257.28 194.52 257.765 194.589 258.192 194.728C258.629 194.867 258.848 195.027 258.848 195.208C258.848 195.347 258.784 195.528 258.656 195.752C258.539 195.965 258.432 196.072 258.336 196.072C258.304 196.061 258.16 195.992 257.904 195.864C257.659 195.725 257.317 195.656 256.88 195.656C256.475 195.656 256.133 195.747 255.856 195.928C255.589 196.109 255.456 196.355 255.456 196.664C255.456 197.027 255.552 197.315 255.744 197.528C255.936 197.741 256.256 197.917 256.704 198.056C257.387 198.269 257.904 198.483 258.256 198.696C258.619 198.899 258.875 199.155 259.024 199.464C259.184 199.763 259.264 200.157 259.264 200.648C259.264 201.117 259.136 201.544 258.88 201.928C258.635 202.301 258.293 202.6 257.856 202.824C257.429 203.037 256.955 203.144 256.432 203.144ZM256.432 193.688C256.101 193.688 255.856 193.571 255.696 193.336L254.8 191.928C254.736 191.811 254.704 191.715 254.704 191.64C254.704 191.491 254.827 191.416 255.072 191.416H255.104C255.317 191.416 255.499 191.485 255.648 191.624L256.624 192.808L257.632 191.624C257.781 191.485 257.957 191.416 258.16 191.416H258.192C258.448 191.416 258.576 191.496 258.576 191.656C258.576 191.741 258.544 191.832 258.48 191.928L257.568 193.336C257.408 193.571 257.163 193.688 256.832 193.688H256.432ZM263.458 203.096C262.636 203.096 261.975 202.893 261.474 202.488C260.972 202.083 260.722 201.485 260.722 200.696C260.722 199.853 260.972 199.224 261.474 198.808C261.986 198.381 262.61 198.109 263.346 197.992C264.082 197.864 264.978 197.795 266.034 197.784V197.032C266.034 196.637 265.895 196.317 265.618 196.072C265.34 195.816 264.892 195.688 264.274 195.688C263.804 195.688 263.394 195.747 263.042 195.864C262.69 195.971 262.396 196.083 262.162 196.2C261.927 196.307 261.799 196.36 261.778 196.36C261.671 196.36 261.548 196.253 261.41 196.04C261.282 195.827 261.218 195.667 261.218 195.56C261.218 195.421 261.356 195.272 261.634 195.112C261.922 194.952 262.3 194.819 262.77 194.712C263.239 194.595 263.724 194.536 264.226 194.536C265.218 194.536 265.991 194.76 266.546 195.208C267.1 195.645 267.378 196.259 267.378 197.048V200.632C267.378 201.336 267.41 201.843 267.474 202.152C267.538 202.451 267.57 202.616 267.57 202.648C267.57 202.776 267.468 202.872 267.266 202.936C267.063 202.989 266.876 203.016 266.706 203.016C266.556 203.016 266.444 202.936 266.37 202.776C266.306 202.605 266.252 202.429 266.21 202.248C266.178 202.067 266.156 201.949 266.146 201.896C265.42 202.696 264.524 203.096 263.458 203.096ZM263.522 201.928C264.044 201.928 264.492 201.832 264.866 201.64C265.25 201.448 265.639 201.176 266.034 200.824V198.936C265.234 198.947 264.578 198.979 264.066 199.032C263.564 199.085 263.122 199.235 262.738 199.48C262.354 199.725 262.162 200.104 262.162 200.616C262.162 201.043 262.274 201.368 262.498 201.592C262.732 201.816 263.074 201.928 263.522 201.928ZM270.736 203.032C270.31 203.032 270.096 202.915 270.096 202.68V197.064C270.096 196.36 270.064 195.859 270 195.56C269.936 195.251 269.904 195.08 269.904 195.048C269.904 194.92 270.006 194.829 270.208 194.776C270.411 194.712 270.598 194.68 270.768 194.68C270.918 194.68 271.024 194.76 271.088 194.92C271.163 195.069 271.216 195.229 271.248 195.4C271.291 195.571 271.318 195.683 271.328 195.736C271.894 194.936 272.512 194.536 273.184 194.536C273.483 194.536 273.712 194.595 273.872 194.712C274.032 194.829 274.112 194.979 274.112 195.16C274.112 195.341 274.08 195.533 274.016 195.736C273.952 195.928 273.878 196.024 273.792 196.024C273.739 196.024 273.632 195.997 273.472 195.944C273.323 195.88 273.136 195.848 272.912 195.848C272.667 195.848 272.432 195.923 272.208 196.072C271.995 196.211 271.814 196.365 271.664 196.536C271.515 196.707 271.44 196.803 271.44 196.824V202.68C271.44 202.915 271.227 203.032 270.8 203.032H270.736ZM276.612 193.144C276.142 193.144 275.908 193.016 275.908 192.76V191.864C275.908 191.608 276.164 191.48 276.676 191.48C277.145 191.48 277.38 191.608 277.38 191.864V192.76C277.38 193.016 277.124 193.144 276.612 193.144ZM276.612 203.032C276.185 203.032 275.972 202.915 275.972 202.68V194.952C275.972 194.717 276.185 194.6 276.612 194.6H276.676C277.102 194.6 277.316 194.717 277.316 194.952V202.68C277.316 202.915 277.102 203.032 276.676 203.032H276.612ZM283.518 203.096C282.195 203.096 281.209 202.755 280.558 202.072C279.907 201.389 279.582 200.291 279.582 198.776C279.582 197.251 279.945 196.163 280.67 195.512C281.395 194.861 282.297 194.536 283.374 194.536C283.993 194.536 284.547 194.611 285.038 194.76C285.529 194.909 285.774 195.08 285.774 195.272C285.774 195.411 285.71 195.592 285.582 195.816C285.465 196.029 285.358 196.136 285.262 196.136C285.241 196.136 285.214 196.131 285.182 196.12C285.161 196.099 285.129 196.083 285.086 196.072C284.51 195.816 283.929 195.688 283.342 195.688C281.795 195.688 281.022 196.707 281.022 198.744C281.022 199.875 281.209 200.691 281.582 201.192C281.966 201.693 282.606 201.944 283.502 201.944C284.153 201.944 284.755 201.805 285.31 201.528L285.486 201.464C285.593 201.464 285.71 201.571 285.838 201.784C285.966 201.987 286.03 202.152 286.03 202.28C286.03 202.408 285.913 202.536 285.678 202.664C285.454 202.781 285.15 202.883 284.766 202.968C284.382 203.053 283.966 203.096 283.518 203.096ZM290.036 203.096C289.214 203.096 288.553 202.893 288.052 202.488C287.55 202.083 287.3 201.485 287.3 200.696C287.3 199.853 287.55 199.224 288.052 198.808C288.564 198.381 289.188 198.109 289.924 197.992C290.66 197.864 291.556 197.795 292.612 197.784V197.032C292.612 196.637 292.473 196.317 292.196 196.072C291.918 195.816 291.47 195.688 290.852 195.688C290.382 195.688 289.972 195.747 289.62 195.864C289.268 195.971 288.974 196.083 288.74 196.2C288.505 196.307 288.377 196.36 288.356 196.36C288.249 196.36 288.126 196.253 287.988 196.04C287.86 195.827 287.796 195.667 287.796 195.56C287.796 195.421 287.934 195.272 288.212 195.112C288.5 194.952 288.878 194.819 289.348 194.712C289.817 194.595 290.302 194.536 290.804 194.536C291.796 194.536 292.569 194.76 293.124 195.208C293.678 195.645 293.956 196.259 293.956 197.048V200.632C293.956 201.336 293.988 201.843 294.052 202.152C294.116 202.451 294.148 202.616 294.148 202.648C294.148 202.776 294.046 202.872 293.844 202.936C293.641 202.989 293.454 203.016 293.284 203.016C293.134 203.016 293.022 202.936 292.948 202.776C292.884 202.605 292.83 202.429 292.788 202.248C292.756 202.067 292.734 201.949 292.724 201.896C291.998 202.696 291.102 203.096 290.036 203.096ZM290.1 201.928C290.622 201.928 291.07 201.832 291.444 201.64C291.828 201.448 292.217 201.176 292.612 200.824V198.936C291.812 198.947 291.156 198.979 290.644 199.032C290.142 199.085 289.7 199.235 289.316 199.48C288.932 199.725 288.74 200.104 288.74 200.616C288.74 201.043 288.852 201.368 289.076 201.592C289.31 201.816 289.652 201.928 290.1 201.928Z" fill="black"/>
</g>
<g filter="url(#filter1_d)">
<rect x="329" y="117" width="102" height="40" fill="white"/>
<path d="M351.08 143.032C350.653 143.032 350.44 142.915 350.44 142.68V132.12C350.44 131.885 350.653 131.768 351.08 131.768H351.416C351.587 131.768 351.72 131.789 351.816 131.832C351.923 131.875 352.013 131.955 352.088 132.072L357.112 139.656C357.293 139.923 357.469 140.243 357.64 140.616L357.704 140.6C357.683 140.355 357.672 139.992 357.672 139.512V132.12C357.672 131.885 357.885 131.768 358.312 131.768H358.424C358.851 131.768 359.064 131.885 359.064 132.12V142.68C359.064 142.915 358.851 143.032 358.424 143.032H358.104C357.827 143.032 357.64 142.957 357.544 142.808L352.392 135.032C352.211 134.765 352.035 134.445 351.864 134.072L351.8 134.088C351.821 134.333 351.832 134.696 351.832 135.176V142.68C351.832 142.915 351.619 143.032 351.192 143.032H351.08ZM364.02 143.096C363.199 143.096 362.537 142.893 362.036 142.488C361.535 142.083 361.284 141.485 361.284 140.696C361.284 139.853 361.535 139.224 362.036 138.808C362.548 138.381 363.172 138.109 363.908 137.992C364.644 137.864 365.54 137.795 366.596 137.784V137.032C366.596 136.637 366.457 136.317 366.18 136.072C365.903 135.816 365.455 135.688 364.836 135.688C364.367 135.688 363.956 135.747 363.604 135.864C363.252 135.971 362.959 136.083 362.724 136.2C362.489 136.307 362.361 136.36 362.34 136.36C362.233 136.36 362.111 136.253 361.972 136.04C361.844 135.827 361.78 135.667 361.78 135.56C361.78 135.421 361.919 135.272 362.196 135.112C362.484 134.952 362.863 134.819 363.332 134.712C363.801 134.595 364.287 134.536 364.788 134.536C365.78 134.536 366.553 134.76 367.108 135.208C367.663 135.645 367.94 136.259 367.94 137.048V140.632C367.94 141.336 367.972 141.843 368.036 142.152C368.1 142.451 368.132 142.616 368.132 142.648C368.132 142.776 368.031 142.872 367.828 142.936C367.625 142.989 367.439 143.016 367.268 143.016C367.119 143.016 367.007 142.936 366.932 142.776C366.868 142.605 366.815 142.429 366.772 142.248C366.74 142.067 366.719 141.949 366.708 141.896C365.983 142.696 365.087 143.096 364.02 143.096ZM364.084 141.928C364.607 141.928 365.055 141.832 365.428 141.64C365.812 141.448 366.201 141.176 366.596 140.824V138.936C365.796 138.947 365.14 138.979 364.628 139.032C364.127 139.085 363.684 139.235 363.3 139.48C362.916 139.725 362.724 140.104 362.724 140.616C362.724 141.043 362.836 141.368 363.06 141.592C363.295 141.816 363.636 141.928 364.084 141.928ZM371.299 143.032C370.872 143.032 370.659 142.915 370.659 142.68V137.064C370.659 136.36 370.627 135.859 370.563 135.56C370.499 135.251 370.467 135.08 370.467 135.048C370.467 134.92 370.568 134.829 370.771 134.776C370.973 134.712 371.16 134.68 371.331 134.68C371.48 134.68 371.587 134.76 371.651 134.92C371.725 135.069 371.779 135.229 371.811 135.4C371.853 135.571 371.88 135.683 371.891 135.736C372.456 134.936 373.075 134.536 373.747 134.536C374.045 134.536 374.275 134.595 374.435 134.712C374.595 134.829 374.675 134.979 374.675 135.16C374.675 135.341 374.643 135.533 374.579 135.736C374.515 135.928 374.44 136.024 374.355 136.024C374.301 136.024 374.195 135.997 374.035 135.944C373.885 135.88 373.699 135.848 373.475 135.848C373.229 135.848 372.995 135.923 372.771 136.072C372.557 136.211 372.376 136.365 372.227 136.536C372.077 136.707 372.003 136.803 372.003 136.824V142.68C372.003 142.915 371.789 143.032 371.363 143.032H371.299ZM379.67 143.096C378.465 143.096 377.542 142.733 376.902 142.008C376.273 141.283 375.958 140.232 375.958 138.856C375.958 137.469 376.278 136.403 376.918 135.656C377.558 134.909 378.475 134.536 379.67 134.536C380.843 134.536 381.739 134.909 382.358 135.656C382.987 136.392 383.302 137.459 383.302 138.856C383.302 140.243 382.993 141.299 382.374 142.024C381.766 142.739 380.865 143.096 379.67 143.096ZM379.622 141.944C380.401 141.944 380.977 141.693 381.35 141.192C381.723 140.68 381.91 139.891 381.91 138.824C381.91 137.757 381.723 136.968 381.35 136.456C380.977 135.944 380.401 135.688 379.622 135.688C378.843 135.688 378.273 135.944 377.91 136.456C377.547 136.957 377.366 137.747 377.366 138.824C377.366 139.891 377.547 140.68 377.91 141.192C378.273 141.693 378.843 141.944 379.622 141.944ZM388.956 143.096C387.633 143.096 386.646 142.755 385.996 142.072C385.345 141.389 385.02 140.291 385.02 138.776C385.02 137.251 385.382 136.163 386.108 135.512C386.833 134.861 387.734 134.536 388.812 134.536C389.43 134.536 389.985 134.611 390.476 134.76C390.966 134.909 391.212 135.08 391.212 135.272C391.212 135.411 391.148 135.592 391.02 135.816C390.902 136.029 390.796 136.136 390.7 136.136C390.678 136.136 390.652 136.131 390.62 136.12C390.598 136.099 390.566 136.083 390.524 136.072C389.948 135.816 389.366 135.688 388.78 135.688C387.233 135.688 386.46 136.707 386.46 138.744C386.46 139.875 386.646 140.691 387.02 141.192C387.404 141.693 388.044 141.944 388.94 141.944C389.59 141.944 390.193 141.805 390.748 141.528L390.924 141.464C391.03 141.464 391.148 141.571 391.276 141.784C391.404 141.987 391.468 142.152 391.468 142.28C391.468 142.408 391.35 142.536 391.116 142.664C390.892 142.781 390.588 142.883 390.204 142.968C389.82 143.053 389.404 143.096 388.956 143.096ZM388.411 133.688C388.081 133.688 387.836 133.571 387.676 133.336L386.78 131.928C386.716 131.811 386.684 131.715 386.684 131.64C386.684 131.491 386.806 131.416 387.052 131.416H387.084C387.297 131.416 387.478 131.485 387.628 131.624L388.604 132.808L389.612 131.624C389.761 131.485 389.937 131.416 390.14 131.416H390.172C390.428 131.416 390.556 131.496 390.556 131.656C390.556 131.741 390.524 131.832 390.46 131.928L389.548 133.336C389.388 133.571 389.142 133.688 388.812 133.688H388.411ZM394.049 133.144C393.58 133.144 393.345 133.016 393.345 132.76V131.864C393.345 131.608 393.601 131.48 394.113 131.48C394.582 131.48 394.817 131.608 394.817 131.864V132.76C394.817 133.016 394.561 133.144 394.049 133.144ZM394.049 143.032C393.622 143.032 393.409 142.915 393.409 142.68V134.952C393.409 134.717 393.622 134.6 394.049 134.6H394.113C394.54 134.6 394.753 134.717 394.753 134.952V142.68C394.753 142.915 394.54 143.032 394.113 143.032H394.049ZM399.564 143.096C399.03 143.096 398.55 142.936 398.124 142.616C397.708 142.285 397.5 141.709 397.5 140.888V131.32C397.5 131.085 397.713 130.968 398.14 130.968H398.204C398.63 130.968 398.844 131.085 398.844 131.32V140.76C398.844 141.208 398.918 141.517 399.068 141.688C399.228 141.859 399.441 141.944 399.708 141.944C399.91 141.944 400.06 141.933 400.156 141.912C400.262 141.88 400.342 141.864 400.396 141.864C400.492 141.864 400.572 141.965 400.636 142.168C400.7 142.36 400.732 142.509 400.732 142.616C400.732 142.936 400.342 143.096 399.564 143.096ZM405.53 143.096C404.324 143.096 403.402 142.733 402.762 142.008C402.132 141.283 401.818 140.232 401.818 138.856C401.818 137.469 402.138 136.403 402.778 135.656C403.418 134.909 404.335 134.536 405.53 134.536C406.703 134.536 407.599 134.909 408.218 135.656C408.847 136.392 409.161 137.459 409.161 138.856C409.161 140.243 408.852 141.299 408.234 142.024C407.626 142.739 406.724 143.096 405.53 143.096ZM405.482 141.944C406.26 141.944 406.836 141.693 407.21 141.192C407.583 140.68 407.77 139.891 407.77 138.824C407.77 137.757 407.583 136.968 407.21 136.456C406.836 135.944 406.26 135.688 405.482 135.688C404.703 135.688 404.132 135.944 403.77 136.456C403.407 136.957 403.226 137.747 403.226 138.824C403.226 139.891 403.407 140.68 403.77 141.192C404.132 141.693 404.703 141.944 405.482 141.944Z" fill="black"/>
</g>
<g filter="url(#filter2_d)">
<rect x="101" y="117" width="208" height="40" fill="white"/>
<path d="M123.032 143C122.861 143 122.739 142.963 122.664 142.888C122.589 142.813 122.552 142.691 122.552 142.52V132.28C122.552 132.109 122.589 131.987 122.664 131.912C122.739 131.837 122.861 131.8 123.032 131.8H126.264C127.757 131.8 128.952 132.248 129.848 133.144C130.755 134.029 131.208 135.448 131.208 137.4C131.208 139.363 130.755 140.787 129.848 141.672C128.952 142.557 127.757 143 126.264 143H123.032ZM126.152 141.784C127.229 141.784 128.099 141.432 128.76 140.728C129.421 140.024 129.752 138.915 129.752 137.4C129.752 135.896 129.421 134.792 128.76 134.088C128.099 133.373 127.229 133.016 126.152 133.016H123.96V141.784H126.152ZM134.221 133.144C133.752 133.144 133.517 133.016 133.517 132.76V131.864C133.517 131.608 133.773 131.48 134.285 131.48C134.754 131.48 134.989 131.608 134.989 131.864V132.76C134.989 133.016 134.733 133.144 134.221 133.144ZM134.221 143.032C133.794 143.032 133.581 142.915 133.581 142.68V134.952C133.581 134.717 133.794 134.6 134.221 134.6H134.285C134.712 134.6 134.925 134.717 134.925 134.952V142.68C134.925 142.915 134.712 143.032 134.285 143.032H134.221ZM140.407 146.392C139.383 146.392 138.573 146.232 137.975 145.912C137.389 145.592 137.095 145.091 137.095 144.408C137.095 143.939 137.229 143.533 137.495 143.192C137.762 142.851 138.114 142.589 138.551 142.408L138.567 142.376C138.141 142.035 137.927 141.597 137.927 141.064C137.927 140.371 138.226 139.816 138.823 139.4C138.375 139.176 138.034 138.867 137.799 138.472C137.565 138.077 137.447 137.635 137.447 137.144C137.447 136.387 137.725 135.763 138.279 135.272C138.834 134.781 139.607 134.536 140.599 134.536C140.941 134.536 141.255 134.568 141.543 134.632H144.455C144.573 134.632 144.653 134.669 144.695 134.744C144.749 134.819 144.775 134.941 144.775 135.112V135.304C144.775 135.475 144.749 135.597 144.695 135.672C144.653 135.747 144.573 135.784 144.455 135.784C144.018 135.784 143.645 135.768 143.335 135.736L143.319 135.768C143.597 136.163 143.735 136.621 143.735 137.144C143.735 137.912 143.458 138.541 142.903 139.032C142.359 139.523 141.586 139.768 140.583 139.768C140.082 139.768 139.703 139.859 139.447 140.04C139.191 140.211 139.063 140.488 139.063 140.872C139.063 141.149 139.149 141.363 139.319 141.512C139.501 141.651 139.725 141.752 139.991 141.816C140.258 141.88 140.631 141.939 141.111 141.992C141.346 142.013 141.522 142.035 141.639 142.056C142.407 142.152 142.999 142.333 143.415 142.6C143.842 142.856 144.055 143.315 144.055 143.976C144.055 144.755 143.746 145.352 143.127 145.768C142.509 146.184 141.602 146.392 140.407 146.392ZM140.583 138.696C141.17 138.696 141.634 138.579 141.975 138.344C142.327 138.099 142.503 137.704 142.503 137.16C142.503 136.125 141.863 135.608 140.583 135.608C139.314 135.608 138.679 136.125 138.679 137.16C138.679 138.184 139.314 138.696 140.583 138.696ZM140.583 145.304C141.33 145.304 141.879 145.208 142.231 145.016C142.594 144.824 142.775 144.525 142.775 144.12C142.775 143.747 142.599 143.496 142.247 143.368C141.895 143.24 141.367 143.139 140.663 143.064C140.023 143 139.586 142.931 139.351 142.856C138.647 143.155 138.295 143.587 138.295 144.152C138.295 144.92 139.058 145.304 140.583 145.304ZM147.19 133.144C146.72 133.144 146.486 133.016 146.486 132.76V131.864C146.486 131.608 146.742 131.48 147.254 131.48C147.723 131.48 147.958 131.608 147.958 131.864V132.76C147.958 133.016 147.702 133.144 147.19 133.144ZM147.19 143.032C146.763 143.032 146.55 142.915 146.55 142.68V134.952C146.55 134.717 146.763 134.6 147.19 134.6H147.254C147.68 134.6 147.894 134.717 147.894 134.952V142.68C147.894 142.915 147.68 143.032 147.254 143.032H147.19ZM153.104 143.096C152.571 143.096 152.091 142.936 151.664 142.616C151.248 142.285 151.04 141.709 151.04 140.888V135.784H150.24C150.133 135.784 150.053 135.747 150 135.672C149.947 135.597 149.92 135.475 149.92 135.304V135.112C149.92 134.941 149.947 134.819 150 134.744C150.053 134.669 150.133 134.632 150.24 134.632H151.04L151.232 132.952C151.264 132.717 151.435 132.6 151.744 132.6H151.904C152.224 132.6 152.384 132.717 152.384 132.952V134.632H153.728C153.845 134.632 153.925 134.669 153.968 134.744C154.021 134.819 154.048 134.941 154.048 135.112V135.304C154.048 135.475 154.021 135.597 153.968 135.672C153.925 135.747 153.845 135.784 153.728 135.784H152.384V140.76C152.384 141.208 152.459 141.517 152.608 141.688C152.768 141.859 152.981 141.944 153.248 141.944C153.451 141.944 153.6 141.933 153.696 141.912C153.803 141.88 153.883 141.864 153.936 141.864C154.032 141.864 154.112 141.965 154.176 142.168C154.24 142.36 154.272 142.509 154.272 142.616C154.272 142.936 153.883 143.096 153.104 143.096ZM158.317 143.096C157.496 143.096 156.834 142.893 156.333 142.488C155.832 142.083 155.581 141.485 155.581 140.696C155.581 139.853 155.832 139.224 156.333 138.808C156.845 138.381 157.469 138.109 158.205 137.992C158.941 137.864 159.837 137.795 160.893 137.784V137.032C160.893 136.637 160.754 136.317 160.477 136.072C160.2 135.816 159.752 135.688 159.133 135.688C158.664 135.688 158.253 135.747 157.901 135.864C157.549 135.971 157.256 136.083 157.021 136.2C156.786 136.307 156.658 136.36 156.637 136.36C156.53 136.36 156.408 136.253 156.269 136.04C156.141 135.827 156.077 135.667 156.077 135.56C156.077 135.421 156.216 135.272 156.493 135.112C156.781 134.952 157.16 134.819 157.629 134.712C158.098 134.595 158.584 134.536 159.085 134.536C160.077 134.536 160.85 134.76 161.405 135.208C161.96 135.645 162.237 136.259 162.237 137.048V140.632C162.237 141.336 162.269 141.843 162.333 142.152C162.397 142.451 162.429 142.616 162.429 142.648C162.429 142.776 162.328 142.872 162.125 142.936C161.922 142.989 161.736 143.016 161.565 143.016C161.416 143.016 161.304 142.936 161.229 142.776C161.165 142.605 161.112 142.429 161.069 142.248C161.037 142.067 161.016 141.949 161.005 141.896C160.28 142.696 159.384 143.096 158.317 143.096ZM158.381 141.928C158.904 141.928 159.352 141.832 159.725 141.64C160.109 141.448 160.498 141.176 160.893 140.824V138.936C160.093 138.947 159.437 138.979 158.925 139.032C158.424 139.085 157.981 139.235 157.597 139.48C157.213 139.725 157.021 140.104 157.021 140.616C157.021 141.043 157.133 141.368 157.357 141.592C157.592 141.816 157.933 141.928 158.381 141.928ZM166.892 143.096C166.358 143.096 165.878 142.936 165.452 142.616C165.036 142.285 164.828 141.709 164.828 140.888V131.32C164.828 131.085 165.041 130.968 165.468 130.968H165.532C165.958 130.968 166.172 131.085 166.172 131.32V140.76C166.172 141.208 166.246 141.517 166.396 141.688C166.556 141.859 166.769 141.944 167.036 141.944C167.238 141.944 167.388 141.933 167.484 141.912C167.59 141.88 167.67 141.864 167.724 141.864C167.82 141.864 167.9 141.965 167.964 142.168C168.028 142.36 168.06 142.509 168.06 142.616C168.06 142.936 167.67 143.096 166.892 143.096ZM170.282 143.032C169.855 143.032 169.642 142.915 169.642 142.68V137.064C169.642 136.36 169.61 135.859 169.546 135.56C169.482 135.251 169.45 135.08 169.45 135.048C169.45 134.92 169.551 134.829 169.754 134.776C169.956 134.712 170.143 134.68 170.314 134.68C170.463 134.68 170.57 134.76 170.634 134.92C170.708 135.069 170.762 135.229 170.794 135.4C170.836 135.571 170.863 135.683 170.874 135.736C171.215 135.363 171.604 135.069 172.042 134.856C172.479 134.643 172.922 134.536 173.37 134.536C174.18 134.536 174.815 134.765 175.274 135.224C175.743 135.683 175.978 136.317 175.978 137.128V142.68C175.978 142.915 175.764 143.032 175.338 143.032H175.274C174.847 143.032 174.634 142.915 174.634 142.68V137.256C174.634 136.765 174.49 136.387 174.202 136.12C173.924 135.843 173.524 135.704 173.002 135.704C172.639 135.704 172.276 135.805 171.914 136.008C171.562 136.211 171.252 136.483 170.986 136.824V142.68C170.986 142.915 170.772 143.032 170.346 143.032H170.282ZM181.764 143.096C180.559 143.096 179.636 142.733 178.996 142.008C178.367 141.283 178.052 140.232 178.052 138.856C178.052 137.469 178.372 136.403 179.012 135.656C179.652 134.909 180.569 134.536 181.764 134.536C182.937 134.536 183.833 134.909 184.452 135.656C185.081 136.392 185.396 137.459 185.396 138.856C185.396 140.243 185.087 141.299 184.468 142.024C183.86 142.739 182.959 143.096 181.764 143.096ZM181.716 141.944C182.495 141.944 183.071 141.693 183.444 141.192C183.817 140.68 184.004 139.891 184.004 138.824C184.004 137.757 183.817 136.968 183.444 136.456C183.071 135.944 182.495 135.688 181.716 135.688C180.937 135.688 180.367 135.944 180.004 136.456C179.641 136.957 179.46 137.747 179.46 138.824C179.46 139.891 179.641 140.68 180.004 141.192C180.367 141.693 180.937 141.944 181.716 141.944ZM192.141 146.328C191.714 146.328 191.501 146.211 191.501 145.976V137.064C191.501 136.36 191.469 135.859 191.405 135.56C191.341 135.251 191.309 135.08 191.309 135.048C191.309 134.92 191.41 134.829 191.613 134.776C191.816 134.712 192.002 134.68 192.173 134.68C192.322 134.68 192.429 134.76 192.493 134.92C192.568 135.069 192.621 135.229 192.653 135.4C192.696 135.571 192.722 135.683 192.733 135.736C193.501 134.936 194.349 134.536 195.277 134.536C195.928 134.536 196.482 134.723 196.941 135.096C197.41 135.459 197.768 135.965 198.013 136.616C198.258 137.256 198.381 137.992 198.381 138.824C198.381 139.731 198.242 140.504 197.965 141.144C197.698 141.784 197.32 142.269 196.829 142.6C196.338 142.931 195.773 143.096 195.133 143.096C194.664 143.096 194.248 143.027 193.885 142.888C193.533 142.749 193.186 142.547 192.845 142.28V145.976C192.845 146.211 192.632 146.328 192.205 146.328H192.141ZM194.829 141.912C195.533 141.912 196.066 141.656 196.429 141.144C196.792 140.632 196.973 139.896 196.973 138.936C196.973 137.901 196.802 137.107 196.461 136.552C196.12 135.987 195.634 135.704 195.005 135.704C194.642 135.704 194.269 135.8 193.885 135.992C193.512 136.184 193.165 136.456 192.845 136.808V141.192C193.421 141.672 194.082 141.912 194.829 141.912ZM203.889 143.096C202.684 143.096 201.761 142.733 201.121 142.008C200.492 141.283 200.177 140.232 200.177 138.856C200.177 137.469 200.497 136.403 201.137 135.656C201.777 134.909 202.694 134.536 203.889 134.536C205.062 134.536 205.958 134.909 206.577 135.656C207.206 136.392 207.521 137.459 207.521 138.856C207.521 140.243 207.212 141.299 206.593 142.024C205.985 142.739 205.084 143.096 203.889 143.096ZM203.841 141.944C204.62 141.944 205.196 141.693 205.569 141.192C205.942 140.68 206.129 139.891 206.129 138.824C206.129 137.757 205.942 136.968 205.569 136.456C205.196 135.944 204.62 135.688 203.841 135.688C203.062 135.688 202.492 135.944 202.129 136.456C201.766 136.957 201.585 137.747 201.585 138.824C201.585 139.891 201.766 140.68 202.129 141.192C202.492 141.693 203.062 141.944 203.841 141.944ZM212.342 143.096C211.713 143.096 211.164 142.915 210.694 142.552C210.225 142.189 209.862 141.683 209.606 141.032C209.361 140.381 209.238 139.645 209.238 138.824C209.238 137.917 209.372 137.144 209.638 136.504C209.916 135.853 210.3 135.363 210.79 135.032C211.281 134.701 211.846 134.536 212.486 134.536C212.956 134.536 213.366 134.605 213.718 134.744C214.081 134.883 214.433 135.085 214.774 135.352V131.32C214.774 131.085 214.988 130.968 215.414 130.968H215.478C215.905 130.968 216.118 131.085 216.118 131.32V140.632C216.118 141.336 216.15 141.843 216.214 142.152C216.278 142.451 216.31 142.616 216.31 142.648C216.31 142.776 216.209 142.872 216.006 142.936C215.804 142.989 215.617 143.016 215.446 143.016C215.297 143.016 215.185 142.936 215.11 142.776C215.046 142.605 214.993 142.429 214.95 142.248C214.918 142.067 214.897 141.949 214.886 141.896C214.118 142.696 213.27 143.096 212.342 143.096ZM212.614 141.928C212.977 141.928 213.345 141.832 213.718 141.64C214.102 141.448 214.454 141.176 214.774 140.824V136.44C214.198 135.96 213.542 135.72 212.806 135.72C212.092 135.72 211.553 135.976 211.19 136.488C210.828 137 210.646 137.736 210.646 138.696C210.646 139.731 210.817 140.531 211.158 141.096C211.5 141.651 211.985 141.928 212.614 141.928ZM219.469 146.328C219.042 146.328 218.829 146.211 218.829 145.976V137.064C218.829 136.36 218.797 135.859 218.733 135.56C218.669 135.251 218.637 135.08 218.637 135.048C218.637 134.92 218.738 134.829 218.941 134.776C219.144 134.712 219.33 134.68 219.501 134.68C219.65 134.68 219.757 134.76 219.821 134.92C219.896 135.069 219.949 135.229 219.981 135.4C220.024 135.571 220.05 135.683 220.061 135.736C220.829 134.936 221.677 134.536 222.605 134.536C223.256 134.536 223.81 134.723 224.269 135.096C224.738 135.459 225.096 135.965 225.341 136.616C225.586 137.256 225.709 137.992 225.709 138.824C225.709 139.731 225.57 140.504 225.293 141.144C225.026 141.784 224.648 142.269 224.157 142.6C223.666 142.931 223.101 143.096 222.461 143.096C221.992 143.096 221.576 143.027 221.213 142.888C220.861 142.749 220.514 142.547 220.173 142.28V145.976C220.173 146.211 219.96 146.328 219.533 146.328H219.469ZM222.157 141.912C222.861 141.912 223.394 141.656 223.757 141.144C224.12 140.632 224.301 139.896 224.301 138.936C224.301 137.901 224.13 137.107 223.789 136.552C223.448 135.987 222.962 135.704 222.333 135.704C221.97 135.704 221.597 135.8 221.213 135.992C220.84 136.184 220.493 136.456 220.173 136.808V141.192C220.749 141.672 221.41 141.912 222.157 141.912ZM228.721 133.144C228.252 133.144 228.017 133.016 228.017 132.76V131.864C228.017 131.608 228.273 131.48 228.785 131.48C229.254 131.48 229.489 131.608 229.489 131.864V132.76C229.489 133.016 229.233 133.144 228.721 133.144ZM228.721 143.032C228.294 143.032 228.081 142.915 228.081 142.68V134.952C228.081 134.717 228.294 134.6 228.721 134.6H228.785C229.212 134.6 229.425 134.717 229.425 134.952V142.68C229.425 142.915 229.212 143.032 228.785 143.032H228.721ZM233.963 143.144C233.505 143.144 233.078 143.091 232.683 142.984C232.299 142.867 231.99 142.728 231.755 142.568C231.531 142.408 231.419 142.264 231.419 142.136C231.419 142.029 231.483 141.869 231.611 141.656C231.75 141.443 231.873 141.336 231.979 141.336C232.001 141.336 232.102 141.395 232.283 141.512C232.465 141.629 232.689 141.736 232.955 141.832C233.233 141.928 233.537 141.976 233.867 141.976C234.913 141.976 235.435 141.544 235.435 140.68C235.435 140.317 235.318 140.029 235.083 139.816C234.849 139.603 234.433 139.411 233.835 139.24C232.993 138.995 232.411 138.691 232.091 138.328C231.771 137.955 231.611 137.459 231.611 136.84C231.611 136.392 231.723 135.992 231.947 135.64C232.182 135.288 232.497 135.016 232.891 134.824C233.297 134.621 233.755 134.52 234.267 134.52C234.811 134.52 235.297 134.589 235.723 134.728C236.161 134.867 236.379 135.027 236.379 135.208C236.379 135.347 236.315 135.528 236.187 135.752C236.07 135.965 235.963 136.072 235.867 136.072C235.835 136.061 235.691 135.992 235.435 135.864C235.19 135.725 234.849 135.656 234.411 135.656C234.006 135.656 233.665 135.747 233.387 135.928C233.121 136.109 232.987 136.355 232.987 136.664C232.987 137.027 233.083 137.315 233.275 137.528C233.467 137.741 233.787 137.917 234.235 138.056C234.918 138.269 235.435 138.483 235.787 138.696C236.15 138.899 236.406 139.155 236.555 139.464C236.715 139.763 236.795 140.157 236.795 140.648C236.795 141.117 236.667 141.544 236.411 141.928C236.166 142.301 235.825 142.6 235.387 142.824C234.961 143.037 234.486 143.144 233.963 143.144ZM242.061 143.096C240.855 143.096 239.933 142.733 239.293 142.008C238.663 141.283 238.349 140.232 238.349 138.856C238.349 137.469 238.669 136.403 239.309 135.656C239.949 134.909 240.866 134.536 242.061 134.536C243.234 134.536 244.13 134.909 244.749 135.656C245.378 136.392 245.693 137.459 245.693 138.856C245.693 140.243 245.383 141.299 244.765 142.024C244.157 142.739 243.255 143.096 242.061 143.096ZM242.013 141.944C242.791 141.944 243.367 141.693 243.741 141.192C244.114 140.68 244.301 139.891 244.301 138.824C244.301 137.757 244.114 136.968 243.741 136.456C243.367 135.944 242.791 135.688 242.013 135.688C241.234 135.688 240.663 135.944 240.301 136.456C239.938 136.957 239.757 137.747 239.757 138.824C239.757 139.891 239.938 140.68 240.301 141.192C240.663 141.693 241.234 141.944 242.013 141.944ZM250.178 143.032C249.805 143.032 249.591 142.947 249.538 142.776L246.962 135.08C246.93 134.984 246.914 134.915 246.914 134.872C246.914 134.691 247.143 134.6 247.602 134.6H247.682C248.055 134.6 248.269 134.685 248.322 134.856L249.954 139.96C250.061 140.301 250.247 140.968 250.514 141.96H250.578L250.69 141.48C250.807 140.872 250.93 140.376 251.058 139.992L252.706 134.856C252.759 134.685 252.978 134.6 253.362 134.6H253.41C253.805 134.6 254.002 134.691 254.002 134.872C254.002 134.925 253.986 135 253.954 135.096L251.378 142.776C251.325 142.947 251.111 143.032 250.738 143.032H250.178ZM257.864 143.096C257.042 143.096 256.381 142.893 255.88 142.488C255.378 142.083 255.128 141.485 255.128 140.696C255.128 139.853 255.378 139.224 255.88 138.808C256.392 138.381 257.016 138.109 257.752 137.992C258.488 137.864 259.384 137.795 260.44 137.784V137.032C260.44 136.637 260.301 136.317 260.024 136.072C259.746 135.816 259.298 135.688 258.68 135.688C258.21 135.688 257.8 135.747 257.448 135.864C257.096 135.971 256.802 136.083 256.568 136.2C256.333 136.307 256.205 136.36 256.184 136.36C256.077 136.36 255.954 136.253 255.816 136.04C255.688 135.827 255.624 135.667 255.624 135.56C255.624 135.421 255.762 135.272 256.04 135.112C256.328 134.952 256.706 134.819 257.176 134.712C257.645 134.595 258.13 134.536 258.632 134.536C259.624 134.536 260.397 134.76 260.952 135.208C261.506 135.645 261.784 136.259 261.784 137.048V140.632C261.784 141.336 261.816 141.843 261.88 142.152C261.944 142.451 261.976 142.616 261.976 142.648C261.976 142.776 261.874 142.872 261.672 142.936C261.469 142.989 261.282 143.016 261.112 143.016C260.962 143.016 260.85 142.936 260.776 142.776C260.712 142.605 260.658 142.429 260.616 142.248C260.584 142.067 260.562 141.949 260.552 141.896C259.826 142.696 258.93 143.096 257.864 143.096ZM257.928 141.928C258.45 141.928 258.898 141.832 259.272 141.64C259.656 141.448 260.045 141.176 260.44 140.824V138.936C259.64 138.947 258.984 138.979 258.472 139.032C257.97 139.085 257.528 139.235 257.144 139.48C256.76 139.725 256.568 140.104 256.568 140.616C256.568 141.043 256.68 141.368 256.904 141.592C257.138 141.816 257.48 141.928 257.928 141.928ZM265.079 143.032C264.652 143.032 264.439 142.915 264.439 142.68V137.064C264.439 136.36 264.407 135.859 264.343 135.56C264.279 135.251 264.247 135.08 264.247 135.048C264.247 134.92 264.348 134.829 264.551 134.776C264.753 134.712 264.94 134.68 265.111 134.68C265.26 134.68 265.367 134.76 265.431 134.92C265.505 135.069 265.559 135.229 265.591 135.4C265.633 135.571 265.66 135.683 265.671 135.736C266.012 135.363 266.401 135.069 266.839 134.856C267.276 134.643 267.719 134.536 268.167 134.536C268.977 134.536 269.612 134.765 270.071 135.224C270.54 135.683 270.775 136.317 270.775 137.128V142.68C270.775 142.915 270.561 143.032 270.135 143.032H270.071C269.644 143.032 269.431 142.915 269.431 142.68V137.256C269.431 136.765 269.287 136.387 268.999 136.12C268.721 135.843 268.321 135.704 267.799 135.704C267.436 135.704 267.073 135.805 266.711 136.008C266.359 136.211 266.049 136.483 265.783 136.824V142.68C265.783 142.915 265.569 143.032 265.143 143.032H265.079ZM274.225 133.144C273.755 133.144 273.521 133.016 273.521 132.76V131.864C273.521 131.608 273.777 131.48 274.289 131.48C274.758 131.48 274.993 131.608 274.993 131.864V132.76C274.993 133.016 274.737 133.144 274.225 133.144ZM272.865 146.392C272.086 146.392 271.697 146.232 271.697 145.912C271.697 145.805 271.729 145.651 271.793 145.448C271.857 145.256 271.937 145.16 272.033 145.16C272.086 145.16 272.161 145.171 272.257 145.192C272.363 145.224 272.518 145.24 272.721 145.24C272.987 145.24 273.195 145.155 273.345 144.984C273.505 144.813 273.585 144.504 273.585 144.056V134.952C273.585 134.717 273.798 134.6 274.225 134.6H274.289C274.715 134.6 274.929 134.717 274.929 134.952V144.184C274.929 145.005 274.715 145.576 274.289 145.896C273.873 146.227 273.398 146.392 272.865 146.392ZM281.191 143.096C279.857 143.096 278.871 142.749 278.231 142.056C277.591 141.363 277.271 140.301 277.271 138.872C277.271 137.453 277.585 136.376 278.215 135.64C278.844 134.904 279.772 134.536 280.999 134.536C282.087 134.536 282.908 134.893 283.463 135.608C284.017 136.312 284.295 137.347 284.295 138.712C284.295 138.808 284.231 138.941 284.103 139.112C283.975 139.283 283.863 139.368 283.767 139.368H278.711C278.775 140.253 279.004 140.904 279.399 141.32C279.793 141.736 280.385 141.944 281.175 141.944C281.623 141.944 282.007 141.891 282.327 141.784C282.657 141.667 282.929 141.555 283.143 141.448C283.356 141.331 283.479 141.272 283.511 141.272C283.617 141.272 283.735 141.379 283.863 141.592C284.001 141.805 284.071 141.965 284.071 142.072C284.071 142.2 283.937 142.349 283.671 142.52C283.404 142.68 283.047 142.819 282.599 142.936C282.161 143.043 281.692 143.096 281.191 143.096ZM282.871 138.216C282.871 136.531 282.231 135.688 280.951 135.688C279.575 135.688 278.828 136.531 278.711 138.216H282.871Z" fill="black"/>
</g>
<g filter="url(#filter3_d)">
<rect x="20" y="177" width="175" height="40" fill="white"/>
<path d="M43.904 203.096C43.264 203.096 42.672 203.021 42.128 202.872C41.584 202.723 41.1733 202.541 40.896 202.328C40.6933 202.179 40.592 202.045 40.592 201.928C40.592 201.8 40.6613 201.624 40.8 201.4C40.9493 201.176 41.0667 201.064 41.152 201.064C41.1947 201.064 41.3067 201.117 41.488 201.224C41.8187 201.405 42.1707 201.56 42.544 201.688C42.928 201.816 43.3813 201.88 43.904 201.88C44.5227 201.88 45.024 201.709 45.408 201.368C45.8027 201.016 46 200.557 46 199.992C46 199.597 45.8933 199.272 45.68 199.016C45.4667 198.749 45.2053 198.541 44.896 198.392C44.5973 198.232 44.16 198.04 43.584 197.816C42.9653 197.571 42.4747 197.347 42.112 197.144C41.7493 196.941 41.44 196.643 41.184 196.248C40.928 195.843 40.8 195.315 40.8 194.664C40.8 194.088 40.944 193.576 41.232 193.128C41.5307 192.68 41.9467 192.333 42.48 192.088C43.024 191.832 43.648 191.704 44.352 191.704C44.7147 191.704 45.12 191.757 45.568 191.864C46.016 191.96 46.3627 192.093 46.608 192.264C46.8213 192.392 46.928 192.531 46.928 192.68C46.928 192.797 46.8587 192.968 46.72 193.192C46.592 193.416 46.4907 193.528 46.416 193.528C46.3627 193.528 46.2827 193.501 46.176 193.448C46.08 193.395 46.016 193.357 45.984 193.336C45.4507 193.059 44.896 192.92 44.32 192.92C43.7013 192.92 43.2 193.08 42.816 193.4C42.4427 193.72 42.256 194.163 42.256 194.728C42.256 195.091 42.3467 195.384 42.528 195.608C42.72 195.832 42.9333 196.003 43.168 196.12C43.4133 196.227 43.8347 196.397 44.432 196.632C45.072 196.877 45.5947 197.117 46 197.352C46.4053 197.576 46.7467 197.907 47.024 198.344C47.312 198.771 47.456 199.32 47.456 199.992C47.456 200.952 47.136 201.709 46.496 202.264C45.856 202.819 44.992 203.096 43.904 203.096ZM50.016 206.328C49.5893 206.328 49.376 206.211 49.376 205.976V197.064C49.376 196.36 49.344 195.859 49.28 195.56C49.216 195.251 49.184 195.08 49.184 195.048C49.184 194.92 49.2853 194.829 49.488 194.776C49.6907 194.712 49.8773 194.68 50.048 194.68C50.1973 194.68 50.304 194.76 50.368 194.92C50.4427 195.069 50.496 195.229 50.528 195.4C50.5707 195.571 50.5973 195.683 50.608 195.736C51.376 194.936 52.224 194.536 53.152 194.536C53.8027 194.536 54.3573 194.723 54.816 195.096C55.2853 195.459 55.6427 195.965 55.888 196.616C56.1333 197.256 56.256 197.992 56.256 198.824C56.256 199.731 56.1173 200.504 55.84 201.144C55.5733 201.784 55.1947 202.269 54.704 202.6C54.2133 202.931 53.648 203.096 53.008 203.096C52.5387 203.096 52.1227 203.027 51.76 202.888C51.408 202.749 51.0613 202.547 50.72 202.28V205.976C50.72 206.211 50.5067 206.328 50.08 206.328H50.016ZM52.704 201.912C53.408 201.912 53.9413 201.656 54.304 201.144C54.6667 200.632 54.848 199.896 54.848 198.936C54.848 197.901 54.6773 197.107 54.336 196.552C53.9947 195.987 53.5093 195.704 52.88 195.704C52.5173 195.704 52.144 195.8 51.76 195.992C51.3867 196.184 51.04 196.456 50.72 196.808V201.192C51.296 201.672 51.9573 201.912 52.704 201.912ZM60.5479 203.096C60.0145 203.096 59.5345 202.936 59.1079 202.616C58.6919 202.285 58.4839 201.709 58.4839 200.888V191.32C58.4839 191.085 58.6972 190.968 59.1239 190.968H59.1879C59.6145 190.968 59.8279 191.085 59.8279 191.32V200.76C59.8279 201.208 59.9025 201.517 60.0519 201.688C60.2119 201.859 60.4252 201.944 60.6919 201.944C60.8945 201.944 61.0439 201.933 61.1399 201.912C61.2465 201.88 61.3265 201.864 61.3799 201.864C61.4759 201.864 61.5559 201.965 61.6199 202.168C61.6839 202.36 61.7159 202.509 61.7159 202.616C61.7159 202.936 61.3265 203.096 60.5479 203.096ZM66.7219 203.096C65.3885 203.096 64.4019 202.749 63.7619 202.056C63.1219 201.363 62.8019 200.301 62.8019 198.872C62.8019 197.453 63.1165 196.376 63.7459 195.64C64.3752 194.904 65.3032 194.536 66.5299 194.536C67.6179 194.536 68.4392 194.893 68.9939 195.608C69.5485 196.312 69.8259 197.347 69.8259 198.712C69.8259 198.808 69.7619 198.941 69.6339 199.112C69.5059 199.283 69.3939 199.368 69.2979 199.368H64.2419C64.3059 200.253 64.5352 200.904 64.9299 201.32C65.3245 201.736 65.9165 201.944 66.7059 201.944C67.1539 201.944 67.5379 201.891 67.8579 201.784C68.1885 201.667 68.4605 201.555 68.6739 201.448C68.8872 201.331 69.0099 201.272 69.0419 201.272C69.1485 201.272 69.2659 201.379 69.3939 201.592C69.5325 201.805 69.6019 201.965 69.6019 202.072C69.6019 202.2 69.4685 202.349 69.2019 202.52C68.9352 202.68 68.5779 202.819 68.1299 202.936C67.6925 203.043 67.2232 203.096 66.7219 203.096ZM68.4019 198.216C68.4019 196.531 67.7619 195.688 66.4819 195.688C65.1059 195.688 64.3592 196.531 64.2419 198.216H68.4019ZM74.3229 203.096C73.7895 203.096 73.3095 202.936 72.8829 202.616C72.4669 202.285 72.2589 201.709 72.2589 200.888V195.784H71.4589C71.3522 195.784 71.2722 195.747 71.2189 195.672C71.1655 195.597 71.1389 195.475 71.1389 195.304V195.112C71.1389 194.941 71.1655 194.819 71.2189 194.744C71.2722 194.669 71.3522 194.632 71.4589 194.632H72.2589L72.4509 192.952C72.4829 192.717 72.6535 192.6 72.9629 192.6H73.1229C73.4429 192.6 73.6029 192.717 73.6029 192.952V194.632H74.9469C75.0642 194.632 75.1442 194.669 75.1869 194.744C75.2402 194.819 75.2669 194.941 75.2669 195.112V195.304C75.2669 195.475 75.2402 195.597 75.1869 195.672C75.1442 195.747 75.0642 195.784 74.9469 195.784H73.6029V200.76C73.6029 201.208 73.6775 201.517 73.8269 201.688C73.9869 201.859 74.2002 201.944 74.4669 201.944C74.6695 201.944 74.8189 201.933 74.9149 201.912C75.0215 201.88 75.1015 201.864 75.1549 201.864C75.2509 201.864 75.3309 201.965 75.3949 202.168C75.4589 202.36 75.4909 202.509 75.4909 202.616C75.4909 202.936 75.1015 203.096 74.3229 203.096ZM78.0316 203.032C77.605 203.032 77.3916 202.915 77.3916 202.68V197.064C77.3916 196.36 77.3596 195.859 77.2956 195.56C77.2316 195.251 77.1996 195.08 77.1996 195.048C77.1996 194.92 77.301 194.829 77.5036 194.776C77.7063 194.712 77.893 194.68 78.0636 194.68C78.213 194.68 78.3196 194.76 78.3836 194.92C78.4583 195.069 78.5116 195.229 78.5436 195.4C78.5863 195.571 78.613 195.683 78.6236 195.736C78.965 195.363 79.3543 195.069 79.7916 194.856C80.229 194.643 80.6716 194.536 81.1196 194.536C81.9303 194.536 82.565 194.765 83.0236 195.224C83.493 195.683 83.7276 196.317 83.7276 197.128V202.68C83.7276 202.915 83.5143 203.032 83.0876 203.032H83.0236C82.597 203.032 82.3836 202.915 82.3836 202.68V197.256C82.3836 196.765 82.2396 196.387 81.9516 196.12C81.6743 195.843 81.2743 195.704 80.7516 195.704C80.389 195.704 80.0263 195.805 79.6636 196.008C79.3116 196.211 79.0023 196.483 78.7356 196.824V202.68C78.7356 202.915 78.5223 203.032 78.0956 203.032H78.0316ZM87.0179 193.144C86.5485 193.144 86.3139 193.016 86.3139 192.76V191.864C86.3139 191.608 86.5699 191.48 87.0819 191.48C87.5512 191.48 87.7859 191.608 87.7859 191.864V192.76C87.7859 193.016 87.5299 193.144 87.0179 193.144ZM87.0179 203.032C86.5912 203.032 86.3779 202.915 86.3779 202.68V194.952C86.3779 194.717 86.5912 194.6 87.0179 194.6H87.0819C87.5085 194.6 87.7219 194.717 87.7219 194.952V202.68C87.7219 202.915 87.5085 203.032 87.0819 203.032H87.0179ZM95.016 206.328C94.5893 206.328 94.376 206.211 94.376 205.976V197.064C94.376 196.36 94.344 195.859 94.28 195.56C94.216 195.251 94.184 195.08 94.184 195.048C94.184 194.92 94.2853 194.829 94.488 194.776C94.6907 194.712 94.8773 194.68 95.048 194.68C95.1973 194.68 95.304 194.76 95.368 194.92C95.4427 195.069 95.496 195.229 95.528 195.4C95.5707 195.571 95.5973 195.683 95.608 195.736C96.376 194.936 97.224 194.536 98.152 194.536C98.8027 194.536 99.3573 194.723 99.816 195.096C100.285 195.459 100.643 195.965 100.888 196.616C101.133 197.256 101.256 197.992 101.256 198.824C101.256 199.731 101.117 200.504 100.84 201.144C100.573 201.784 100.195 202.269 99.704 202.6C99.2133 202.931 98.648 203.096 98.008 203.096C97.5387 203.096 97.1227 203.027 96.76 202.888C96.408 202.749 96.0613 202.547 95.72 202.28V205.976C95.72 206.211 95.5067 206.328 95.08 206.328H95.016ZM97.704 201.912C98.408 201.912 98.9413 201.656 99.304 201.144C99.6667 200.632 99.848 199.896 99.848 198.936C99.848 197.901 99.6773 197.107 99.336 196.552C98.9947 195.987 98.5093 195.704 97.88 195.704C97.5173 195.704 97.144 195.8 96.76 195.992C96.3867 196.184 96.04 196.456 95.72 196.808V201.192C96.296 201.672 96.9573 201.912 97.704 201.912ZM105.548 203.096C105.015 203.096 104.535 202.936 104.108 202.616C103.692 202.285 103.484 201.709 103.484 200.888V191.32C103.484 191.085 103.697 190.968 104.124 190.968H104.188C104.615 190.968 104.828 191.085 104.828 191.32V200.76C104.828 201.208 104.903 201.517 105.052 201.688C105.212 201.859 105.425 201.944 105.692 201.944C105.895 201.944 106.044 201.933 106.14 201.912C106.247 201.88 106.327 201.864 106.38 201.864C106.476 201.864 106.556 201.965 106.62 202.168C106.684 202.36 106.716 202.509 106.716 202.616C106.716 202.936 106.327 203.096 105.548 203.096ZM110.442 203.096C109.621 203.096 108.959 202.893 108.458 202.488C107.957 202.083 107.706 201.485 107.706 200.696C107.706 199.853 107.957 199.224 108.458 198.808C108.97 198.381 109.594 198.109 110.33 197.992C111.066 197.864 111.962 197.795 113.018 197.784V197.032C113.018 196.637 112.879 196.317 112.602 196.072C112.325 195.816 111.877 195.688 111.258 195.688C110.789 195.688 110.378 195.747 110.026 195.864C109.674 195.971 109.381 196.083 109.146 196.2C108.911 196.307 108.783 196.36 108.762 196.36C108.655 196.36 108.533 196.253 108.394 196.04C108.266 195.827 108.202 195.667 108.202 195.56C108.202 195.421 108.341 195.272 108.618 195.112C108.906 194.952 109.285 194.819 109.754 194.712C110.223 194.595 110.709 194.536 111.21 194.536C112.202 194.536 112.975 194.76 113.53 195.208C114.085 195.645 114.362 196.259 114.362 197.048V200.632C114.362 201.336 114.394 201.843 114.458 202.152C114.522 202.451 114.554 202.616 114.554 202.648C114.554 202.776 114.453 202.872 114.25 202.936C114.047 202.989 113.861 203.016 113.69 203.016C113.541 203.016 113.429 202.936 113.354 202.776C113.29 202.605 113.237 202.429 113.194 202.248C113.162 202.067 113.141 201.949 113.13 201.896C112.405 202.696 111.509 203.096 110.442 203.096ZM110.506 201.928C111.029 201.928 111.477 201.832 111.85 201.64C112.234 201.448 112.623 201.176 113.018 200.824V198.936C112.218 198.947 111.562 198.979 111.05 199.032C110.549 199.085 110.106 199.235 109.722 199.48C109.338 199.725 109.146 200.104 109.146 200.616C109.146 201.043 109.258 201.368 109.482 201.592C109.717 201.816 110.058 201.928 110.506 201.928ZM120.409 203.096C119.086 203.096 118.099 202.755 117.449 202.072C116.798 201.389 116.473 200.291 116.473 198.776C116.473 197.251 116.835 196.163 117.561 195.512C118.286 194.861 119.187 194.536 120.265 194.536C120.883 194.536 121.438 194.611 121.929 194.76C122.419 194.909 122.665 195.08 122.665 195.272C122.665 195.411 122.601 195.592 122.473 195.816C122.355 196.029 122.249 196.136 122.153 196.136C122.131 196.136 122.105 196.131 122.073 196.12C122.051 196.099 122.019 196.083 121.977 196.072C121.401 195.816 120.819 195.688 120.233 195.688C118.686 195.688 117.913 196.707 117.913 198.744C117.913 199.875 118.099 200.691 118.473 201.192C118.857 201.693 119.497 201.944 120.393 201.944C121.043 201.944 121.646 201.805 122.201 201.528L122.377 201.464C122.483 201.464 122.601 201.571 122.729 201.784C122.857 201.987 122.921 202.152 122.921 202.28C122.921 202.408 122.803 202.536 122.569 202.664C122.345 202.781 122.041 202.883 121.657 202.968C121.273 203.053 120.857 203.096 120.409 203.096ZM119.865 193.688C119.534 193.688 119.289 193.571 119.129 193.336L118.233 191.928C118.169 191.811 118.137 191.715 118.137 191.64C118.137 191.491 118.259 191.416 118.505 191.416H118.537C118.75 191.416 118.931 191.485 119.081 191.624L120.057 192.808L121.065 191.624C121.214 191.485 121.39 191.416 121.593 191.416H121.625C121.881 191.416 122.009 191.496 122.009 191.656C122.009 191.741 121.977 191.832 121.913 191.928L121.001 193.336C120.841 193.571 120.595 193.688 120.265 193.688H119.865ZM128.206 203.096C126.873 203.096 125.886 202.749 125.246 202.056C124.606 201.363 124.286 200.301 124.286 198.872C124.286 197.453 124.601 196.376 125.23 195.64C125.86 194.904 126.788 194.536 128.014 194.536C129.102 194.536 129.924 194.893 130.478 195.608C131.033 196.312 131.31 197.347 131.31 198.712C131.31 198.808 131.246 198.941 131.118 199.112C130.99 199.283 130.878 199.368 130.782 199.368H125.726C125.79 200.253 126.02 200.904 126.414 201.32C126.809 201.736 127.401 201.944 128.19 201.944C128.638 201.944 129.022 201.891 129.342 201.784C129.673 201.667 129.945 201.555 130.158 201.448C130.372 201.331 130.494 201.272 130.526 201.272C130.633 201.272 130.75 201.379 130.878 201.592C131.017 201.805 131.086 201.965 131.086 202.072C131.086 202.2 130.953 202.349 130.686 202.52C130.42 202.68 130.062 202.819 129.614 202.936C129.177 203.043 128.708 203.096 128.206 203.096ZM129.886 198.216C129.886 196.531 129.246 195.688 127.966 195.688C126.59 195.688 125.844 196.531 125.726 198.216H129.886ZM135.631 203.032C135.258 203.032 135.045 202.947 134.991 202.776L132.415 195.08C132.383 194.984 132.367 194.915 132.367 194.872C132.367 194.691 132.597 194.6 133.055 194.6H133.135C133.509 194.6 133.722 194.685 133.775 194.856L135.407 199.96C135.514 200.301 135.701 200.968 135.967 201.96H136.031L136.143 201.48C136.261 200.872 136.383 200.376 136.511 199.992L138.159 194.856C138.213 194.685 138.431 194.6 138.815 194.6H138.863C139.258 194.6 139.455 194.691 139.455 194.872C139.455 194.925 139.439 195 139.407 195.096L136.831 202.776C136.778 202.947 136.565 203.032 136.191 203.032H135.631ZM143.317 203.096C142.496 203.096 141.834 202.893 141.333 202.488C140.832 202.083 140.581 201.485 140.581 200.696C140.581 199.853 140.832 199.224 141.333 198.808C141.845 198.381 142.469 198.109 143.205 197.992C143.941 197.864 144.837 197.795 145.893 197.784V197.032C145.893 196.637 145.754 196.317 145.477 196.072C145.2 195.816 144.752 195.688 144.133 195.688C143.664 195.688 143.253 195.747 142.901 195.864C142.549 195.971 142.256 196.083 142.021 196.2C141.786 196.307 141.658 196.36 141.637 196.36C141.53 196.36 141.408 196.253 141.269 196.04C141.141 195.827 141.077 195.667 141.077 195.56C141.077 195.421 141.216 195.272 141.493 195.112C141.781 194.952 142.16 194.819 142.629 194.712C143.098 194.595 143.584 194.536 144.085 194.536C145.077 194.536 145.85 194.76 146.405 195.208C146.96 195.645 147.237 196.259 147.237 197.048V200.632C147.237 201.336 147.269 201.843 147.333 202.152C147.397 202.451 147.429 202.616 147.429 202.648C147.429 202.776 147.328 202.872 147.125 202.936C146.922 202.989 146.736 203.016 146.565 203.016C146.416 203.016 146.304 202.936 146.229 202.776C146.165 202.605 146.112 202.429 146.069 202.248C146.037 202.067 146.016 201.949 146.005 201.896C145.28 202.696 144.384 203.096 143.317 203.096ZM143.381 201.928C143.904 201.928 144.352 201.832 144.725 201.64C145.109 201.448 145.498 201.176 145.893 200.824V198.936C145.093 198.947 144.437 198.979 143.925 199.032C143.424 199.085 142.981 199.235 142.597 199.48C142.213 199.725 142.021 200.104 142.021 200.616C142.021 201.043 142.133 201.368 142.357 201.592C142.592 201.816 142.933 201.928 143.381 201.928ZM150.532 203.032C150.105 203.032 149.892 202.915 149.892 202.68V197.064C149.892 196.36 149.86 195.859 149.796 195.56C149.732 195.251 149.7 195.08 149.7 195.048C149.7 194.92 149.801 194.829 150.004 194.776C150.206 194.712 150.393 194.68 150.564 194.68C150.713 194.68 150.82 194.76 150.884 194.92C150.958 195.069 151.012 195.229 151.044 195.4C151.086 195.571 151.113 195.683 151.124 195.736C151.465 195.363 151.854 195.069 152.292 194.856C152.729 194.643 153.172 194.536 153.62 194.536C154.43 194.536 155.065 194.765 155.524 195.224C155.993 195.683 156.228 196.317 156.228 197.128V202.68C156.228 202.915 156.014 203.032 155.588 203.032H155.524C155.097 203.032 154.884 202.915 154.884 202.68V197.256C154.884 196.765 154.74 196.387 154.452 196.12C154.174 195.843 153.774 195.704 153.252 195.704C152.889 195.704 152.526 195.805 152.164 196.008C151.812 196.211 151.502 196.483 151.236 196.824V202.68C151.236 202.915 151.022 203.032 150.596 203.032H150.532ZM159.678 193.144C159.209 193.144 158.974 193.016 158.974 192.76V191.864C158.974 191.608 159.23 191.48 159.742 191.48C160.211 191.48 160.446 191.608 160.446 191.864V192.76C160.446 193.016 160.19 193.144 159.678 193.144ZM158.318 206.392C157.539 206.392 157.15 206.232 157.15 205.912C157.15 205.805 157.182 205.651 157.246 205.448C157.31 205.256 157.39 205.16 157.486 205.16C157.539 205.16 157.614 205.171 157.71 205.192C157.817 205.224 157.971 205.24 158.174 205.24C158.441 205.24 158.649 205.155 158.798 204.984C158.958 204.813 159.038 204.504 159.038 204.056V194.952C159.038 194.717 159.251 194.6 159.678 194.6H159.742C160.169 194.6 160.382 194.717 160.382 194.952V204.184C160.382 205.005 160.169 205.576 159.742 205.896C159.326 206.227 158.851 206.392 158.318 206.392ZM166.644 203.096C165.31 203.096 164.324 202.749 163.684 202.056C163.044 201.363 162.724 200.301 162.724 198.872C162.724 197.453 163.038 196.376 163.668 195.64C164.297 194.904 165.225 194.536 166.452 194.536C167.54 194.536 168.361 194.893 168.916 195.608C169.47 196.312 169.748 197.347 169.748 198.712C169.748 198.808 169.684 198.941 169.556 199.112C169.428 199.283 169.316 199.368 169.22 199.368H164.164C164.228 200.253 164.457 200.904 164.852 201.32C165.246 201.736 165.838 201.944 166.628 201.944C167.076 201.944 167.46 201.891 167.78 201.784C168.11 201.667 168.382 201.555 168.596 201.448C168.809 201.331 168.932 201.272 168.964 201.272C169.07 201.272 169.188 201.379 169.316 201.592C169.454 201.805 169.524 201.965 169.524 202.072C169.524 202.2 169.39 202.349 169.124 202.52C168.857 202.68 168.5 202.819 168.052 202.936C167.614 203.043 167.145 203.096 166.644 203.096ZM168.324 198.216C168.324 196.531 167.684 195.688 166.404 195.688C165.028 195.688 164.281 196.531 164.164 198.216H168.324Z" fill="black"/>
</g>
<rect x="338" y="180" width="171" height="36" stroke="#DADADA" stroke-width="4" stroke-dasharray="8 8"/>
<g filter="url(#filter4_d)">
<rect x="371" y="199" width="171" height="40" fill="white"/>
<path d="M393 225.032C392.573 225.032 392.36 224.915 392.36 224.68V214.28C392.36 214.109 392.397 213.987 392.472 213.912C392.547 213.837 392.669 213.8 392.84 213.8H396.088C397.027 213.8 397.853 214.024 398.568 214.472C399.293 214.92 399.656 215.741 399.656 216.936C399.656 217.821 399.448 218.509 399.032 219C398.616 219.491 398.152 219.821 397.64 219.992C397.128 220.152 396.664 220.232 396.248 220.232H393.768V224.68C393.768 224.915 393.555 225.032 393.128 225.032H393ZM396.264 219.016C396.723 219.016 397.16 218.861 397.576 218.552C397.992 218.243 398.2 217.704 398.2 216.936C398.2 216.221 397.987 215.725 397.56 215.448C397.133 215.16 396.627 215.016 396.04 215.016H393.768V219.016H396.264ZM402.205 225.032C401.778 225.032 401.565 224.915 401.565 224.68V219.064C401.565 218.36 401.533 217.859 401.469 217.56C401.405 217.251 401.373 217.08 401.373 217.048C401.373 216.92 401.474 216.829 401.677 216.776C401.88 216.712 402.066 216.68 402.237 216.68C402.386 216.68 402.493 216.76 402.557 216.92C402.632 217.069 402.685 217.229 402.717 217.4C402.76 217.571 402.786 217.683 402.797 217.736C403.362 216.936 403.981 216.536 404.653 216.536C404.952 216.536 405.181 216.595 405.341 216.712C405.501 216.829 405.581 216.979 405.581 217.16C405.581 217.341 405.549 217.533 405.485 217.736C405.421 217.928 405.346 218.024 405.261 218.024C405.208 218.024 405.101 217.997 404.941 217.944C404.792 217.88 404.605 217.848 404.381 217.848C404.136 217.848 403.901 217.923 403.677 218.072C403.464 218.211 403.282 218.365 403.133 218.536C402.984 218.707 402.909 218.803 402.909 218.824V224.68C402.909 224.915 402.696 225.032 402.269 225.032H402.205ZM410.576 225.096C409.371 225.096 408.448 224.733 407.808 224.008C407.179 223.283 406.864 222.232 406.864 220.856C406.864 219.469 407.184 218.403 407.824 217.656C408.464 216.909 409.382 216.536 410.576 216.536C411.75 216.536 412.646 216.909 413.264 217.656C413.894 218.392 414.208 219.459 414.208 220.856C414.208 222.243 413.899 223.299 413.28 224.024C412.672 224.739 411.771 225.096 410.576 225.096ZM410.528 223.944C411.307 223.944 411.883 223.693 412.256 223.192C412.63 222.68 412.816 221.891 412.816 220.824C412.816 219.757 412.63 218.968 412.256 218.456C411.883 217.944 411.307 217.688 410.528 217.688C409.75 217.688 409.179 217.944 408.816 218.456C408.454 218.957 408.272 219.747 408.272 220.824C408.272 221.891 408.454 222.68 408.816 223.192C409.179 223.693 409.75 223.944 410.528 223.944ZM419.03 225.096C418.4 225.096 417.851 224.915 417.382 224.552C416.912 224.189 416.55 223.683 416.294 223.032C416.048 222.381 415.926 221.645 415.926 220.824C415.926 219.917 416.059 219.144 416.326 218.504C416.603 217.853 416.987 217.363 417.478 217.032C417.968 216.701 418.534 216.536 419.174 216.536C419.643 216.536 420.054 216.605 420.406 216.744C420.768 216.883 421.12 217.085 421.462 217.352V213.32C421.462 213.085 421.675 212.968 422.102 212.968H422.166C422.592 212.968 422.806 213.085 422.806 213.32V222.632C422.806 223.336 422.838 223.843 422.902 224.152C422.966 224.451 422.998 224.616 422.998 224.648C422.998 224.776 422.896 224.872 422.694 224.936C422.491 224.989 422.304 225.016 422.134 225.016C421.984 225.016 421.872 224.936 421.798 224.776C421.734 224.605 421.68 224.429 421.638 224.248C421.606 224.067 421.584 223.949 421.574 223.896C420.806 224.696 419.958 225.096 419.03 225.096ZM419.302 223.928C419.664 223.928 420.032 223.832 420.406 223.64C420.79 223.448 421.142 223.176 421.462 222.824V218.44C420.886 217.96 420.23 217.72 419.494 217.72C418.779 217.72 418.24 217.976 417.878 218.488C417.515 219 417.334 219.736 417.334 220.696C417.334 221.731 417.504 222.531 417.846 223.096C418.187 223.651 418.672 223.928 419.302 223.928ZM427.949 225.096C427.138 225.096 426.498 224.867 426.029 224.408C425.57 223.949 425.341 223.315 425.341 222.504V216.952C425.341 216.717 425.554 216.6 425.981 216.6H426.045C426.471 216.6 426.685 216.717 426.685 216.952V222.376C426.685 222.867 426.823 223.251 427.101 223.528C427.389 223.795 427.794 223.928 428.317 223.928C428.679 223.928 429.037 223.827 429.389 223.624C429.751 223.421 430.066 223.149 430.333 222.808V216.952C430.333 216.717 430.546 216.6 430.973 216.6H431.037C431.463 216.6 431.677 216.717 431.677 216.952V222.632C431.677 223.336 431.709 223.843 431.773 224.152C431.837 224.451 431.869 224.616 431.869 224.648C431.869 224.776 431.767 224.872 431.565 224.936C431.362 224.989 431.175 225.016 431.005 225.016C430.855 225.016 430.743 224.936 430.669 224.776C430.605 224.605 430.551 224.429 430.509 224.248C430.477 224.067 430.455 223.949 430.445 223.896C430.103 224.269 429.714 224.563 429.277 224.776C428.839 224.989 428.397 225.096 427.949 225.096ZM440.647 224.552C440.743 224.659 440.791 224.744 440.791 224.808C440.791 224.893 440.738 224.952 440.631 224.984C440.524 225.016 440.343 225.032 440.087 225.032H440.023C439.799 225.032 439.618 225.021 439.479 225C439.34 224.968 439.234 224.909 439.159 224.824L435.959 221.032H435.895V224.68C435.895 224.915 435.682 225.032 435.255 225.032H435.191C434.764 225.032 434.551 224.915 434.551 224.68V213.32C434.551 213.085 434.764 212.968 435.191 212.968H435.255C435.682 212.968 435.895 213.085 435.895 213.32V220.472H435.959L439.015 216.824C439.132 216.675 439.415 216.6 439.863 216.6H439.927C440.108 216.6 440.247 216.621 440.343 216.664C440.439 216.696 440.487 216.744 440.487 216.808C440.487 216.904 440.434 217.011 440.327 217.128L437.351 220.648L440.647 224.552ZM445.167 225.096C444.633 225.096 444.153 224.936 443.727 224.616C443.311 224.285 443.103 223.709 443.103 222.888V217.784H442.303C442.196 217.784 442.116 217.747 442.063 217.672C442.009 217.597 441.983 217.475 441.983 217.304V217.112C441.983 216.941 442.009 216.819 442.063 216.744C442.116 216.669 442.196 216.632 442.303 216.632H443.103L443.295 214.952C443.327 214.717 443.497 214.6 443.807 214.6H443.967C444.287 214.6 444.447 214.717 444.447 214.952V216.632H445.791C445.908 216.632 445.988 216.669 446.031 216.744C446.084 216.819 446.111 216.941 446.111 217.112V217.304C446.111 217.475 446.084 217.597 446.031 217.672C445.988 217.747 445.908 217.784 445.791 217.784H444.447V222.76C444.447 223.208 444.521 223.517 444.671 223.688C444.831 223.859 445.044 223.944 445.311 223.944C445.513 223.944 445.663 223.933 445.759 223.912C445.865 223.88 445.945 223.864 445.999 223.864C446.095 223.864 446.175 223.965 446.239 224.168C446.303 224.36 446.335 224.509 446.335 224.616C446.335 224.936 445.945 225.096 445.167 225.096ZM448.875 225.032C448.449 225.032 448.235 224.915 448.235 224.68V219.064C448.235 218.36 448.203 217.859 448.139 217.56C448.075 217.251 448.043 217.08 448.043 217.048C448.043 216.92 448.145 216.829 448.347 216.776C448.55 216.712 448.737 216.68 448.907 216.68C449.057 216.68 449.163 216.76 449.227 216.92C449.302 217.069 449.355 217.229 449.387 217.4C449.43 217.571 449.457 217.683 449.467 217.736C449.809 217.363 450.198 217.069 450.635 216.856C451.073 216.643 451.515 216.536 451.963 216.536C452.774 216.536 453.409 216.765 453.867 217.224C454.337 217.683 454.571 218.317 454.571 219.128V224.68C454.571 224.915 454.358 225.032 453.931 225.032H453.867C453.441 225.032 453.227 224.915 453.227 224.68V219.256C453.227 218.765 453.083 218.387 452.795 218.12C452.518 217.843 452.118 217.704 451.595 217.704C451.233 217.704 450.87 217.805 450.507 218.008C450.155 218.211 449.846 218.483 449.579 218.824V224.68C449.579 224.915 449.366 225.032 448.939 225.032H448.875ZM457.862 215.144C457.392 215.144 457.158 215.016 457.158 214.76V213.864C457.158 213.608 457.414 213.48 457.926 213.48C458.395 213.48 458.63 213.608 458.63 213.864V214.76C458.63 215.016 458.374 215.144 457.862 215.144ZM457.862 225.032C457.435 225.032 457.222 224.915 457.222 224.68V216.952C457.222 216.717 457.435 216.6 457.862 216.6H457.926C458.352 216.6 458.566 216.717 458.566 216.952V224.68C458.566 224.915 458.352 225.032 457.926 225.032H457.862ZM471.444 224.552C471.54 224.659 471.588 224.744 471.588 224.808C471.588 224.893 471.534 224.952 471.428 224.984C471.321 225.016 471.14 225.032 470.884 225.032H470.82C470.596 225.032 470.414 225.021 470.276 225C470.137 224.968 470.03 224.909 469.956 224.824L466.756 221.032H466.692V224.68C466.692 224.915 466.478 225.032 466.052 225.032H465.988C465.561 225.032 465.348 224.915 465.348 224.68V213.32C465.348 213.085 465.561 212.968 465.988 212.968H466.052C466.478 212.968 466.692 213.085 466.692 213.32V220.472H466.756L469.812 216.824C469.929 216.675 470.212 216.6 470.66 216.6H470.724C470.905 216.6 471.044 216.621 471.14 216.664C471.236 216.696 471.284 216.744 471.284 216.808C471.284 216.904 471.23 217.011 471.124 217.128L468.148 220.648L471.444 224.552ZM475.708 225.096C474.886 225.096 474.225 224.893 473.724 224.488C473.222 224.083 472.972 223.485 472.972 222.696C472.972 221.853 473.222 221.224 473.724 220.808C474.236 220.381 474.86 220.109 475.596 219.992C476.332 219.864 477.228 219.795 478.284 219.784V219.032C478.284 218.637 478.145 218.317 477.868 218.072C477.59 217.816 477.142 217.688 476.524 217.688C476.054 217.688 475.644 217.747 475.292 217.864C474.94 217.971 474.646 218.083 474.412 218.2C474.177 218.307 474.049 218.36 474.028 218.36C473.921 218.36 473.798 218.253 473.66 218.04C473.532 217.827 473.468 217.667 473.468 217.56C473.468 217.421 473.606 217.272 473.884 217.112C474.172 216.952 474.55 216.819 475.02 216.712C475.489 216.595 475.974 216.536 476.476 216.536C477.468 216.536 478.241 216.76 478.796 217.208C479.35 217.645 479.628 218.259 479.628 219.048V222.632C479.628 223.336 479.66 223.843 479.724 224.152C479.788 224.451 479.82 224.616 479.82 224.648C479.82 224.776 479.718 224.872 479.516 224.936C479.313 224.989 479.126 225.016 478.956 225.016C478.806 225.016 478.694 224.936 478.62 224.776C478.556 224.605 478.502 224.429 478.46 224.248C478.428 224.067 478.406 223.949 478.396 223.896C477.67 224.696 476.774 225.096 475.708 225.096ZM475.772 223.928C476.294 223.928 476.742 223.832 477.116 223.64C477.5 223.448 477.889 223.176 478.284 222.824V220.936C477.484 220.947 476.828 220.979 476.316 221.032C475.814 221.085 475.372 221.235 474.988 221.48C474.604 221.725 474.412 222.104 474.412 222.616C474.412 223.043 474.524 223.368 474.748 223.592C474.982 223.816 475.324 223.928 475.772 223.928ZM484.682 225.096C484.149 225.096 483.669 224.936 483.242 224.616C482.826 224.285 482.618 223.709 482.618 222.888V217.784H481.818C481.712 217.784 481.632 217.747 481.578 217.672C481.525 217.597 481.498 217.475 481.498 217.304V217.112C481.498 216.941 481.525 216.819 481.578 216.744C481.632 216.669 481.712 216.632 481.818 216.632H482.618L482.81 214.952C482.842 214.717 483.013 214.6 483.322 214.6H483.482C483.802 214.6 483.962 214.717 483.962 214.952V216.632H485.306C485.424 216.632 485.504 216.669 485.546 216.744C485.6 216.819 485.626 216.941 485.626 217.112V217.304C485.626 217.475 485.6 217.597 485.546 217.672C485.504 217.747 485.424 217.784 485.306 217.784H483.962V222.76C483.962 223.208 484.037 223.517 484.186 223.688C484.346 223.859 484.56 223.944 484.826 223.944C485.029 223.944 485.178 223.933 485.274 223.912C485.381 223.88 485.461 223.864 485.514 223.864C485.61 223.864 485.69 223.965 485.754 224.168C485.818 224.36 485.85 224.509 485.85 224.616C485.85 224.936 485.461 225.096 484.682 225.096ZM489.895 225.096C489.074 225.096 488.412 224.893 487.911 224.488C487.41 224.083 487.159 223.485 487.159 222.696C487.159 221.853 487.41 221.224 487.911 220.808C488.423 220.381 489.047 220.109 489.783 219.992C490.519 219.864 491.415 219.795 492.471 219.784V219.032C492.471 218.637 492.332 218.317 492.055 218.072C491.778 217.816 491.33 217.688 490.711 217.688C490.242 217.688 489.831 217.747 489.479 217.864C489.127 217.971 488.834 218.083 488.599 218.2C488.364 218.307 488.236 218.36 488.215 218.36C488.108 218.36 487.986 218.253 487.847 218.04C487.719 217.827 487.655 217.667 487.655 217.56C487.655 217.421 487.794 217.272 488.071 217.112C488.359 216.952 488.738 216.819 489.207 216.712C489.676 216.595 490.162 216.536 490.663 216.536C491.655 216.536 492.428 216.76 492.983 217.208C493.538 217.645 493.815 218.259 493.815 219.048V222.632C493.815 223.336 493.847 223.843 493.911 224.152C493.975 224.451 494.007 224.616 494.007 224.648C494.007 224.776 493.906 224.872 493.703 224.936C493.5 224.989 493.314 225.016 493.143 225.016C492.994 225.016 492.882 224.936 492.807 224.776C492.743 224.605 492.69 224.429 492.647 224.248C492.615 224.067 492.594 223.949 492.583 223.896C491.858 224.696 490.962 225.096 489.895 225.096ZM489.959 223.928C490.482 223.928 490.93 223.832 491.303 223.64C491.687 223.448 492.076 223.176 492.471 222.824V220.936C491.671 220.947 491.015 220.979 490.503 221.032C490.002 221.085 489.559 221.235 489.175 221.48C488.791 221.725 488.599 222.104 488.599 222.616C488.599 223.043 488.711 223.368 488.935 223.592C489.17 223.816 489.511 223.928 489.959 223.928ZM498.47 225.096C497.936 225.096 497.456 224.936 497.03 224.616C496.614 224.285 496.406 223.709 496.406 222.888V213.32C496.406 213.085 496.619 212.968 497.046 212.968H497.11C497.536 212.968 497.75 213.085 497.75 213.32V222.76C497.75 223.208 497.824 223.517 497.974 223.688C498.134 223.859 498.347 223.944 498.614 223.944C498.816 223.944 498.966 223.933 499.062 223.912C499.168 223.88 499.248 223.864 499.302 223.864C499.398 223.864 499.478 223.965 499.542 224.168C499.606 224.36 499.638 224.509 499.638 224.616C499.638 224.936 499.248 225.096 498.47 225.096ZM504.436 225.096C503.23 225.096 502.308 224.733 501.668 224.008C501.038 223.283 500.724 222.232 500.724 220.856C500.724 219.469 501.044 218.403 501.684 217.656C502.324 216.909 503.241 216.536 504.436 216.536C505.609 216.536 506.505 216.909 507.124 217.656C507.753 218.392 508.068 219.459 508.068 220.856C508.068 222.243 507.758 223.299 507.14 224.024C506.532 224.739 505.63 225.096 504.436 225.096ZM504.388 223.944C505.166 223.944 505.742 223.693 506.116 223.192C506.489 222.68 506.676 221.891 506.676 220.824C506.676 219.757 506.489 218.968 506.116 218.456C505.742 217.944 505.166 217.688 504.388 217.688C503.609 217.688 503.038 217.944 502.676 218.456C502.313 218.957 502.132 219.747 502.132 220.824C502.132 221.891 502.313 222.68 502.676 223.192C503.038 223.693 503.609 223.944 504.388 223.944ZM513.001 228.392C511.977 228.392 511.166 228.232 510.569 227.912C509.982 227.592 509.689 227.091 509.689 226.408C509.689 225.939 509.822 225.533 510.089 225.192C510.356 224.851 510.708 224.589 511.145 224.408L511.161 224.376C510.734 224.035 510.521 223.597 510.521 223.064C510.521 222.371 510.82 221.816 511.417 221.4C510.969 221.176 510.628 220.867 510.393 220.472C510.158 220.077 510.041 219.635 510.041 219.144C510.041 218.387 510.318 217.763 510.873 217.272C511.428 216.781 512.201 216.536 513.193 216.536C513.534 216.536 513.849 216.568 514.137 216.632H517.049C517.166 216.632 517.246 216.669 517.289 216.744C517.342 216.819 517.369 216.941 517.369 217.112V217.304C517.369 217.475 517.342 217.597 517.289 217.672C517.246 217.747 517.166 217.784 517.049 217.784C516.612 217.784 516.238 217.768 515.929 217.736L515.913 217.768C516.19 218.163 516.329 218.621 516.329 219.144C516.329 219.912 516.052 220.541 515.497 221.032C514.953 221.523 514.18 221.768 513.177 221.768C512.676 221.768 512.297 221.859 512.041 222.04C511.785 222.211 511.657 222.488 511.657 222.872C511.657 223.149 511.742 223.363 511.913 223.512C512.094 223.651 512.318 223.752 512.585 223.816C512.852 223.88 513.225 223.939 513.705 223.992C513.94 224.013 514.116 224.035 514.233 224.056C515.001 224.152 515.593 224.333 516.009 224.6C516.436 224.856 516.649 225.315 516.649 225.976C516.649 226.755 516.34 227.352 515.721 227.768C515.102 228.184 514.196 228.392 513.001 228.392ZM513.177 220.696C513.764 220.696 514.228 220.579 514.569 220.344C514.921 220.099 515.097 219.704 515.097 219.16C515.097 218.125 514.457 217.608 513.177 217.608C511.908 217.608 511.273 218.125 511.273 219.16C511.273 220.184 511.908 220.696 513.177 220.696ZM513.177 227.304C513.924 227.304 514.473 227.208 514.825 227.016C515.188 226.824 515.369 226.525 515.369 226.12C515.369 225.747 515.193 225.496 514.841 225.368C514.489 225.24 513.961 225.139 513.257 225.064C512.617 225 512.18 224.931 511.945 224.856C511.241 225.155 510.889 225.587 510.889 226.152C510.889 226.92 511.652 227.304 513.177 227.304Z" fill="black"/>
</g>
<g filter="url(#filter5_d)">
<circle cx="383" cy="57" r="39" fill="white"/>
</g>
<path d="M409 57C409 71.3594 397.359 83 383 83C368.641 83 357 71.3594 357 57C357 42.6406 368.641 31 383 31C397.359 31 409 42.6406 409 57Z" fill="#5DC2EF"/>
<path fill-rule="evenodd" clip-rule="evenodd" d="M383 31C397.359 31 409 42.6406 409 57C409 71.3594 397.359 83 383 83C368.641 83 357 71.3594 357 57C357 42.6406 368.641 31 383 31ZM361.882 54.4175C362.572 55.2995 364.488 56.4279 367.42 57.3487C368.574 57.7112 369.838 58.0299 371.195 58.3005C371.186 57.8695 371.182 57.4359 371.182 57C371.182 49.1347 372.613 42.0318 375.093 37.2455C368.024 40.0773 362.829 46.5929 361.882 54.4175ZM371.487 63.1711C367.692 62.5113 364.437 61.5128 361.971 60.2282C363.118 67.7644 368.22 74.0009 375.093 76.7545C373.282 73.26 372.031 68.5305 371.487 63.1711ZM376.332 63.801C378.452 63.992 380.686 64.0909 383 64.0909C385.277 64.0909 387.52 63.9618 389.678 63.7225C388.612 72.2259 385.664 78.2727 383 78.2727C380.344 78.2727 377.406 72.263 376.332 63.801ZM390.059 58.9016C387.814 59.1923 385.43 59.3636 383 59.3636C380.532 59.3636 378.163 59.2414 375.945 59.0096C375.921 58.3486 375.909 57.6783 375.909 57C375.909 45.144 379.676 35.7273 383 35.7273C386.324 35.7273 390.091 45.144 390.091 57C390.091 57.6414 390.08 58.2756 390.059 58.9016ZM394.533 62.9726C394 68.4138 392.74 73.2169 390.907 76.7545C397.902 73.9523 403.062 67.5432 404.086 59.8279C401.581 61.1313 398.28 62.2212 394.533 62.9726ZM404.104 54.3058C402.992 55.5542 399.483 57.0372 394.809 58.0734C394.815 57.7173 394.818 57.3594 394.818 57C394.818 49.1347 393.387 42.0318 390.907 37.2454C397.942 40.0639 403.121 46.5309 404.104 54.3058Z" fill="#2B2B6F"/>
<g filter="url(#filter6_d)">
<circle cx="204" cy="57" r="39" fill="white"/>
</g>
<path d="M193.8 57.0002C193.8 60.9766 190.577 64.2002 186.6 64.2002C182.624 64.2002 179.4 60.9766 179.4 57.0002C179.4 53.0237 182.624 49.8002 186.6 49.8002C190.577 49.8002 193.8 53.0237 193.8 57.0002Z" fill="#5DC2EF"/>
<path d="M222.601 42.6C222.601 46.5765 219.378 49.8 215.401 49.8C211.425 49.8 208.201 46.5765 208.201 42.6C208.201 38.6236 211.425 35.4 215.401 35.4C219.378 35.4 222.601 38.6236 222.601 42.6Z" fill="#5DC2EF"/>
<path d="M222.601 71.4C222.601 75.3764 219.378 78.6 215.401 78.6C211.425 78.6 208.201 75.3764 208.201 71.4C208.201 67.4235 211.425 64.2 215.401 64.2C219.378 64.2 222.601 67.4235 222.601 71.4Z" fill="#5DC2EF"/>
<path fill-rule="evenodd" clip-rule="evenodd" d="M205.8 42.6C205.8 43.2898 205.873 43.9626 206.011 44.6112L193.841 50.6964C192.081 48.6765 189.489 47.4 186.6 47.4C181.298 47.4 177 51.6981 177 57C177 62.3019 181.298 66.6 186.6 66.6C189.489 66.6 192.081 65.3235 193.841 63.3036L206.011 69.3888C205.873 70.0374 205.8 70.7102 205.8 71.4C205.8 76.7019 210.098 81 215.4 81C220.702 81 225 76.7019 225 71.4C225 66.0981 220.702 61.8 215.4 61.8C212.511 61.8 209.919 63.0765 208.159 65.0964L195.989 59.0112C196.127 58.3626 196.2 57.6898 196.2 57C196.2 56.3102 196.127 55.6374 195.989 54.9888L208.159 48.9036C209.919 50.9235 212.511 52.2 215.4 52.2C220.702 52.2 225 47.9019 225 42.6C225 37.2981 220.702 33 215.4 33C210.098 33 205.8 37.2981 205.8 42.6ZM191.4 57C191.4 59.651 189.251 61.8 186.6 61.8C183.949 61.8 181.8 59.651 181.8 57C181.8 54.349 183.949 52.2 186.6 52.2C189.251 52.2 191.4 54.349 191.4 57ZM215.4 47.4C218.051 47.4 220.2 45.251 220.2 42.6C220.2 39.949 218.051 37.8 215.4 37.8C212.749 37.8 210.6 39.949 210.6 42.6C210.6 45.251 212.749 47.4 215.4 47.4ZM220.2 71.4C220.2 74.051 218.051 76.2 215.4 76.2C212.749 76.2 210.6 74.051 210.6 71.4C210.6 68.749 212.749 66.6 215.4 66.6C218.051 66.6 220.2 68.749 220.2 71.4Z" fill="#2B2B6F"/>
<g filter="url(#filter7_d)">
<circle cx="383" cy="292" r="39" fill="white"/>
</g>
<path fill-rule="evenodd" clip-rule="evenodd" d="M397.4 276.82H402.2C404.851 276.82 407 278.969 407 281.62V310.419C407 313.07 404.851 315.219 402.2 315.219H363.8C361.149 315.219 359 313.07 359 310.419V308.8L402.2 310.419V281.62H397.4V276.82Z" fill="#5DC2EF"/>
<path d="M395.001 276.82H402.201C404.852 276.82 407.001 278.969 407.001 281.62V310.419C407.001 313.07 404.852 315.219 402.201 315.219H366.201L393.801 302.02L395.001 276.82Z" fill="#5DC2EF"/>
<path fill-rule="evenodd" clip-rule="evenodd" d="M391.281 268.183C393.83 267.467 396.487 268.917 397.215 271.42C397.338 271.841 397.4 272.277 397.4 272.714V300.805C397.4 302.91 395.979 304.759 393.918 305.337L365.119 313.417C362.57 314.132 359.913 312.683 359.185 310.18C359.062 309.759 359 309.323 359 308.885V280.794C359 278.69 360.421 276.841 362.481 276.262L391.281 268.183ZM363.8 280.794V308.885L392.6 300.805V272.714L363.8 280.794ZM387.8 286.087C387.8 287.388 386.725 288.443 385.4 288.443C384.074 288.443 383 287.388 383 286.087C383 284.785 384.074 283.73 385.4 283.73C386.725 283.73 387.8 284.785 387.8 286.087Z" fill="#2B2B6F"/>
<g filter="url(#filter8_d)">
<circle cx="204" cy="292" r="39" fill="white"/>
</g>
<path d="M187 270.429H221V302H187V270.429Z" fill="#5DC2EF"/>
<path fill-rule="evenodd" clip-rule="evenodd" d="M191.857 268H216.143C218.825 268 221 270.175 221 272.857V311.714C221 314.397 218.825 316.571 216.143 316.571H191.857C189.175 316.571 187 314.397 187 311.714V272.857C187 270.175 189.175 268 191.857 268ZM191.857 272.857V311.714H216.143V272.857H191.857ZM206.429 306.857C206.429 308.198 205.341 309.286 204 309.286C202.659 309.286 201.571 308.198 201.571 306.857C201.571 305.516 202.659 304.429 204 304.429C205.341 304.429 206.429 305.516 206.429 306.857Z" fill="#2B2B6F"/>
<defs>
<filter id="filter0_d" x="195" y="159" width="141" height="80" filterUnits="userSpaceOnUse" color-interpolation-filters="sRGB">
<feFlood flood-opacity="0" result="BackgroundImageFix"/>
<feColorMatrix in="SourceAlpha" type="matrix" values="0 0 0 0 0 0 0 0 0 0 0 0 0 0 0 0 0 0 127 0"/>
<feOffset dy="2"/>
<feGaussianBlur stdDeviation="10"/>
<feColorMatrix type="matrix" values="0 0 0 0 0 0 0 0 0 0 0 0 0 0 0 0 0 0 0.2 0"/>
<feBlend mode="normal" in2="BackgroundImageFix" result="effect1_dropShadow"/>
<feBlend mode="normal" in="SourceGraphic" in2="effect1_dropShadow" result="shape"/>
</filter>
<filter id="filter1_d" x="309" y="99" width="142" height="80" filterUnits="userSpaceOnUse" color-interpolation-filters="sRGB">
<feFlood flood-opacity="0" result="BackgroundImageFix"/>
<feColorMatrix in="SourceAlpha" type="matrix" values="0 0 0 0 0 0 0 0 0 0 0 0 0 0 0 0 0 0 127 0"/>
<feOffset dy="2"/>
<feGaussianBlur stdDeviation="10"/>
<feColorMatrix type="matrix" values="0 0 0 0 0 0 0 0 0 0 0 0 0 0 0 0 0 0 0.2 0"/>
<feBlend mode="normal" in2="BackgroundImageFix" result="effect1_dropShadow"/>
<feBlend mode="normal" in="SourceGraphic" in2="effect1_dropShadow" result="shape"/>
</filter>
<filter id="filter2_d" x="81" y="99" width="248" height="80" filterUnits="userSpaceOnUse" color-interpolation-filters="sRGB">
<feFlood flood-opacity="0" result="BackgroundImageFix"/>
<feColorMatrix in="SourceAlpha" type="matrix" values="0 0 0 0 0 0 0 0 0 0 0 0 0 0 0 0 0 0 127 0"/>
<feOffset dy="2"/>
<feGaussianBlur stdDeviation="10"/>
<feColorMatrix type="matrix" values="0 0 0 0 0 0 0 0 0 0 0 0 0 0 0 0 0 0 0.2 0"/>
<feBlend mode="normal" in2="BackgroundImageFix" result="effect1_dropShadow"/>
<feBlend mode="normal" in="SourceGraphic" in2="effect1_dropShadow" result="shape"/>
</filter>
<filter id="filter3_d" x="0" y="159" width="215" height="80" filterUnits="userSpaceOnUse" color-interpolation-filters="sRGB">
<feFlood flood-opacity="0" result="BackgroundImageFix"/>
<feColorMatrix in="SourceAlpha" type="matrix" values="0 0 0 0 0 0 0 0 0 0 0 0 0 0 0 0 0 0 127 0"/>
<feOffset dy="2"/>
<feGaussianBlur stdDeviation="10"/>
<feColorMatrix type="matrix" values="0 0 0 0 0 0 0 0 0 0 0 0 0 0 0 0 0 0 0.2 0"/>
<feBlend mode="normal" in2="BackgroundImageFix" result="effect1_dropShadow"/>
<feBlend mode="normal" in="SourceGraphic" in2="effect1_dropShadow" result="shape"/>
</filter>
<filter id="filter4_d" x="351" y="181" width="211" height="80" filterUnits="userSpaceOnUse" color-interpolation-filters="sRGB">
<feFlood flood-opacity="0" result="BackgroundImageFix"/>
<feColorMatrix in="SourceAlpha" type="matrix" values="0 0 0 0 0 0 0 0 0 0 0 0 0 0 0 0 0 0 127 0"/>
<feOffset dy="2"/>
<feGaussianBlur stdDeviation="10"/>
<feColorMatrix type="matrix" values="0 0 0 0 0 0 0 0 0 0 0 0 0 0 0 0 0 0 0.2 0"/>
<feBlend mode="normal" in2="BackgroundImageFix" result="effect1_dropShadow"/>
<feBlend mode="normal" in="SourceGraphic" in2="effect1_dropShadow" result="shape"/>
</filter>
<filter id="filter5_d" x="324" y="0" width="118" height="118" filterUnits="userSpaceOnUse" color-interpolation-filters="sRGB">
<feFlood flood-opacity="0" result="BackgroundImageFix"/>
<feColorMatrix in="SourceAlpha" type="matrix" values="0 0 0 0 0 0 0 0 0 0 0 0 0 0 0 0 0 0 127 0"/>
<feOffset dy="2"/>
<feGaussianBlur stdDeviation="10"/>
<feColorMatrix type="matrix" values="0 0 0 0 0 0 0 0 0 0 0 0 0 0 0 0 0 0 0.2 0"/>
<feBlend mode="normal" in2="BackgroundImageFix" result="effect1_dropShadow"/>
<feBlend mode="normal" in="SourceGraphic" in2="effect1_dropShadow" result="shape"/>
</filter>
<filter id="filter6_d" x="145" y="0" width="118" height="118" filterUnits="userSpaceOnUse" color-interpolation-filters="sRGB">
<feFlood flood-opacity="0" result="BackgroundImageFix"/>
<feColorMatrix in="SourceAlpha" type="matrix" values="0 0 0 0 0 0 0 0 0 0 0 0 0 0 0 0 0 0 127 0"/>
<feOffset dy="2"/>
<feGaussianBlur stdDeviation="10"/>
<feColorMatrix type="matrix" values="0 0 0 0 0 0 0 0 0 0 0 0 0 0 0 0 0 0 0.2 0"/>
<feBlend mode="normal" in2="BackgroundImageFix" result="effect1_dropShadow"/>
<feBlend mode="normal" in="SourceGraphic" in2="effect1_dropShadow" result="shape"/>
</filter>
<filter id="filter7_d" x="324" y="235" width="118" height="118" filterUnits="userSpaceOnUse" color-interpolation-filters="sRGB">
<feFlood flood-opacity="0" result="BackgroundImageFix"/>
<feColorMatrix in="SourceAlpha" type="matrix" values="0 0 0 0 0 0 0 0 0 0 0 0 0 0 0 0 0 0 127 0"/>
<feOffset dy="2"/>
<feGaussianBlur stdDeviation="10"/>
<feColorMatrix type="matrix" values="0 0 0 0 0 0 0 0 0 0 0 0 0 0 0 0 0 0 0.2 0"/>
<feBlend mode="normal" in2="BackgroundImageFix" result="effect1_dropShadow"/>
<feBlend mode="normal" in="SourceGraphic" in2="effect1_dropShadow" result="shape"/>
</filter>
<filter id="filter8_d" x="145" y="235" width="118" height="118" filterUnits="userSpaceOnUse" color-interpolation-filters="sRGB">
<feFlood flood-opacity="0" result="BackgroundImageFix"/>
<feColorMatrix in="SourceAlpha" type="matrix" values="0 0 0 0 0 0 0 0 0 0 0 0 0 0 0 0 0 0 127 0"/>
<feOffset dy="2"/>
<feGaussianBlur stdDeviation="10"/>
<feColorMatrix type="matrix" values="0 0 0 0 0 0 0 0 0 0 0 0 0 0 0 0 0 0 0.2 0"/>
<feBlend mode="normal" in2="BackgroundImageFix" result="effect1_dropShadow"/>
<feBlend mode="normal" in="SourceGraphic" in2="effect1_dropShadow" result="shape"/>
</filter>
</defs>
</svg>
