<svg width="46" height="46" viewBox="0 0 46 46" fill="none" xmlns="http://www.w3.org/2000/svg">
  <rect width="46" height="46" rx="8" fill="#5932EA" />
  <path
    d="M20 33H26C31 33 33 31 33 26V20C33 15 31 13 26 13H20C15 13 13 15 13 20V26C13 31 15 33 20 33Z"
    stroke="white" stroke-width="1.5" stroke-linecap="round" stroke-linejoin="round" />
  <path
    d="M27.2799 24.6101C26.1499 25.7401 24.5299 26.0901 23.0999 25.6401L20.51 28.2201C20.33 28.4101 19.96 28.5301 19.69 28.4901L18.49 28.3301C18.09 28.2801 17.73 27.9001 17.67 27.5101L17.51 26.3101C17.47 26.0501 17.6 25.6801 17.78 25.4901L20.36 22.9101C19.92 21.4801 20.26 19.8601 21.3899 18.7301C23.0099 17.1101 25.6499 17.1101 27.2799 18.7301C28.8999 20.3401 28.8999 22.9801 27.2799 24.6101Z"
    stroke="white" stroke-width="1.5" stroke-miterlimit="10" stroke-linecap="round"
    stroke-linejoin="round" />
  <path d="M21.45 27.2799L20.6 26.4199" stroke="white" stroke-width="1.5" stroke-miterlimit="10"
    stroke-linecap="round" stroke-linejoin="round" />
  <path d="M24.3945 21.7002H24.4035" stroke="white" stroke-width="2" stroke-linecap="round"
    stroke-linejoin="round" />
</svg>