<?xml version="1.0" encoding="utf-8"?>
<!-- Generator: Adobe Illustrator 19.2.1, SVG Export Plug-In . SVG Version: 6.00 Build 0)  -->
<svg version="1.1" id="Layer_1" xmlns="http://www.w3.org/2000/svg" xmlns:xlink="http://www.w3.org/1999/xlink" x="0px" y="0px"
	 viewBox="0 0 280.1 592.2" style="enable-background:new 0 0 280.1 592.2;" xml:space="preserve">
<style type="text/css">
	.st0{fill:url(#SVGID_1_);}
	.st1{fill:url(#SVGID_2_);}
	.st2{fill:url(#SVGID_3_);}
	.st3{fill:url(#SVGID_4_);}
	.st4{fill:url(#SVGID_5_);}
	.st5{fill:url(#SVGID_6_);}
	.st6{fill:url(#SVGID_7_);}
	.st7{fill:url(#SVGID_8_);}
	.st8{fill:url(#SVGID_9_);}
	.st9{fill:url(#SVGID_10_);}
	.st10{fill:#5DC2EF;}
	.st11{fill:url(#SVGID_11_);}
	.st12{fill:url(#SVGID_12_);}
	.st13{fill:url(#SVGID_13_);}
	.st14{fill:url(#SVGID_14_);}
	.st15{fill:url(#SVGID_15_);}
	.st16{fill:#2B2B6F;}
	.st17{fill:url(#SVGID_16_);}
	.st18{fill:url(#SVGID_17_);}
</style>
<linearGradient id="SVGID_1_" gradientUnits="userSpaceOnUse" x1="-3.7277" y1="268.7774" x2="269.2722" y2="409.7774">
	<stop  offset="0" style="stop-color:#254A99"/>
	<stop  offset="1" style="stop-color:#2B2B6F"/>
</linearGradient>
<rect x="3" y="276.4" class="st0" width="131" height="59.4"/>
<linearGradient id="SVGID_2_" gradientUnits="userSpaceOnUse" x1="-26.2006" y1="312.2887" x2="246.7994" y2="453.2887">
	<stop  offset="0" style="stop-color:#254A99"/>
	<stop  offset="1" style="stop-color:#2B2B6F"/>
</linearGradient>
<rect x="74.6" y="350" class="st1" width="59.4" height="59.4"/>
<linearGradient id="SVGID_3_" gradientUnits="userSpaceOnUse" x1="-41.2701" y1="341.4659" x2="231.7299" y2="482.4659">
	<stop  offset="0" style="stop-color:#254A99"/>
	<stop  offset="1" style="stop-color:#2B2B6F"/>
</linearGradient>
<rect x="3" y="350" class="st2" width="59.4" height="59.4"/>
<linearGradient id="SVGID_4_" gradientUnits="userSpaceOnUse" x1="-11.1311" y1="283.1116" x2="261.8689" y2="424.1116">
	<stop  offset="0" style="stop-color:#254A99"/>
	<stop  offset="1" style="stop-color:#2B2B6F"/>
</linearGradient>
<rect x="146.1" y="350" class="st3" width="59.4" height="59.4"/>
<linearGradient id="SVGID_5_" gradientUnits="userSpaceOnUse" x1="18.8765" y1="225.0117" x2="291.8765" y2="366.0117">
	<stop  offset="0" style="stop-color:#254A99"/>
	<stop  offset="1" style="stop-color:#2B2B6F"/>
</linearGradient>
<rect x="146.1" y="276.4" class="st4" width="59.4" height="59.4"/>
<linearGradient id="SVGID_6_" gradientUnits="userSpaceOnUse" x1="3.9384" y1="253.9345" x2="276.9384" y2="394.9345">
	<stop  offset="0" style="stop-color:#254A99"/>
	<stop  offset="1" style="stop-color:#2B2B6F"/>
</linearGradient>
<rect x="217.7" y="350" class="st5" width="59.4" height="59.4"/>
<linearGradient id="SVGID_7_" gradientUnits="userSpaceOnUse" x1="33.946" y1="195.8346" x2="306.946" y2="336.8346">
	<stop  offset="0" style="stop-color:#254A99"/>
	<stop  offset="1" style="stop-color:#2B2B6F"/>
</linearGradient>
<rect x="217.7" y="276.4" class="st6" width="59.4" height="59.4"/>
<g>
	<linearGradient id="SVGID_8_" gradientUnits="userSpaceOnUse" x1="247.4014" y1="62.5016" x2="247.4014" y2="20.4686">
		<stop  offset="0" style="stop-color:#5DC2EF"/>
		<stop  offset="1" style="stop-color:#254A99"/>
	</linearGradient>
	<rect x="244.4" y="25.7" class="st7" width="6" height="232"/>
	<g>
		<linearGradient id="SVGID_9_" gradientUnits="userSpaceOnUse" x1="247.4021" y1="62.5016" x2="247.4021" y2="20.4686">
			<stop  offset="0" style="stop-color:#5DC2EF"/>
			<stop  offset="1" style="stop-color:#254A99"/>
		</linearGradient>
		<polygon class="st8" points="238.4,255 247.4,270.5 256.4,255 		"/>
	</g>
</g>
<g>
	<linearGradient id="SVGID_10_" gradientUnits="userSpaceOnUse" x1="105.333" y1="49.46" x2="105.333" y2="21.8338">
		<stop  offset="0" style="stop-color:#5DC2EF"/>
		<stop  offset="1" style="stop-color:#254A99"/>
	</linearGradient>
	<rect x="102.3" y="25.7" class="st9" width="6" height="32.5"/>
	<g>
		<polygon class="st10" points="96.4,55.6 105.3,71.1 114.3,55.6 		"/>
	</g>
</g>
<g>
	<linearGradient id="SVGID_11_" gradientUnits="userSpaceOnUse" x1="130.5743" y1="254.4212" x2="104.5743" y2="228.0879">
		<stop  offset="0" style="stop-color:#5DC2EF"/>
		<stop  offset="1" style="stop-color:#254A99"/>
	</linearGradient>
	<path class="st11" d="M130.7,260c-16.9-5.8-28.3-21.8-28.3-39.7h6c0,15.3,9.7,29,24.2,34L130.7,260z"/>
	<g>
		<polygon class="st10" points="127.4,265.1 144.4,259.3 130.9,247.5 		"/>
	</g>
</g>
<g>
	
		<linearGradient id="SVGID_12_" gradientUnits="userSpaceOnUse" x1="-987.3447" y1="254.4212" x2="-1013.3447" y2="228.0879" gradientTransform="matrix(-1 0 0 1 -907.253 0)">
		<stop  offset="0" style="stop-color:#5DC2EF"/>
		<stop  offset="1" style="stop-color:#254A99"/>
	</linearGradient>
	<path class="st12" d="M80,260c16.9-5.8,28.3-21.8,28.3-39.7h-6c0,15.3-9.7,29-24.2,34L80,260z"/>
	<g>
		<polygon class="st10" points="83.3,265.1 66.3,259.3 79.8,247.5 		"/>
	</g>
</g>
<g>
	<linearGradient id="SVGID_13_" gradientUnits="userSpaceOnUse" x1="8.7722" y1="526.2745" x2="285.7722" y2="609.2745">
		<stop  offset="0" style="stop-color:#254A99"/>
		<stop  offset="1" style="stop-color:#2B2B6F"/>
	</linearGradient>
	<rect x="26" y="510.6" class="st13" width="59.4" height="59.4"/>
	<linearGradient id="SVGID_14_" gradientUnits="userSpaceOnUse" x1="15.7231" y1="503.0769" x2="292.7231" y2="586.0769">
		<stop  offset="0" style="stop-color:#254A99"/>
		<stop  offset="1" style="stop-color:#2B2B6F"/>
	</linearGradient>
	<rect x="110.3" y="510.6" class="st14" width="59.4" height="59.4"/>
	<linearGradient id="SVGID_15_" gradientUnits="userSpaceOnUse" x1="22.674" y1="479.8794" x2="299.674" y2="562.8793">
		<stop  offset="0" style="stop-color:#254A99"/>
		<stop  offset="1" style="stop-color:#2B2B6F"/>
	</linearGradient>
	<rect x="194.7" y="510.6" class="st15" width="59.4" height="59.4"/>
</g>
<rect x="3" y="79.4" class="st10" width="204.7" height="133"/>
<path class="st10" d="M105.3,29.3c-8.1,0-14.7-6.6-14.7-14.7S97.2,0,105.3,0c8.1,0,14.7,6.6,14.7,14.7S113.4,29.3,105.3,29.3z
	 M105.3,6c-4.8,0-8.7,3.9-8.7,8.7s3.9,8.7,8.7,8.7c4.8,0,8.7-3.9,8.7-8.7S110.1,6,105.3,6z"/>
<g>
	<rect x="102.3" y="220.3" class="st10" width="6" height="37.3"/>
	<g>
		<polygon class="st10" points="96.4,255 105.3,270.5 114.3,255 		"/>
	</g>
</g>
<path class="st10" d="M247.4,29.3c-8.1,0-14.7-6.6-14.7-14.7S239.3,0,247.4,0c8.1,0,14.7,6.6,14.7,14.7S255.5,29.3,247.4,29.3z
	 M247.4,6c-4.8,0-8.7,3.9-8.7,8.7s3.9,8.7,8.7,8.7c4.8,0,8.7-3.9,8.7-8.7S252.2,6,247.4,6z"/>
<path class="st16" d="M-0.1,471.5v121h280v-121H-0.1z M268.3,477.7c2.3,0,4.2,1.9,4.2,4.2s-1.9,4.2-4.2,4.2c-2.3,0-4.2-1.9-4.2-4.2
	S266,477.7,268.3,477.7z M255.3,477.7c2.3,0,4.2,1.9,4.2,4.2s-1.9,4.2-4.2,4.2c-2.3,0-4.2-1.9-4.2-4.2S253,477.7,255.3,477.7z
	 M242.3,477.7c2.3,0,4.2,1.9,4.2,4.2s-1.9,4.2-4.2,4.2c-2.3,0-4.2-1.9-4.2-4.2S240,477.7,242.3,477.7z M273.9,586.5H5.9v-95h268
	V586.5z"/>
<g>
	<polygon class="st10" points="58.7,527.4 52.7,527.4 52.7,456.8 101.3,456.8 101.3,416.5 107.3,416.5 107.3,462.8 58.7,462.8 	"/>
	<g>
		<polygon class="st10" points="46.7,524.8 55.7,540.3 64.7,524.8 		"/>
	</g>
</g>
<polygon class="st10" points="227.9,524.5 227.9,441.5 178.9,441.5 178.9,416.5 172.9,416.5 172.9,447.5 221.9,447.5 221.9,524.5 
	215.5,524.5 224.4,540 233.4,524.5 "/>
<linearGradient id="SVGID_16_" gradientUnits="userSpaceOnUse" x1="104.2793" y1="427.016" x2="104.2793" y2="452.4433">
	<stop  offset="0" style="stop-color:#5DC2EF"/>
	<stop  offset="0.5" style="stop-color:#254A99"/>
	<stop  offset="1" style="stop-color:#5DC2EF"/>
</linearGradient>
<rect x="101.3" y="426.3" class="st17" width="6" height="26.3"/>
<linearGradient id="SVGID_17_" gradientUnits="userSpaceOnUse" x1="89.4527" y1="-579.3691" x2="89.4527" y2="-600.5645">
	<stop  offset="0" style="stop-color:#5DC2EF"/>
	<stop  offset="1" style="stop-color:#254A99"/>
</linearGradient>
<polygon class="st18" points="142.9,524.5 142.9,436.5 35.9,436.5 35.9,416.5 29.9,416.5 29.9,442.5 136.9,442.5 136.9,524.5 
	131.1,524.5 140.1,540 149,524.5 "/>
</svg>
