<svg id="Layer_1" data-name="Layer 1" xmlns="http://www.w3.org/2000/svg" viewBox="0 0 47 47"><defs><style>.cls-1{fill:#fff;}</style></defs><title>icon</title><path class="cls-1" d="M23.4397,46.8794A23.4397,23.4397,0,1,1,46.87995,23.4397,23.46657,23.46657,0,0,1,23.4397,46.8794Zm0-45.29427A21.85458,21.85458,0,1,0,45.29483,23.4397,21.879,21.879,0,0,0,23.4397,1.58512Z"/><path class="cls-1" d="M26.39384,37.03373H20.48611a0.79254,0.79254,0,0,1-.79256-0.79256V23.24736H16.54707a0.79254,0.79254,0,0,1-.79256-0.79256V18.51631a0.79254,0.79254,0,0,1,.79256-0.79256h3.14648v-1.4989c0-4.03134,2.19087-6.34381,6.01-6.34381l4.631,0.01326a0.79279,0.79279,0,0,1,.79035.79256v4.54092a0.79254,0.79254,0,0,1-.79256.79256H27.55947c-0.24761,0-.37307.07406-0.37307,0.48305v1.22035H31a0.79319,0.79319,0,0,1,.78648.88873L31.30562,22.551a0.79285,0.79285,0,0,1-.78648.69639H27.1864V36.24117A0.79254,0.79254,0,0,1,26.39384,37.03373ZM21.27867,35.4486h4.32261V22.4548a0.79254,0.79254,0,0,1,.79256-0.79256h3.42393l0.2874-2.35337H26.39384a0.79254,0.79254,0,0,1-.79256-0.79256V16.5034a1.90727,1.90727,0,0,1,1.95819-2.06818h1.9803v-2.958l-3.83845-.01105c-2.93425,0-4.42265,1.6006-4.42265,4.75868v2.29146a0.79254,0.79254,0,0,1-.79256.79256H17.33963v2.35337h3.14648a0.79254,0.79254,0,0,1,.79256.79256V35.4486Z"/></svg>