<svg id="Layer_1" data-name="Layer 1" xmlns="http://www.w3.org/2000/svg" viewBox="0 0 47 47"><defs><style>.cls-1{fill:#fff;}</style></defs><title>icon</title><path class="cls-1" d="M23.4397,46.8794A23.4397,23.4397,0,1,1,46.87995,23.4397,23.46657,23.46657,0,0,1,23.4397,46.8794Zm0-45.29427A21.85458,21.85458,0,1,0,45.29483,23.4397,21.879,21.879,0,0,0,23.4397,1.58512Z"/><path class="cls-1" d="M36.24061,33.09413H30.33233a0.79254,0.79254,0,0,1-.79256-0.79256V25.40949c0-.21334-0.38412-0.21555-0.38412,0v6.89208a0.79254,0.79254,0,0,1-.79256.79256H22.45535a0.79255,0.79255,0,0,1-.79256-0.79588c0.02156-4.40386.04919-12.94075,0.00166-13.73441a0.7923,0.7923,0,0,1,.7909-0.84009h5.90773a0.79318,0.79318,0,0,1,.79146.75277,5.43187,5.43187,0,0,1,2.57057-.59249c2.42135,0,5.30806,1.26346,5.30806,7.28449v7.13305A0.79254,0.79254,0,0,1,36.24061,33.09413ZM31.12489,31.509h4.32316V25.16852c0-5.10909-2.12455-5.69937-3.72294-5.69937a3.12622,3.12622,0,0,0-2.69106,1.11312,0.795,0.795,0,0,1-1.46353-.42115V19.30887H23.26394c0.02653,2.55455-.00221,9.76719-0.01271,12.20014h4.31929V25.40949a1.77718,1.77718,0,1,1,3.55437,0V31.509Z"/><path class="cls-1" d="M18.51631,33.09413H14.57782a0.79254,0.79254,0,0,1-.79256-0.79256V18.51631a0.79254,0.79254,0,0,1,.79256-0.79256h3.93849a0.79254,0.79254,0,0,1,.79256.79256V32.30157A0.79254,0.79254,0,0,1,18.51631,33.09413ZM15.37038,31.509h2.35337V19.30887H15.37038V31.509Z"/><path class="cls-1" d="M16.54707,15.37038a2.76181,2.76181,0,1,1,2.76181-2.76125A2.76507,2.76507,0,0,1,16.54707,15.37038Zm0-3.93849a1.17668,1.17668,0,1,0,1.17668,1.17724A1.17844,1.17844,0,0,0,16.54707,11.4319Z"/></svg>