<svg id="Layer_1" data-name="Layer 1" xmlns="http://www.w3.org/2000/svg" viewBox="0 0 47 47"><defs><style>.cls-1{fill:#fff;}</style></defs><title>icon</title><path class="cls-1" d="M23.4397,46.8794A23.4397,23.4397,0,1,1,46.87995,23.4397,23.46657,23.46657,0,0,1,23.4397,46.8794Zm0-45.29427A21.85458,21.85458,0,1,0,45.29483,23.4397,21.879,21.879,0,0,0,23.4397,1.58512Z"/><path class="cls-1" d="M24.161,38.39446c-8.87127,0-12.17748-5.26937-12.17748-8.59106a3.35548,3.35548,0,0,1,2.00517-3.04092,3.60514,3.60514,0,0,1,3.84177.44215,5.24642,5.24642,0,0,1,1.35686,1.95874,8.73224,8.73224,0,0,0,1.01585,1.8062c1.47237,1.9499,5.57612,1.73324,7.27786.57038a2.03774,2.03774,0,0,0,1.08991-1.76862c0-1.72661-2.19143-2.34784-5.80162-3.16693-4.568-1.03685-10.253-2.32573-10.253-8.54905,0-4.99966,4.54148-8.2307,11.56952-8.2307,6.14042,0,9.47592,2.69161,10.5498,5.21079a4.11131,4.11131,0,0,1-.54606,4.531A3.474,3.474,0,0,1,31.525,20.64307c-2.14224,0-2.90329-1.364-3.51457-2.46059-0.7185-1.28777-1.39665-2.5048-4.29774-2.5048-2.19032,0-3.33329.76714-3.67264,1.48564a0.93286,0.93286,0,0,0,.10778,1.038c0.7688,0.94842,2.95967,1.44032,5.27822,1.961,4.5973,1.03132,10.89357,2.44511,10.89357,9.05532C36.31965,34.792,31.54715,38.39446,24.161,38.39446Zm-8.5684-10.4061a2.22977,2.22977,0,0,0-.93516.21,1.76717,1.76717,0,0,0-1.0888,1.605c0,2.7093,2.87566,7.00593,10.59236,7.00593,4.87751,0,10.57356-1.98859,10.57356-7.59179,0-5.34233-5.12954-6.493-9.65554-7.50888-2.70764-.608-5.04664-1.133-6.15865-2.50591a2.50291,2.50291,0,0,1-.31338-2.71593c0.708-1.4989,2.617-2.39426,5.10578-2.39426,3.83182,0,4.90073,1.91784,5.68168,3.31837,0.62067,1.112.97053,1.647,2.13063,1.647a1.87063,1.87063,0,0,0,1.421-.58917,2.57091,2.57091,0,0,0,.23213-2.811c-0.87547-2.05381-3.724-4.248-9.09235-4.248-4.82667,0-9.98439,1.7454-9.98439,6.64558,0,4.95765,4.58459,5.99782,9.01884,7.00372,3.61793,0.8213,7.03578,1.59618,7.03578,4.71226a3.6253,3.6253,0,0,1-1.78133,3.07629c-2.26659,1.55086-7.33976,1.85484-9.43446-.92079A10.285,10.285,0,0,1,17.732,29.79014a3.71479,3.71479,0,0,0-.92742-1.37842A1.87585,1.87585,0,0,0,15.59257,27.98836Z"/></svg>