<svg id="Layer_1" data-name="Layer 1" xmlns="http://www.w3.org/2000/svg" viewBox="0 0 47 47"><defs><style>.cls-1{fill:#fff;}</style></defs><title>icon</title><path class="cls-1" d="M19.07011,34.50129A15.48444,15.48444,0,0,1,10.69626,32.044a0.79221,0.79221,0,0,1,.52008-1.45358,9.62319,9.62319,0,0,0,5.51035-.97163,5.97479,5.97479,0,0,1-3.52452-3.74394,0.79205,0.79205,0,0,1,.16028-0.766,0.82689,0.82689,0,0,1,.09506-0.09175A5.98259,5.98259,0,0,1,11.34678,20.464a0.849,0.849,0,0,1,.39075-0.7174,0.91646,0.91646,0,0,1,.39518-0.12712,5.98506,5.98506,0,0,1,.06522-5.895,0.79473,0.79473,0,0,1,.62288-0.39241,0.808,0.808,0,0,1,.6765.28961,13.96245,13.96245,0,0,0,9.14983,5.04387c-0.005-.1017-0.00774-0.2045-0.00774-0.3073a5.97805,5.97805,0,0,1,10.02419-4.39943c1.29883-.21887,3.393-0.44658,3.49136-0.45763a0.8099,0.8099,0,0,1,.76327.37694,0.79393,0.79393,0,0,1-.01824.85115,12.40612,12.40612,0,0,0-.69584,1.3132,9.7286,9.7286,0,0,1-1.59728,2.59876c0.00166,0.10612.00276,0.21223,0.00276,0.31835A15.39069,15.39069,0,0,1,19.07011,34.50129Zm-4.7609-2.42411A13.95036,13.95036,0,0,0,33.02449,18.95957c0-.21-0.00276-0.42-0.01382-0.629a0.79338,0.79338,0,0,1,.32719-0.68313,7.31107,7.31107,0,0,0,1.44087-2.2981l0.04643-.09617c-0.79146.09948-1.71169,0.2255-2.271,0.336a0.80292,0.80292,0,0,1-.73232-0.23545,4.35173,4.35173,0,0,0-3.20507-1.38726,4.39586,4.39586,0,0,0-4.27839,5.38986,0.79361,0.79361,0,0,1-.163.68866,0.7673,0.7673,0,0,1-.64776.28408,15.52743,15.52743,0,0,1-10.40278-4.741,4.39486,4.39486,0,0,0,1.80288,4.79627,0.79234,0.79234,0,0,1,.31338.902,0.738,0.738,0,0,1-.781.54827,6.00261,6.00261,0,0,1-1.35962-.20339A4.37764,4.37764,0,0,0,16.452,24.76505a0.79218,0.79218,0,0,1,.05527,1.54091,5.97362,5.97362,0,0,1-1.25406.20229,4.39646,4.39646,0,0,0,3.55934,1.93221,0.79263,0.79263,0,0,1,.47366,1.416A11.14684,11.14684,0,0,1,14.30921,32.07718Z"/><path class="cls-1" d="M23.4397,46.8794A23.4397,23.4397,0,1,1,46.87995,23.4397,23.46657,23.46657,0,0,1,23.4397,46.8794Zm0-45.29427A21.85458,21.85458,0,1,0,45.29483,23.4397,21.879,21.879,0,0,0,23.4397,1.58512Z"/></svg>