<svg id="Layer_1" data-name="Layer 1" xmlns="http://www.w3.org/2000/svg" viewBox="0 0 230.23 48"><defs><style>.cls-1{fill:#ffffff;}</style></defs><title>sunesis-logo</title><path class="cls-1" d="M102.42,22.36h0a2.08,2.08,0,0,1-2.46.2q-0.44-.27-0.83-0.46a4.64,4.64,0,0,0-2.1-.44q-2.85,0-2.85,2.1,0,1.51,3.61,2.92a14.3,14.3,0,0,1,5.2,3.11,5.75,5.75,0,0,1,1.59,4.08,6.44,6.44,0,0,1-2.39,5,8,8,0,0,1-5.45,2,8.49,8.49,0,0,1-5.53-2.1,2.07,2.07,0,0,1,.46-3.43h0a2,2,0,0,1,2.1.18,5.23,5.23,0,0,0,3.14,1.12,4.2,4.2,0,0,0,2.54-.79,2.26,2.26,0,0,0,1.09-1.84q0-1.85-3.82-3.34a15.18,15.18,0,0,1-5.28-3A5.19,5.19,0,0,1,90,23.86a6.14,6.14,0,0,1,2-4.49,7.58,7.58,0,0,1,5.35-2A9.24,9.24,0,0,1,102.14,19,2.07,2.07,0,0,1,102.42,22.36Z"/><path class="cls-1" d="M111.35,18h0.05a2.31,2.31,0,0,1,2.31,2.31V30.53q0,5.78,5.08,5.78a4.45,4.45,0,0,0,3.57-1.55,6.32,6.32,0,0,0,1.32-4.23V20.35A2.31,2.31,0,0,1,126,18h0a2.31,2.31,0,0,1,2.31,2.31V31.28a9.23,9.23,0,0,1-2.71,6.85,10.32,10.32,0,0,1-13.89,0,9.54,9.54,0,0,1-2.66-7V20.35A2.31,2.31,0,0,1,111.35,18Z"/><path class="cls-1" d="M133.64,37.89V20.32A2.28,2.28,0,0,1,135.92,18h0a2.28,2.28,0,0,1,2.28,2.28v1.4a18.6,18.6,0,0,1,3.65-3.26,6.71,6.71,0,0,1,3.65-1,7.29,7.29,0,0,1,5.15,2,6.3,6.3,0,0,1,2.14,4.78v13.7a2.31,2.31,0,0,1-2.31,2.31h-0.05a2.31,2.31,0,0,1-2.31-2.31V25.56a4.07,4.07,0,0,0-1.17-3,4,4,0,0,0-3-1.18,5.15,5.15,0,0,0-4,2,7.08,7.08,0,0,0-1.69,4.77v9.75a2.31,2.31,0,0,1-2.31,2.31h0A2.31,2.31,0,0,1,133.64,37.89Z"/><path class="cls-1" d="M178.16,30H161.27a7.45,7.45,0,0,0,2.81,5,8.17,8.17,0,0,0,10.19-.44,2.3,2.3,0,0,1,2.78-.12h0a2.12,2.12,0,0,1,.17,3.26,12.37,12.37,0,0,1-8.59,3.13,11.15,11.15,0,0,1-8.28-3.39A11.52,11.52,0,0,1,157,29a11.28,11.28,0,0,1,3.37-8.16,11.44,11.44,0,0,1,16.43.05,11.73,11.73,0,0,1,3.24,7A1.92,1.92,0,0,1,178.16,30Zm-16.4-3.74H175.3q-2.26-4.57-6.66-4.57A7.07,7.07,0,0,0,161.76,26.28Z"/><path class="cls-1" d="M196.47,22.36h0a2.08,2.08,0,0,1-2.46.2q-0.44-.27-0.83-0.46a4.64,4.64,0,0,0-2.1-.44q-2.85,0-2.85,2.1,0,1.51,3.61,2.92a14.3,14.3,0,0,1,5.2,3.11,5.75,5.75,0,0,1,1.59,4.08,6.44,6.44,0,0,1-2.39,5,8,8,0,0,1-5.45,2,8.49,8.49,0,0,1-5.53-2.1,2.07,2.07,0,0,1,.46-3.43h0a2,2,0,0,1,2.1.18A5.23,5.23,0,0,0,191,36.58a4.2,4.2,0,0,0,2.54-.79,2.26,2.26,0,0,0,1.09-1.84q0-1.85-3.82-3.34a15.18,15.18,0,0,1-5.28-3A5.19,5.19,0,0,1,184,23.86a6.14,6.14,0,0,1,2-4.49,7.58,7.58,0,0,1,5.35-2A9.24,9.24,0,0,1,196.19,19,2.07,2.07,0,0,1,196.47,22.36Z"/><path class="cls-1" d="M202.47,10.75a3.42,3.42,0,0,1,1.07-2.51,3.51,3.51,0,0,1,2.55-1.06,3.44,3.44,0,0,1,2.51,1.06,3.52,3.52,0,0,1,0,5,3.46,3.46,0,0,1-2.51,1,3.53,3.53,0,0,1-2.55-1A3.4,3.4,0,0,1,202.47,10.75ZM206.1,18h0a2.31,2.31,0,0,1,2.31,2.31V37.89a2.31,2.31,0,0,1-2.31,2.31h0a2.31,2.31,0,0,1-2.31-2.31V20.35A2.31,2.31,0,0,1,206.1,18Z"/><path class="cls-1" d="M226,22.36h0a2.08,2.08,0,0,1-2.46.2q-0.44-.27-0.83-0.46a4.64,4.64,0,0,0-2.1-.44q-2.85,0-2.85,2.1,0,1.51,3.61,2.92a14.3,14.3,0,0,1,5.2,3.11,5.75,5.75,0,0,1,1.59,4.08,6.44,6.44,0,0,1-2.39,5,8,8,0,0,1-5.45,2,8.49,8.49,0,0,1-5.53-2.1,2.07,2.07,0,0,1,.46-3.43h0a2,2,0,0,1,2.1.18,5.23,5.23,0,0,0,3.14,1.12,4.2,4.2,0,0,0,2.54-.79,2.26,2.26,0,0,0,1.09-1.84q0-1.85-3.82-3.34a15.18,15.18,0,0,1-5.28-3,5.19,5.19,0,0,1-1.46-3.75,6.14,6.14,0,0,1,2-4.49,7.58,7.58,0,0,1,5.35-2A9.24,9.24,0,0,1,225.72,19,2.07,2.07,0,0,1,226,22.36Z"/><path class="cls-1" d="M67.57,22.19c-2.46-4.12-6.67-6.51-12-6.83a10.64,10.64,0,0,0-5-6,11.65,11.65,0,0,0-8.28-1.05,16.17,16.17,0,0,0-9.46-5.06A20.47,20.47,0,0,0,21.26,4.89c-7.08,3.2-11,9.43-10.53,16.25A11.88,11.88,0,0,0,2.08,33.37C2.36,38.82,6.18,44.58,12.94,45H29.69c3.62,0,4.91-.71,6.47-2.14a6.58,6.58,0,0,0,2.35-5,5.91,5.91,0,0,0-1.63-4.19,14.7,14.7,0,0,0-5.34-3.19q-3.71-1.46-3.71-3,0-2.15,2.93-2.15a4.76,4.76,0,0,1,2.15.46q0.41,0.2.88,0.49A2.12,2.12,0,0,0,36.28,26h0A2.12,2.12,0,0,0,36,22.64a9.54,9.54,0,0,0-5-1.71,7.83,7.83,0,0,0-5.31,1.84,6.37,6.37,0,0,0-2.2,4.7A5.34,5.34,0,0,0,25,31.41a15.6,15.6,0,0,0,5.43,3.08q3.92,1.52,3.92,3.43a2.33,2.33,0,0,1-1.12,1.89,4.31,4.31,0,0,1-2.61.81H13.14c-4.17-.28-6.53-4-6.71-7.48C6.25,29.78,8,25.87,13.52,25h0a2.14,2.14,0,0,0,1.76-2.59h0C13.9,15.63,18.39,11,23.06,8.86c5.33-2.41,12.61-2.33,16.84,3.29l0,0a2.14,2.14,0,0,0,2.52.68h0a7.37,7.37,0,0,1,6.12.34A6.55,6.55,0,0,1,51.82,18,2,2,0,0,0,54,19.67h0c5.71-.13,8.51,2.51,9.84,4.75a11.51,11.51,0,0,1,0,11.26,9.77,9.77,0,0,1-8.9,5H45.35a2.26,2.26,0,0,0-2.29,2A2.18,2.18,0,0,0,45.22,45h9.72a14.14,14.14,0,0,0,12.68-7.16A15.77,15.77,0,0,0,67.57,22.19Z"/></svg>