<svg id="Layer_1" data-name="Layer 1" xmlns="http://www.w3.org/2000/svg" viewBox="0 0 65 65"><defs><style>.cls-1{fill:#367dbf;}.cls-2{fill:#5dc2ef;}</style></defs><title>service</title><circle class="cls-1" cx="36.05786" cy="28.53102" r="9.73375"/><path class="cls-2" d="M56.5,33.7a4.79692,4.79692,0,0,0-3.99481,2.14758L46.0161,33.16541a10.752,10.752,0,0,0-1.47845-10.98553l9.53961-9.55994A4.74594,4.74594,0,0,0,56.5,13.3a4.8,4.8,0,1,0-4.8-4.8,4.74573,4.74573,0,0,0,.68115,2.42474l-9.53577,9.55591A10.77,10.77,0,0,0,26.71355,23.5744l-13.50311-5.788a4.86765,4.86765,0,1,0-1.03674,2.166l13.58838,5.8244a10.74887,10.74887,0,0,0,1.92419,9.88147L10.92332,52.38043A4.74624,4.74624,0,0,0,8.5,51.7a4.8,4.8,0,1,0,4.8,4.8,4.746,4.746,0,0,0-.68085-2.42407l16.76892-16.728a10.7401,10.7401,0,0,0,5.50958,2.28137V51.87042a4.80029,4.80029,0,1,0,2.4.00012V39.62927A10.7913,10.7913,0,0,0,44.80559,35.262l6.93213,2.8653C51.72789,38.25244,51.7,38.37238,51.7,38.5A4.8,4.8,0,1,0,56.5,33.7ZM8.5,19.3a2.4,2.4,0,1,1,2.4-2.4A2.40314,2.40314,0,0,1,8.5,19.3Zm48-13.2a2.4,2.4,0,1,1-2.4,2.4A2.40241,2.40241,0,0,1,56.5,6.1ZM8.5,58.9a2.4,2.4,0,1,1,2.4-2.4A2.40234,2.40234,0,0,1,8.5,58.9Zm29.99768-2.4a2.4,2.4,0,1,1-2.4-2.4A2.40161,2.40161,0,0,1,38.49767,56.5Zm-2.4-19.2a8.4,8.4,0,1,1,8.4-8.4A8.41017,8.41017,0,0,1,36.09764,37.3ZM56.5,40.9a2.4,2.4,0,1,1,2.4-2.4A2.40156,2.40156,0,0,1,56.5,40.9Z"/></svg>