<svg id="Layer_1" data-name="Layer 1" xmlns="http://www.w3.org/2000/svg" viewBox="0 0 65 65"><defs><style>.cls-1{fill:#367dbf;}.cls-2{fill:#5dc2ef;}</style></defs><title>service</title><polygon class="cls-1" points="52.199 17.25 42.208 20.583 38.375 24.583 39.346 28.9 45.287 33.917 50.708 31.583 53.458 24.833 52.199 17.25"/><path class="cls-1" d="M15.97661,5.922a28.49464,28.49464,0,0,0,8.3946,3.60532c3.17929,0.95637,5.92495,1.783,7.84147,4.04155l0.00126,0.00126c1.39127,1.638,2.94277,4.04916,2.43912,6.23142-0.32647,1.40551-1.503,2.66094-3.47788,3.74773-0.71688,1.45077-.71688.86744-2.13695,1.536-1.17124,2.53178-2.55933,3.937-4.12778,4.16-1.877.248-4.27933-1.14706-6.59512-3.87616C15.28352,21.7981,13.79435,11.95248,15.97661,5.922Z"/><path class="cls-2" d="M24.48338,30.76013a5.30769,5.30769,0,0,0,.76056-0.05389c1.92719-.274,3.56982-1.55139,4.9021-3.78851a48.21423,48.21423,0,0,1,4.78229,11.715,1.19617,1.19617,0,0,0,1.08514.9422c0.02814,0.00238.05859,0.0047,0.08673,0.0047a1.19773,1.19773,0,0,0,1.12262-.77814,32.29471,32.29471,0,0,1,3.5567-6.45319A5.89119,5.89119,0,0,0,44.5869,35.1828a5.11535,5.11535,0,0,0,.9516.08905A8.25071,8.25071,0,0,0,51.276,32.40662c2.88281-3.0387,4.53748-11.24066,2.28986-16.12854A1.20188,1.20188,0,0,0,52.769,15.616a1.21562,1.21562,0,0,0-1.01489.20508,15.59533,15.59533,0,0,1-6.10077,2.6203,16.655,16.655,0,0,0-5.41876,2.13989,6.57155,6.57155,0,0,0-3.28827,5.24646,5.78263,5.78263,0,0,0,2.36816,4.44446A33.55828,33.55828,0,0,0,36.36272,34.946a53.94992,53.94992,0,0,0-4.4342-9.808c2.39386-1.34235,3.83661-3.00812,4.2912-4.9682,0.55548-2.3941-.37262-5.03082-2.75507-7.8363-2.2254-2.62384-5.20782-3.52148-8.36487-4.4707C22.33769,7.032,19.48186,6.173,16.96465,4.0437a1.20036,1.20036,0,0,0-1.83514.3551c-3.30823,6.25665-1.752,17.64844,1.868,21.91406C19.45372,29.20624,22.081,30.76013,24.48338,30.76013ZM39.3463,25.83472a4.332,4.332,0,0,1,2.21954-3.25665,14.57449,14.57449,0,0,1,4.6875-1.81287,20.04078,20.04078,0,0,0,5.60156-2.12225c0.99841,4.00079-.29767,9.982-2.318,12.11133-1.14142,1.20117-2.932,2.37537-4.5,2.07184a4.07412,4.07412,0,0,1-2.66321-2.49426,17.00356,17.00356,0,0,1,5.06323-4.07874,1.20017,1.20017,0,0,0-1.07349-2.14691,19.18344,19.18344,0,0,0-5.52472,4.32428A3.60072,3.60072,0,0,1,39.3463,25.83472ZM16.67284,6.83862a26.25752,26.25752,0,0,0,7.73553,3.32227c2.92969,0.88129,5.45978,1.643,7.22583,3.72424l0.00116,0.00116c1.282,1.5094,2.71173,3.73126,2.24762,5.74219-0.30084,1.29517-1.385,2.452-3.20483,3.45349a50.71135,50.71135,0,0,0-8.808-10.459,1.19988,1.19988,0,0,0-1.60547,1.78363A48.04333,48.04333,0,0,1,28.709,24.49738c-1.07928,2.333-2.3584,3.62793-3.80371,3.83344-1.72968.22852-3.94336-1.057-6.07733-3.57184C16.03416,21.46832,14.66191,12.39569,16.67284,6.83862Z"/><path class="cls-2" d="M60.94865,47.31171c-2.81958-2.81488-5.25-3.60474-8.42578-2.69067l-8.81628,2.92456a3.769,3.769,0,0,0-4.00641-2.98547H32.9865a16.93428,16.93428,0,0,0-11.28632-4.8h-6v-1.2a1.19931,1.19931,0,0,0-1.2-1.2h-9.6a1.19935,1.19935,0,0,0-1.2,1.2v19.2a1.19935,1.19935,0,0,0,1.2,1.2h9.6a1.19931,1.19931,0,0,0,1.2-1.2V55.831c2.403,0.81274,4.49445,1.54626,6.30823,2.18457,5.92853,2.08594,9.23083,3.225,12.22852,3.225,3.64923,0,6.84845-1.6875,13.77185-5.41644,3.24139-1.74371,7.275-3.91406,12.62811-6.59058A1.20129,1.20129,0,0,0,60.94865,47.31171ZM13.30022,56.56012h-7.2v-16.8h7.2v16.8Zm33.57184-2.84766C35.069,60.064,35.069,60.064,22.80412,55.75153c-2.012-.70685-4.36194-1.53137-7.10394-2.4538V42.1601h6c4.96643,0,8.61444,3.11017,9.9516,4.44849a1.19912,1.19912,0,0,0,.84839.35156h7.2c1.23047,0,1.66644.64685,1.66644,1.2s-0.436,1.2-1.66644,1.2h-13.2a1.2,1.2,0,0,0,0,2.4h13.2a4.04233,4.04233,0,0,0,3.29974-1.45172l10.23071-3.39514a4.761,4.761,0,0,1,4.75317.968C53.37364,50.21088,49.80174,52.13513,46.87206,53.71246Z"/></svg>