<svg id="Layer_1" data-name="Layer 1" xmlns="http://www.w3.org/2000/svg" viewBox="0 0 65 65"><defs><style>.cls-1{fill:#5dc2ef;}.cls-2{fill:#367dbf;}</style></defs><title>service</title><path class="cls-1" d="M59.79558,49.13361l-4.8-7.2a1.2,1.2,0,1,0-1.99689,1.33124l3.55688,5.33435H36.67217A19.6998,19.6998,0,1,1,56.37138,28.9a1.2,1.2,0,1,0,2.4,0A22.09982,22.09982,0,1,0,36.67217,50.99921H56.55559L52.9987,56.33356a1.2,1.2,0,1,0,1.99689,1.3313l4.8-7.2A1.19692,1.19692,0,0,0,59.79558,49.13361Z"/><path class="cls-1" d="M18.27727,48.59918H6.20226a1.2,1.2,0,1,0,0,2.4h12.075A1.2,1.2,0,0,0,18.27727,48.59918Z"/><circle class="cls-2" cx="36.67216" cy="28.89996" r="9.36945"/><circle class="cls-1" cx="36.67216" cy="28.89996" r="4.79999"/></svg>