<svg id="Layer_1" data-name="Layer 1" xmlns="http://www.w3.org/2000/svg" viewBox="0 0 65 65"><defs><style>.cls-1{fill:#367dbf;}.cls-2{fill:#5dc2ef;}</style></defs><title>service</title><rect class="cls-1" x="26.44515" y="4.3417" width="12.43988" height="12.43988"/><rect class="cls-1" x="4.54161" y="48.16013" width="12.5" height="12.5"/><rect class="cls-1" x="47.79161" y="48.59918" width="11.875" height="11.875"/><path class="cls-2" d="M60.1,46.9H55.23918A15.61083,15.61083,0,0,0,39.7,32.5H32.5V18.1h6a1.19931,1.19931,0,0,0,1.2-1.2V4.9a1.19929,1.19929,0,0,0-1.2-1.2h-12a1.19929,1.19929,0,0,0-1.2,1.2v12a1.19931,1.19931,0,0,0,1.2,1.2h3.6V32.5H25.3A15.61083,15.61083,0,0,0,9.76079,46.9H4.9a1.19935,1.19935,0,0,0-1.2,1.2v12a1.19935,1.19935,0,0,0,1.2,1.2h12a1.19935,1.19935,0,0,0,1.2-1.2v-12a1.19935,1.19935,0,0,0-1.2-1.2h-4.7392A13.21432,13.21432,0,0,1,25.3,34.9h4.8v12H26.5a1.19935,1.19935,0,0,0-1.2,1.2v12a1.19935,1.19935,0,0,0,1.2,1.2h12a1.19935,1.19935,0,0,0,1.2-1.2v-12a1.19935,1.19935,0,0,0-1.2-1.2h-6v-12h7.2a13.21526,13.21526,0,0,1,13.13922,12H48.1a1.19931,1.19931,0,0,0-1.2,1.2v12a1.19931,1.19931,0,0,0,1.2,1.2h12a1.19929,1.19929,0,0,0,1.2-1.2v-12A1.19929,1.19929,0,0,0,60.1,46.9ZM27.7,15.7V6.1h9.6v9.6H27.7Zm-12,43.2H6.1V49.3h9.6v9.6Zm21.6-9.6v9.6H27.7V49.3h9.6Zm21.6,9.6H49.3V49.3h9.6v9.6Z"/></svg>