<svg id="Layer_1" data-name="Layer 1" xmlns="http://www.w3.org/2000/svg" viewBox="0 0 65 65"><defs><style>.cls-1{fill:#367dbf;}.cls-2{fill:#5dc2ef;}</style></defs><title>service</title><circle class="cls-1" cx="32.94161" cy="43.15313" r="11.65"/><path class="cls-2" d="M56.21873,21.53009a12.528,12.528,0,0,0-8.47028-3.52856,17.24074,17.24074,0,0,0-32.33905,5.74457A9.81264,9.81264,0,0,0,4.9,33.53125a9.21731,9.21731,0,0,0,2.60742,6.84607c2.91443,2.87347,7.22345,2.96252,7.74725,2.96252H15.3004a1.20052,1.20052,0,0,0,1.18243-1.21875,1.18631,1.18631,0,0,0-1.21759-1.18127c-0.03632-.00934-3.736.03284-6.07385-2.27106A6.9153,6.9153,0,0,1,7.3,33.53125a7.41444,7.41444,0,0,1,8.93787-7.25159,1.19965,1.19965,0,0,0,1.44257-1.10388A14.84191,14.84191,0,0,1,45.925,19.71954a1.16628,1.16628,0,0,0,1.12964.68555A10.25264,10.25264,0,0,1,57.7,30.66016c0,7.41559-6.06561,9.58594-8.67419,10.17657a1.19914,1.19914,0,1,0,.52966,2.33905C52.02812,42.618,60.1,40.06329,60.1,30.66016A12.57562,12.57562,0,0,0,56.21873,21.53009Z"/><path class="cls-2" d="M32.5,29.8A13.2,13.2,0,1,0,45.7,43,13.21567,13.21567,0,0,0,32.5,29.8Zm0,24A10.8,10.8,0,1,1,43.3,43,10.81182,10.81182,0,0,1,32.5,53.8Z"/><path class="cls-2" d="M37.3,41.2H33.7v-3a1.2,1.2,0,1,0-2.4,0v3H27.7a1.2,1.2,0,1,0,0,2.4h3.6v4.2a1.2,1.2,0,1,0,2.4,0V43.6h3.6A1.2,1.2,0,0,0,37.3,41.2Z"/></svg>