<svg id="Layer_1" data-name="Layer 1" xmlns="http://www.w3.org/2000/svg" viewBox="0 0 65 65"><defs><style>.cls-1{fill:#367dbf;}.cls-2{fill:#5dc2ef;}</style></defs><title>service</title><path class="cls-1" d="M58.125,49.08331L57.8333,45.25,59.25,43.3l-2.375-5.84167L54.09758,38l-3.63281-1.29169-0.33978-2.875H43.5l-0.23523,2.83331L40.54161,38.5l-3.5-1.125-2.875,5.925,2.04169,2.825-0.93573,3.20831-1.356,1.54169,3.25,4.875,2.625-.625,3.25,2.125L43.5,59.66663l7.33331,0.5,0.25-3.20831,3.95831-1.625,1.79169,0.83331L59.75,50.5Zm-11.33337,3a5.16666,5.16666,0,1,1,5.16669-5.16669A5.16663,5.16663,0,0,1,46.79161,52.08331Z"/><circle class="cls-2" cx="12.09764" cy="9.7" r="1.2"/><circle class="cls-2" cx="16.89763" cy="9.7" r="1.2"/><circle class="cls-2" cx="21.69763" cy="9.7" r="1.19998"/><path class="cls-2" d="M26.4976,42.1h-16.8a3.60392,3.60392,0,0,1-3.6-3.6V15.7h45.6V28.9a1.2,1.2,0,0,0,2.4,0V9.7a6.00629,6.00629,0,0,0-6-6h-38.4a6.00707,6.00707,0,0,0-6,6V38.5a6.00633,6.00633,0,0,0,6,6h16.8A1.2,1.2,0,0,0,26.4976,42.1Zm-16.8-36h38.4a3.60393,3.60393,0,0,1,3.6,3.6v3.6h-45.6V9.7A3.604,3.604,0,0,1,9.69756,6.1Z"/><path class="cls-2" d="M60.70226,49.34454L58.7874,48.23828A11.64379,11.64379,0,0,0,58.86479,46.9a11.26219,11.26219,0,0,0-.07971-1.33826l1.91248-1.10626a1.19678,1.19678,0,0,0,.43829-1.63824l-3.6-6.23437a1.19751,1.19751,0,0,0-1.64062-.43829l-1.90082,1.10388a12.69255,12.69255,0,0,0-2.29687-1.32422V33.7a1.19926,1.19926,0,0,0-1.2-1.2h-7.2a1.19931,1.19931,0,0,0-1.2,1.2v2.22186a12.90093,12.90093,0,0,0-2.32971,1.32892L37.839,36.14215a1.20325,1.20325,0,0,0-1.63593.44067L32.59953,42.8172a1.19987,1.19987,0,0,0,.43829,1.63824l1.909,1.10394a10.96481,10.96481,0,0,0-.082,1.34058,11.38028,11.38028,0,0,0,.07965,1.33832l-1.91132,1.10626a1.19987,1.19987,0,0,0-.43829,1.63824l3.6012,6.23438a1.20279,1.20279,0,0,0,1.63593.44061l1.93359-1.10858a12.79757,12.79757,0,0,0,2.332,1.33124V60.1a1.19935,1.19935,0,0,0,1.2,1.2h7.2a1.19929,1.19929,0,0,0,1.2-1.2V57.87811a12.58878,12.58878,0,0,0,2.29926-1.32654l1.90546,1.10388a1.21691,1.21691,0,0,0,.91174.12189,1.18663,1.18663,0,0,0,.72888-0.56018l3.59766-6.23437A1.19678,1.19678,0,0,0,60.70226,49.34454Zm-4.63593,5.632L54.496,54.0672a1.20651,1.20651,0,0,0-1.38281.12653A10.09791,10.09791,0,0,1,50.078,55.94922a1.20173,1.20173,0,0,0-.78046,1.125V58.9h-4.8V57.07422a1.20179,1.20179,0,0,0-.78052-1.125,10.37989,10.37989,0,0,1-3.06323-1.75311,1.199,1.199,0,0,0-1.38049-.13129l-1.59845.91644-2.40234-4.16016,1.57971-.91406a1.19951,1.19951,0,0,0,.58124-1.25629,9.10432,9.10432,0,0,1,.00232-3.50153,1.19942,1.19942,0,0,0-.58124-1.25629l-1.57733-.91406,2.40466-4.16016,1.59143,0.91644a1.2003,1.2003,0,0,0,1.37811-.12891,10.37027,10.37027,0,0,1,3.06561-1.75317,1.20179,1.20179,0,0,0,.78052-1.125V34.9h4.8v1.82813a1.20173,1.20173,0,0,0,.78046,1.125,10.14172,10.14172,0,0,1,3.03516,1.75317,1.20264,1.20264,0,0,0,1.38281.12653l1.56329-.90936,2.4,4.15546-1.582.91406a1.1977,1.1977,0,0,0-.57886,1.25861,9.32141,9.32141,0,0,1,.00232,3.49451,1.19953,1.19953,0,0,0,.57892,1.261L58.464,50.82111Z"/><path class="cls-2" d="M46.86479,40.9a6,6,0,1,0,6,6A6.00558,6.00558,0,0,0,46.86479,40.9Zm0,9.6a3.6,3.6,0,1,1,3.6-3.6A3.604,3.604,0,0,1,46.86479,50.5Z"/></svg>