<svg id="Layer_1" data-name="Layer 1" xmlns="http://www.w3.org/2000/svg" viewBox="0 0 65 65"><defs><style>.cls-1{fill:#367dbf;}.cls-2{fill:#5dc2ef;}</style></defs><title>service</title><polygon class="cls-1" points="4.958 24.7 4.458 44.25 31.542 55.917 30.958 36.917 4.958 24.7"/><path class="cls-2" d="M24.10008,25.9c0,2.73633,3.61176,4.8,8.4,4.8s8.4-2.06372,8.4-4.8-3.61176-4.8-8.4-4.8S24.10008,23.16364,24.10008,25.9Zm8.4-2.4c3.66327,0,6,1.42145,6,2.4s-2.33673,2.4-6,2.4c-3.66211,0-6-1.42151-6-2.4S28.838,23.5,32.50011,23.5Z"/><path class="cls-2" d="M61.30009,24.71069V24.7a1.18431,1.18431,0,0,0-.07526-0.39313c-0.01025-.02948-0.02069-0.05688-0.0332-0.08545a1.19534,1.19534,0,0,0-.2157-0.33813c-0.01135-.01221-0.02576-0.02087-0.03772-0.03259a1.19689,1.19689,0,0,0-.17249-0.14917,1.14347,1.14347,0,0,0-.14789-0.07434c-0.015-.00726-0.02423-0.02087-0.03961-0.02759L56.90013,22.001a3.30831,3.30831,0,0,0,.8-2.10107c0-2.73633-3.61176-4.8-8.4-4.8a12.70587,12.70587,0,0,0-5.59064,1.16443l-3.54626-1.54047A3.28027,3.28027,0,0,0,40.90013,12.7c0-2.73633-3.61176-4.8-8.4-4.8s-8.4,2.06372-8.4,4.8a3.28049,3.28049,0,0,0,.7373,2.02435l-2.93365,1.27472A13.29139,13.29139,0,0,0,16.90013,15.1c-4.78833,0-8.4,2.06366-8.4,4.8a3.1846,3.1846,0,0,0,.515,1.70276L4.422,23.59961c-0.01678.00726-.02692,0.02216-0.04321,0.03009a1.17488,1.17488,0,0,0-.12787.06128,1.19706,1.19706,0,0,0-.196.16443c-0.00885.00885-.02014,0.015-0.02869,0.024a1.1919,1.1919,0,0,0-.21613.33893c-0.01337.03015-.02478,0.05908-0.03558,0.09027a1.18531,1.18531,0,0,0-.0744.39136V43.9a1.19968,1.19968,0,0,0,.70313,1.09222l26.4,12c0.018,0.00824.03821,0.005,0.05646,0.01227a1.066,1.066,0,0,0,.8476.015c0.01782-.00635.037-0.0036,0.05457-0.0108l28.8-12A1.2008,1.2008,0,0,0,61.30009,43.9V24.71069Zm-6-4.81073a1.84183,1.84183,0,0,1-1.08038,1.26984,1.18814,1.18814,0,0,0-.38318.20856A10.36108,10.36108,0,0,1,49.30009,22.3c-3.66327,0-6-1.42151-6-2.4s2.33673-2.4,6-2.4S55.30009,18.92145,55.30009,19.9Zm-22.8-9.6c3.66327,0,6,1.42151,6,2.4s-2.33673,2.4-6,2.4c-3.66211,0-6-1.42145-6-2.4S28.838,10.3,32.50011,10.3Zm-5.48059,6.09247A12.8376,12.8376,0,0,0,32.50011,17.5a12.83689,12.83689,0,0,0,5.481-1.10779l3.593,1.56079a3.25393,3.25393,0,0,0-.674,1.947c0,2.73633,3.61169,4.8,8.4,4.8a12.96361,12.96361,0,0,0,5.36768-1.0528l2.36865,1.02942L31.31969,35.39081,7.85332,24.7243l3.12653-1.35925A12.36059,12.36059,0,0,0,16.90013,24.7c4.78827,0,8.4-2.06372,8.4-4.8a3.39761,3.39761,0,0,0-.98889-2.33069ZM16.90013,17.5c3.66211,0,6,1.42145,6,2.4s-2.33789,2.4-6,2.4-6-1.42151-6-2.4S13.238,17.5,16.90013,17.5Zm-10.8,9.06329,24,10.91016V54.03668l-24-10.91016V26.56329Zm52.8,16.53748L32.50011,54.1V37.49921L58.90013,26.5V43.10077Z"/></svg>