<svg id="Layer_1" data-name="Layer 1" xmlns="http://www.w3.org/2000/svg" viewBox="0 0 65 65"><defs><style>.cls-1{fill:#367dbf;}.cls-2{fill:#5dc2ef;}</style></defs><title>service</title><polygon class="cls-1" points="59.917 22.9 5.378 22.9 5.378 13.86 7.75 11.167 56.917 11.167 59.917 14.5 59.917 22.9"/><path class="cls-2" d="M55.3,9.7H9.7a6.007,6.007,0,0,0-6,6V49.3a6.00629,6.00629,0,0,0,6,6H55.3a6.00554,6.00554,0,0,0,6-6V15.7A6.00629,6.00629,0,0,0,55.3,9.7ZM9.7,12.1H55.3a3.604,3.604,0,0,1,3.6,3.6v6H6.1v-6A3.604,3.604,0,0,1,9.7,12.1ZM55.3,52.9H9.7a3.60393,3.60393,0,0,1-3.6-3.6V24.1H58.9V49.3A3.60393,3.60393,0,0,1,55.3,52.9Z"/><path class="cls-2" d="M13.3,19.3a2.4,2.4,0,1,0-2.4-2.4A2.40315,2.40315,0,0,0,13.3,19.3Zm1.2-2.4H13.30115L13.3,16.89764Z"/><path class="cls-2" d="M20.5,19.3a2.4,2.4,0,1,0-2.4-2.4A2.40315,2.40315,0,0,0,20.5,19.3Zm1.2-2.4H20.50116L20.5,16.89764Z"/><path class="cls-2" d="M27.7,19.3a2.4,2.4,0,1,0-2.4-2.4A2.4031,2.4031,0,0,0,27.7,19.3Zm1.2-2.4H27.70117L27.7,16.89764Z"/><path class="cls-2" d="M17.74841,31.65155a1.19987,1.19987,0,0,0-1.69684,1.6969L21.20313,38.5l-5.15155,5.15155a1.19987,1.19987,0,1,0,1.69684,1.6969l6-6a1.19959,1.19959,0,0,0,0-1.6969Z"/><path class="cls-2" d="M40.9,38.5H31.3a1.2,1.2,0,1,0,0,2.4h9.6A1.2,1.2,0,0,0,40.9,38.5Z"/></svg>