<svg id="Layer_1" data-name="Layer 1" xmlns="http://www.w3.org/2000/svg" viewBox="0 0 24 24"><defs><style>.cls-1{fill:#5dc2ef;}.cls-2{fill:#367dbf;}</style></defs><title>Artboard 26</title><path class="cls-1" d="M17.5,24A6.5,6.5,0,1,1,24,17.5,6.51,6.51,0,0,1,17.5,24Zm0-12A5.5,5.5,0,1,0,23,17.5,5.51,5.51,0,0,0,17.5,12Z"/><path class="cls-2" d="M20,17H18V15a.5.5,0,0,0-1,0v2H15a.5.5,0,0,0,0,1h2v2a.5.5,0,0,0,1,0V18h2a.5.5,0,0,0,0-1Z"/><path class="cls-1" d="M10,0C4.39,0,0,2,0,4.5v13C0,19.87,3.78,21.75,9,22H9a.5.5,0,0,0,0-1c-4.95-.22-8-2-8-3.48V15c1.38,1.29,4.07,2.21,7.47,2.44h0a.5.5,0,0,0,0-1C4.31,16.17,1,14.65,1,13V10.48C2.6,12,6,13,10,13a.5.5,0,0,0,0-1c-5.3,0-9-1.84-9-3.5v-2C2.6,8,6,9,10,9s7.4-1,9-2.52V9a.5.5,0,0,0,1,0V4.5C20,2,15.61,0,10,0Zm0,8C4.7,8,1,6.16,1,4.5S4.7,1,10,1s9,1.84,9,3.5S15.3,8,10,8Z"/></svg>