<svg id="Layer_1" data-name="Layer 1" xmlns="http://www.w3.org/2000/svg" viewBox="0 0 24 24"><defs><style>.cls-1{fill:#5dc2ef;}.cls-2{fill:#367dbf;}</style></defs><title>Artboard 22</title><path class="cls-1" d="M24,12.5a2.5,2.5,0,0,0-2-2.45V9.5A2.5,2.5,0,0,0,19.5,7h0A7.49,7.49,0,0,0,4.53,7h0A2.5,2.5,0,0,0,2,9.5v.55A2.5,2.5,0,0,0,2,15v.55A2.5,2.5,0,0,0,4.5,18h2a.5.5,0,0,0,.5-.5V7.5A.5.5,0,0,0,6.5,7h-1A6.49,6.49,0,0,1,18.47,7h-1a.5.5,0,0,0-.5.5v10a.5.5,0,0,0,.5.5h2v.5a3,3,0,0,1-3,3h-2a.5.5,0,0,0,0,1h2a4,4,0,0,0,4-4v-.71A2.51,2.51,0,0,0,22,15.5V15A2.5,2.5,0,0,0,24,12.5Zm-23,0a1.51,1.51,0,0,1,1-1.41v2.82A1.51,1.51,0,0,1,1,12.5ZM6,17H4.5A1.5,1.5,0,0,1,3,15.5v-6A1.5,1.5,0,0,1,4.5,8H6Zm15-1.5A1.5,1.5,0,0,1,19.5,17H18V8h1.5A1.5,1.5,0,0,1,21,9.5Zm1-1.59V11.09a1.49,1.49,0,0,1,0,2.82Z"/><path class="cls-2" d="M13,24a2,2,0,1,1,2-2A2,2,0,0,1,13,24Zm0-3a1,1,0,1,0,1,1A1,1,0,0,0,13,21Z"/></svg>