<svg id="Layer_1" data-name="Layer 1" xmlns="http://www.w3.org/2000/svg" viewBox="0 0 24 24"><defs><style>.cls-1{fill:#5dc2ef;}.cls-2{fill:#367dbf;}</style></defs><title>Artboard 25</title><path class="cls-1" d="M7,0a.5.5,0,0,0-.5.5v5A1.5,1.5,0,0,1,5,7H3A1.5,1.5,0,0,1,1.5,5.5V.5a.5.5,0,0,0-1,0V22c0,1.25.93,2,2.5,2H5c1.57,0,2.5-.75,2.5-2V.5A.5.5,0,0,0,7,0ZM3,8H5a2.53,2.53,0,0,0,1.5-.51V11h-5V7.49A2.53,2.53,0,0,0,3,8ZM1.5,18h5v1h-5Zm0-1V14h5v3Zm0-4V12h5v1ZM5,23H3c-1.5,0-1.5-.75-1.5-1V20h5v2C6.5,22.25,6.5,23,5,23Z"/><path class="cls-1" d="M15,0a.5.5,0,0,0-.5.5v5A1.5,1.5,0,0,1,13,7H11A1.5,1.5,0,0,1,9.5,5.5V.5a.5.5,0,0,0-1,0V22c0,1.25.93,2,2.5,2h2c1.57,0,2.5-.75,2.5-2V.5A.5.5,0,0,0,15,0ZM11,8h2a2.53,2.53,0,0,0,1.5-.51V11h-5V7.49A2.53,2.53,0,0,0,11,8ZM9.5,18h5v1h-5Zm0-1V14h5v3Zm0-4V12h5v1ZM13,23H11c-1.5,0-1.5-.75-1.5-1V20h5v2C14.5,22.25,14.5,23,13,23Z"/><path class="cls-1" d="M23,0a.5.5,0,0,0-.5.5v5A1.5,1.5,0,0,1,21,7H19a1.5,1.5,0,0,1-1.5-1.5V.5a.5.5,0,0,0-1,0V22c0,1.25.93,2,2.5,2h2c1.57,0,2.5-.75,2.5-2V.5A.5.5,0,0,0,23,0ZM19,8h2a2.53,2.53,0,0,0,1.5-.51V11h-5V7.49A2.53,2.53,0,0,0,19,8ZM17.5,18h5v1h-5Zm0-1V14h5v3Zm0-4V12h5v1ZM21,23H19c-1.5,0-1.5-.75-1.5-1V20h5v2C22.5,22.25,22.5,23,21,23Z"/><path class="cls-2" d="M3,6a.5.5,0,0,1-.5-.5v-4a.5.5,0,0,1,1,0v4A.5.5,0,0,1,3,6Z"/><path class="cls-2" d="M5,6a.5.5,0,0,1-.5-.5v-4a.5.5,0,0,1,1,0v4A.5.5,0,0,1,5,6Z"/><path class="cls-2" d="M11,6a.5.5,0,0,1-.5-.5v-4a.5.5,0,0,1,1,0v4A.5.5,0,0,1,11,6Z"/><path class="cls-2" d="M13,6a.5.5,0,0,1-.5-.5v-4a.5.5,0,0,1,1,0v4A.5.5,0,0,1,13,6Z"/><path class="cls-2" d="M19,6a.5.5,0,0,1-.5-.5v-4a.5.5,0,0,1,1,0v4A.5.5,0,0,1,19,6Z"/><path class="cls-2" d="M21,6a.5.5,0,0,1-.5-.5v-4a.5.5,0,0,1,1,0v4A.5.5,0,0,1,21,6Z"/></svg>