<svg id="Layer_1" data-name="Layer 1" xmlns="http://www.w3.org/2000/svg" viewBox="0 0 24 24"><defs><style>.cls-1{fill:#367dbf;}.cls-2{fill:#5dc2ef;}</style></defs><title>Artboard 27</title><path class="cls-1" d="M13.5,20a3,3,0,0,1-2.77-2H13a.5.5,0,0,0,.5-.5A.5.5,0,0,0,13,17H10.52c0-.09,0-.17,0-.25a3.66,3.66,0,0,1,.09-.75H13a.5.5,0,0,0,.5-.5A.5.5,0,0,0,13,15H11a2.94,2.94,0,0,1,2.52-1.5A.5.5,0,0,0,14,13a.5.5,0,0,0-.5-.5A4,4,0,0,0,9.86,15H9a.5.5,0,0,0-.5.5A.5.5,0,0,0,9,16h.57a4.54,4.54,0,0,0-.07.75c0,.08,0,.16,0,.25H9a.5.5,0,0,0-.5.5A.5.5,0,0,0,9,18h.7a4,4,0,0,0,3.8,3,.5.5,0,0,0,.5-.5A.5.5,0,0,0,13.5,20Z"/><path class="cls-2" d="M15.5,9h-7a.5.5,0,0,1-.5-.5A.5.5,0,0,1,8.5,8h7a.5.5,0,0,1,.5.5A.5.5,0,0,1,15.5,9Z"/><path class="cls-2" d="M14.5,7h-5a.5.5,0,0,1-.5-.5c0-1.83-1.9-4.7-1.92-4.73a.48.48,0,0,1,0-.59A.49.49,0,0,1,7.7,1l3,1.29.81-2a.51.51,0,0,1,.92,0l.81,2L16.3,1a.49.49,0,0,1,.58.14.48.48,0,0,1,0,.59S15,4.66,15,6.49A.5.5,0,0,1,14.5,7ZM10,6H14a11.07,11.07,0,0,1,1.26-3.44l-2.09.89a.48.48,0,0,1-.39,0,.47.47,0,0,1-.27-.28L12,1.83l-.54,1.34a.47.47,0,0,1-.27.28.48.48,0,0,1-.39,0L8.71,2.55A11.07,11.07,0,0,1,10,6Z"/><path class="cls-2" d="M12,24c-5.46,0-8-1.91-8-6,0-2.68,2.5-6.12,4.92-7.91a.53.53,0,0,1,.3-.09h5.56a.53.53,0,0,1,.3.09C17.5,11.87,20,15.31,20,18,20,22.08,17.46,24,12,24ZM9.39,11C7.25,12.62,5,15.71,5,18c0,2.47.83,5,7,5s7-2.53,7-5c0-2.29-2.25-5.37-4.39-7Z"/></svg>