<svg id="Layer_1" data-name="Layer 1" xmlns="http://www.w3.org/2000/svg" viewBox="0 0 23 24"><defs><style>.cls-1{fill:#5dc2ef;}.cls-2{fill:#367dbf;}</style></defs><title>Artboard 23</title><path class="cls-1" d="M4.31,16.54a4.9,4.9,0,0,1-3.22-1.23A3.84,3.84,0,0,1,0,12.46,4,4,0,0,1,1.51,9.29a4,4,0,0,1,2.87-.91A7.18,7.18,0,0,1,17.85,6,5.27,5.27,0,0,1,23,11.26c0,4.61-4.69,5.27-4.74,5.28H15.8a.5.5,0,0,1-.5-.5.5.5,0,0,1,.5-.5h2.4c.09,0,3.8-.56,3.8-4.28A4.27,4.27,0,0,0,17.56,7a.5.5,0,0,1-.47-.29A6.18,6.18,0,0,0,5.32,9a.5.5,0,0,1-.19.36.51.51,0,0,1-.41.1,3,3,0,0,0-2.58.62A3.09,3.09,0,0,0,1,12.46a2.86,2.86,0,0,0,.78,2.13,4,4,0,0,0,2.54.95H7.19a.5.5,0,0,1,.5.5.5.5,0,0,1-.5.5H4.31Z"/><path class="cls-2" d="M14.85,13l-3-3a.44.44,0,0,0-.16-.1.5.5,0,0,0-.38,0,.44.44,0,0,0-.16.1l-3,3a.5.5,0,0,0,0,.71.48.48,0,0,0,.7,0L11,11.55v9.8a.5.5,0,0,0,1,0v-9.8l2.15,2.15a.48.48,0,0,0,.7,0A.5.5,0,0,0,14.85,13Z"/></svg>