<svg width="64" height="64" viewBox="0 0 64 64" fill="none" xmlns="http://www.w3.org/2000/svg">
<path d="M61.7127 29.3548C59.3974 25.4771 55.4351 23.2277 50.4186 22.9265C49.6225 20.5157 47.9405 18.4972 45.7127 17.2795C43.3263 15.9989 40.5503 15.6469 37.9198 16.2912C35.5804 13.7368 32.4396 12.0569 29.0162 11.5289C25.3136 10.9744 21.5295 11.5108 18.1268 13.0724C11.4633 16.0842 7.77388 21.9477 8.21624 28.3665C5.744 29.0589 3.58532 30.5809 2.10282 32.677C0.62032 34.7731 -0.095691 37.3155 0.0750609 39.8771C0.33859 45.0065 3.93388 50.4277 10.2962 50.823H26.0609C29.468 50.823 30.6821 50.1548 32.1504 48.8089C32.8381 48.2317 33.3921 47.5119 33.7741 46.6993C34.156 45.8867 34.3566 45.0008 34.3621 44.103C34.3902 42.6377 33.8389 41.2206 32.828 40.1595C31.3861 38.8116 29.6724 37.7879 27.8021 37.1571C25.4743 36.241 24.3104 35.2999 24.3104 34.3336C24.3104 32.9846 25.2296 32.3101 27.068 32.3101C27.7671 32.2945 28.4601 32.4428 29.0915 32.743C29.3488 32.8685 29.6249 33.0222 29.9198 33.2042C30.2877 33.415 30.7132 33.5031 31.1346 33.4557C31.556 33.4083 31.9514 33.2279 32.2633 32.9407C32.4912 32.7348 32.6685 32.4792 32.7814 32.1936C32.8943 31.908 32.9398 31.6003 32.9143 31.2942C32.8888 30.9882 32.793 30.6922 32.6344 30.4293C32.4757 30.1664 32.2586 29.9436 31.9998 29.7783C30.614 28.8094 28.9828 28.2515 27.2939 28.1689C25.4711 28.1078 23.6904 28.7249 22.2962 29.9007C21.66 30.4514 21.1468 31.1299 20.7901 31.892C20.4333 32.6541 20.241 33.4828 20.2256 34.3242C20.1982 35.0064 20.3101 35.6871 20.5544 36.3246C20.7988 36.9622 21.1705 37.5433 21.6468 38.0324C23.1376 39.3332 24.876 40.3192 26.7574 40.9312C29.217 41.885 30.4468 42.961 30.4468 44.1595C30.4309 44.5198 30.3264 44.8706 30.1426 45.1809C29.9587 45.4912 29.7011 45.7513 29.3927 45.9383C28.6783 46.4522 27.8161 46.7197 26.9362 46.7007H10.4845C6.55977 46.4371 4.33859 42.9359 4.16918 39.6607C3.99977 36.4983 5.64683 32.8183 10.8421 31.9995C11.1154 31.9573 11.377 31.8593 11.6107 31.7116C11.8444 31.5639 12.0452 31.3697 12.2006 31.141C12.356 30.9123 12.4627 30.6541 12.5139 30.3824C12.5652 30.1107 12.56 29.8314 12.4986 29.5618C11.1998 23.1807 15.4256 18.823 19.8209 16.8089C24.8374 14.5407 31.6892 14.6159 35.6704 19.9054C35.9397 20.2587 36.3184 20.5131 36.7474 20.6288C37.1763 20.7446 37.6316 20.7152 38.0421 20.5454C38.969 20.1823 39.9631 20.0229 40.957 20.0782C41.9508 20.1334 42.9212 20.4018 43.8021 20.8654C44.6332 21.3327 45.3445 21.9865 45.8802 22.7753C46.4158 23.5641 46.7612 24.4664 46.8892 25.4112C46.9659 25.8856 47.2212 26.3127 47.6027 26.6049C47.9841 26.8972 48.4629 27.0324 48.9409 26.983C54.3151 26.8607 56.9504 29.3454 58.2021 31.4536C59.1098 33.0721 59.5865 34.8967 59.5865 36.7524C59.5865 38.6081 59.1098 40.4327 58.2021 42.0512C57.3755 43.5317 56.1556 44.7547 54.6774 45.5852C53.1991 46.4157 51.52 46.8213 49.8256 46.7571H40.7998C40.2707 46.7466 39.7568 46.9336 39.3583 47.2817C38.9597 47.6297 38.7052 48.1139 38.6445 48.6395C38.6265 48.9182 38.6657 49.1977 38.7595 49.4608C38.8534 49.7238 39 49.965 39.1903 50.1694C39.3807 50.3738 39.6107 50.5372 39.8664 50.6496C40.1221 50.762 40.3981 50.821 40.6774 50.823H49.8256C52.239 50.8879 54.6246 50.295 56.7269 49.108C58.8291 47.9209 60.5689 46.1843 61.7598 44.0842C63.0344 41.8372 63.7006 39.2965 63.6923 36.7132C63.6841 34.1299 63.0017 31.5935 61.7127 29.3548Z" fill="#1D4ED8"/>
</svg>
