<?xml version="1.0" encoding="UTF-8" standalone="no"?>
<svg
   id="Layer_1"
   data-name="Layer 1"
   viewBox="0 0 16 16"
   version="1.1"
   sodipodi:docname="sunesis_iconx16.svg"
   width="16"
   height="16"
   inkscape:version="1.1.1 (3bf5ae0d25, 2021-09-20)"
   xmlns:inkscape="http://www.inkscape.org/namespaces/inkscape"
   xmlns:sodipodi="http://sodipodi.sourceforge.net/DTD/sodipodi-0.dtd"
   xmlns="http://www.w3.org/2000/svg"
   xmlns:svg="http://www.w3.org/2000/svg"
   xmlns:rdf="http://www.w3.org/1999/02/22-rdf-syntax-ns#"
   xmlns:cc="http://creativecommons.org/ns#"
   xmlns:dc="http://purl.org/dc/elements/1.1/">
  <sodipodi:namedview
     id="namedview25"
     pagecolor="#ffffff"
     bordercolor="#666666"
     borderopacity="1.0"
     inkscape:pageshadow="2"
     inkscape:pageopacity="0.0"
     inkscape:pagecheckerboard="0"
     showgrid="false"
     inkscape:zoom="15.651376"
     inkscape:cx="13.289567"
     inkscape:cy="12.682591"
     inkscape:window-width="1920"
     inkscape:window-height="1017"
     inkscape:window-x="1912"
     inkscape:window-y="-8"
     inkscape:window-maximized="1"
     inkscape:current-layer="Layer_1"
     width="64px" />
  <defs
     id="defs4">
    <style
       id="style2">.cls-1{fill:#254a99;}</style>
  </defs>
  <title
     id="title6">sunesis-logo</title>
  <path
     class="cls-1"
     d="M 15.414328,7.5733125 C 14.839075,6.6098801 13.854596,6.0509959 12.608213,5.9761666 A 2.4880875,2.4880875 0 0 0 11.439,4.5731097 2.7242689,2.7242689 0 0 0 9.5027809,4.3275748 3.7812383,3.7812383 0 0 0 7.2906277,3.14433 4.7867622,4.7867622 0 0 0 4.5850661,3.527832 C 2.9294589,4.276129 2.0127954,5.7329698 2.1227014,7.3277775 A 2.7780525,2.7780525 0 0 0 0.09996118,10.187675 c 0.065476,1.274443 0.95875542,2.621378 2.53953272,2.719591 H 6.556361 c 0.8465115,0 1.1481687,-0.166027 1.5129631,-0.500423 A 1.5386858,1.5386858 0 0 0 8.6188543,11.23763 1.3820109,1.3820109 0 0 0 8.2376915,10.257827 3.4374896,3.4374896 0 0 0 6.9889707,9.5118685 q -0.8675575,-0.341409 -0.8675575,-0.701527 0,-0.502762 0.6851602,-0.502762 a 1.1130917,1.1130917 0 0 1 0.5027621,0.107567 q 0.095875,0.04676 0.2057808,0.114583 a 0.49574677,0.49574677 0 0 0 0.5822693,-0.06548 v 0 a 0.49574677,0.49574677 0 0 0 -0.065476,-0.785707 2.2308605,2.2308605 0 0 0 -1.1692145,-0.399873 1.8309892,1.8309892 0 0 0 -1.2417048,0.430272 1.4895787,1.4895787 0 0 0 -0.514454,1.099061 1.2487205,1.2487205 0 0 0 0.3531023,0.92134 3.6479479,3.6479479 0 0 0 1.2697662,0.7202365 q 0.916664,0.355439 0.916664,0.802081 A 0.54485375,0.54485375 0 0 1 7.3841648,11.693622 1.0078625,1.0078625 0 0 1 6.7738349,11.883035 H 2.6862624 C 1.7111382,11.817558 1.159269,10.947664 1.1171775,10.133891 1.0750856,9.3481795 1.4843106,8.4338545 2.7751227,8.2304105 v 0 A 0.50042363,0.50042363 0 0 0 3.186686,7.6247585 v 0 C 2.8639831,6.0393038 3.9139371,4.9566119 5.0059834,4.456188 6.2523657,3.8926269 7.954741,3.9113341 8.9438971,5.2255308 v 0 a 0.50042363,0.50042363 0 0 0 0.589283,0.1590131 v 0 a 1.7234216,1.7234216 0 0 1 1.4311179,0.079506 1.5316703,1.5316703 0 0 1 0.767005,1.1294604 0.46768563,0.46768563 0 0 0 0.509777,0.3905172 v 0 c 1.335243,-0.0304 1.990004,0.586946 2.301014,1.110754 a 2.6915308,2.6915308 0 0 1 0,2.6330685 2.2846443,2.2846443 0 0 1 -2.081201,1.169217 H 10.21834 a 0.52848474,0.52848474 0 0 0 -0.5355002,0.467682 0.50977729,0.50977729 0 0 0 0.5051002,0.542516 h 2.272953 a 3.3065372,3.3065372 0 0 0 2.965127,-1.674314 3.6877012,3.6877012 0 0 0 -0.0117,-3.6596395 z"
     id="path22"
     style="stroke-width:0.233843" />
  <metadata
     id="metadata27">
    <rdf:RDF>
      <cc:Work
         rdf:about="">
        <dc:title>sunesis-logo</dc:title>
      </cc:Work>
    </rdf:RDF>
  </metadata>
</svg>
