<?xml version="1.0" encoding="UTF-8" standalone="no"?>
<svg
   id="Layer_1"
   data-name="Layer 1"
   viewBox="0 0 512 512"
   version="1.1"
   sodipodi:docname="sunesis_iconx512.svg"
   width="512"
   height="512"
   inkscape:version="1.1.1 (3bf5ae0d25, 2021-09-20)"
   xmlns:inkscape="http://www.inkscape.org/namespaces/inkscape"
   xmlns:sodipodi="http://sodipodi.sourceforge.net/DTD/sodipodi-0.dtd"
   xmlns="http://www.w3.org/2000/svg"
   xmlns:svg="http://www.w3.org/2000/svg"
   xmlns:rdf="http://www.w3.org/1999/02/22-rdf-syntax-ns#"
   xmlns:cc="http://creativecommons.org/ns#"
   xmlns:dc="http://purl.org/dc/elements/1.1/">
  <sodipodi:namedview
     id="namedview25"
     pagecolor="#ffffff"
     bordercolor="#666666"
     borderopacity="1.0"
     inkscape:pageshadow="2"
     inkscape:pageopacity="0.0"
     inkscape:pagecheckerboard="0"
     showgrid="false"
     inkscape:zoom="0.48910549"
     inkscape:cx="-415.04339"
     inkscape:cy="223.87808"
     inkscape:window-width="1920"
     inkscape:window-height="1017"
     inkscape:window-x="1912"
     inkscape:window-y="-8"
     inkscape:window-maximized="1"
     inkscape:current-layer="Layer_1"
     width="64px" />
  <defs
     id="defs4">
    <style
       id="style2">.cls-1{fill:#254a99;}</style>
  </defs>
  <title
     id="title6">sunesis-logo</title>
  <path
     class="cls-1"
     d="m 495.10575,242.23966 c -18.55146,-31.06988 -50.30003,-49.09342 -90.49482,-51.50661 a 80.238724,80.238724 0 0 0 -37.70617,-45.24741 87.855376,87.855376 0 0 0 -62.4414,-7.9183 A 121.94175,121.94175 0 0 0 233.12328,99.408701 154.36905,154.36905 0 0 0 145.8712,111.77632 C 92.47927,135.90827 62.917642,182.89016 66.462021,234.32137 A 89.589853,89.589853 0 0 0 1.2303498,326.55066 c 2.1115455,41.0997 30.9190562,84.53724 81.8977892,87.70455 H 209.4438 c 27.29927,0 37.02746,-5.35426 48.79179,-16.13825 a 49.62132,49.62132 0 0 0 17.72189,-37.70615 44.568688,44.568688 0 0 0 -12.2922,-31.5978 110.85614,110.85614 0 0 0 -40.2702,-24.05654 q -27.97797,-11.01019 -27.97797,-22.62367 0,-16.21366 22.09582,-16.21366 a 35.896271,35.896271 0 0 1 16.21365,3.46897 q 3.0919,1.50824 6.63628,3.69519 a 15.987415,15.987415 0 0 0 18.77768,-2.11153 v 0 a 15.987415,15.987415 0 0 0 -2.11155,-25.33854 71.943371,71.943371 0 0 0 -37.70617,-12.89552 59.047858,59.047858 0 0 0 -40.04395,13.87588 48.037661,48.037661 0 0 0 -16.59071,35.44378 40.270186,40.270186 0 0 0 11.38726,29.71245 117.64324,117.64324 0 0 0 40.9489,23.22702 q 29.56164,11.46263 29.56164,25.86643 a 17.571074,17.571074 0 0 1 -8.44619,14.2529 32.502718,32.502718 0 0 1 -19.68262,6.10843 H 84.636388 C 53.189449,379.11304 35.392138,351.05966 34.034718,324.81617 32.677292,299.47762 45.874452,269.9914 87.502059,263.43053 v 0 a 16.13824,16.13824 0 0 0 13.272571,-19.53179 v 0 c -10.406901,-51.12956 23.45323,-86.04548 58.6708,-102.18372 40.19477,-18.17437 95.09495,-17.57108 126.99439,24.81066 v 0 a 16.13824,16.13824 0 0 0 19.00388,5.12804 v 0 a 55.578893,55.578893 0 0 1 46.15233,2.56402 49.395079,49.395079 0 0 1 24.73526,36.42416 15.082467,15.082467 0 0 0 16.4399,12.59385 v 0 c 43.06046,-0.98035 64.1759,18.92851 74.20574,35.82087 a 86.799603,86.799603 0 0 1 0,84.91426 73.677854,73.677854 0 0 1 -67.11699,37.7062 h -72.32042 a 17.043188,17.043188 0 0 0 -17.26942,15.08245 16.439889,16.439889 0 0 0 16.28907,17.49568 h 73.30077 a 106.63304,106.63304 0 0 0 95.62287,-53.99523 118.92526,118.92526 0 0 0 -0.37709,-118.02032 z"
     id="path22"
     style="stroke-width:7.54126" />
  <metadata
     id="metadata27">
    <rdf:RDF>
      <cc:Work
         rdf:about="">
        <dc:title>sunesis-logo</dc:title>
      </cc:Work>
    </rdf:RDF>
  </metadata>
</svg>
