<?xml version="1.0" encoding="UTF-8" standalone="no"?>
<svg
   id="Layer_1"
   data-name="Layer 1"
   viewBox="0 0 150 150"
   version="1.1"
   sodipodi:docname="sunesis_iconx150.svg"
   width="150"
   height="150"
   inkscape:version="1.1.1 (3bf5ae0d25, 2021-09-20)"
   xmlns:inkscape="http://www.inkscape.org/namespaces/inkscape"
   xmlns:sodipodi="http://sodipodi.sourceforge.net/DTD/sodipodi-0.dtd"
   xmlns="http://www.w3.org/2000/svg"
   xmlns:svg="http://www.w3.org/2000/svg"
   xmlns:rdf="http://www.w3.org/1999/02/22-rdf-syntax-ns#"
   xmlns:cc="http://creativecommons.org/ns#"
   xmlns:dc="http://purl.org/dc/elements/1.1/">
  <sodipodi:namedview
     id="namedview25"
     pagecolor="#ffffff"
     bordercolor="#666666"
     borderopacity="1.0"
     inkscape:pageshadow="2"
     inkscape:pageopacity="0.0"
     inkscape:pagecheckerboard="0"
     showgrid="false"
     inkscape:zoom="3.9128439"
     inkscape:cx="62.614304"
     inkscape:cy="75.776087"
     inkscape:window-width="1920"
     inkscape:window-height="1017"
     inkscape:window-x="1912"
     inkscape:window-y="-8"
     inkscape:window-maximized="1"
     inkscape:current-layer="Layer_1"
     width="64px" />
  <defs
     id="defs4">
    <style
       id="style2">.cls-1{fill:#254a99;}</style>
  </defs>
  <title
     id="title6">sunesis-logo</title>
  <path
     class="cls-1"
     d="M 145.05723,70.968265 C 139.62172,61.864887 130.31948,56.584044 118.54253,55.876987 A 23.509694,23.509694 0 0 0 107.49475,42.61964 25.741349,25.741349 0 0 0 89.199608,40.299604 35.72855,35.72855 0 0 0 68.297192,29.119242 45.229647,45.229647 0 0 0 42.732609,32.742916 C 27.088941,39.813501 18.427476,53.579046 19.465968,68.648229 A 26.249545,26.249545 0 0 0 0.35329332,95.671121 C 0.97196949,107.71321 9.4124801,120.44027 24.349088,121.36828 H 61.35918 c 7.998601,0 10.848929,-1.56878 14.29584,-4.72845 A 14.53889,14.53889 0 0 0 80.847481,105.59204 13.058486,13.058486 0 0 0 77.245903,96.33399 32.4805,32.4805 0 0 0 65.446862,89.2855 q -8.197459,-3.225954 -8.197459,-6.628674 0,-4.750549 6.474006,-4.750549 a 10.517495,10.517495 0 0 1 4.750549,1.016396 q 0.905918,0.441913 1.944409,1.082684 a 4.6842623,4.6842623 0 0 0 5.5018,-0.618676 v 0 a 4.6842623,4.6842623 0 0 0 -0.618676,-7.424113 21.079181,21.079181 0 0 0 -11.04779,-3.778345 17.300837,17.300837 0 0 0 -11.732752,4.065587 14.074883,14.074883 0 0 0 -4.861025,10.384921 11.799038,11.799038 0 0 0 3.336431,8.705658 34.4691,34.4691 0 0 0 11.997899,6.805438 q 8.661468,3.358523 8.661468,7.578783 a 5.1482695,5.1482695 0 0 1 -2.474706,4.17606 9.5231939,9.5231939 0 0 1 -5.766947,1.78975 H 24.791001 C 15.577146,111.07174 10.36259,102.85219 9.9648696,95.162924 9.5671491,87.738808 13.433875,79.099438 25.630633,77.177122 v 0 a 4.7284536,4.7284536 0 0 0 3.888821,-5.722753 v 0 C 26.470265,56.473567 36.391178,46.243314 46.709814,41.514861 58.486757,36.189827 74.572336,36.36659 83.918765,48.784307 v 0 a 4.7284536,4.7284536 0 0 0 5.568086,1.502499 v 0 a 16.284441,16.284441 0 0 1 13.522489,0.751248 14.472603,14.472603 0 0 1 7.24735,10.672165 4.4191154,4.4191154 0 0 0 4.81684,3.68996 v 0 c 12.61657,-0.287242 18.80333,5.545991 21.74205,10.4954 a 25.432011,25.432011 0 0 1 0,24.879621 21.587379,21.587379 0 0 1 -19.66507,11.04779 H 95.960855 a 4.9936005,4.9936005 0 0 0 -5.059887,4.41911 4.8168359,4.8168359 0 0 0 4.772645,5.12618 h 21.476897 a 31.243146,31.243146 0 0 0 28.0172,-15.82043 34.844727,34.844727 0 0 0 -0.11049,-34.579585 z"
     id="path22"
     style="stroke-width:2.20956" />
  <metadata
     id="metadata27">
    <rdf:RDF>
      <cc:Work
         rdf:about="">
        <dc:title>sunesis-logo</dc:title>
      </cc:Work>
    </rdf:RDF>
  </metadata>
</svg>
