<?xml version="1.0" encoding="UTF-8" standalone="no"?>
<svg
   id="Layer_1"
   data-name="Layer 1"
   viewBox="0 0 192 192"
   version="1.1"
   sodipodi:docname="sunesis_iconx192.svg"
   width="192"
   height="192"
   inkscape:version="1.1.1 (3bf5ae0d25, 2021-09-20)"
   xmlns:inkscape="http://www.inkscape.org/namespaces/inkscape"
   xmlns:sodipodi="http://sodipodi.sourceforge.net/DTD/sodipodi-0.dtd"
   xmlns="http://www.w3.org/2000/svg"
   xmlns:svg="http://www.w3.org/2000/svg"
   xmlns:rdf="http://www.w3.org/1999/02/22-rdf-syntax-ns#"
   xmlns:cc="http://creativecommons.org/ns#"
   xmlns:dc="http://purl.org/dc/elements/1.1/">
  <sodipodi:namedview
     id="namedview25"
     pagecolor="#ffffff"
     bordercolor="#666666"
     borderopacity="1.0"
     inkscape:pageshadow="2"
     inkscape:pageopacity="0.0"
     inkscape:pagecheckerboard="0"
     showgrid="false"
     inkscape:zoom="1.956422"
     inkscape:cx="-6.1336461"
     inkscape:cy="139.28488"
     inkscape:window-width="1920"
     inkscape:window-height="1017"
     inkscape:window-x="1912"
     inkscape:window-y="-8"
     inkscape:window-maximized="1"
     inkscape:current-layer="Layer_1"
     width="64px" />
  <defs
     id="defs4">
    <style
       id="style2">.cls-1{fill:#254a99;}</style>
  </defs>
  <title
     id="title6">sunesis-logo</title>
  <path
     class="cls-1"
     d="M 185.55232,90.846338 C 178.60424,79.209729 166.71344,72.459367 151.65928,71.555555 A 30.051824,30.051824 0 0 0 137.53718,54.609036 32.90449,32.90449 0 0 0 114.15099,51.643394 45.670867,45.670867 0 0 0 87.431977,37.351832 57.81587,57.81587 0 0 0 54.753442,41.983879 C 34.756551,51.022022 23.684829,68.618157 25.012306,87.880698 A 33.554104,33.554104 0 0 0 0.5810761,122.42335 c 0.7908375,15.39308 11.5801199,31.66175 30.6731939,32.848 h 47.309029 c 10.2244,0 13.8679,-2.00533 18.273996,-6.04426 a 18.584682,18.584682 0 0 0 6.637385,-14.12209 16.692319,16.692319 0 0 0 -4.603801,-11.83433 41.518969,41.518969 0 0 0 -15.082404,-9.0099 q -10.478597,-4.12365 -10.478597,-8.47325 0,-6.072502 8.275552,-6.072502 a 13.444237,13.444237 0 0 1 6.072502,1.299232 q 1.158011,0.56488 2.485487,1.38396 a 5.9877694,5.9877694 0 0 0 7.032807,-0.79083 v 0 a 5.9877694,5.9877694 0 0 0 -0.790838,-9.49005 26.944964,26.944964 0 0 0 -14.1221,-4.829759 22.115205,22.115205 0 0 0 -14.997668,5.196933 17.991554,17.991554 0 0 0 -6.213721,13.274766 15.0824,15.0824 0 0 0 4.264873,11.12821 44.060945,44.060945 0 0 0 15.336599,8.69922 q 11.071726,4.2931 11.071726,9.68776 a 6.5808976,6.5808976 0 0 1 -3.163351,5.33814 12.173249,12.173249 0 0 1 -7.371738,2.28779 H 31.819155 C 20.041327,142.10955 13.375697,131.60271 12.867302,121.77373 12.358905,112.28368 17.30164,101.2402 32.892435,98.782958 v 0 a 6.0442581,6.0442581 0 0 0 4.970978,-7.315245 v 0 c -3.897698,-19.149566 8.783944,-32.22663 21.973986,-38.270887 15.054156,-6.806851 35.615929,-6.5809 47.563231,9.292341 v 0 a 6.0442581,6.0442581 0 0 0 7.11753,1.920606 v 0 a 20.815973,20.815973 0 0 1 17.28544,0.9603 18.499948,18.499948 0 0 1 9.2641,13.641948 5.6488391,5.6488391 0 0 0 6.15724,4.716779 v 0 c 16.12744,-0.367173 24.03581,7.089295 27.79229,13.415995 a 32.509071,32.509071 0 0 1 0,31.802955 27.59458,27.59458 0 0 1 -25.13734,14.12211 h -27.08618 a 6.3831884,6.3831884 0 0 0 -6.46792,5.64883 6.1572348,6.1572348 0 0 0 6.10075,6.55266 h 27.45335 a 39.937293,39.937293 0 0 0 35.81365,-20.22284 44.541099,44.541099 0 0 0 -0.14123,-44.202172 z"
     id="path22"
     style="stroke-width:2.82443" />
  <metadata
     id="metadata27">
    <rdf:RDF>
      <cc:Work
         rdf:about="">
        <dc:title>sunesis-logo</dc:title>
      </cc:Work>
    </rdf:RDF>
  </metadata>
</svg>
