<?xml version="1.0" encoding="UTF-8" standalone="no"?>
<svg
   id="Layer_1"
   data-name="Layer 1"
   viewBox="0 0 64.000001 64"
   version="1.1"
   sodipodi:docname="sunesis_iconx64.svg"
   width="64"
   height="64"
   inkscape:version="1.1.1 (3bf5ae0d25, 2021-09-20)"
   xmlns:inkscape="http://www.inkscape.org/namespaces/inkscape"
   xmlns:sodipodi="http://sodipodi.sourceforge.net/DTD/sodipodi-0.dtd"
   xmlns="http://www.w3.org/2000/svg"
   xmlns:svg="http://www.w3.org/2000/svg"
   xmlns:rdf="http://www.w3.org/1999/02/22-rdf-syntax-ns#"
   xmlns:cc="http://creativecommons.org/ns#"
   xmlns:dc="http://purl.org/dc/elements/1.1/">
  <sodipodi:namedview
     id="namedview25"
     pagecolor="#ffffff"
     bordercolor="#666666"
     borderopacity="1.0"
     inkscape:pageshadow="2"
     inkscape:pageopacity="0.0"
     inkscape:pagecheckerboard="0"
     showgrid="false"
     inkscape:zoom="3.9128439"
     inkscape:cx="21.72333"
     inkscape:cy="-6.0058618"
     inkscape:window-width="1920"
     inkscape:window-height="1017"
     inkscape:window-x="1912"
     inkscape:window-y="-8"
     inkscape:window-maximized="1"
     inkscape:current-layer="Layer_1"
     width="64px" />
  <defs
     id="defs4">
    <style
       id="style2">.cls-1{fill:#254a99;}</style>
  </defs>
  <title
     id="title6">sunesis-logo</title>
  <path
     class="cls-1"
     d="m 61.908932,30.278766 c -2.320536,-3.886427 -6.291861,-6.140932 -11.31969,-6.44279 A 10.036792,10.036792 0 0 0 45.872705,18.176131 10.989533,10.989533 0 0 0 38.062118,17.185658 15.253283,15.253283 0 0 0 29.138429,12.412522 19.309505,19.309505 0 0 0 18.224361,13.959546 C 11.545744,16.97813 7.8479789,22.854936 8.2913334,29.288293 A 11.206493,11.206493 0 0 0 0.13172335,40.824944 C 0.39584946,45.96597 3.9992842,51.399422 10.376042,51.795611 h 15.800401 c 3.414774,0 4.63164,-0.669748 6.1032,-2.018678 a 6.2069635,6.2069635 0 0 0 2.216773,-4.716538 5.5749475,5.5749475 0 0 0 -1.537591,-3.952458 13.866621,13.866621 0 0 0 -5.037263,-3.009151 q -3.499671,-1.377229 -3.499671,-2.829923 0,-2.028111 2.763892,-2.028111 a 4.4901438,4.4901438 0 0 1 2.028111,0.433921 q 0.386756,0.188662 0.83011,0.462221 a 1.9998119,1.9998119 0 0 0 2.348836,-0.264126 v 0 a 1.9998119,1.9998119 0 0 0 -0.264126,-3.169513 8.9991538,8.9991538 0 0 0 -4.716538,-1.613056 7.3860979,7.3860979 0 0 0 -5.008963,1.735686 6.0088689,6.0088689 0 0 0 -2.075276,4.433545 5.0372622,5.0372622 0 0 0 1.424394,3.716632 14.715597,14.715597 0 0 0 5.12216,2.905387 q 3.697766,1.433827 3.697766,3.235545 a 2.1979065,2.1979065 0 0 1 -1.056505,1.782851 4.0656554,4.0656554 0 0 1 -2.462033,0.764079 H 10.564704 C 6.6311122,47.399798 4.4049064,43.890694 4.2351111,40.607984 4.0653157,37.43847 5.7161039,33.750138 10.923161,32.92946 v 0 a 2.0186781,2.0186781 0 0 0 1.660221,-2.443166 v 0 c -1.301764,-6.395625 2.933686,-10.763139 7.338933,-12.781817 5.027829,-2.273371 11.895107,-2.197907 15.885298,3.103482 v 0 a 2.0186781,2.0186781 0 0 0 2.377135,0.641449 v 0 a 6.9521764,6.9521764 0 0 1 5.773042,0.320724 6.1786643,6.1786643 0 0 1 3.094049,4.556176 1.886615,1.886615 0 0 0 2.05641,1.575323 v 0 c 5.386286,-0.12263 8.027547,2.367702 9.282146,4.480711 a 10.85747,10.85747 0 0 1 0,10.621643 9.2161145,9.2161145 0 0 1 -8.395437,4.716537 h -9.046319 a 2.131875,2.131875 0 0 0 -2.160174,1.886615 2.0564104,2.0564104 0 0 0 2.037544,2.188474 h 9.168949 a 13.338368,13.338368 0 0 0 11.96114,-6.754082 14.87596,14.87596 0 0 0 -0.04717,-14.762763 z"
     id="path22"
     style="stroke-width:0.943308" />
  <metadata
     id="metadata27">
    <rdf:RDF>
      <cc:Work
         rdf:about="">
        <dc:title>sunesis-logo</dc:title>
      </cc:Work>
    </rdf:RDF>
  </metadata>
</svg>
