<?xml version="1.0" encoding="UTF-8" standalone="no"?>
<svg
   id="Layer_1"
   data-name="Layer 1"
   viewBox="0 0 180 180"
   version="1.1"
   sodipodi:docname="sunesis_iconx180.svg"
   width="180"
   height="180"
   inkscape:version="1.1.1 (3bf5ae0d25, 2021-09-20)"
   xmlns:inkscape="http://www.inkscape.org/namespaces/inkscape"
   xmlns:sodipodi="http://sodipodi.sourceforge.net/DTD/sodipodi-0.dtd"
   xmlns="http://www.w3.org/2000/svg"
   xmlns:svg="http://www.w3.org/2000/svg"
   xmlns:rdf="http://www.w3.org/1999/02/22-rdf-syntax-ns#"
   xmlns:cc="http://creativecommons.org/ns#"
   xmlns:dc="http://purl.org/dc/elements/1.1/">
  <sodipodi:namedview
     id="namedview25"
     pagecolor="#ffffff"
     bordercolor="#666666"
     borderopacity="1.0"
     inkscape:pageshadow="2"
     inkscape:pageopacity="0.0"
     inkscape:pagecheckerboard="0"
     showgrid="false"
     inkscape:zoom="3.9128439"
     inkscape:cx="62.614304"
     inkscape:cy="116.66706"
     inkscape:window-width="1920"
     inkscape:window-height="1017"
     inkscape:window-x="1912"
     inkscape:window-y="-8"
     inkscape:window-maximized="1"
     inkscape:current-layer="Layer_1"
     width="64px" />
  <defs
     id="defs4">
    <style
       id="style2">.cls-1{fill:#254a99;}</style>
  </defs>
  <title
     id="title6">sunesis-logo</title>
  <path
     class="cls-1"
     d="M 174.14774,85.157365 C 167.61899,74.223038 156.44581,67.880067 142.30018,67.030801 A 28.238164,28.238164 0 0 0 129.03037,51.107023 30.918669,30.918669 0 0 0 107.05556,48.320361 42.914581,42.914581 0 0 0 81.949068,34.89131 54.32662,54.32662 0 0 0 51.242718,39.243808 C 32.452661,47.736489 22.049129,64.270678 23.296491,82.370704 A 31.529078,31.529078 0 0 0 0.33971195,114.82867 C 1.0828216,129.29276 11.22096,144.5796 29.161746,145.69426 h 44.453878 c 9.607347,0 13.030958,-1.88431 17.171141,-5.67948 a 17.463076,17.463076 0 0 0 6.236813,-13.26981 15.68492,15.68492 0 0 0 -4.325958,-11.12011 39.013255,39.013255 0 0 0 -14.172165,-8.46615 q -9.846202,-3.87478 -9.846202,-7.961881 0,-5.706019 7.776113,-5.706019 a 12.632863,12.632863 0 0 1 5.70602,1.220822 q 1.088124,0.530794 2.335486,1.300442 a 5.6264011,5.6264011 0 0 0 6.608369,-0.743109 v 0 a 5.6264011,5.6264011 0 0 0 -0.74311,-8.917314 25.318806,25.318806 0 0 0 -13.269816,-4.538278 20.780529,20.780529 0 0 0 -14.092543,4.883293 16.905744,16.905744 0 0 0 -5.838716,12.473625 14.172161,14.172161 0 0 0 4.007483,10.456609 41.40182,41.40182 0 0 0 14.411019,8.17421 q 10.403536,4.03401 10.403536,9.10309 a 6.1837334,6.1837334 0 0 1 -2.97244,5.01598 11.43858,11.43858 0 0 1 -6.926845,2.14972 H 29.69254 C 18.625516,133.32679 12.362164,123.45405 11.884451,114.21826 11.406737,105.30094 16.051172,94.923949 30.701046,92.615001 v 0 a 5.6794806,5.6794806 0 0 0 4.670974,-6.873762 v 0 C 31.709552,67.74737 43.625844,55.459521 56.019852,49.780041 c 14.145622,-6.39605 33.46647,-6.183735 44.692738,8.731539 v 0 a 5.6794806,5.6794806 0 0 0 6.68798,1.804695 v 0 a 19.559707,19.559707 0 0 1 16.24225,0.902345 17.383456,17.383456 0 0 1 8.705,12.818642 5.3079256,5.3079256 0 0 0 5.78564,4.432116 v 0 c 15.15413,-0.345014 22.58522,6.661448 26.115,12.606325 a 30.547114,30.547114 0 0 1 0,29.883617 25.929217,25.929217 0 0 1 -23.62028,13.26982 h -25.4515 a 5.9979561,5.9979561 0 0 0 -6.07757,5.30792 5.7856391,5.7856391 0 0 0 5.73256,6.1572 h 25.79651 a 37.527034,37.527034 0 0 0 33.65226,-19.00237 41.852996,41.852996 0 0 0 -0.13271,-41.534525 z"
     id="path22"
     style="stroke-width:2.65397" />
  <metadata
     id="metadata27">
    <rdf:RDF>
      <cc:Work
         rdf:about="">
        <dc:title>sunesis-logo</dc:title>
      </cc:Work>
    </rdf:RDF>
  </metadata>
</svg>
