<?xml version="1.0" encoding="UTF-8" standalone="no"?>
<svg
   id="Layer_1"
   data-name="Layer 1"
   viewBox="0 0 32 32"
   version="1.1"
   sodipodi:docname="sunesis_iconx32.svg"
   width="32"
   height="32"
   inkscape:version="1.1.1 (3bf5ae0d25, 2021-09-20)"
   xmlns:inkscape="http://www.inkscape.org/namespaces/inkscape"
   xmlns:sodipodi="http://sodipodi.sourceforge.net/DTD/sodipodi-0.dtd"
   xmlns="http://www.w3.org/2000/svg"
   xmlns:svg="http://www.w3.org/2000/svg"
   xmlns:rdf="http://www.w3.org/1999/02/22-rdf-syntax-ns#"
   xmlns:cc="http://creativecommons.org/ns#"
   xmlns:dc="http://purl.org/dc/elements/1.1/">
  <sodipodi:namedview
     id="namedview25"
     pagecolor="#ffffff"
     bordercolor="#666666"
     borderopacity="1.0"
     inkscape:pageshadow="2"
     inkscape:pageopacity="0.0"
     inkscape:pagecheckerboard="0"
     showgrid="false"
     inkscape:zoom="7.8256878"
     inkscape:cx="34.885112"
     inkscape:cy="25.620751"
     inkscape:window-width="1920"
     inkscape:window-height="1017"
     inkscape:window-x="1912"
     inkscape:window-y="-8"
     inkscape:window-maximized="1"
     inkscape:current-layer="Layer_1"
     width="64px" />
  <defs
     id="defs4">
    <style
       id="style2">.cls-1{fill:#254a99;}</style>
  </defs>
  <title
     id="title6">sunesis-logo</title>
  <path
     class="cls-1"
     d="M 30.893879,15.14287 C 29.738313,13.207529 27.760695,12.084844 25.256966,11.934527 A 4.9980632,4.9980632 0 0 0 22.908252,9.1160703 5.4725039,5.4725039 0 0 0 19.018782,8.6228403 7.595741,7.595741 0 0 0 14.575015,6.2459415 9.6156347,9.6156347 0 0 0 9.1400901,7.0163193 C 5.814311,8.5194963 3.9729199,11.445994 4.1936989,14.64964 A 5.5805442,5.5805442 0 0 0 0.13042388,20.394595 C 0.26195187,22.954691 2.0563691,25.660412 5.23183,25.857703 h 7.868192 c 1.70047,0 2.306438,-0.333517 3.039236,-1.00525 A 3.0909079,3.0909079 0 0 0 17.243153,22.50374 2.7761798,2.7761798 0 0 0 16.477474,20.535515 6.9052196,6.9052196 0 0 0 13.969047,19.037036 Q 12.2263,18.351213 12.2263,17.627809 q 0,-1.009947 1.376348,-1.009947 a 2.2359756,2.2359756 0 0 1 1.009947,0.216082 q 0.192594,0.09395 0.413372,0.230173 a 0.99585474,0.99585474 0 0 0 1.169661,-0.131528 v 0 a 0.99585474,0.99585474 0 0 0 -0.131528,-1.578335 4.4813463,4.4813463 0 0 0 -2.348715,-0.803261 3.678086,3.678086 0 0 0 -2.494333,0.864328 2.9922617,2.9922617 0 0 0 -1.033434,2.20779 2.5084264,2.5084264 0 0 0 0.709311,1.850786 7.3279876,7.3279876 0 0 0 2.550703,1.446809 q 1.841392,0.714006 1.841392,1.611218 a 1.0945007,1.0945007 0 0 1 -0.526112,0.887812 2.0245915,2.0245915 0 0 1 -1.226029,0.380493 H 5.3257788 C 3.3669517,23.6687 2.2583586,21.921258 2.1738051,20.286554 2.0892511,18.708217 2.9113011,16.871523 5.504281,16.462846 v 0 a 1.0052496,1.0052496 0 0 0 0.8267472,-1.216633 v 0 c -0.6482447,-3.184856 1.4609,-5.3597647 3.6545997,-6.3650147 2.5037291,-1.13208 5.9234561,-1.094501 7.9104701,1.5454537 v 0 a 1.0052496,1.0052496 0 0 0 1.18375,0.319425 v 0 a 3.4620044,3.4620044 0 0 1 2.874825,0.159713 3.0768151,3.0768151 0 0 1 1.540757,2.268857 0.93948561,0.93948561 0 0 0 1.024039,0.78447 v 0 c 2.682233,-0.06107 3.997513,1.179056 4.622269,2.231279 a 5.4067396,5.4067396 0 0 1 0,5.289302 4.5893872,4.5893872 0 0 1 -4.180711,2.348717 h -4.504833 a 1.0616187,1.0616187 0 0 0 -1.07571,0.939483 1.0240392,1.0240392 0 0 0 1.014644,1.089805 h 4.565899 a 6.6421628,6.6421628 0 0 0 5.956339,-3.363358 7.4078441,7.4078441 0 0 0 -0.0235,-7.351475 z"
     id="path22"
     style="stroke-width:0.469744" />
  <metadata
     id="metadata27">
    <rdf:RDF>
      <cc:Work
         rdf:about="">
        <dc:title>sunesis-logo</dc:title>
      </cc:Work>
    </rdf:RDF>
  </metadata>
</svg>
