<?xml version="1.0" encoding="UTF-8" standalone="no"?>
<svg
   id="Layer_1"
   data-name="Layer 1"
   viewBox="0 0 48 48"
   version="1.1"
   sodipodi:docname="sunesis_iconx48.svg"
   width="48"
   height="48"
   inkscape:version="1.1.1 (3bf5ae0d25, 2021-09-20)"
   xmlns:inkscape="http://www.inkscape.org/namespaces/inkscape"
   xmlns:sodipodi="http://sodipodi.sourceforge.net/DTD/sodipodi-0.dtd"
   xmlns="http://www.w3.org/2000/svg"
   xmlns:svg="http://www.w3.org/2000/svg"
   xmlns:rdf="http://www.w3.org/1999/02/22-rdf-syntax-ns#"
   xmlns:cc="http://creativecommons.org/ns#"
   xmlns:dc="http://purl.org/dc/elements/1.1/">
  <sodipodi:namedview
     id="namedview25"
     pagecolor="#ffffff"
     bordercolor="#666666"
     borderopacity="1.0"
     inkscape:pageshadow="2"
     inkscape:pageopacity="0.0"
     inkscape:pagecheckerboard="0"
     showgrid="false"
     inkscape:zoom="7.8256878"
     inkscape:cx="34.885112"
     inkscape:cy="25.620751"
     inkscape:window-width="1920"
     inkscape:window-height="1017"
     inkscape:window-x="1912"
     inkscape:window-y="-8"
     inkscape:window-maximized="1"
     inkscape:current-layer="Layer_1"
     width="64px" />
  <defs
     id="defs4">
    <style
       id="style2">.cls-1{fill:#254a99;}</style>
  </defs>
  <title
     id="title6">sunesis-logo</title>
  <path
     class="cls-1"
     d="m 46.325177,22.715205 c -1.732136,-2.900978 -4.696485,-4.583826 -8.44945,-4.809144 A 7.4918455,7.4918455 0 0 0 34.355123,13.681335 8.2030083,8.2030083 0 0 0 28.525004,12.942008 11.385634,11.385634 0 0 0 21.86402,9.3791567 14.413353,14.413353 0 0 0 13.717341,10.533914 c -4.9851757,2.253187 -7.7453284,6.63986 -7.4143919,11.441964 a 8.3649553,8.3649553 0 0 0 -6.09064496,8.611399 c 0.19715384,3.837456 2.88689516,7.893195 7.64675136,8.188925 H 19.65308 c 2.548918,0 3.457234,-0.499925 4.555662,-1.506819 A 4.6331155,4.6331155 0 0 0 25.863425,33.74878 4.1613539,4.1613539 0 0 0 24.71571,30.79851 10.350577,10.350577 0 0 0 20.955704,28.552365 q -2.612289,-1.028015 -2.612289,-2.11236 0,-1.513861 2.063075,-1.513861 a 3.3516151,3.3516151 0 0 1 1.51386,0.323897 q 0.288689,0.140822 0.619625,0.345017 a 1.4927362,1.4927362 0 0 0 1.753262,-0.197153 v 0 a 1.4927362,1.4927362 0 0 0 -0.197154,-2.365845 6.7173129,6.7173129 0 0 0 -3.520605,-1.204048 5.513266,5.513266 0 0 0 -3.73888,1.295584 4.4852498,4.4852498 0 0 0 -1.549066,3.309366 3.7600051,3.7600051 0 0 0 1.063222,2.774236 10.984285,10.984285 0 0 0 3.823376,2.168693 q 2.760154,1.07026 2.760154,2.415135 a 1.6406015,1.6406015 0 0 1 -0.788616,1.330786 3.0347609,3.0347609 0 0 1 -1.837756,0.57034 H 7.99988 C 5.0636967,35.494997 3.4019714,32.875668 3.2752299,30.425329 3.1484877,28.059481 4.3806993,25.306369 8.2674458,24.693784 v 0 a 1.5068186,1.5068186 0 0 0 1.2392526,-1.823672 v 0 c -0.9716862,-4.773939 2.1898156,-8.034019 5.4780606,-9.540838 3.752964,-1.696931 8.878964,-1.640602 11.857397,2.316558 v 0 a 1.5068186,1.5068186 0 0 0 1.774382,0.478802 v 0 a 5.1893706,5.1893706 0 0 1 4.309218,0.239401 4.6119912,4.6119912 0 0 1 2.309517,3.400903 1.4082417,1.4082417 0 0 0 1.534984,1.175881 v 0 c 4.020532,-0.09154 5.99207,1.767346 6.928548,3.344576 a 8.1044309,8.1044309 0 0 1 0,7.928397 6.8792607,6.8792607 0 0 1 -6.266675,3.520609 h -6.752518 a 1.5913131,1.5913131 0 0 0 -1.612436,1.408238 1.5349833,1.5349833 0 0 0 1.520901,1.633563 h 6.844053 a 9.9562682,9.9562682 0 0 0 8.928253,-5.041505 11.103986,11.103986 0 0 0 -0.03523,-11.019492 z"
     id="path22"
     style="stroke-width:0.704122" />
  <metadata
     id="metadata27">
    <rdf:RDF>
      <cc:Work
         rdf:about="">
        <dc:title>sunesis-logo</dc:title>
      </cc:Work>
    </rdf:RDF>
  </metadata>
</svg>
