<svg id="Layer_1" data-name="Layer 1" xmlns="http://www.w3.org/2000/svg" viewBox="0 0 156.44 97.11"><defs><style>.cls-1{fill:#eed25d;}.cls-2{fill:#fff;}</style></defs><title>kumuluz-prod-</title><polygon class="cls-1" points="36.5 97.08 119.38 97.11 144.36 83.56 149.3 68.74 149.3 48.55 137.77 38.28 118.56 34.16 113.62 20.44 101.27 15.22 89.74 17.97 74.65 4.8 54.61 4.8 29.64 18.79 25.25 35.26 22.23 47.84 5.21 59.14 5.21 80.82 21.68 92.07 36.5 97.08"/><path class="cls-2" d="M151.58,44.36c-5.7-9.54-15.43-15.07-27.66-15.81a24.6,24.6,0,0,0-11.46-13.82A26.94,26.94,0,0,0,93.3,12.28,37.42,37.42,0,0,0,71.41.58a47.4,47.4,0,0,0-27,3.77C28.06,11.76,18.9,26.17,20.08,42,5.49,46.43-.55,58.93,0,70.23c0.66,12.63,9.5,25.9,25.13,26.84l25,0H55a5.2,5.2,0,0,0,5.2-5.2v-20l19,23.41a4.75,4.75,0,0,0,3.69,1.75h0.2a4.75,4.75,0,0,0,3.69-7.74L72.28,71.49l13.07-14a4.75,4.75,0,0,0-3.47-8h0A4.75,4.75,0,0,0,78.42,51L60.16,70.39v-39a4.75,4.75,0,0,0-4.75-4.75H54.87a4.75,4.75,0,0,0-4.75,4.75V87L25.63,87C16,86.35,10.52,77.82,10.1,69.7c-0.41-7.77,3.7-16.82,16.43-18.93h0a5,5,0,0,0,4.11-6h0c-3.24-15.58,7.15-26.37,18-31.26,12.34-5.59,29.17-5.4,39,7.61h0a5,5,0,0,0,5.89,1.65h0a17.05,17.05,0,0,1,14.17.78c3.94,2.16,6.52,5.92,7.47,10.89h0a5,5,0,0,0,5.06,4.09h0c13.22-.29,19.69,5.81,22.78,11,4.54,7.6,4.55,18.07,0,26C138.75,83,131.44,87,122.36,87H100.18a5.23,5.23,0,0,0-5.3,4.52,5,5,0,0,0,5,5.56h22.46c12.68,0,23.38-6,29.35-16.57A36.5,36.5,0,0,0,151.58,44.36Z"/></svg>