<svg id="Layer_1" data-name="Layer 1" xmlns="http://www.w3.org/2000/svg" viewBox="0 0 887.20047 809.98287"><defs><style>.cls-1{fill:#24368a;}.cls-2{fill:#155bfb;}.cls-3{fill:#98cdff;}</style></defs><title>kumuluz-bg-shapes</title><rect class="cls-1" x="77.36971" y="600.78305" width="7.99967" height="175.48322" transform="translate(-284.21804 99.42965) rotate(-25.08347)"/><rect class="cls-1" x="361.19183" y="45.39535" width="8.00045" height="147.45541" transform="translate(3.40181 248.20969) rotate(-37.70234)"/><rect class="cls-1" x="223.48021" y="83.27203" width="105.14244" height="8.00014" transform="translate(-2.89252 164.8033) rotate(-33.07708)"/><rect class="cls-1" x="692.32819" y="439.12563" width="222.03731" height="8.00022" transform="translate(74.9756 1000.98047) rotate(-66.32937)"/><rect class="cls-1" x="588.3866" y="612.24308" width="143.54108" height="8.00017" transform="matrix(0.93626, -0.35131, 0.35131, 0.93626, -174.4137, 271.20028)"/><rect class="cls-1" x="516.26779" y="464.18278" width="8.00038" height="207.0822" transform="translate(-248.80089 528.70791) rotate(-44.59333)"/><rect class="cls-1" x="644.96928" y="306.5833" width="8.00023" height="278.45108" transform="translate(-137.58889 480.92089) rotate(-37.04307)"/><rect class="cls-1" x="711.69602" y="198.05685" width="7.99988" height="265.31697" transform="translate(328.16302 1017.30951) rotate(-85.35955)"/><rect class="cls-1" x="283.61983" y="543.81216" width="181.62247" height="7.99994" transform="translate(-251.81661 328.47084) rotate(-36.34464)"/><rect class="cls-1" x="373.42788" y="281.4616" width="8.00004" height="235.68252" transform="translate(-163.538 303.12337) rotate(-36.53179)"/><rect class="cls-1" x="276.96078" y="237.03509" width="163.6403" height="8.00039" transform="translate(-54.34388 368.11656) rotate(-50.99231)"/><rect class="cls-1" x="398.4738" y="409.35237" width="181.53514" height="8.00011" transform="translate(-102.56854 658.25724) rotate(-62.67487)"/><rect class="cls-1" x="307.28092" y="300.61426" width="208.60693" height="8"/><rect class="cls-1" x="259.08946" y="156.15577" width="7.99962" height="161.61302" transform="translate(-86.76205 182.45408) rotate(-33.15339)"/><rect class="cls-1" x="128.92584" y="387.52937" width="220.71017" height="8.0001" transform="translate(-216.52833 338.72249) rotate(-51.96062)"/><rect class="cls-1" x="92.59579" y="700.72371" width="180.09732" height="8.00034" transform="translate(-442.4651 331.58476) rotate(-44.63651)"/><rect class="cls-1" x="206.70666" y="466.48291" width="8.00009" height="141.90943" transform="translate(-263.10436 207.68075) rotate(-33.7553)"/><rect class="cls-1" x="119.92786" y="267.36824" width="8.00008" height="221.69955" transform="translate(-149.69138 89.18604) rotate(-25.28885)"/><rect class="cls-1" x="50.78353" y="215.77595" width="157.19302" height="8.00034" transform="translate(-120.32958 167.951) rotate(-47.79029)"/><rect class="cls-1" x="474.43454" y="152.40675" width="237.16004" height="7.99973" transform="translate(286.31409 687.50371) rotate(-74.76942)"/><polygon class="cls-2" points="350.562 337.445 307.281 262.48 264 337.445 350.562 337.445"/><polygon class="cls-2" points="312.123 511.028 323.325 469.222 281.519 480.424 312.123 511.028"/><polygon class="cls-2" points="740.983 298.894 752.185 257.088 710.379 268.29 740.983 298.894"/><polygon class="cls-2" points="781.365 202.922 792.566 161.116 750.76 172.318 781.365 202.922"/><polygon class="cls-2" points="453.562 202.445 410.281 127.48 367 202.445 453.562 202.445"/><polygon class="cls-2" points="363.384 85.778 320.103 10.813 276.823 85.778 363.384 85.778"/><polygon class="cls-2" points="887.2 372.034 843.92 297.069 800.639 372.034 887.2 372.034"/><polygon class="cls-2" points="214.562 503.433 171.281 428.468 128 503.433 214.562 503.433"/><polygon class="cls-2" points="86.562 631.433 43.281 556.468 0 631.433 86.562 631.433"/><path class="cls-1" d="M549.68034,342.40674a37.79248,37.79248,0,1,1,37.792-37.79248A37.83525,37.83525,0,0,1,549.68034,342.40674Zm0-67.585a29.79248,29.79248,0,1,0,29.792,29.79248A29.82609,29.82609,0,0,0,549.68034,274.82178Z"/><path class="cls-1" d="M520.26774,223.77613a20.89624,20.89624,0,1,1,20.89648-20.89624A20.91987,20.91987,0,0,1,520.26774,223.77613Zm0-33.79248a12.89624,12.89624,0,1,0,12.89648,12.89624A12.9107,12.9107,0,0,0,520.26774,189.98365Z"/><path class="cls-1" d="M665.86588,198.35254a20.89624,20.89624,0,1,1,20.896-20.89624A20.92,20.92,0,0,1,665.86588,198.35254Zm0-33.79248a12.89624,12.89624,0,1,0,12.896,12.89624A12.9108,12.9108,0,0,0,665.86588,164.56006Z"/><path class="cls-1" d="M411.58415,662.35254a20.89624,20.89624,0,1,1,20.89648-20.89624A20.91987,20.91987,0,0,1,411.58415,662.35254Zm0-33.79248a12.89624,12.89624,0,1,0,12.89648,12.89624A12.9107,12.9107,0,0,0,411.58415,628.56006Z"/><path class="cls-1" d="M566.57633,499.34082a20.89624,20.89624,0,1,1,20.896-20.89624A20.91987,20.91987,0,0,1,566.57633,499.34082Zm0-33.79248a12.89624,12.89624,0,1,0,12.896,12.89624A12.9107,12.9107,0,0,0,566.57633,465.54834Z"/><path class="cls-1" d="M846.30143,527.16553a20.89612,20.89612,0,1,1,20.89648-20.89624A20.91987,20.91987,0,0,1,846.30143,527.16553Zm0-33.79224a12.89612,12.89612,0,1,0,12.89648,12.896A12.91065,12.91065,0,0,0,846.30143,493.37329Z"/><path class="cls-1" d="M206.34,175.731a37.79236,37.79236,0,1,1,37.79248-37.79248A37.83525,37.83525,0,0,1,206.34,175.731Zm0-67.58472a29.79236,29.79236,0,1,0,29.79248,29.79224A29.826,29.826,0,0,0,206.34,108.14624Z"/><path class="cls-1" d="M273.48844,658.63184a37.79248,37.79248,0,1,1,37.79248-37.79248A37.83525,37.83525,0,0,1,273.48844,658.63184Zm0-67.585a29.79248,29.79248,0,1,0,29.79248,29.79248A29.82609,29.82609,0,0,0,273.48844,591.04688Z"/><path class="cls-1" d="M758.77409,616.38868a37.79248,37.79248,0,1,1,37.79248-37.79248A37.83525,37.83525,0,0,1,758.77409,616.38868Zm0-67.585a29.79248,29.79248,0,1,0,29.79248,29.79248A29.82609,29.82609,0,0,0,758.77409,548.80371Z"/><rect class="cls-3" x="405.58361" y="452" width="83.98287" height="83.98287" transform="translate(895.1501 987.98287) rotate(-180)"/><rect class="cls-3" x="76.57505" y="726" width="83.98287" height="83.98287" transform="translate(237.13298 1535.98287) rotate(-180)"/><rect class="cls-3" x="36.34742" y="413.35239" width="36.63048" height="36.63048" transform="translate(109.32531 863.33527) rotate(-180)"/><rect class="cls-3" x="160.55793" y="286.29902" width="36.63048" height="36.63048" transform="translate(357.74633 609.22852) rotate(-180)"/><rect class="cls-3" x="410.28076" y="72.97812" width="36.63048" height="36.63048" transform="translate(857.19199 182.58672) rotate(-180)"/><rect class="cls-3" x="582.17425" width="83.98287" height="83.98287" transform="translate(1248.33137 83.98287) rotate(-180)"/><rect class="cls-3" x="34.58361" y="236" width="83.98287" height="83.98287" transform="translate(153.1501 555.98287) rotate(-180)"/></svg>