<svg id="Layer_1" data-name="Layer 1" xmlns="http://www.w3.org/2000/svg" viewBox="0 0 867.1979 799.16951"><defs><style>.cls-1{fill:#24368a;}.cls-2{fill:#155bfb;}.cls-3{fill:#98cdff;}</style></defs><title>kumuluz-bg-shapes</title><rect class="cls-1" x="698.08676" y="673.71138" width="175.48322" height="7.99967" transform="translate(-161.12519 1102.09036) rotate(-64.91465)"/><rect class="cls-1" x="428.27796" y="104.3095" width="147.4553" height="8.00045" transform="translate(109.3139 439.2687) rotate(-52.29922)"/><rect class="cls-1" x="587.14617" y="23.88728" width="8.00014" height="105.14298" transform="translate(204.45691 530.07886) rotate(-56.92372)"/><rect class="cls-1" x="93.5236" y="372.89673" width="7.99967" height="161.83135" transform="translate(-60.24546 17.27432) rotate(-7.74202)"/><rect class="cls-1" x="203.04068" y="533.65925" width="8.00017" height="143.54117" transform="translate(-432.53411 586.58455) rotate(-69.43294)"/><rect class="cls-1" x="243.38875" y="552.91036" width="207.08237" height="8.00038" transform="translate(-293.22289 412.98658) rotate(-45.40799)"/><rect class="cls-1" x="79.00298" y="430.99527" width="278.45108" height="8.00023" transform="matrix(0.6024, -0.79819, 0.79819, 0.6024, -260.44326, 347.1432)"/><rect class="cls-1" x="81.48593" y="337.40188" width="207.37678" height="8.00001" transform="translate(-96.96868 74.49346) rotate(-18.11425)"/><rect class="cls-1" x="488.76697" y="446.1875" width="7.99975" height="181.62262" transform="translate(-231.80413 615.63585) rotate(-53.65356)"/><rect class="cls-1" x="371.92876" y="384.48939" width="235.68252" height="8.00004" transform="translate(-113.93719 550.77404) rotate(-53.46792)"/><rect class="cls-1" x="504.4168" y="148.4019" width="8.00039" height="163.64011" transform="translate(-31.56068 371.33927) rotate(-39.00808)"/><rect class="cls-1" x="373.95649" y="311.7714" width="8.00011" height="181.53514" transform="translate(-142.60871 218.41784) rotate(-27.32557)"/><rect class="cls-1" x="351.31006" y="289.80081" width="208.60693" height="8"/><rect class="cls-1" x="523.30223" y="222.14914" width="161.61282" height="7.99962" transform="translate(84.38988 608.22619) rotate(-56.84536)"/><rect class="cls-1" x="623.91694" y="270.36088" width="8.0001" height="220.71017" transform="translate(-101.22196 467.78369) rotate(-38.03864)"/><rect class="cls-1" x="680.5533" y="603.86198" width="8.00034" height="180.09715" transform="translate(-290.19016 693.49722) rotate(-45.36463)"/><rect class="cls-1" x="585.5364" y="522.62425" width="141.90963" height="8.00009" transform="translate(-146.13447 779.81567) rotate(-56.24398)"/><rect class="cls-1" x="632.42024" y="363.40453" width="221.69955" height="8.00008" transform="translate(93.56444 882.49592) rotate(-64.71121)"/><rect class="cls-1" x="733.8177" y="130.36638" width="8.00034" height="157.19284" transform="translate(50.93494 549.89167) rotate(-42.21018)"/><rect class="cls-1" x="253.1834" y="40.61033" width="7.99989" height="229.96593" transform="translate(-41.52059 122.00005) rotate(-24.7568)"/><polygon class="cls-2" points="516.636 326.631 559.917 251.667 603.198 326.631 516.636 326.631"/><polygon class="cls-2" points="555.075 500.214 543.873 458.408 585.679 469.61 555.075 500.214"/><polygon class="cls-2" points="102.822 240.169 91.62 198.363 133.426 209.564 102.822 240.169"/><polygon class="cls-2" points="21.49 166.643 10.288 124.837 52.094 136.039 21.49 166.643"/><polygon class="cls-2" points="413.636 191.631 456.917 116.667 500.198 191.631 413.636 191.631"/><polygon class="cls-2" points="503.814 74.964 547.094 0 590.375 74.964 503.814 74.964"/><polygon class="cls-2" points="230.956 655.631 274.237 580.667 317.518 655.631 230.956 655.631"/><polygon class="cls-2" points="652.636 492.619 695.917 417.655 739.198 492.619 652.636 492.619"/><polygon class="cls-2" points="780.636 620.619 823.917 545.655 867.198 620.619 780.636 620.619"/><path class="cls-1" d="M317.51758,331.59329a37.79236,37.79236,0,1,1,37.79248-37.79248A37.83515,37.83515,0,0,1,317.51758,331.59329Zm0-67.58472a29.79236,29.79236,0,1,0,29.79248,29.79224A29.82593,29.82593,0,0,0,317.51758,264.00857Z"/><path class="cls-1" d="M377.95654,253.03909a20.89624,20.89624,0,1,1,20.896-20.89624A20.92,20.92,0,0,1,377.95654,253.03909Zm0-33.79248a12.89624,12.89624,0,1,0,12.896,12.89624A12.9108,12.9108,0,0,0,377.95654,219.24661Z"/><path class="cls-1" d="M112.52344,87.76883a20.89624,20.89624,0,1,1,20.896-20.89624A20.92,20.92,0,0,1,112.52344,87.76883Zm0-33.79248a12.89624,12.89624,0,1,0,12.896,12.89624A12.9108,12.9108,0,0,0,112.52344,53.97635Z"/><path class="cls-1" d="M455.61377,651.53909a20.89612,20.89612,0,1,1,20.896-20.896A20.91992,20.91992,0,0,1,455.61377,651.53909Zm0-33.79224a12.89612,12.89612,0,1,0,12.896,12.89624A12.9108,12.9108,0,0,0,455.61377,617.74686Z"/><path class="cls-1" d="M300.62158,488.52737a20.89624,20.89624,0,1,1,20.896-20.89624A20.91987,20.91987,0,0,1,300.62158,488.52737Zm0-33.79248a12.89624,12.89624,0,1,0,12.896,12.89624A12.9107,12.9107,0,0,0,300.62158,454.73489Z"/><path class="cls-1" d="M20.89648,516.35232a20.89624,20.89624,0,1,1,20.896-20.89624A20.92,20.92,0,0,1,20.89648,516.35232Zm0-33.79248a12.89624,12.89624,0,1,0,12.896,12.89624A12.9108,12.9108,0,0,0,20.89648,482.55984Z"/><path class="cls-1" d="M660.85791,164.91751a37.79236,37.79236,0,1,1,37.79248-37.79224A37.8352,37.8352,0,0,1,660.85791,164.91751Zm0-67.58472a29.79236,29.79236,0,1,0,29.79248,29.79248A29.82609,29.82609,0,0,0,660.85791,97.33279Z"/><path class="cls-1" d="M593.70947,647.81839A37.79236,37.79236,0,1,1,631.502,610.02615,37.8352,37.8352,0,0,1,593.70947,647.81839Zm0-67.58472A29.79236,29.79236,0,1,0,623.502,610.02615,29.82609,29.82609,0,0,0,593.70947,580.23367Z"/><path class="cls-1" d="M108.42383,605.57522A37.79236,37.79236,0,1,1,146.21631,567.783,37.8352,37.8352,0,0,1,108.42383,605.57522Zm0-67.58472A29.79236,29.79236,0,1,0,138.21631,567.783,29.82609,29.82609,0,0,0,108.42383,537.99051Z"/><rect class="cls-3" x="377.63141" y="441.18663" width="83.98287" height="83.98287"/><rect class="cls-3" x="706.63998" y="715.18663" width="83.98287" height="83.98287"/><rect class="cls-3" x="794.22" y="402.53903" width="36.63048" height="36.63048"/><rect class="cls-3" x="670.0095" y="275.48565" width="36.63048" height="36.63048"/><rect class="cls-3" x="360.18108" y="31.66107" width="36.63048" height="36.63048"/><rect class="cls-3" x="167.04078" y="9.18663" width="83.98287" height="83.98287"/><rect class="cls-3" x="44.63141" y="331.64298" width="83.98287" height="83.98287"/><rect class="cls-3" x="748.63141" y="225.18663" width="83.98287" height="83.98287"/></svg>