<svg width="50" height="49" viewBox="0 0 50 49" fill="none" xmlns="http://www.w3.org/2000/svg">
<path fill-rule="evenodd" clip-rule="evenodd" d="M5.14286 14H30.8571C33.6975 14 36 16.2386 36 19V44C36 46.7614 33.6975 49 30.8571 49H5.14286C2.30254 49 0 46.7614 0 44V19C0 16.2386 2.30254 14 5.14286 14Z" fill="#367DBF"/>
<path fill-rule="evenodd" clip-rule="evenodd" d="M38.1429 41V15.0714C38.1429 13.7696 37.0555 12.7143 35.7143 12.7143H9C9 10.1107 11.1746 8 13.8571 8H38.1429C40.8254 8 43 10.1107 43 12.7143V36.2857C43 38.8893 40.8254 41 38.1429 41Z" fill="#5DC2EF"/>
<path fill-rule="evenodd" clip-rule="evenodd" d="M45 35V7.5C45 6.11929 43.8807 5 42.5 5H15C15 2.23858 17.2386 0 20 0H45C47.7614 0 50 2.23858 50 5V30C50 32.7614 47.7614 35 45 35Z" fill="#5DC2EF"/>
</svg>
