<svg width="48" height="46" viewBox="0 0 48 46" fill="none" xmlns="http://www.w3.org/2000/svg">
<path d="M0.044156 14.5853C-0.35073 11.6279 1.95329 9 4.94114 9H43.0589C46.0467 9 48.3507 11.6279 47.9558 14.5853L44.3329 41.7187C44.0057 44.1696 41.9121 46 39.436 46H8.56404C6.08794 46 3.99431 44.1696 3.66706 41.7187L0.044156 14.5853Z" fill="#367DBF"/>
<path fill-rule="evenodd" clip-rule="evenodd" d="M32.2 14V12.2807C32.2 8.21124 28.9765 4.91228 25 4.91228C21.0236 4.91228 17.8 8.21124 17.8 12.2807V14H13V12.2807C13 5.49826 18.3726 0 25 0C31.6274 0 37 5.49826 37 12.2807V14H32.2Z" fill="#5DC2EF"/>
</svg>
